  0
SECTION
  2
HEADER
  9
$ACADVER
  1
AC1015
  9
$ACADMAINTVER
 70
     6
  9
$DWGCODEPAGE
  3
ANSI_1252
  9
$INSBASE
 10
0.0
 20
0.0
 30
0.0
  9
$EXTMIN
 10
0.8284645053
 20
-1.75
 30
0.0
  9
$EXTMAX
 10
7.917
 20
1.75
 30
0.0
  9
$LIMMIN
 10
0.0
 20
0.0
  9
$LIMMAX
 10
12.0
 20
9.0
  9
$ORTHOMODE
 70
     0
  9
$REGENMODE
 70
     1
  9
$FILLMODE
 70
     1
  9
$QTEXTMODE
 70
     0
  9
$MIRRTEXT
 70
     1
  9
$LTSCALE
 40
1.0
  9
$ATTMODE
 70
     1
  9
$TEXTSIZE
 40
0.1377952756
  9
$TRACEWID
 40
0.05
  9
$TEXTSTYLE
  7
Standard
  9
$CLAYER
  8
0
  9
$CELTYPE
  6
ByLayer
  9
$CECOLOR
 62
   256
  9
$CELTSCALE
 40
1.0
  9
$DISPSILH
 70
     0
  9
$DIMSCALE
 40
1.0
  9
$DIMASZ
 40
0.13
  9
$DIMEXO
 40
0.0393700787
  9
$DIMDLI
 40
0.38
  9
$DIMRND
 40
0.0
  9
$DIMDLE
 40
0.0
  9
$DIMEXE
 40
0.0393700787
  9
$DIMTP
 40
0.0
  9
$DIMTM
 40
0.0
  9
$DIMTXT
 40
0.1377952756
  9
$DIMCEN
 40
0.09
  9
$DIMTSZ
 40
0.0
  9
$DIMTOL
 70
     0
  9
$DIMLIM
 70
     0
  9
$DIMTIH
 70
     1
  9
$DIMTOH
 70
     1
  9
$DIMSE1
 70
     0
  9
$DIMSE2
 70
     0
  9
$DIMTAD
 70
     1
  9
$DIMZIN
 70
     0
  9
$DIMBLK
  1

  9
$DIMASO
 70
     1
  9
$DIMSHO
 70
     1
  9
$DIMPOST
  1

  9
$DIMAPOST
  1

  9
$DIMALT
 70
     0
  9
$DIMALTD
 70
     2
  9
$DIMALTF
 40
25.4
  9
$DIMLFAC
 40
1.0
  9
$DIMTOFL
 70
     0
  9
$DIMTVP
 40
0.0
  9
$DIMTIX
 70
     0
  9
$DIMSOXD
 70
     0
  9
$DIMSAH
 70
     0
  9
$DIMBLK1
  1

  9
$DIMBLK2
  1

  9
$DIMSTYLE
  2
Standard
  9
$DIMCLRD
 70
     0
  9
$DIMCLRE
 70
     0
  9
$DIMCLRT
 70
     0
  9
$DIMTFAC
 40
1.0
  9
$DIMGAP
 40
0.06
  9
$DIMJUST
 70
     0
  9
$DIMSD1
 70
     0
  9
$DIMSD2
 70
     0
  9
$DIMTOLJ
 70
     1
  9
$DIMTZIN
 70
     0
  9
$DIMALTZ
 70
     0
  9
$DIMALTTZ
 70
     0
  9
$DIMUPT
 70
     0
  9
$DIMDEC
 70
     2
  9
$DIMTDEC
 70
     2
  9
$DIMALTU
 70
     2
  9
$DIMALTTD
 70
     2
  9
$DIMTXSTY
  7
Standard
  9
$DIMAUNIT
 70
     0
  9
$DIMADEC
 70
     2
  9
$DIMALTRND
 40
0.0
  9
$DIMAZIN
 70
     0
  9
$DIMDSEP
 70
    46
  9
$DIMATFIT
 70
     3
  9
$DIMFRAC
 70
     0
  9
$DIMLDRBLK
  1

  9
$DIMLUNIT
 70
     2
  9
$DIMLWD
 70
    -2
  9
$DIMLWE
 70
    -2
  9
$DIMTMOVE
 70
     0
  9
$LUNITS
 70
     2
  9
$LUPREC
 70
     2
  9
$SKETCHINC
 40
0.1
  9
$FILLETRAD
 40
0.5
  9
$AUNITS
 70
     0
  9
$AUPREC
 70
     2
  9
$MENU
  1
.
  9
$ELEVATION
 40
0.0
  9
$PELEVATION
 40
0.0
  9
$THICKNESS
 40
0.0
  9
$LIMCHECK
 70
     0
  9
$CHAMFERA
 40
0.0
  9
$CHAMFERB
 40
0.0
  9
$CHAMFERC
 40
0.0
  9
$CHAMFERD
 40
0.0
  9
$SKPOLY
 70
     0
  9
$TDCREATE
 40
2457902.899863437
  9
$TDUCREATE
 40
2457903.108196771
  9
$TDUPDATE
 40
2457902.899888808
  9
$TDUUPDATE
 40
2457903.108222141
  9
$TDINDWG
 40
0.0000000116
  9
$TDUSRTIMER
 40
0.0000000116
  9
$USRTIMER
 70
     1
  9
$ANGBASE
 50
0.0
  9
$ANGDIR
 70
     0
  9
$PDMODE
 70
     0
  9
$PDSIZE
 40
-1.0
  9
$PLINEWID
 40
0.0
  9
$SPLFRAME
 70
     0
  9
$SPLINETYPE
 70
     6
  9
$SPLINESEGS
 70
     8
  9
$HANDSEED
  5
126
  9
$SURFTAB1
 70
     6
  9
$SURFTAB2
 70
     6
  9
$SURFTYPE
 70
     6
  9
$SURFU
 70
     6
  9
$SURFV
 70
     6
  9
$UCSBASE
  2

  9
$UCSNAME
  2

  9
$UCSORG
 10
0.0
 20
0.0
 30
0.0
  9
$UCSXDIR
 10
1.0
 20
0.0
 30
0.0
  9
$UCSYDIR
 10
0.0
 20
1.0
 30
0.0
  9
$UCSORTHOREF
  2

  9
$UCSORTHOVIEW
 70
     0
  9
$UCSORGTOP
 10
0.0
 20
0.0
 30
0.0
  9
$UCSORGBOTTOM
 10
0.0
 20
0.0
 30
0.0
  9
$UCSORGLEFT
 10
0.0
 20
0.0
 30
0.0
  9
$UCSORGRIGHT
 10
0.0
 20
0.0
 30
0.0
  9
$UCSORGFRONT
 10
0.0
 20
0.0
 30
0.0
  9
$UCSORGBACK
 10
0.0
 20
0.0
 30
0.0
  9
$PUCSBASE
  2

  9
$PUCSNAME
  2

  9
$PUCSORG
 10
0.0
 20
0.0
 30
0.0
  9
$PUCSXDIR
 10
1.0
 20
0.0
 30
0.0
  9
$PUCSYDIR
 10
0.0
 20
1.0
 30
0.0
  9
$PUCSORTHOREF
  2

  9
$PUCSORTHOVIEW
 70
     0
  9
$PUCSORGTOP
 10
0.0
 20
0.0
 30
0.0
  9
$PUCSORGBOTTOM
 10
0.0
 20
0.0
 30
0.0
  9
$PUCSORGLEFT
 10
0.0
 20
0.0
 30
0.0
  9
$PUCSORGRIGHT
 10
0.0
 20
0.0
 30
0.0
  9
$PUCSORGFRONT
 10
0.0
 20
0.0
 30
0.0
  9
$PUCSORGBACK
 10
0.0
 20
0.0
 30
0.0
  9
$USERI1
 70
     0
  9
$USERI2
 70
     0
  9
$USERI3
 70
     0
  9
$USERI4
 70
     0
  9
$USERI5
 70
     0
  9
$USERR1
 40
0.0
  9
$USERR2
 40
0.0
  9
$USERR3
 40
0.0
  9
$USERR4
 40
0.0
  9
$USERR5
 40
0.0
  9
$WORLDVIEW
 70
     1
  9
$SHADEDGE
 70
     3
  9
$SHADEDIF
 70
    70
  9
$TILEMODE
 70
     1
  9
$MAXACTVP
 70
    64
  9
$PINSBASE
 10
0.0
 20
0.0
 30
0.0
  9
$PLIMCHECK
 70
     0
  9
$PEXTMIN
 10
1.0000000000E+20
 20
1.0000000000E+20
 30
1.0000000000E+20
  9
$PEXTMAX
 10
-1.0000000000E+20
 20
-1.0000000000E+20
 30
-1.0000000000E+20
  9
$PLIMMIN
 10
0.0
 20
0.0
  9
$PLIMMAX
 10
12.0
 20
9.0
  9
$UNITMODE
 70
     0
  9
$VISRETAIN
 70
     1
  9
$PLINEGEN
 70
     0
  9
$PSLTSCALE
 70
     1
  9
$TREEDEPTH
 70
  3020
  9
$CMLSTYLE
  2
Standard
  9
$CMLJUST
 70
     0
  9
$CMLSCALE
 40
1.0
  9
$PROXYGRAPHICS
 70
     1
  9
$MEASUREMENT
 70
     0
  9
$CELWEIGHT
370
    -1
  9
$ENDCAPS
280
     0
  9
$JOINSTYLE
280
     0
  9
$LWDISPLAY
290
     1
  9
$INSUNITS
 70
     1
  9
$HYPERLINKBASE
  1

  9
$STYLESHEET
  1

  9
$XEDIT
290
     1
  9
$CEPSNTYPE
380
     0
  9
$PSTYLEMODE
290
     1
  9
$FINGERPRINTGUID
  2
{745B1D49-ABBB-41FC-A636-FA218053558F}
  9
$VERSIONGUID
  2
{FAEB1C32-E019-11D5-929B-00C0DF256EC4}
  9
$EXTNAMES
290
     1
  9
$PSVPSCALE
 40
0.0
  9
$OLESTARTUP
290
     0
  0
ENDSEC
  0
SECTION
  2
CLASSES
  0
CLASS
  1
ACDBDICTIONARYWDFLT
  2
AcDbDictionaryWithDefault
  3
ObjectDBX Classes
 90
        0
280
     0
281
     0
  0
CLASS
  1
VISUALSTYLE
  2
AcDbVisualStyle
  3
ObjectDBX Classes
 90
     4095
280
     0
281
     0
  0
CLASS
  1
MATERIAL
  2
AcDbMaterial
  3
ObjectDBX Classes
 90
     1153
280
     0
281
     0
  0
CLASS
  1
SCALE
  2
AcDbScale
  3
ObjectDBX Classes
 90
     1153
280
     0
281
     0
  0
CLASS
  1
TABLESTYLE
  2
AcDbTableStyle
  3
ObjectDBX Classes
 90
     4095
280
     0
281
     0
  0
CLASS
  1
MLEADERSTYLE
  2
AcDbMLeaderStyle
  3
ACDB_MLEADERSTYLE_CLASS
 90
     4095
280
     0
281
     0
  0
CLASS
  1
SUN
  2
AcDbSun
  3
SCENEOE
 90
     1153
280
     0
281
     0
  0
CLASS
  1
ACDBPLACEHOLDER
  2
AcDbPlaceHolder
  3
ObjectDBX Classes
 90
        0
280
     0
281
     0
  0
CLASS
  1
LAYOUT
  2
AcDbLayout
  3
ObjectDBX Classes
 90
        0
280
     0
281
     0
  0
ENDSEC
  0
SECTION
  2
TABLES
  0
TABLE
  2
VPORT
  5
8
330
0
100
AcDbSymbolTable
 70
     1
  0
VPORT
  5
29
330
8
100
AcDbSymbolTableRecord
100
AcDbViewportTableRecord
  2
*Active
 70
     0
 10
0.0
 20
0.0
 11
1.0
 21
1.0
 12
4.3727322527
 22
0.0
 13
0.0
 23
0.0
 14
0.5
 24
0.5
 15
0.5
 25
0.5
 16
0.0
 26
0.0
 36
1.0
 17
0.0
 27
0.0
 37
0.0
 40
3.57
 41
2.0252958556
 42
50.0
 43
0.0
 44
0.0
 50
0.0
 51
0.0
 71
     0
 72
   100
 73
     1
 74
     3
 75
     0
 76
     0
 77
     0
 78
     0
281
     0
 65
     1
110
0.0
120
0.0
130
0.0
111
1.0
121
0.0
131
0.0
112
0.0
122
1.0
132
0.0
 79
     0
146
0.0
  0
ENDTAB
  0
TABLE
  2
LTYPE
  5
5
330
0
100
AcDbSymbolTable
 70
     6
  0
LTYPE
  5
14
330
5
100
AcDbSymbolTableRecord
100
AcDbLinetypeTableRecord
  2
ByBlock
 70
     0
  3

 72
    65
 73
     0
 40
0.0
  0
LTYPE
  5
15
330
5
100
AcDbSymbolTableRecord
100
AcDbLinetypeTableRecord
  2
ByLayer
 70
     0
  3

 72
    65
 73
     0
 40
0.0
  0
LTYPE
  5
16
330
5
100
AcDbSymbolTableRecord
100
AcDbLinetypeTableRecord
  2
Continuous
 70
     0
  3
Solid line
 72
    65
 73
     0
 40
0.0
  0
LTYPE
  5
6E
330
5
100
AcDbSymbolTableRecord
100
AcDbLinetypeTableRecord
  2
HIDDEN
 70
     0
  3
Hidden __ __ __ __ __ __ __ __ __ __ __ __ __ __
 72
    65
 73
     2
 40
0.075
 49
0.05
 74
     0
 49
-0.025
 74
     0
  0
LTYPE
  5
6F
330
5
100
AcDbSymbolTableRecord
100
AcDbLinetypeTableRecord
  2
PHANTOM
 70
     0
  3
Phantom ______  __  __  ______  __  __  ______
 72
    65
 73
     6
 40
0.5
 49
0.25
 74
     0
 49
-0.05
 74
     0
 49
0.05
 74
     0
 49
-0.05
 74
     0
 49
0.05
 74
     0
 49
-0.05
 74
     0
  0
LTYPE
  5
70
330
5
100
AcDbSymbolTableRecord
100
AcDbLinetypeTableRecord
  2
CENTER
 70
     0
  3
Center ____ _ ____ _ ____ _ ____ _ ____ _ ____
 72
    65
 73
     4
 40
0.4
 49
0.25
 74
     0
 49
-0.05
 74
     0
 49
0.05
 74
     0
 49
-0.05
 74
     0
  0
LTYPE
  5
71
330
5
100
AcDbSymbolTableRecord
100
AcDbLinetypeTableRecord
  2
CENTERX2
 70
     0
  3
Center (2x) ________  __  ________  __  _____
 72
    65
 73
     4
 40
0.8
 49
0.5
 74
     0
 49
-0.1
 74
     0
 49
0.1
 74
     0
 49
-0.1
 74
     0
  0
LTYPE
  5
72
330
5
100
AcDbSymbolTableRecord
100
AcDbLinetypeTableRecord
  2
DOT2
 70
     0
  3
Dot (.5x) ........................................
 72
    65
 73
     2
 40
0.025
 49
0.0
 74
     0
 49
-0.025
 74
     0
  0
ENDTAB
  0
TABLE
  2
LAYER
  5
2
330
0
100
AcDbSymbolTable
 70
     1
  0
LAYER
  5
10
330
2
100
AcDbSymbolTableRecord
100
AcDbLayerTableRecord
  2
0
 70
     0
 62
     7
  6
Continuous
370
    -3
390
F
  0
ENDTAB
  0
TABLE
  2
STYLE
  5
3
330
0
100
AcDbSymbolTable
 70
     2
  0
STYLE
  5
11
330
3
100
AcDbSymbolTableRecord
100
AcDbTextStyleTableRecord
  2
Standard
 70
     0
 40
0.0
 41
1.0
 50
0.0
 71
     0
 42
0.1377952756
  3
txt
  4

  0
STYLE
  5
123
330
3
100
AcDbSymbolTableRecord
100
AcDbTextStyleTableRecord
  2
SLDTEXTSTYLE0
 70
     0
 40
0.0
 41
0.7
 50
0.0
 71
     0
 42
0.1377952756
  3
TXT
  4

  0
ENDTAB
  0
TABLE
  2
VIEW
  5
6
330
0
100
AcDbSymbolTable
 70
     0
  0
ENDTAB
  0
TABLE
  2
UCS
  5
7
330
0
100
AcDbSymbolTable
 70
     0
  0
ENDTAB
  0
TABLE
  2
APPID
  5
9
330
0
100
AcDbSymbolTable
 70
     1
  0
APPID
  5
12
330
9
100
AcDbSymbolTableRecord
100
AcDbRegAppTableRecord
  2
ACAD
 70
     0
  0
ENDTAB
  0
TABLE
  2
DIMSTYLE
  5
A
330
0
100
AcDbSymbolTable
 70
     1
100
AcDbDimStyleTable
  0
DIMSTYLE
105
27
330
A
100
AcDbSymbolTableRecord
100
AcDbDimStyleTableRecord
  2
Standard
 70
     0
178
     0
340
11
  0
ENDTAB
  0
TABLE
  2
BLOCK_RECORD
  5
1
330
0
100
AcDbSymbolTable
 70
     1
  0
BLOCK_RECORD
  5
1F
330
1
100
AcDbSymbolTableRecord
100
AcDbBlockTableRecord
  2
*Model_Space
340
22
  0
BLOCK_RECORD
  5
1B
330
1
100
AcDbSymbolTableRecord
100
AcDbBlockTableRecord
  2
*Paper_Space
340
1E
  0
BLOCK_RECORD
  5
23
330
1
100
AcDbSymbolTableRecord
100
AcDbBlockTableRecord
  2
*Paper_Space0
340
26
  0
ENDTAB
  0
ENDSEC
  0
SECTION
  2
BLOCKS
  0
BLOCK
  5
20
330
1F
100
AcDbEntity
  8
0
100
AcDbBlockBegin
  2
*Model_Space
 70
     0
 10
0.0
 20
0.0
 30
0.0
  3
*Model_Space
  1

  0
ENDBLK
  5
21
330
1F
100
AcDbEntity
  8
0
100
AcDbBlockEnd
  0
BLOCK
  5
1C
330
1B
100
AcDbEntity
 67
     1
  8
0
100
AcDbBlockBegin
  2
*Paper_Space
 70
     0
 10
0.0
 20
0.0
 30
0.0
  3
*Paper_Space
  1

  0
ENDBLK
  5
1D
330
1B
100
AcDbEntity
 67
     1
  8
0
100
AcDbBlockEnd
  0
BLOCK
  5
24
330
23
100
AcDbEntity
  8
0
100
AcDbBlockBegin
  2
*Paper_Space0
 70
     0
 10
0.0
 20
0.0
 30
0.0
  3
*Paper_Space0
  1

  0
ENDBLK
  5
25
330
23
100
AcDbEntity
  8
0
100
AcDbBlockEnd
  0
ENDSEC
  0
SECTION
  2
ENTITIES
  0
LWPOLYLINE
  5
73
330
1F
100
AcDbEntity
  8
0
  6
Continuous
 62
     7
370
    25
100
AcDbPolyline
 90
      109
 70
   128
 43
0.0
 10
6.9674821654
 20
1.6
 10
6.9631213032
 20
1.5972930532
 10
6.9587751968
 20
1.5891813724
 10
6.9544585521
 20
1.5756924048
 10
6.9501859751
 20
1.5568717929
 10
6.9459719229
 20
1.5327832197
 10
6.9418306546
 20
1.5035081933
 10
6.9377761829
 20
1.469145771
 10
6.9338222269
 20
1.4298122245
 10
6.9299821654
 20
1.3856406461
 10
6.926268992
 20
1.3367804983
 10
6.922695271
 20
1.2833971084
 10
6.9192730947
 20
1.225671109
 10
6.9160140425
 20
1.1637978265
 10
6.9129291423
 20
1.0979866206
 10
6.9100288321
 20
1.0284601755
 10
6.9073229259
 20
0.9554537467
 10
6.9048205795
 20
0.8792143649
 10
6.9025302601
 20
0.8
 10
6.9004597174
 20
0.7180786883
 10
6.8986159574
 20
0.6337276257
 10
6.8970052188
 20
0.5472322293
 10
6.895632952
 20
0.4588851723
 10
6.8945038001
 20
0.3689853932
 10
6.8936215839
 20
0.2778370843
 10
6.8929892885
 20
0.1857486626
 10
6.8926090535
 20
0.0930317263
 10
6.8924821654
 20
0.0
 10
6.8926090535
 20
-0.0930317263
 10
6.8929892885
 20
-0.1857486626
 10
6.8936215839
 20
-0.2778370843
 10
6.8945038001
 20
-0.3689853932
 10
6.895632952
 20
-0.4588851723
 10
6.8970052188
 20
-0.5472322293
 10
6.8986159574
 20
-0.6337276257
 10
6.9004597174
 20
-0.7180786883
 10
6.9025302601
 20
-0.8
 10
6.9048205795
 20
-0.8792143649
 10
6.9073229259
 20
-0.9554537467
 10
6.9100288321
 20
-1.0284601755
 10
6.9129291423
 20
-1.0979866206
 10
6.9160140425
 20
-1.1637978265
 10
6.9192730947
 20
-1.225671109
 10
6.922695271
 20
-1.2833971084
 10
6.926268992
 20
-1.3367804983
 10
6.9299821654
 20
-1.3856406461
 10
6.9338222269
 20
-1.4298122245
 10
6.9377761829
 20
-1.469145771
 10
6.9418306546
 20
-1.5035081933
 10
6.9459719229
 20
-1.5327832197
 10
6.9501859751
 20
-1.5568717929
 10
6.9544585521
 20
-1.5756924048
 10
6.9587751968
 20
-1.5891813724
 10
6.9631213032
 20
-1.5972930532
 10
6.9674821654
 20
-1.6
 10
6.9718430275
 20
-1.5972930532
 10
6.9761891339
 20
-1.5891813724
 10
6.9805057787
 20
-1.5756924048
 10
6.9847783557
 20
-1.5568717929
 10
6.9889924078
 20
-1.5327832197
 10
6.9931336761
 20
-1.5035081933
 10
6.9971881478
 20
-1.469145771
 10
7.0011421039
 20
-1.4298122245
 10
7.0049821654
 20
-1.3856406461
 10
7.0086953387
 20
-1.3367804983
 10
7.0122690598
 20
-1.2833971084
 10
7.0156912361
 20
-1.225671109
 10
7.0189502882
 20
-1.1637978265
 10
7.0220351885
 20
-1.0979866206
 10
7.0249354986
 20
-1.0284601755
 10
7.0276414048
 20
-0.9554537467
 10
7.0301437512
 20
-0.8792143649
 10
7.0324340707
 20
-0.8
 10
7.0345046134
 20
-0.7180786883
 10
7.0363483734
 20
-0.6337276257
 10
7.0379591119
 20
-0.5472322293
 10
7.0393313788
 20
-0.4588851723
 10
7.0404605307
 20
-0.3689853932
 10
7.0413427469
 20
-0.2778370843
 10
7.0419750422
 20
-0.1857486626
 10
7.0423552772
 20
-0.0930317263
 10
7.0424821654
 20
0.0
 10
7.0423552772
 20
0.0930317263
 10
7.0419750422
 20
0.1857486626
 10
7.0413427469
 20
0.2778370843
 10
7.0404605307
 20
0.3689853932
 10
7.0393313788
 20
0.4588851723
 10
7.0379591119
 20
0.5472322293
 10
7.0363483734
 20
0.6337276257
 10
7.0345046134
 20
0.7180786883
 10
7.0324340707
 20
0.8
 10
7.0301437512
 20
0.8792143649
 10
7.0276414048
 20
0.9554537467
 10
7.0249354986
 20
1.0284601755
 10
7.0220351885
 20
1.0979866206
 10
7.0189502882
 20
1.1637978265
 10
7.0156912361
 20
1.225671109
 10
7.0122690598
 20
1.2833971084
 10
7.0086953387
 20
1.3367804983
 10
7.0049821654
 20
1.3856406461
 10
7.0011421039
 20
1.4298122245
 10
6.9971881478
 20
1.469145771
 10
6.9931336761
 20
1.5035081933
 10
6.9889924078
 20
1.5327832197
 10
6.9847783557
 20
1.5568717929
 10
6.9805057787
 20
1.5756924048
 10
6.9761891339
 20
1.5891813724
 10
6.9718430275
 20
1.5972930532
 10
6.9674821654
 20
1.6
  0
LWPOLYLINE
  5
74
330
1F
100
AcDbEntity
  8
0
  6
Continuous
 62
     7
370
    25
100
AcDbPolyline
 90
      109
 70
   128
 43
0.0
 10
6.6674821654
 20
1.6
 10
6.6631213032
 20
1.5972930532
 10
6.6587751968
 20
1.5891813724
 10
6.6544585521
 20
1.5756924048
 10
6.6501859751
 20
1.5568717929
 10
6.6459719229
 20
1.5327832197
 10
6.6418306546
 20
1.5035081933
 10
6.6377761829
 20
1.469145771
 10
6.6338222269
 20
1.4298122245
 10
6.6299821654
 20
1.3856406461
 10
6.626268992
 20
1.3367804983
 10
6.622695271
 20
1.2833971084
 10
6.6192730947
 20
1.225671109
 10
6.6160140425
 20
1.1637978265
 10
6.6129291423
 20
1.0979866206
 10
6.6100288321
 20
1.0284601755
 10
6.6073229259
 20
0.9554537467
 10
6.6048205795
 20
0.8792143649
 10
6.6025302601
 20
0.8
 10
6.6004597174
 20
0.7180786883
 10
6.5986159574
 20
0.6337276257
 10
6.5970052188
 20
0.5472322293
 10
6.595632952
 20
0.4588851723
 10
6.5945038001
 20
0.3689853932
 10
6.5936215839
 20
0.2778370843
 10
6.5929892885
 20
0.1857486626
 10
6.5926090535
 20
0.0930317263
 10
6.5924821654
 20
0.0
 10
6.5926090535
 20
-0.0930317263
 10
6.5929892885
 20
-0.1857486626
 10
6.5936215839
 20
-0.2778370843
 10
6.5945038001
 20
-0.3689853932
 10
6.595632952
 20
-0.4588851723
 10
6.5970052188
 20
-0.5472322293
 10
6.5986159574
 20
-0.6337276257
 10
6.6004597174
 20
-0.7180786883
 10
6.6025302601
 20
-0.8
 10
6.6048205795
 20
-0.8792143649
 10
6.6073229259
 20
-0.9554537467
 10
6.6100288321
 20
-1.0284601755
 10
6.6129291423
 20
-1.0979866206
 10
6.6160140425
 20
-1.1637978265
 10
6.6192730947
 20
-1.225671109
 10
6.622695271
 20
-1.2833971084
 10
6.626268992
 20
-1.3367804983
 10
6.6299821654
 20
-1.3856406461
 10
6.6338222269
 20
-1.4298122245
 10
6.6377761829
 20
-1.469145771
 10
6.6418306546
 20
-1.5035081933
 10
6.6459719229
 20
-1.5327832197
 10
6.6501859751
 20
-1.5568717929
 10
6.6544585521
 20
-1.5756924048
 10
6.6587751968
 20
-1.5891813724
 10
6.6631213032
 20
-1.5972930532
 10
6.6674821654
 20
-1.6
 10
6.6718430275
 20
-1.5972930532
 10
6.6761891339
 20
-1.5891813724
 10
6.6805057787
 20
-1.5756924048
 10
6.6847783557
 20
-1.5568717929
 10
6.6889924078
 20
-1.5327832197
 10
6.6931336761
 20
-1.5035081933
 10
6.6971881478
 20
-1.469145771
 10
6.7011421039
 20
-1.4298122245
 10
6.7049821654
 20
-1.3856406461
 10
6.7086953387
 20
-1.3367804983
 10
6.7122690598
 20
-1.2833971084
 10
6.7156912361
 20
-1.225671109
 10
6.7189502882
 20
-1.1637978265
 10
6.7220351885
 20
-1.0979866206
 10
6.7249354986
 20
-1.0284601755
 10
6.7276414048
 20
-0.9554537467
 10
6.7301437512
 20
-0.8792143649
 10
6.7324340707
 20
-0.8
 10
6.7345046134
 20
-0.7180786883
 10
6.7363483734
 20
-0.6337276257
 10
6.7379591119
 20
-0.5472322293
 10
6.7393313788
 20
-0.4588851723
 10
6.7404605307
 20
-0.3689853932
 10
6.7413427469
 20
-0.2778370843
 10
6.7419750422
 20
-0.1857486626
 10
6.7423552772
 20
-0.0930317263
 10
6.7424821654
 20
0.0
 10
6.7423552772
 20
0.0930317263
 10
6.7419750422
 20
0.1857486626
 10
6.7413427469
 20
0.2778370843
 10
6.7404605307
 20
0.3689853932
 10
6.7393313788
 20
0.4588851723
 10
6.7379591119
 20
0.5472322293
 10
6.7363483734
 20
0.6337276257
 10
6.7345046134
 20
0.7180786883
 10
6.7324340707
 20
0.8
 10
6.7301437512
 20
0.8792143649
 10
6.7276414048
 20
0.9554537467
 10
6.7249354986
 20
1.0284601755
 10
6.7220351885
 20
1.0979866206
 10
6.7189502882
 20
1.1637978265
 10
6.7156912361
 20
1.225671109
 10
6.7122690598
 20
1.2833971084
 10
6.7086953387
 20
1.3367804983
 10
6.7049821654
 20
1.3856406461
 10
6.7011421039
 20
1.4298122245
 10
6.6971881478
 20
1.469145771
 10
6.6931336761
 20
1.5035081933
 10
6.6889924078
 20
1.5327832197
 10
6.6847783557
 20
1.5568717929
 10
6.6805057787
 20
1.5756924048
 10
6.6761891339
 20
1.5891813724
 10
6.6718430275
 20
1.5972930532
 10
6.6674821654
 20
1.6
  0
LWPOLYLINE
  5
75
330
1F
100
AcDbEntity
  8
0
  6
Continuous
 62
     7
370
    25
100
AcDbPolyline
 90
      109
 70
   128
 43
0.0
 10
6.3674821654
 20
1.6
 10
6.3631213032
 20
1.5972930532
 10
6.3587751968
 20
1.5891813724
 10
6.3544585521
 20
1.5756924048
 10
6.3501859751
 20
1.5568717929
 10
6.3459719229
 20
1.5327832197
 10
6.3418306546
 20
1.5035081933
 10
6.3377761829
 20
1.469145771
 10
6.3338222269
 20
1.4298122245
 10
6.3299821654
 20
1.3856406461
 10
6.326268992
 20
1.3367804983
 10
6.322695271
 20
1.2833971084
 10
6.3192730947
 20
1.225671109
 10
6.3160140425
 20
1.1637978265
 10
6.3129291423
 20
1.0979866206
 10
6.3100288321
 20
1.0284601755
 10
6.3073229259
 20
0.9554537467
 10
6.3048205795
 20
0.8792143649
 10
6.3025302601
 20
0.8
 10
6.3004597174
 20
0.7180786883
 10
6.2986159574
 20
0.6337276257
 10
6.2970052188
 20
0.5472322293
 10
6.295632952
 20
0.4588851723
 10
6.2945038001
 20
0.3689853932
 10
6.2936215839
 20
0.2778370843
 10
6.2929892885
 20
0.1857486626
 10
6.2926090535
 20
0.0930317263
 10
6.2924821654
 20
0.0
 10
6.2926090535
 20
-0.0930317263
 10
6.2929892885
 20
-0.1857486626
 10
6.2936215839
 20
-0.2778370843
 10
6.2945038001
 20
-0.3689853932
 10
6.295632952
 20
-0.4588851723
 10
6.2970052188
 20
-0.5472322293
 10
6.2986159574
 20
-0.6337276257
 10
6.3004597174
 20
-0.7180786883
 10
6.3025302601
 20
-0.8
 10
6.3048205795
 20
-0.8792143649
 10
6.3073229259
 20
-0.9554537467
 10
6.3100288321
 20
-1.0284601755
 10
6.3129291423
 20
-1.0979866206
 10
6.3160140425
 20
-1.1637978265
 10
6.3192730947
 20
-1.225671109
 10
6.322695271
 20
-1.2833971084
 10
6.326268992
 20
-1.3367804983
 10
6.3299821654
 20
-1.3856406461
 10
6.3338222269
 20
-1.4298122245
 10
6.3377761829
 20
-1.469145771
 10
6.3418306546
 20
-1.5035081933
 10
6.3459719229
 20
-1.5327832197
 10
6.3501859751
 20
-1.5568717929
 10
6.3544585521
 20
-1.5756924048
 10
6.3587751968
 20
-1.5891813724
 10
6.3631213032
 20
-1.5972930532
 10
6.3674821654
 20
-1.6
 10
6.3718430275
 20
-1.5972930532
 10
6.3761891339
 20
-1.5891813724
 10
6.3805057787
 20
-1.5756924048
 10
6.3847783557
 20
-1.5568717929
 10
6.3889924078
 20
-1.5327832197
 10
6.3931336761
 20
-1.5035081933
 10
6.3971881478
 20
-1.469145771
 10
6.4011421039
 20
-1.4298122245
 10
6.4049821654
 20
-1.3856406461
 10
6.4086953387
 20
-1.3367804983
 10
6.4122690598
 20
-1.2833971084
 10
6.4156912361
 20
-1.225671109
 10
6.4189502882
 20
-1.1637978265
 10
6.4220351885
 20
-1.0979866206
 10
6.4249354986
 20
-1.0284601755
 10
6.4276414048
 20
-0.9554537467
 10
6.4301437512
 20
-0.8792143649
 10
6.4324340707
 20
-0.8
 10
6.4345046134
 20
-0.7180786883
 10
6.4363483734
 20
-0.6337276257
 10
6.4379591119
 20
-0.5472322293
 10
6.4393313788
 20
-0.4588851723
 10
6.4404605307
 20
-0.3689853932
 10
6.4413427469
 20
-0.2778370843
 10
6.4419750422
 20
-0.1857486626
 10
6.4423552772
 20
-0.0930317263
 10
6.4424821654
 20
0.0
 10
6.4423552772
 20
0.0930317263
 10
6.4419750422
 20
0.1857486626
 10
6.4413427469
 20
0.2778370843
 10
6.4404605307
 20
0.3689853932
 10
6.4393313788
 20
0.4588851723
 10
6.4379591119
 20
0.5472322293
 10
6.4363483734
 20
0.6337276257
 10
6.4345046134
 20
0.7180786883
 10
6.4324340707
 20
0.8
 10
6.4301437512
 20
0.8792143649
 10
6.4276414048
 20
0.9554537467
 10
6.4249354986
 20
1.0284601755
 10
6.4220351885
 20
1.0979866206
 10
6.4189502882
 20
1.1637978265
 10
6.4156912361
 20
1.225671109
 10
6.4122690598
 20
1.2833971084
 10
6.4086953387
 20
1.3367804983
 10
6.4049821654
 20
1.3856406461
 10
6.4011421039
 20
1.4298122245
 10
6.3971881478
 20
1.469145771
 10
6.3931336761
 20
1.5035081933
 10
6.3889924078
 20
1.5327832197
 10
6.3847783557
 20
1.5568717929
 10
6.3805057787
 20
1.5756924048
 10
6.3761891339
 20
1.5891813724
 10
6.3718430275
 20
1.5972930532
 10
6.3674821654
 20
1.6
  0
LWPOLYLINE
  5
76
330
1F
100
AcDbEntity
  8
0
  6
Continuous
 62
     7
370
    25
100
AcDbPolyline
 90
      109
 70
   128
 43
0.0
 10
6.0674821654
 20
1.6
 10
6.0631213032
 20
1.5972930532
 10
6.0587751968
 20
1.5891813724
 10
6.0544585521
 20
1.5756924048
 10
6.0501859751
 20
1.5568717929
 10
6.0459719229
 20
1.5327832197
 10
6.0418306546
 20
1.5035081933
 10
6.0377761829
 20
1.469145771
 10
6.0338222269
 20
1.4298122245
 10
6.0299821654
 20
1.3856406461
 10
6.026268992
 20
1.3367804983
 10
6.022695271
 20
1.2833971084
 10
6.0192730947
 20
1.225671109
 10
6.0160140425
 20
1.1637978265
 10
6.0129291423
 20
1.0979866206
 10
6.0100288321
 20
1.0284601755
 10
6.0073229259
 20
0.9554537467
 10
6.0048205795
 20
0.8792143649
 10
6.0025302601
 20
0.8
 10
6.0004597174
 20
0.7180786883
 10
5.9986159574
 20
0.6337276257
 10
5.9970052188
 20
0.5472322293
 10
5.995632952
 20
0.4588851723
 10
5.9945038001
 20
0.3689853932
 10
5.9936215839
 20
0.2778370843
 10
5.9929892885
 20
0.1857486626
 10
5.9926090535
 20
0.0930317263
 10
5.9924821654
 20
0.0
 10
5.9926090535
 20
-0.0930317263
 10
5.9929892885
 20
-0.1857486626
 10
5.9936215839
 20
-0.2778370843
 10
5.9945038001
 20
-0.3689853932
 10
5.995632952
 20
-0.4588851723
 10
5.9970052188
 20
-0.5472322293
 10
5.9986159574
 20
-0.6337276257
 10
6.0004597174
 20
-0.7180786883
 10
6.0025302601
 20
-0.8
 10
6.0048205795
 20
-0.8792143649
 10
6.0073229259
 20
-0.9554537467
 10
6.0100288321
 20
-1.0284601755
 10
6.0129291423
 20
-1.0979866206
 10
6.0160140425
 20
-1.1637978265
 10
6.0192730947
 20
-1.225671109
 10
6.022695271
 20
-1.2833971084
 10
6.026268992
 20
-1.3367804983
 10
6.0299821654
 20
-1.3856406461
 10
6.0338222269
 20
-1.4298122245
 10
6.0377761829
 20
-1.469145771
 10
6.0418306546
 20
-1.5035081933
 10
6.0459719229
 20
-1.5327832197
 10
6.0501859751
 20
-1.5568717929
 10
6.0544585521
 20
-1.5756924048
 10
6.0587751968
 20
-1.5891813724
 10
6.0631213032
 20
-1.5972930532
 10
6.0674821654
 20
-1.6
 10
6.0718430275
 20
-1.5972930532
 10
6.0761891339
 20
-1.5891813724
 10
6.0805057787
 20
-1.5756924048
 10
6.0847783557
 20
-1.5568717929
 10
6.0889924078
 20
-1.5327832197
 10
6.0931336761
 20
-1.5035081933
 10
6.0971881478
 20
-1.469145771
 10
6.1011421039
 20
-1.4298122245
 10
6.1049821654
 20
-1.3856406461
 10
6.1086953387
 20
-1.3367804983
 10
6.1122690598
 20
-1.2833971084
 10
6.1156912361
 20
-1.225671109
 10
6.1189502882
 20
-1.1637978265
 10
6.1220351885
 20
-1.0979866206
 10
6.1249354986
 20
-1.0284601755
 10
6.1276414048
 20
-0.9554537467
 10
6.1301437512
 20
-0.8792143649
 10
6.1324340707
 20
-0.8
 10
6.1345046134
 20
-0.7180786883
 10
6.1363483734
 20
-0.6337276257
 10
6.1379591119
 20
-0.5472322293
 10
6.1393313788
 20
-0.4588851723
 10
6.1404605307
 20
-0.3689853932
 10
6.1413427469
 20
-0.2778370843
 10
6.1419750422
 20
-0.1857486626
 10
6.1423552772
 20
-0.0930317263
 10
6.1424821654
 20
0.0
 10
6.1423552772
 20
0.0930317263
 10
6.1419750422
 20
0.1857486626
 10
6.1413427469
 20
0.2778370843
 10
6.1404605307
 20
0.3689853932
 10
6.1393313788
 20
0.4588851723
 10
6.1379591119
 20
0.5472322293
 10
6.1363483734
 20
0.6337276257
 10
6.1345046134
 20
0.7180786883
 10
6.1324340707
 20
0.8
 10
6.1301437512
 20
0.8792143649
 10
6.1276414048
 20
0.9554537467
 10
6.1249354986
 20
1.0284601755
 10
6.1220351885
 20
1.0979866206
 10
6.1189502882
 20
1.1637978265
 10
6.1156912361
 20
1.225671109
 10
6.1122690598
 20
1.2833971084
 10
6.1086953387
 20
1.3367804983
 10
6.1049821654
 20
1.3856406461
 10
6.1011421039
 20
1.4298122245
 10
6.0971881478
 20
1.469145771
 10
6.0931336761
 20
1.5035081933
 10
6.0889924078
 20
1.5327832197
 10
6.0847783557
 20
1.5568717929
 10
6.0805057787
 20
1.5756924048
 10
6.0761891339
 20
1.5891813724
 10
6.0718430275
 20
1.5972930532
 10
6.0674821654
 20
1.6
  0
LWPOLYLINE
  5
77
330
1F
100
AcDbEntity
  8
0
  6
Continuous
 62
     7
370
    25
100
AcDbPolyline
 90
      109
 70
   128
 43
0.0
 10
5.7674821654
 20
1.6
 10
5.7631213032
 20
1.5972930532
 10
5.7587751968
 20
1.5891813724
 10
5.7544585521
 20
1.5756924048
 10
5.7501859751
 20
1.5568717929
 10
5.7459719229
 20
1.5327832197
 10
5.7418306546
 20
1.5035081933
 10
5.7377761829
 20
1.469145771
 10
5.7338222269
 20
1.4298122245
 10
5.7299821654
 20
1.3856406461
 10
5.726268992
 20
1.3367804983
 10
5.722695271
 20
1.2833971084
 10
5.7192730947
 20
1.225671109
 10
5.7160140425
 20
1.1637978265
 10
5.7129291423
 20
1.0979866206
 10
5.7100288321
 20
1.0284601755
 10
5.7073229259
 20
0.9554537467
 10
5.7048205795
 20
0.8792143649
 10
5.7025302601
 20
0.8
 10
5.7004597174
 20
0.7180786883
 10
5.6986159574
 20
0.6337276257
 10
5.6970052188
 20
0.5472322293
 10
5.695632952
 20
0.4588851723
 10
5.6945038001
 20
0.3689853932
 10
5.6936215839
 20
0.2778370843
 10
5.6929892885
 20
0.1857486626
 10
5.6926090535
 20
0.0930317263
 10
5.6924821654
 20
0.0
 10
5.6926090535
 20
-0.0930317263
 10
5.6929892885
 20
-0.1857486626
 10
5.6936215839
 20
-0.2778370843
 10
5.6945038001
 20
-0.3689853932
 10
5.695632952
 20
-0.4588851723
 10
5.6970052188
 20
-0.5472322293
 10
5.6986159574
 20
-0.6337276257
 10
5.7004597174
 20
-0.7180786883
 10
5.7025302601
 20
-0.8
 10
5.7048205795
 20
-0.8792143649
 10
5.7073229259
 20
-0.9554537467
 10
5.7100288321
 20
-1.0284601755
 10
5.7129291423
 20
-1.0979866206
 10
5.7160140425
 20
-1.1637978265
 10
5.7192730947
 20
-1.225671109
 10
5.722695271
 20
-1.2833971084
 10
5.726268992
 20
-1.3367804983
 10
5.7299821654
 20
-1.3856406461
 10
5.7338222269
 20
-1.4298122245
 10
5.7377761829
 20
-1.469145771
 10
5.7418306546
 20
-1.5035081933
 10
5.7459719229
 20
-1.5327832197
 10
5.7501859751
 20
-1.5568717929
 10
5.7544585521
 20
-1.5756924048
 10
5.7587751968
 20
-1.5891813724
 10
5.7631213032
 20
-1.5972930532
 10
5.7674821654
 20
-1.6
 10
5.7718430275
 20
-1.5972930532
 10
5.7761891339
 20
-1.5891813724
 10
5.7805057787
 20
-1.5756924048
 10
5.7847783557
 20
-1.5568717929
 10
5.7889924078
 20
-1.5327832197
 10
5.7931336761
 20
-1.5035081933
 10
5.7971881478
 20
-1.469145771
 10
5.8011421039
 20
-1.4298122245
 10
5.8049821654
 20
-1.3856406461
 10
5.8086953387
 20
-1.3367804983
 10
5.8122690598
 20
-1.2833971084
 10
5.8156912361
 20
-1.225671109
 10
5.8189502882
 20
-1.1637978265
 10
5.8220351885
 20
-1.0979866206
 10
5.8249354986
 20
-1.0284601755
 10
5.8276414048
 20
-0.9554537467
 10
5.8301437512
 20
-0.8792143649
 10
5.8324340707
 20
-0.8
 10
5.8345046134
 20
-0.7180786883
 10
5.8363483734
 20
-0.6337276257
 10
5.8379591119
 20
-0.5472322293
 10
5.8393313788
 20
-0.4588851723
 10
5.8404605307
 20
-0.3689853932
 10
5.8413427469
 20
-0.2778370843
 10
5.8419750422
 20
-0.1857486626
 10
5.8423552772
 20
-0.0930317263
 10
5.8424821654
 20
0.0
 10
5.8423552772
 20
0.0930317263
 10
5.8419750422
 20
0.1857486626
 10
5.8413427469
 20
0.2778370843
 10
5.8404605307
 20
0.3689853932
 10
5.8393313788
 20
0.4588851723
 10
5.8379591119
 20
0.5472322293
 10
5.8363483734
 20
0.6337276257
 10
5.8345046134
 20
0.7180786883
 10
5.8324340707
 20
0.8
 10
5.8301437512
 20
0.8792143649
 10
5.8276414048
 20
0.9554537467
 10
5.8249354986
 20
1.0284601755
 10
5.8220351885
 20
1.0979866206
 10
5.8189502882
 20
1.1637978265
 10
5.8156912361
 20
1.225671109
 10
5.8122690598
 20
1.2833971084
 10
5.8086953387
 20
1.3367804983
 10
5.8049821654
 20
1.3856406461
 10
5.8011421039
 20
1.4298122245
 10
5.7971881478
 20
1.469145771
 10
5.7931336761
 20
1.5035081933
 10
5.7889924078
 20
1.5327832197
 10
5.7847783557
 20
1.5568717929
 10
5.7805057787
 20
1.5756924048
 10
5.7761891339
 20
1.5891813724
 10
5.7718430275
 20
1.5972930532
 10
5.7674821654
 20
1.6
  0
LWPOLYLINE
  5
78
330
1F
100
AcDbEntity
  8
0
  6
Continuous
 62
     7
370
    25
100
AcDbPolyline
 90
      109
 70
   128
 43
0.0
 10
5.4674821654
 20
1.6
 10
5.4631213032
 20
1.5972930532
 10
5.4587751968
 20
1.5891813724
 10
5.4544585521
 20
1.5756924048
 10
5.4501859751
 20
1.5568717929
 10
5.4459719229
 20
1.5327832197
 10
5.4418306546
 20
1.5035081933
 10
5.4377761829
 20
1.469145771
 10
5.4338222269
 20
1.4298122245
 10
5.4299821654
 20
1.3856406461
 10
5.426268992
 20
1.3367804983
 10
5.422695271
 20
1.2833971084
 10
5.4192730947
 20
1.225671109
 10
5.4160140425
 20
1.1637978265
 10
5.4129291423
 20
1.0979866206
 10
5.4100288321
 20
1.0284601755
 10
5.4073229259
 20
0.9554537467
 10
5.4048205795
 20
0.8792143649
 10
5.4025302601
 20
0.8
 10
5.4004597174
 20
0.7180786883
 10
5.3986159574
 20
0.6337276257
 10
5.3970052188
 20
0.5472322293
 10
5.395632952
 20
0.4588851723
 10
5.3945038001
 20
0.3689853932
 10
5.3936215839
 20
0.2778370843
 10
5.3929892885
 20
0.1857486626
 10
5.3926090535
 20
0.0930317263
 10
5.3924821654
 20
0.0
 10
5.3926090535
 20
-0.0930317263
 10
5.3929892885
 20
-0.1857486626
 10
5.3936215839
 20
-0.2778370843
 10
5.3945038001
 20
-0.3689853932
 10
5.395632952
 20
-0.4588851723
 10
5.3970052188
 20
-0.5472322293
 10
5.3986159574
 20
-0.6337276257
 10
5.4004597174
 20
-0.7180786883
 10
5.4025302601
 20
-0.8
 10
5.4048205795
 20
-0.8792143649
 10
5.4073229259
 20
-0.9554537467
 10
5.4100288321
 20
-1.0284601755
 10
5.4129291423
 20
-1.0979866206
 10
5.4160140425
 20
-1.1637978265
 10
5.4192730947
 20
-1.225671109
 10
5.422695271
 20
-1.2833971084
 10
5.426268992
 20
-1.3367804983
 10
5.4299821654
 20
-1.3856406461
 10
5.4338222269
 20
-1.4298122245
 10
5.4377761829
 20
-1.469145771
 10
5.4418306546
 20
-1.5035081933
 10
5.4459719229
 20
-1.5327832197
 10
5.4501859751
 20
-1.5568717929
 10
5.4544585521
 20
-1.5756924048
 10
5.4587751968
 20
-1.5891813724
 10
5.4631213032
 20
-1.5972930532
 10
5.4674821654
 20
-1.6
 10
5.4718430275
 20
-1.5972930532
 10
5.4761891339
 20
-1.5891813724
 10
5.4805057787
 20
-1.5756924048
 10
5.4847783557
 20
-1.5568717929
 10
5.4889924078
 20
-1.5327832197
 10
5.4931336761
 20
-1.5035081933
 10
5.4971881478
 20
-1.469145771
 10
5.5011421039
 20
-1.4298122245
 10
5.5049821654
 20
-1.3856406461
 10
5.5086953387
 20
-1.3367804983
 10
5.5122690598
 20
-1.2833971084
 10
5.5156912361
 20
-1.225671109
 10
5.5189502882
 20
-1.1637978265
 10
5.5220351885
 20
-1.0979866206
 10
5.5249354986
 20
-1.0284601755
 10
5.5276414048
 20
-0.9554537467
 10
5.5301437512
 20
-0.8792143649
 10
5.5324340707
 20
-0.8
 10
5.5345046134
 20
-0.7180786883
 10
5.5363483734
 20
-0.6337276257
 10
5.5379591119
 20
-0.5472322293
 10
5.5393313788
 20
-0.4588851723
 10
5.5404605307
 20
-0.3689853932
 10
5.5413427469
 20
-0.2778370843
 10
5.5419750422
 20
-0.1857486626
 10
5.5423552772
 20
-0.0930317263
 10
5.5424821654
 20
0.0
 10
5.5423552772
 20
0.0930317263
 10
5.5419750422
 20
0.1857486626
 10
5.5413427469
 20
0.2778370843
 10
5.5404605307
 20
0.3689853932
 10
5.5393313788
 20
0.4588851723
 10
5.5379591119
 20
0.5472322293
 10
5.5363483734
 20
0.6337276257
 10
5.5345046134
 20
0.7180786883
 10
5.5324340707
 20
0.8
 10
5.5301437512
 20
0.8792143649
 10
5.5276414048
 20
0.9554537467
 10
5.5249354986
 20
1.0284601755
 10
5.5220351885
 20
1.0979866206
 10
5.5189502882
 20
1.1637978265
 10
5.5156912361
 20
1.225671109
 10
5.5122690598
 20
1.2833971084
 10
5.5086953387
 20
1.3367804983
 10
5.5049821654
 20
1.3856406461
 10
5.5011421039
 20
1.4298122245
 10
5.4971881478
 20
1.469145771
 10
5.4931336761
 20
1.5035081933
 10
5.4889924078
 20
1.5327832197
 10
5.4847783557
 20
1.5568717929
 10
5.4805057787
 20
1.5756924048
 10
5.4761891339
 20
1.5891813724
 10
5.4718430275
 20
1.5972930532
 10
5.4674821654
 20
1.6
  0
LWPOLYLINE
  5
79
330
1F
100
AcDbEntity
  8
0
  6
Continuous
 62
     7
370
    25
100
AcDbPolyline
 90
      109
 70
   128
 43
0.0
 10
5.1674821654
 20
1.6
 10
5.1631213032
 20
1.5972930532
 10
5.1587751968
 20
1.5891813724
 10
5.1544585521
 20
1.5756924048
 10
5.1501859751
 20
1.5568717929
 10
5.1459719229
 20
1.5327832197
 10
5.1418306546
 20
1.5035081933
 10
5.1377761829
 20
1.469145771
 10
5.1338222269
 20
1.4298122245
 10
5.1299821654
 20
1.3856406461
 10
5.126268992
 20
1.3367804983
 10
5.122695271
 20
1.2833971084
 10
5.1192730947
 20
1.225671109
 10
5.1160140425
 20
1.1637978265
 10
5.1129291423
 20
1.0979866206
 10
5.1100288321
 20
1.0284601755
 10
5.1073229259
 20
0.9554537467
 10
5.1048205795
 20
0.8792143649
 10
5.1025302601
 20
0.8
 10
5.1004597174
 20
0.7180786883
 10
5.0986159574
 20
0.6337276257
 10
5.0970052188
 20
0.5472322293
 10
5.095632952
 20
0.4588851723
 10
5.0945038001
 20
0.3689853932
 10
5.0936215839
 20
0.2778370843
 10
5.0929892885
 20
0.1857486626
 10
5.0926090535
 20
0.0930317263
 10
5.0924821654
 20
0.0
 10
5.0926090535
 20
-0.0930317263
 10
5.0929892885
 20
-0.1857486626
 10
5.0936215839
 20
-0.2778370843
 10
5.0945038001
 20
-0.3689853932
 10
5.095632952
 20
-0.4588851723
 10
5.0970052188
 20
-0.5472322293
 10
5.0986159574
 20
-0.6337276257
 10
5.1004597174
 20
-0.7180786883
 10
5.1025302601
 20
-0.8
 10
5.1048205795
 20
-0.8792143649
 10
5.1073229259
 20
-0.9554537467
 10
5.1100288321
 20
-1.0284601755
 10
5.1129291423
 20
-1.0979866206
 10
5.1160140425
 20
-1.1637978265
 10
5.1192730947
 20
-1.225671109
 10
5.122695271
 20
-1.2833971084
 10
5.126268992
 20
-1.3367804983
 10
5.1299821654
 20
-1.3856406461
 10
5.1338222269
 20
-1.4298122245
 10
5.1377761829
 20
-1.469145771
 10
5.1418306546
 20
-1.5035081933
 10
5.1459719229
 20
-1.5327832197
 10
5.1501859751
 20
-1.5568717929
 10
5.1544585521
 20
-1.5756924048
 10
5.1587751968
 20
-1.5891813724
 10
5.1631213032
 20
-1.5972930532
 10
5.1674821654
 20
-1.6
 10
5.1718430275
 20
-1.5972930532
 10
5.1761891339
 20
-1.5891813724
 10
5.1805057787
 20
-1.5756924048
 10
5.1847783557
 20
-1.5568717929
 10
5.1889924078
 20
-1.5327832197
 10
5.1931336761
 20
-1.5035081933
 10
5.1971881478
 20
-1.469145771
 10
5.2011421039
 20
-1.4298122245
 10
5.2049821654
 20
-1.3856406461
 10
5.2086953387
 20
-1.3367804983
 10
5.2122690598
 20
-1.2833971084
 10
5.2156912361
 20
-1.225671109
 10
5.2189502882
 20
-1.1637978265
 10
5.2220351885
 20
-1.0979866206
 10
5.2249354986
 20
-1.0284601755
 10
5.2276414048
 20
-0.9554537467
 10
5.2301437512
 20
-0.8792143649
 10
5.2324340707
 20
-0.8
 10
5.2345046134
 20
-0.7180786883
 10
5.2363483734
 20
-0.6337276257
 10
5.2379591119
 20
-0.5472322293
 10
5.2393313788
 20
-0.4588851723
 10
5.2404605307
 20
-0.3689853932
 10
5.2413427469
 20
-0.2778370843
 10
5.2419750422
 20
-0.1857486626
 10
5.2423552772
 20
-0.0930317263
 10
5.2424821654
 20
0.0
 10
5.2423552772
 20
0.0930317263
 10
5.2419750422
 20
0.1857486626
 10
5.2413427469
 20
0.2778370843
 10
5.2404605307
 20
0.3689853932
 10
5.2393313788
 20
0.4588851723
 10
5.2379591119
 20
0.5472322293
 10
5.2363483734
 20
0.6337276257
 10
5.2345046134
 20
0.7180786883
 10
5.2324340707
 20
0.8
 10
5.2301437512
 20
0.8792143649
 10
5.2276414048
 20
0.9554537467
 10
5.2249354986
 20
1.0284601755
 10
5.2220351885
 20
1.0979866206
 10
5.2189502882
 20
1.1637978265
 10
5.2156912361
 20
1.225671109
 10
5.2122690598
 20
1.2833971084
 10
5.2086953387
 20
1.3367804983
 10
5.2049821654
 20
1.3856406461
 10
5.2011421039
 20
1.4298122245
 10
5.1971881478
 20
1.469145771
 10
5.1931336761
 20
1.5035081933
 10
5.1889924078
 20
1.5327832197
 10
5.1847783557
 20
1.5568717929
 10
5.1805057787
 20
1.5756924048
 10
5.1761891339
 20
1.5891813724
 10
5.1718430275
 20
1.5972930532
 10
5.1674821654
 20
1.6
  0
LWPOLYLINE
  5
7A
330
1F
100
AcDbEntity
  8
0
  6
Continuous
 62
     7
370
    25
100
AcDbPolyline
 90
      109
 70
   128
 43
0.0
 10
4.8674821654
 20
1.6
 10
4.8631213032
 20
1.5972930532
 10
4.8587751968
 20
1.5891813724
 10
4.8544585521
 20
1.5756924048
 10
4.8501859751
 20
1.5568717929
 10
4.8459719229
 20
1.5327832197
 10
4.8418306546
 20
1.5035081933
 10
4.8377761829
 20
1.469145771
 10
4.8338222269
 20
1.4298122245
 10
4.8299821654
 20
1.3856406461
 10
4.826268992
 20
1.3367804983
 10
4.822695271
 20
1.2833971084
 10
4.8192730947
 20
1.225671109
 10
4.8160140425
 20
1.1637978265
 10
4.8129291423
 20
1.0979866206
 10
4.8100288321
 20
1.0284601755
 10
4.8073229259
 20
0.9554537467
 10
4.8048205795
 20
0.8792143649
 10
4.8025302601
 20
0.8
 10
4.8004597174
 20
0.7180786883
 10
4.7986159574
 20
0.6337276257
 10
4.7970052188
 20
0.5472322293
 10
4.795632952
 20
0.4588851723
 10
4.7945038001
 20
0.3689853932
 10
4.7936215839
 20
0.2778370843
 10
4.7929892885
 20
0.1857486626
 10
4.7926090535
 20
0.0930317263
 10
4.7924821654
 20
0.0
 10
4.7926090535
 20
-0.0930317263
 10
4.7929892885
 20
-0.1857486626
 10
4.7936215839
 20
-0.2778370843
 10
4.7945038001
 20
-0.3689853932
 10
4.795632952
 20
-0.4588851723
 10
4.7970052188
 20
-0.5472322293
 10
4.7986159574
 20
-0.6337276257
 10
4.8004597174
 20
-0.7180786883
 10
4.8025302601
 20
-0.8
 10
4.8048205795
 20
-0.8792143649
 10
4.8073229259
 20
-0.9554537467
 10
4.8100288321
 20
-1.0284601755
 10
4.8129291423
 20
-1.0979866206
 10
4.8160140425
 20
-1.1637978265
 10
4.8192730947
 20
-1.225671109
 10
4.822695271
 20
-1.2833971084
 10
4.826268992
 20
-1.3367804983
 10
4.8299821654
 20
-1.3856406461
 10
4.8338222269
 20
-1.4298122245
 10
4.8377761829
 20
-1.469145771
 10
4.8418306546
 20
-1.5035081933
 10
4.8459719229
 20
-1.5327832197
 10
4.8501859751
 20
-1.5568717929
 10
4.8544585521
 20
-1.5756924048
 10
4.8587751968
 20
-1.5891813724
 10
4.8631213032
 20
-1.5972930532
 10
4.8674821654
 20
-1.6
 10
4.8718430275
 20
-1.5972930532
 10
4.8761891339
 20
-1.5891813724
 10
4.8805057787
 20
-1.5756924048
 10
4.8847783557
 20
-1.5568717929
 10
4.8889924078
 20
-1.5327832197
 10
4.8931336761
 20
-1.5035081933
 10
4.8971881478
 20
-1.469145771
 10
4.9011421039
 20
-1.4298122245
 10
4.9049821654
 20
-1.3856406461
 10
4.9086953387
 20
-1.3367804983
 10
4.9122690598
 20
-1.2833971084
 10
4.9156912361
 20
-1.225671109
 10
4.9189502882
 20
-1.1637978265
 10
4.9220351885
 20
-1.0979866206
 10
4.9249354986
 20
-1.0284601755
 10
4.9276414048
 20
-0.9554537467
 10
4.9301437512
 20
-0.8792143649
 10
4.9324340707
 20
-0.8
 10
4.9345046134
 20
-0.7180786883
 10
4.9363483734
 20
-0.6337276257
 10
4.9379591119
 20
-0.5472322293
 10
4.9393313788
 20
-0.4588851723
 10
4.9404605307
 20
-0.3689853932
 10
4.9413427469
 20
-0.2778370843
 10
4.9419750422
 20
-0.1857486626
 10
4.9423552772
 20
-0.0930317263
 10
4.9424821654
 20
0.0
 10
4.9423552772
 20
0.0930317263
 10
4.9419750422
 20
0.1857486626
 10
4.9413427469
 20
0.2778370843
 10
4.9404605307
 20
0.3689853932
 10
4.9393313788
 20
0.4588851723
 10
4.9379591119
 20
0.5472322293
 10
4.9363483734
 20
0.6337276257
 10
4.9345046134
 20
0.7180786883
 10
4.9324340707
 20
0.8
 10
4.9301437512
 20
0.8792143649
 10
4.9276414048
 20
0.9554537467
 10
4.9249354986
 20
1.0284601755
 10
4.9220351885
 20
1.0979866206
 10
4.9189502882
 20
1.1637978265
 10
4.9156912361
 20
1.225671109
 10
4.9122690598
 20
1.2833971084
 10
4.9086953387
 20
1.3367804983
 10
4.9049821654
 20
1.3856406461
 10
4.9011421039
 20
1.4298122245
 10
4.8971881478
 20
1.469145771
 10
4.8931336761
 20
1.5035081933
 10
4.8889924078
 20
1.5327832197
 10
4.8847783557
 20
1.5568717929
 10
4.8805057787
 20
1.5756924048
 10
4.8761891339
 20
1.5891813724
 10
4.8718430275
 20
1.5972930532
 10
4.8674821654
 20
1.6
  0
LWPOLYLINE
  5
7B
330
1F
100
AcDbEntity
  8
0
  6
Continuous
 62
     7
370
    25
100
AcDbPolyline
 90
      109
 70
   128
 43
0.0
 10
4.5674821654
 20
1.6
 10
4.5631213032
 20
1.5972930532
 10
4.5587751968
 20
1.5891813724
 10
4.5544585521
 20
1.5756924048
 10
4.5501859751
 20
1.5568717929
 10
4.5459719229
 20
1.5327832197
 10
4.5418306546
 20
1.5035081933
 10
4.5377761829
 20
1.469145771
 10
4.5338222269
 20
1.4298122245
 10
4.5299821654
 20
1.3856406461
 10
4.526268992
 20
1.3367804983
 10
4.522695271
 20
1.2833971084
 10
4.5192730947
 20
1.225671109
 10
4.5160140425
 20
1.1637978265
 10
4.5129291423
 20
1.0979866206
 10
4.5100288321
 20
1.0284601755
 10
4.5073229259
 20
0.9554537467
 10
4.5048205795
 20
0.8792143649
 10
4.5025302601
 20
0.8
 10
4.5004597174
 20
0.7180786883
 10
4.4986159574
 20
0.6337276257
 10
4.4970052188
 20
0.5472322293
 10
4.495632952
 20
0.4588851723
 10
4.4945038001
 20
0.3689853932
 10
4.4936215839
 20
0.2778370843
 10
4.4929892885
 20
0.1857486626
 10
4.4926090535
 20
0.0930317263
 10
4.4924821654
 20
0.0
 10
4.4926090535
 20
-0.0930317263
 10
4.4929892885
 20
-0.1857486626
 10
4.4936215839
 20
-0.2778370843
 10
4.4945038001
 20
-0.3689853932
 10
4.495632952
 20
-0.4588851723
 10
4.4970052188
 20
-0.5472322293
 10
4.4986159574
 20
-0.6337276257
 10
4.5004597174
 20
-0.7180786883
 10
4.5025302601
 20
-0.8
 10
4.5048205795
 20
-0.8792143649
 10
4.5073229259
 20
-0.9554537467
 10
4.5100288321
 20
-1.0284601755
 10
4.5129291423
 20
-1.0979866206
 10
4.5160140425
 20
-1.1637978265
 10
4.5192730947
 20
-1.225671109
 10
4.522695271
 20
-1.2833971084
 10
4.526268992
 20
-1.3367804983
 10
4.5299821654
 20
-1.3856406461
 10
4.5338222269
 20
-1.4298122245
 10
4.5377761829
 20
-1.469145771
 10
4.5418306546
 20
-1.5035081933
 10
4.5459719229
 20
-1.5327832197
 10
4.5501859751
 20
-1.5568717929
 10
4.5544585521
 20
-1.5756924048
 10
4.5587751968
 20
-1.5891813724
 10
4.5631213032
 20
-1.5972930532
 10
4.5674821654
 20
-1.6
 10
4.5718430275
 20
-1.5972930532
 10
4.5761891339
 20
-1.5891813724
 10
4.5805057787
 20
-1.5756924048
 10
4.5847783557
 20
-1.5568717929
 10
4.5889924078
 20
-1.5327832197
 10
4.5931336761
 20
-1.5035081933
 10
4.5971881478
 20
-1.469145771
 10
4.6011421039
 20
-1.4298122245
 10
4.6049821654
 20
-1.3856406461
 10
4.6086953387
 20
-1.3367804983
 10
4.6122690598
 20
-1.2833971084
 10
4.6156912361
 20
-1.225671109
 10
4.6189502882
 20
-1.1637978265
 10
4.6220351885
 20
-1.0979866206
 10
4.6249354986
 20
-1.0284601755
 10
4.6276414048
 20
-0.9554537467
 10
4.6301437512
 20
-0.8792143649
 10
4.6324340707
 20
-0.8
 10
4.6345046134
 20
-0.7180786883
 10
4.6363483734
 20
-0.6337276257
 10
4.6379591119
 20
-0.5472322293
 10
4.6393313788
 20
-0.4588851723
 10
4.6404605307
 20
-0.3689853932
 10
4.6413427469
 20
-0.2778370843
 10
4.6419750422
 20
-0.1857486626
 10
4.6423552772
 20
-0.0930317263
 10
4.6424821654
 20
0.0
 10
4.6423552772
 20
0.0930317263
 10
4.6419750422
 20
0.1857486626
 10
4.6413427469
 20
0.2778370843
 10
4.6404605307
 20
0.3689853932
 10
4.6393313788
 20
0.4588851723
 10
4.6379591119
 20
0.5472322293
 10
4.6363483734
 20
0.6337276257
 10
4.6345046134
 20
0.7180786883
 10
4.6324340707
 20
0.8
 10
4.6301437512
 20
0.8792143649
 10
4.6276414048
 20
0.9554537467
 10
4.6249354986
 20
1.0284601755
 10
4.6220351885
 20
1.0979866206
 10
4.6189502882
 20
1.1637978265
 10
4.6156912361
 20
1.225671109
 10
4.6122690598
 20
1.2833971084
 10
4.6086953387
 20
1.3367804983
 10
4.6049821654
 20
1.3856406461
 10
4.6011421039
 20
1.4298122245
 10
4.5971881478
 20
1.469145771
 10
4.5931336761
 20
1.5035081933
 10
4.5889924078
 20
1.5327832197
 10
4.5847783557
 20
1.5568717929
 10
4.5805057787
 20
1.5756924048
 10
4.5761891339
 20
1.5891813724
 10
4.5718430275
 20
1.5972930532
 10
4.5674821654
 20
1.6
  0
LWPOLYLINE
  5
7C
330
1F
100
AcDbEntity
  8
0
  6
Continuous
 62
     7
370
    25
100
AcDbPolyline
 90
      109
 70
   128
 43
0.0
 10
4.2674821654
 20
1.6
 10
4.2631213032
 20
1.5972930532
 10
4.2587751968
 20
1.5891813724
 10
4.2544585521
 20
1.5756924048
 10
4.2501859751
 20
1.5568717929
 10
4.2459719229
 20
1.5327832197
 10
4.2418306546
 20
1.5035081933
 10
4.2377761829
 20
1.469145771
 10
4.2338222269
 20
1.4298122245
 10
4.2299821654
 20
1.3856406461
 10
4.226268992
 20
1.3367804983
 10
4.222695271
 20
1.2833971084
 10
4.2192730947
 20
1.225671109
 10
4.2160140425
 20
1.1637978265
 10
4.2129291423
 20
1.0979866206
 10
4.2100288321
 20
1.0284601755
 10
4.2073229259
 20
0.9554537467
 10
4.2048205795
 20
0.8792143649
 10
4.2025302601
 20
0.8
 10
4.2004597174
 20
0.7180786883
 10
4.1986159574
 20
0.6337276257
 10
4.1970052188
 20
0.5472322293
 10
4.195632952
 20
0.4588851723
 10
4.1945038001
 20
0.3689853932
 10
4.1936215839
 20
0.2778370843
 10
4.1929892885
 20
0.1857486626
 10
4.1926090535
 20
0.0930317263
 10
4.1924821654
 20
0.0
 10
4.1926090535
 20
-0.0930317263
 10
4.1929892885
 20
-0.1857486626
 10
4.1936215839
 20
-0.2778370843
 10
4.1945038001
 20
-0.3689853932
 10
4.195632952
 20
-0.4588851723
 10
4.1970052188
 20
-0.5472322293
 10
4.1986159574
 20
-0.6337276257
 10
4.2004597174
 20
-0.7180786883
 10
4.2025302601
 20
-0.8
 10
4.2048205795
 20
-0.8792143649
 10
4.2073229259
 20
-0.9554537467
 10
4.2100288321
 20
-1.0284601755
 10
4.2129291423
 20
-1.0979866206
 10
4.2160140425
 20
-1.1637978265
 10
4.2192730947
 20
-1.225671109
 10
4.222695271
 20
-1.2833971084
 10
4.226268992
 20
-1.3367804983
 10
4.2299821654
 20
-1.3856406461
 10
4.2338222269
 20
-1.4298122245
 10
4.2377761829
 20
-1.469145771
 10
4.2418306546
 20
-1.5035081933
 10
4.2459719229
 20
-1.5327832197
 10
4.2501859751
 20
-1.5568717929
 10
4.2544585521
 20
-1.5756924048
 10
4.2587751968
 20
-1.5891813724
 10
4.2631213032
 20
-1.5972930532
 10
4.2674821654
 20
-1.6
 10
4.2718430275
 20
-1.5972930532
 10
4.2761891339
 20
-1.5891813724
 10
4.2805057787
 20
-1.5756924048
 10
4.2847783557
 20
-1.5568717929
 10
4.2889924078
 20
-1.5327832197
 10
4.2931336761
 20
-1.5035081933
 10
4.2971881478
 20
-1.469145771
 10
4.3011421039
 20
-1.4298122245
 10
4.3049821654
 20
-1.3856406461
 10
4.3086953387
 20
-1.3367804983
 10
4.3122690598
 20
-1.2833971084
 10
4.3156912361
 20
-1.225671109
 10
4.3189502882
 20
-1.1637978265
 10
4.3220351885
 20
-1.0979866206
 10
4.3249354986
 20
-1.0284601755
 10
4.3276414048
 20
-0.9554537467
 10
4.3301437512
 20
-0.8792143649
 10
4.3324340707
 20
-0.8
 10
4.3345046134
 20
-0.7180786883
 10
4.3363483734
 20
-0.6337276257
 10
4.3379591119
 20
-0.5472322293
 10
4.3393313788
 20
-0.4588851723
 10
4.3404605307
 20
-0.3689853932
 10
4.3413427469
 20
-0.2778370843
 10
4.3419750422
 20
-0.1857486626
 10
4.3423552772
 20
-0.0930317263
 10
4.3424821654
 20
0.0
 10
4.3423552772
 20
0.0930317263
 10
4.3419750422
 20
0.1857486626
 10
4.3413427469
 20
0.2778370843
 10
4.3404605307
 20
0.3689853932
 10
4.3393313788
 20
0.4588851723
 10
4.3379591119
 20
0.5472322293
 10
4.3363483734
 20
0.6337276257
 10
4.3345046134
 20
0.7180786883
 10
4.3324340707
 20
0.8
 10
4.3301437512
 20
0.8792143649
 10
4.3276414048
 20
0.9554537467
 10
4.3249354986
 20
1.0284601755
 10
4.3220351885
 20
1.0979866206
 10
4.3189502882
 20
1.1637978265
 10
4.3156912361
 20
1.225671109
 10
4.3122690598
 20
1.2833971084
 10
4.3086953387
 20
1.3367804983
 10
4.3049821654
 20
1.3856406461
 10
4.3011421039
 20
1.4298122245
 10
4.2971881478
 20
1.469145771
 10
4.2931336761
 20
1.5035081933
 10
4.2889924078
 20
1.5327832197
 10
4.2847783557
 20
1.5568717929
 10
4.2805057787
 20
1.5756924048
 10
4.2761891339
 20
1.5891813724
 10
4.2718430275
 20
1.5972930532
 10
4.2674821654
 20
1.6
  0
LWPOLYLINE
  5
7D
330
1F
100
AcDbEntity
  8
0
  6
Continuous
 62
     7
370
    25
100
AcDbPolyline
 90
      109
 70
   128
 43
0.0
 10
3.9674821654
 20
1.6
 10
3.9631213032
 20
1.5972930532
 10
3.9587751968
 20
1.5891813724
 10
3.9544585521
 20
1.5756924048
 10
3.9501859751
 20
1.5568717929
 10
3.9459719229
 20
1.5327832197
 10
3.9418306546
 20
1.5035081933
 10
3.9377761829
 20
1.469145771
 10
3.9338222269
 20
1.4298122245
 10
3.9299821654
 20
1.3856406461
 10
3.926268992
 20
1.3367804983
 10
3.922695271
 20
1.2833971084
 10
3.9192730947
 20
1.225671109
 10
3.9160140425
 20
1.1637978265
 10
3.9129291423
 20
1.0979866206
 10
3.9100288321
 20
1.0284601755
 10
3.9073229259
 20
0.9554537467
 10
3.9048205795
 20
0.8792143649
 10
3.9025302601
 20
0.8
 10
3.9004597174
 20
0.7180786883
 10
3.8986159574
 20
0.6337276257
 10
3.8970052188
 20
0.5472322293
 10
3.895632952
 20
0.4588851723
 10
3.8945038001
 20
0.3689853932
 10
3.8936215839
 20
0.2778370843
 10
3.8929892885
 20
0.1857486626
 10
3.8926090535
 20
0.0930317263
 10
3.8924821654
 20
0.0
 10
3.8926090535
 20
-0.0930317263
 10
3.8929892885
 20
-0.1857486626
 10
3.8936215839
 20
-0.2778370843
 10
3.8945038001
 20
-0.3689853932
 10
3.895632952
 20
-0.4588851723
 10
3.8970052188
 20
-0.5472322293
 10
3.8986159574
 20
-0.6337276257
 10
3.9004597174
 20
-0.7180786883
 10
3.9025302601
 20
-0.8
 10
3.9048205795
 20
-0.8792143649
 10
3.9073229259
 20
-0.9554537467
 10
3.9100288321
 20
-1.0284601755
 10
3.9129291423
 20
-1.0979866206
 10
3.9160140425
 20
-1.1637978265
 10
3.9192730947
 20
-1.225671109
 10
3.922695271
 20
-1.2833971084
 10
3.926268992
 20
-1.3367804983
 10
3.9299821654
 20
-1.3856406461
 10
3.9338222269
 20
-1.4298122245
 10
3.9377761829
 20
-1.469145771
 10
3.9418306546
 20
-1.5035081933
 10
3.9459719229
 20
-1.5327832197
 10
3.9501859751
 20
-1.5568717929
 10
3.9544585521
 20
-1.5756924048
 10
3.9587751968
 20
-1.5891813724
 10
3.9631213032
 20
-1.5972930532
 10
3.9674821654
 20
-1.6
 10
3.9718430275
 20
-1.5972930532
 10
3.9761891339
 20
-1.5891813724
 10
3.9805057787
 20
-1.5756924048
 10
3.9847783557
 20
-1.5568717929
 10
3.9889924078
 20
-1.5327832197
 10
3.9931336761
 20
-1.5035081933
 10
3.9971881478
 20
-1.469145771
 10
4.0011421039
 20
-1.4298122245
 10
4.0049821654
 20
-1.3856406461
 10
4.0086953387
 20
-1.3367804983
 10
4.0122690598
 20
-1.2833971084
 10
4.0156912361
 20
-1.225671109
 10
4.0189502882
 20
-1.1637978265
 10
4.0220351885
 20
-1.0979866206
 10
4.0249354986
 20
-1.0284601755
 10
4.0276414048
 20
-0.9554537467
 10
4.0301437512
 20
-0.8792143649
 10
4.0324340707
 20
-0.8
 10
4.0345046134
 20
-0.7180786883
 10
4.0363483734
 20
-0.6337276257
 10
4.0379591119
 20
-0.5472322293
 10
4.0393313788
 20
-0.4588851723
 10
4.0404605307
 20
-0.3689853932
 10
4.0413427469
 20
-0.2778370843
 10
4.0419750422
 20
-0.1857486626
 10
4.0423552772
 20
-0.0930317263
 10
4.0424821654
 20
0.0
 10
4.0423552772
 20
0.0930317263
 10
4.0419750422
 20
0.1857486626
 10
4.0413427469
 20
0.2778370843
 10
4.0404605307
 20
0.3689853932
 10
4.0393313788
 20
0.4588851723
 10
4.0379591119
 20
0.5472322293
 10
4.0363483734
 20
0.6337276257
 10
4.0345046134
 20
0.7180786883
 10
4.0324340707
 20
0.8
 10
4.0301437512
 20
0.8792143649
 10
4.0276414048
 20
0.9554537467
 10
4.0249354986
 20
1.0284601755
 10
4.0220351885
 20
1.0979866206
 10
4.0189502882
 20
1.1637978265
 10
4.0156912361
 20
1.225671109
 10
4.0122690598
 20
1.2833971084
 10
4.0086953387
 20
1.3367804983
 10
4.0049821654
 20
1.3856406461
 10
4.0011421039
 20
1.4298122245
 10
3.9971881478
 20
1.469145771
 10
3.9931336761
 20
1.5035081933
 10
3.9889924078
 20
1.5327832197
 10
3.9847783557
 20
1.5568717929
 10
3.9805057787
 20
1.5756924048
 10
3.9761891339
 20
1.5891813724
 10
3.9718430275
 20
1.5972930532
 10
3.9674821654
 20
1.6
  0
LWPOLYLINE
  5
7E
330
1F
100
AcDbEntity
  8
0
  6
Continuous
 62
     7
370
    25
100
AcDbPolyline
 90
      109
 70
   128
 43
0.0
 10
3.6674821654
 20
1.6
 10
3.6631213032
 20
1.5972930532
 10
3.6587751968
 20
1.5891813724
 10
3.6544585521
 20
1.5756924048
 10
3.6501859751
 20
1.5568717929
 10
3.6459719229
 20
1.5327832197
 10
3.6418306546
 20
1.5035081933
 10
3.6377761829
 20
1.469145771
 10
3.6338222269
 20
1.4298122245
 10
3.6299821654
 20
1.3856406461
 10
3.626268992
 20
1.3367804983
 10
3.622695271
 20
1.2833971084
 10
3.6192730947
 20
1.225671109
 10
3.6160140425
 20
1.1637978265
 10
3.6129291423
 20
1.0979866206
 10
3.6100288321
 20
1.0284601755
 10
3.6073229259
 20
0.9554537467
 10
3.6048205795
 20
0.8792143649
 10
3.6025302601
 20
0.8
 10
3.6004597174
 20
0.7180786883
 10
3.5986159574
 20
0.6337276257
 10
3.5970052188
 20
0.5472322293
 10
3.595632952
 20
0.4588851723
 10
3.5945038001
 20
0.3689853932
 10
3.5936215839
 20
0.2778370843
 10
3.5929892885
 20
0.1857486626
 10
3.5926090535
 20
0.0930317263
 10
3.5924821654
 20
0.0
 10
3.5926090535
 20
-0.0930317263
 10
3.5929892885
 20
-0.1857486626
 10
3.5936215839
 20
-0.2778370843
 10
3.5945038001
 20
-0.3689853932
 10
3.595632952
 20
-0.4588851723
 10
3.5970052188
 20
-0.5472322293
 10
3.5986159574
 20
-0.6337276257
 10
3.6004597174
 20
-0.7180786883
 10
3.6025302601
 20
-0.8
 10
3.6048205795
 20
-0.8792143649
 10
3.6073229259
 20
-0.9554537467
 10
3.6100288321
 20
-1.0284601755
 10
3.6129291423
 20
-1.0979866206
 10
3.6160140425
 20
-1.1637978265
 10
3.6192730947
 20
-1.225671109
 10
3.622695271
 20
-1.2833971084
 10
3.626268992
 20
-1.3367804983
 10
3.6299821654
 20
-1.3856406461
 10
3.6338222269
 20
-1.4298122245
 10
3.6377761829
 20
-1.469145771
 10
3.6418306546
 20
-1.5035081933
 10
3.6459719229
 20
-1.5327832197
 10
3.6501859751
 20
-1.5568717929
 10
3.6544585521
 20
-1.5756924048
 10
3.6587751968
 20
-1.5891813724
 10
3.6631213032
 20
-1.5972930532
 10
3.6674821654
 20
-1.6
 10
3.6718430275
 20
-1.5972930532
 10
3.6761891339
 20
-1.5891813724
 10
3.6805057787
 20
-1.5756924048
 10
3.6847783557
 20
-1.5568717929
 10
3.6889924078
 20
-1.5327832197
 10
3.6931336761
 20
-1.5035081933
 10
3.6971881478
 20
-1.469145771
 10
3.7011421039
 20
-1.4298122245
 10
3.7049821654
 20
-1.3856406461
 10
3.7086953387
 20
-1.3367804983
 10
3.7122690598
 20
-1.2833971084
 10
3.7156912361
 20
-1.225671109
 10
3.7189502882
 20
-1.1637978265
 10
3.7220351885
 20
-1.0979866206
 10
3.7249354986
 20
-1.0284601755
 10
3.7276414048
 20
-0.9554537467
 10
3.7301437512
 20
-0.8792143649
 10
3.7324340707
 20
-0.8
 10
3.7345046134
 20
-0.7180786883
 10
3.7363483734
 20
-0.6337276257
 10
3.7379591119
 20
-0.5472322293
 10
3.7393313788
 20
-0.4588851723
 10
3.7404605307
 20
-0.3689853932
 10
3.7413427469
 20
-0.2778370843
 10
3.7419750422
 20
-0.1857486626
 10
3.7423552772
 20
-0.0930317263
 10
3.7424821654
 20
0.0
 10
3.7423552772
 20
0.0930317263
 10
3.7419750422
 20
0.1857486626
 10
3.7413427469
 20
0.2778370843
 10
3.7404605307
 20
0.3689853932
 10
3.7393313788
 20
0.4588851723
 10
3.7379591119
 20
0.5472322293
 10
3.7363483734
 20
0.6337276257
 10
3.7345046134
 20
0.7180786883
 10
3.7324340707
 20
0.8
 10
3.7301437512
 20
0.8792143649
 10
3.7276414048
 20
0.9554537467
 10
3.7249354986
 20
1.0284601755
 10
3.7220351885
 20
1.0979866206
 10
3.7189502882
 20
1.1637978265
 10
3.7156912361
 20
1.225671109
 10
3.7122690598
 20
1.2833971084
 10
3.7086953387
 20
1.3367804983
 10
3.7049821654
 20
1.3856406461
 10
3.7011421039
 20
1.4298122245
 10
3.6971881478
 20
1.469145771
 10
3.6931336761
 20
1.5035081933
 10
3.6889924078
 20
1.5327832197
 10
3.6847783557
 20
1.5568717929
 10
3.6805057787
 20
1.5756924048
 10
3.6761891339
 20
1.5891813724
 10
3.6718430275
 20
1.5972930532
 10
3.6674821654
 20
1.6
  0
LWPOLYLINE
  5
7F
330
1F
100
AcDbEntity
  8
0
  6
Continuous
 62
     7
370
    25
100
AcDbPolyline
 90
      109
 70
   128
 43
0.0
 10
3.3674821654
 20
1.6
 10
3.3631213032
 20
1.5972930532
 10
3.3587751968
 20
1.5891813724
 10
3.3544585521
 20
1.5756924048
 10
3.3501859751
 20
1.5568717929
 10
3.3459719229
 20
1.5327832197
 10
3.3418306546
 20
1.5035081933
 10
3.3377761829
 20
1.469145771
 10
3.3338222269
 20
1.4298122245
 10
3.3299821654
 20
1.3856406461
 10
3.326268992
 20
1.3367804983
 10
3.322695271
 20
1.2833971084
 10
3.3192730947
 20
1.225671109
 10
3.3160140425
 20
1.1637978265
 10
3.3129291423
 20
1.0979866206
 10
3.3100288321
 20
1.0284601755
 10
3.3073229259
 20
0.9554537467
 10
3.3048205795
 20
0.8792143649
 10
3.3025302601
 20
0.8
 10
3.3004597174
 20
0.7180786883
 10
3.2986159574
 20
0.6337276257
 10
3.2970052188
 20
0.5472322293
 10
3.295632952
 20
0.4588851723
 10
3.2945038001
 20
0.3689853932
 10
3.2936215839
 20
0.2778370843
 10
3.2929892885
 20
0.1857486626
 10
3.2926090535
 20
0.0930317263
 10
3.2924821654
 20
0.0
 10
3.2926090535
 20
-0.0930317263
 10
3.2929892885
 20
-0.1857486626
 10
3.2936215839
 20
-0.2778370843
 10
3.2945038001
 20
-0.3689853932
 10
3.295632952
 20
-0.4588851723
 10
3.2970052188
 20
-0.5472322293
 10
3.2986159574
 20
-0.6337276257
 10
3.3004597174
 20
-0.7180786883
 10
3.3025302601
 20
-0.8
 10
3.3048205795
 20
-0.8792143649
 10
3.3073229259
 20
-0.9554537467
 10
3.3100288321
 20
-1.0284601755
 10
3.3129291423
 20
-1.0979866206
 10
3.3160140425
 20
-1.1637978265
 10
3.3192730947
 20
-1.225671109
 10
3.322695271
 20
-1.2833971084
 10
3.326268992
 20
-1.3367804983
 10
3.3299821654
 20
-1.3856406461
 10
3.3338222269
 20
-1.4298122245
 10
3.3377761829
 20
-1.469145771
 10
3.3418306546
 20
-1.5035081933
 10
3.3459719229
 20
-1.5327832197
 10
3.3501859751
 20
-1.5568717929
 10
3.3544585521
 20
-1.5756924048
 10
3.3587751968
 20
-1.5891813724
 10
3.3631213032
 20
-1.5972930532
 10
3.3674821654
 20
-1.6
 10
3.3718430275
 20
-1.5972930532
 10
3.3761891339
 20
-1.5891813724
 10
3.3805057787
 20
-1.5756924048
 10
3.3847783557
 20
-1.5568717929
 10
3.3889924078
 20
-1.5327832197
 10
3.3931336761
 20
-1.5035081933
 10
3.3971881478
 20
-1.469145771
 10
3.4011421039
 20
-1.4298122245
 10
3.4049821654
 20
-1.3856406461
 10
3.4086953387
 20
-1.3367804983
 10
3.4122690598
 20
-1.2833971084
 10
3.4156912361
 20
-1.225671109
 10
3.4189502882
 20
-1.1637978265
 10
3.4220351885
 20
-1.0979866206
 10
3.4249354986
 20
-1.0284601755
 10
3.4276414048
 20
-0.9554537467
 10
3.4301437512
 20
-0.8792143649
 10
3.4324340707
 20
-0.8
 10
3.4345046134
 20
-0.7180786883
 10
3.4363483734
 20
-0.6337276257
 10
3.4379591119
 20
-0.5472322293
 10
3.4393313788
 20
-0.4588851723
 10
3.4404605307
 20
-0.3689853932
 10
3.4413427469
 20
-0.2778370843
 10
3.4419750422
 20
-0.1857486626
 10
3.4423552772
 20
-0.0930317263
 10
3.4424821654
 20
0.0
 10
3.4423552772
 20
0.0930317263
 10
3.4419750422
 20
0.1857486626
 10
3.4413427469
 20
0.2778370843
 10
3.4404605307
 20
0.3689853932
 10
3.4393313788
 20
0.4588851723
 10
3.4379591119
 20
0.5472322293
 10
3.4363483734
 20
0.6337276257
 10
3.4345046134
 20
0.7180786883
 10
3.4324340707
 20
0.8
 10
3.4301437512
 20
0.8792143649
 10
3.4276414048
 20
0.9554537467
 10
3.4249354986
 20
1.0284601755
 10
3.4220351885
 20
1.0979866206
 10
3.4189502882
 20
1.1637978265
 10
3.4156912361
 20
1.225671109
 10
3.4122690598
 20
1.2833971084
 10
3.4086953387
 20
1.3367804983
 10
3.4049821654
 20
1.3856406461
 10
3.4011421039
 20
1.4298122245
 10
3.3971881478
 20
1.469145771
 10
3.3931336761
 20
1.5035081933
 10
3.3889924078
 20
1.5327832197
 10
3.3847783557
 20
1.5568717929
 10
3.3805057787
 20
1.5756924048
 10
3.3761891339
 20
1.5891813724
 10
3.3718430275
 20
1.5972930532
 10
3.3674821654
 20
1.6
  0
LWPOLYLINE
  5
80
330
1F
100
AcDbEntity
  8
0
  6
Continuous
 62
     7
370
    25
100
AcDbPolyline
 90
      109
 70
   128
 43
0.0
 10
3.0674821654
 20
1.6
 10
3.0631213032
 20
1.5972930532
 10
3.0587751968
 20
1.5891813724
 10
3.0544585521
 20
1.5756924048
 10
3.0501859751
 20
1.5568717929
 10
3.0459719229
 20
1.5327832197
 10
3.0418306546
 20
1.5035081933
 10
3.0377761829
 20
1.469145771
 10
3.0338222269
 20
1.4298122245
 10
3.0299821654
 20
1.3856406461
 10
3.026268992
 20
1.3367804983
 10
3.022695271
 20
1.2833971084
 10
3.0192730947
 20
1.225671109
 10
3.0160140425
 20
1.1637978265
 10
3.0129291423
 20
1.0979866206
 10
3.0100288321
 20
1.0284601755
 10
3.0073229259
 20
0.9554537467
 10
3.0048205795
 20
0.8792143649
 10
3.0025302601
 20
0.8
 10
3.0004597174
 20
0.7180786883
 10
2.9986159574
 20
0.6337276257
 10
2.9970052188
 20
0.5472322293
 10
2.995632952
 20
0.4588851723
 10
2.9945038001
 20
0.3689853932
 10
2.9936215839
 20
0.2778370843
 10
2.9929892885
 20
0.1857486626
 10
2.9926090535
 20
0.0930317263
 10
2.9924821654
 20
0.0
 10
2.9926090535
 20
-0.0930317263
 10
2.9929892885
 20
-0.1857486626
 10
2.9936215839
 20
-0.2778370843
 10
2.9945038001
 20
-0.3689853932
 10
2.995632952
 20
-0.4588851723
 10
2.9970052188
 20
-0.5472322293
 10
2.9986159574
 20
-0.6337276257
 10
3.0004597174
 20
-0.7180786883
 10
3.0025302601
 20
-0.8
 10
3.0048205795
 20
-0.8792143649
 10
3.0073229259
 20
-0.9554537467
 10
3.0100288321
 20
-1.0284601755
 10
3.0129291423
 20
-1.0979866206
 10
3.0160140425
 20
-1.1637978265
 10
3.0192730947
 20
-1.225671109
 10
3.022695271
 20
-1.2833971084
 10
3.026268992
 20
-1.3367804983
 10
3.0299821654
 20
-1.3856406461
 10
3.0338222269
 20
-1.4298122245
 10
3.0377761829
 20
-1.469145771
 10
3.0418306546
 20
-1.5035081933
 10
3.0459719229
 20
-1.5327832197
 10
3.0501859751
 20
-1.5568717929
 10
3.0544585521
 20
-1.5756924048
 10
3.0587751968
 20
-1.5891813724
 10
3.0631213032
 20
-1.5972930532
 10
3.0674821654
 20
-1.6
 10
3.0718430275
 20
-1.5972930532
 10
3.0761891339
 20
-1.5891813724
 10
3.0805057787
 20
-1.5756924048
 10
3.0847783557
 20
-1.5568717929
 10
3.0889924078
 20
-1.5327832197
 10
3.0931336761
 20
-1.5035081933
 10
3.0971881478
 20
-1.469145771
 10
3.1011421039
 20
-1.4298122245
 10
3.1049821654
 20
-1.3856406461
 10
3.1086953387
 20
-1.3367804983
 10
3.1122690598
 20
-1.2833971084
 10
3.1156912361
 20
-1.225671109
 10
3.1189502882
 20
-1.1637978265
 10
3.1220351885
 20
-1.0979866206
 10
3.1249354986
 20
-1.0284601755
 10
3.1276414048
 20
-0.9554537467
 10
3.1301437512
 20
-0.8792143649
 10
3.1324340707
 20
-0.8
 10
3.1345046134
 20
-0.7180786883
 10
3.1363483734
 20
-0.6337276257
 10
3.1379591119
 20
-0.5472322293
 10
3.1393313788
 20
-0.4588851723
 10
3.1404605307
 20
-0.3689853932
 10
3.1413427469
 20
-0.2778370843
 10
3.1419750422
 20
-0.1857486626
 10
3.1423552772
 20
-0.0930317263
 10
3.1424821654
 20
0.0
 10
3.1423552772
 20
0.0930317263
 10
3.1419750422
 20
0.1857486626
 10
3.1413427469
 20
0.2778370843
 10
3.1404605307
 20
0.3689853932
 10
3.1393313788
 20
0.4588851723
 10
3.1379591119
 20
0.5472322293
 10
3.1363483734
 20
0.6337276257
 10
3.1345046134
 20
0.7180786883
 10
3.1324340707
 20
0.8
 10
3.1301437512
 20
0.8792143649
 10
3.1276414048
 20
0.9554537467
 10
3.1249354986
 20
1.0284601755
 10
3.1220351885
 20
1.0979866206
 10
3.1189502882
 20
1.1637978265
 10
3.1156912361
 20
1.225671109
 10
3.1122690598
 20
1.2833971084
 10
3.1086953387
 20
1.3367804983
 10
3.1049821654
 20
1.3856406461
 10
3.1011421039
 20
1.4298122245
 10
3.0971881478
 20
1.469145771
 10
3.0931336761
 20
1.5035081933
 10
3.0889924078
 20
1.5327832197
 10
3.0847783557
 20
1.5568717929
 10
3.0805057787
 20
1.5756924048
 10
3.0761891339
 20
1.5891813724
 10
3.0718430275
 20
1.5972930532
 10
3.0674821654
 20
1.6
  0
LWPOLYLINE
  5
81
330
1F
100
AcDbEntity
  8
0
  6
Continuous
 62
     7
370
    25
100
AcDbPolyline
 90
      109
 70
   128
 43
0.0
 10
2.7674821654
 20
1.6
 10
2.7631213032
 20
1.5972930532
 10
2.7587751968
 20
1.5891813724
 10
2.7544585521
 20
1.5756924048
 10
2.7501859751
 20
1.5568717929
 10
2.7459719229
 20
1.5327832197
 10
2.7418306546
 20
1.5035081933
 10
2.7377761829
 20
1.469145771
 10
2.7338222269
 20
1.4298122245
 10
2.7299821654
 20
1.3856406461
 10
2.726268992
 20
1.3367804983
 10
2.722695271
 20
1.2833971084
 10
2.7192730947
 20
1.225671109
 10
2.7160140425
 20
1.1637978265
 10
2.7129291423
 20
1.0979866206
 10
2.7100288321
 20
1.0284601755
 10
2.7073229259
 20
0.9554537467
 10
2.7048205795
 20
0.8792143649
 10
2.7025302601
 20
0.8
 10
2.7004597174
 20
0.7180786883
 10
2.6986159574
 20
0.6337276257
 10
2.6970052188
 20
0.5472322293
 10
2.695632952
 20
0.4588851723
 10
2.6945038001
 20
0.3689853932
 10
2.6936215839
 20
0.2778370843
 10
2.6929892885
 20
0.1857486626
 10
2.6926090535
 20
0.0930317263
 10
2.6924821654
 20
0.0
 10
2.6926090535
 20
-0.0930317263
 10
2.6929892885
 20
-0.1857486626
 10
2.6936215839
 20
-0.2778370843
 10
2.6945038001
 20
-0.3689853932
 10
2.695632952
 20
-0.4588851723
 10
2.6970052188
 20
-0.5472322293
 10
2.6986159574
 20
-0.6337276257
 10
2.7004597174
 20
-0.7180786883
 10
2.7025302601
 20
-0.8
 10
2.7048205795
 20
-0.8792143649
 10
2.7073229259
 20
-0.9554537467
 10
2.7100288321
 20
-1.0284601755
 10
2.7129291423
 20
-1.0979866206
 10
2.7160140425
 20
-1.1637978265
 10
2.7192730947
 20
-1.225671109
 10
2.722695271
 20
-1.2833971084
 10
2.726268992
 20
-1.3367804983
 10
2.7299821654
 20
-1.3856406461
 10
2.7338222269
 20
-1.4298122245
 10
2.7377761829
 20
-1.469145771
 10
2.7418306546
 20
-1.5035081933
 10
2.7459719229
 20
-1.5327832197
 10
2.7501859751
 20
-1.5568717929
 10
2.7544585521
 20
-1.5756924048
 10
2.7587751968
 20
-1.5891813724
 10
2.7631213032
 20
-1.5972930532
 10
2.7674821654
 20
-1.6
 10
2.7718430275
 20
-1.5972930532
 10
2.7761891339
 20
-1.5891813724
 10
2.7805057787
 20
-1.5756924048
 10
2.7847783557
 20
-1.5568717929
 10
2.7889924078
 20
-1.5327832197
 10
2.7931336761
 20
-1.5035081933
 10
2.7971881478
 20
-1.469145771
 10
2.8011421039
 20
-1.4298122245
 10
2.8049821654
 20
-1.3856406461
 10
2.8086953387
 20
-1.3367804983
 10
2.8122690598
 20
-1.2833971084
 10
2.8156912361
 20
-1.225671109
 10
2.8189502882
 20
-1.1637978265
 10
2.8220351885
 20
-1.0979866206
 10
2.8249354986
 20
-1.0284601755
 10
2.8276414048
 20
-0.9554537467
 10
2.8301437512
 20
-0.8792143649
 10
2.8324340707
 20
-0.8
 10
2.8345046134
 20
-0.7180786883
 10
2.8363483734
 20
-0.6337276257
 10
2.8379591119
 20
-0.5472322293
 10
2.8393313788
 20
-0.4588851723
 10
2.8404605307
 20
-0.3689853932
 10
2.8413427469
 20
-0.2778370843
 10
2.8419750422
 20
-0.1857486626
 10
2.8423552772
 20
-0.0930317263
 10
2.8424821654
 20
0.0
 10
2.8423552772
 20
0.0930317263
 10
2.8419750422
 20
0.1857486626
 10
2.8413427469
 20
0.2778370843
 10
2.8404605307
 20
0.3689853932
 10
2.8393313788
 20
0.4588851723
 10
2.8379591119
 20
0.5472322293
 10
2.8363483734
 20
0.6337276257
 10
2.8345046134
 20
0.7180786883
 10
2.8324340707
 20
0.8
 10
2.8301437512
 20
0.8792143649
 10
2.8276414048
 20
0.9554537467
 10
2.8249354986
 20
1.0284601755
 10
2.8220351885
 20
1.0979866206
 10
2.8189502882
 20
1.1637978265
 10
2.8156912361
 20
1.225671109
 10
2.8122690598
 20
1.2833971084
 10
2.8086953387
 20
1.3367804983
 10
2.8049821654
 20
1.3856406461
 10
2.8011421039
 20
1.4298122245
 10
2.7971881478
 20
1.469145771
 10
2.7931336761
 20
1.5035081933
 10
2.7889924078
 20
1.5327832197
 10
2.7847783557
 20
1.5568717929
 10
2.7805057787
 20
1.5756924048
 10
2.7761891339
 20
1.5891813724
 10
2.7718430275
 20
1.5972930532
 10
2.7674821654
 20
1.6
  0
LWPOLYLINE
  5
82
330
1F
100
AcDbEntity
  8
0
  6
Continuous
 62
     7
370
    25
100
AcDbPolyline
 90
      109
 70
   128
 43
0.0
 10
2.4674821654
 20
1.6
 10
2.4631213032
 20
1.5972930532
 10
2.4587751968
 20
1.5891813724
 10
2.4544585521
 20
1.5756924048
 10
2.4501859751
 20
1.5568717929
 10
2.4459719229
 20
1.5327832197
 10
2.4418306546
 20
1.5035081933
 10
2.4377761829
 20
1.469145771
 10
2.4338222269
 20
1.4298122245
 10
2.4299821654
 20
1.3856406461
 10
2.426268992
 20
1.3367804983
 10
2.422695271
 20
1.2833971084
 10
2.4192730947
 20
1.225671109
 10
2.4160140425
 20
1.1637978265
 10
2.4129291423
 20
1.0979866206
 10
2.4100288321
 20
1.0284601755
 10
2.4073229259
 20
0.9554537467
 10
2.4048205795
 20
0.8792143649
 10
2.4025302601
 20
0.8
 10
2.4004597174
 20
0.7180786883
 10
2.3986159574
 20
0.6337276257
 10
2.3970052188
 20
0.5472322293
 10
2.395632952
 20
0.4588851723
 10
2.3945038001
 20
0.3689853932
 10
2.3936215839
 20
0.2778370843
 10
2.3929892885
 20
0.1857486626
 10
2.3926090535
 20
0.0930317263
 10
2.3924821654
 20
0.0
 10
2.3926090535
 20
-0.0930317263
 10
2.3929892885
 20
-0.1857486626
 10
2.3936215839
 20
-0.2778370843
 10
2.3945038001
 20
-0.3689853932
 10
2.395632952
 20
-0.4588851723
 10
2.3970052188
 20
-0.5472322293
 10
2.3986159574
 20
-0.6337276257
 10
2.4004597174
 20
-0.7180786883
 10
2.4025302601
 20
-0.8
 10
2.4048205795
 20
-0.8792143649
 10
2.4073229259
 20
-0.9554537467
 10
2.4100288321
 20
-1.0284601755
 10
2.4129291423
 20
-1.0979866206
 10
2.4160140425
 20
-1.1637978265
 10
2.4192730947
 20
-1.225671109
 10
2.422695271
 20
-1.2833971084
 10
2.426268992
 20
-1.3367804983
 10
2.4299821654
 20
-1.3856406461
 10
2.4338222269
 20
-1.4298122245
 10
2.4377761829
 20
-1.469145771
 10
2.4418306546
 20
-1.5035081933
 10
2.4459719229
 20
-1.5327832197
 10
2.4501859751
 20
-1.5568717929
 10
2.4544585521
 20
-1.5756924048
 10
2.4587751968
 20
-1.5891813724
 10
2.4631213032
 20
-1.5972930532
 10
2.4674821654
 20
-1.6
 10
2.4718430275
 20
-1.5972930532
 10
2.4761891339
 20
-1.5891813724
 10
2.4805057787
 20
-1.5756924048
 10
2.4847783557
 20
-1.5568717929
 10
2.4889924078
 20
-1.5327832197
 10
2.4931336761
 20
-1.5035081933
 10
2.4971881478
 20
-1.469145771
 10
2.5011421039
 20
-1.4298122245
 10
2.5049821654
 20
-1.3856406461
 10
2.5086953387
 20
-1.3367804983
 10
2.5122690598
 20
-1.2833971084
 10
2.5156912361
 20
-1.225671109
 10
2.5189502882
 20
-1.1637978265
 10
2.5220351885
 20
-1.0979866206
 10
2.5249354986
 20
-1.0284601755
 10
2.5276414048
 20
-0.9554537467
 10
2.5301437512
 20
-0.8792143649
 10
2.5324340707
 20
-0.8
 10
2.5345046134
 20
-0.7180786883
 10
2.5363483734
 20
-0.6337276257
 10
2.5379591119
 20
-0.5472322293
 10
2.5393313788
 20
-0.4588851723
 10
2.5404605307
 20
-0.3689853932
 10
2.5413427469
 20
-0.2778370843
 10
2.5419750422
 20
-0.1857486626
 10
2.5423552772
 20
-0.0930317263
 10
2.5424821654
 20
0.0
 10
2.5423552772
 20
0.0930317263
 10
2.5419750422
 20
0.1857486626
 10
2.5413427469
 20
0.2778370843
 10
2.5404605307
 20
0.3689853932
 10
2.5393313788
 20
0.4588851723
 10
2.5379591119
 20
0.5472322293
 10
2.5363483734
 20
0.6337276257
 10
2.5345046134
 20
0.7180786883
 10
2.5324340707
 20
0.8
 10
2.5301437512
 20
0.8792143649
 10
2.5276414048
 20
0.9554537467
 10
2.5249354986
 20
1.0284601755
 10
2.5220351885
 20
1.0979866206
 10
2.5189502882
 20
1.1637978265
 10
2.5156912361
 20
1.225671109
 10
2.5122690598
 20
1.2833971084
 10
2.5086953387
 20
1.3367804983
 10
2.5049821654
 20
1.3856406461
 10
2.5011421039
 20
1.4298122245
 10
2.4971881478
 20
1.469145771
 10
2.4931336761
 20
1.5035081933
 10
2.4889924078
 20
1.5327832197
 10
2.4847783557
 20
1.5568717929
 10
2.4805057787
 20
1.5756924048
 10
2.4761891339
 20
1.5891813724
 10
2.4718430275
 20
1.5972930532
 10
2.4674821654
 20
1.6
  0
LWPOLYLINE
  5
83
330
1F
100
AcDbEntity
  8
0
  6
Continuous
 62
     7
370
    25
100
AcDbPolyline
 90
      109
 70
   128
 43
0.0
 10
1.8674821654
 20
1.6
 10
1.8631213032
 20
1.5972930532
 10
1.8587751968
 20
1.5891813724
 10
1.8544585521
 20
1.5756924048
 10
1.8501859751
 20
1.5568717929
 10
1.8459719229
 20
1.5327832197
 10
1.8418306546
 20
1.5035081933
 10
1.8377761829
 20
1.469145771
 10
1.8338222269
 20
1.4298122245
 10
1.8299821654
 20
1.3856406461
 10
1.826268992
 20
1.3367804983
 10
1.822695271
 20
1.2833971084
 10
1.8192730947
 20
1.225671109
 10
1.8160140425
 20
1.1637978265
 10
1.8129291423
 20
1.0979866206
 10
1.8100288321
 20
1.0284601755
 10
1.8073229259
 20
0.9554537467
 10
1.8048205795
 20
0.8792143649
 10
1.8025302601
 20
0.8
 10
1.8004597174
 20
0.7180786883
 10
1.7986159574
 20
0.6337276257
 10
1.7970052188
 20
0.5472322293
 10
1.795632952
 20
0.4588851723
 10
1.7945038001
 20
0.3689853932
 10
1.7936215839
 20
0.2778370843
 10
1.7929892885
 20
0.1857486626
 10
1.7926090535
 20
0.0930317263
 10
1.7924821654
 20
0.0
 10
1.7926090535
 20
-0.0930317263
 10
1.7929892885
 20
-0.1857486626
 10
1.7936215839
 20
-0.2778370843
 10
1.7945038001
 20
-0.3689853932
 10
1.795632952
 20
-0.4588851723
 10
1.7970052188
 20
-0.5472322293
 10
1.7986159574
 20
-0.6337276257
 10
1.8004597174
 20
-0.7180786883
 10
1.8025302601
 20
-0.8
 10
1.8048205795
 20
-0.8792143649
 10
1.8073229259
 20
-0.9554537467
 10
1.8100288321
 20
-1.0284601755
 10
1.8129291423
 20
-1.0979866206
 10
1.8160140425
 20
-1.1637978265
 10
1.8192730947
 20
-1.225671109
 10
1.822695271
 20
-1.2833971084
 10
1.826268992
 20
-1.3367804983
 10
1.8299821654
 20
-1.3856406461
 10
1.8338222269
 20
-1.4298122245
 10
1.8377761829
 20
-1.469145771
 10
1.8418306546
 20
-1.5035081933
 10
1.8459719229
 20
-1.5327832197
 10
1.8501859751
 20
-1.5568717929
 10
1.8544585521
 20
-1.5756924048
 10
1.8587751968
 20
-1.5891813724
 10
1.8631213032
 20
-1.5972930532
 10
1.8674821654
 20
-1.6
 10
1.8718430275
 20
-1.5972930532
 10
1.8761891339
 20
-1.5891813724
 10
1.8805057787
 20
-1.5756924048
 10
1.8847783557
 20
-1.5568717929
 10
1.8889924078
 20
-1.5327832197
 10
1.8931336761
 20
-1.5035081933
 10
1.8971881478
 20
-1.469145771
 10
1.9011421039
 20
-1.4298122245
 10
1.9049821654
 20
-1.3856406461
 10
1.9086953387
 20
-1.3367804983
 10
1.9122690598
 20
-1.2833971084
 10
1.9156912361
 20
-1.225671109
 10
1.9189502882
 20
-1.1637978265
 10
1.9220351885
 20
-1.0979866206
 10
1.9249354986
 20
-1.0284601755
 10
1.9276414048
 20
-0.9554537467
 10
1.9301437512
 20
-0.8792143649
 10
1.9324340707
 20
-0.8
 10
1.9345046134
 20
-0.7180786883
 10
1.9363483734
 20
-0.6337276257
 10
1.9379591119
 20
-0.5472322293
 10
1.9393313788
 20
-0.4588851723
 10
1.9404605307
 20
-0.3689853932
 10
1.9413427469
 20
-0.2778370843
 10
1.9419750422
 20
-0.1857486626
 10
1.9423552772
 20
-0.0930317263
 10
1.9424821654
 20
0.0
 10
1.9423552772
 20
0.0930317263
 10
1.9419750422
 20
0.1857486626
 10
1.9413427469
 20
0.2778370843
 10
1.9404605307
 20
0.3689853932
 10
1.9393313788
 20
0.4588851723
 10
1.9379591119
 20
0.5472322293
 10
1.9363483734
 20
0.6337276257
 10
1.9345046134
 20
0.7180786883
 10
1.9324340707
 20
0.8
 10
1.9301437512
 20
0.8792143649
 10
1.9276414048
 20
0.9554537467
 10
1.9249354986
 20
1.0284601755
 10
1.9220351885
 20
1.0979866206
 10
1.9189502882
 20
1.1637978265
 10
1.9156912361
 20
1.225671109
 10
1.9122690598
 20
1.2833971084
 10
1.9086953387
 20
1.3367804983
 10
1.9049821654
 20
1.3856406461
 10
1.9011421039
 20
1.4298122245
 10
1.8971881478
 20
1.469145771
 10
1.8931336761
 20
1.5035081933
 10
1.8889924078
 20
1.5327832197
 10
1.8847783557
 20
1.5568717929
 10
1.8805057787
 20
1.5756924048
 10
1.8761891339
 20
1.5891813724
 10
1.8718430275
 20
1.5972930532
 10
1.8674821654
 20
1.6
  0
LWPOLYLINE
  5
84
330
1F
100
AcDbEntity
  8
0
  6
Continuous
 62
     7
370
    25
100
AcDbPolyline
 90
      109
 70
   128
 43
0.0
 10
2.1674821654
 20
1.6
 10
2.1631213032
 20
1.5972930532
 10
2.1587751968
 20
1.5891813724
 10
2.1544585521
 20
1.5756924048
 10
2.1501859751
 20
1.5568717929
 10
2.1459719229
 20
1.5327832197
 10
2.1418306546
 20
1.5035081933
 10
2.1377761829
 20
1.469145771
 10
2.1338222269
 20
1.4298122245
 10
2.1299821654
 20
1.3856406461
 10
2.126268992
 20
1.3367804983
 10
2.122695271
 20
1.2833971084
 10
2.1192730947
 20
1.225671109
 10
2.1160140425
 20
1.1637978265
 10
2.1129291423
 20
1.0979866206
 10
2.1100288321
 20
1.0284601755
 10
2.1073229259
 20
0.9554537467
 10
2.1048205795
 20
0.8792143649
 10
2.1025302601
 20
0.8
 10
2.1004597174
 20
0.7180786883
 10
2.0986159574
 20
0.6337276257
 10
2.0970052188
 20
0.5472322293
 10
2.095632952
 20
0.4588851723
 10
2.0945038001
 20
0.3689853932
 10
2.0936215839
 20
0.2778370843
 10
2.0929892885
 20
0.1857486626
 10
2.0926090535
 20
0.0930317263
 10
2.0924821654
 20
0.0
 10
2.0926090535
 20
-0.0930317263
 10
2.0929892885
 20
-0.1857486626
 10
2.0936215839
 20
-0.2778370843
 10
2.0945038001
 20
-0.3689853932
 10
2.095632952
 20
-0.4588851723
 10
2.0970052188
 20
-0.5472322293
 10
2.0986159574
 20
-0.6337276257
 10
2.1004597174
 20
-0.7180786883
 10
2.1025302601
 20
-0.8
 10
2.1048205795
 20
-0.8792143649
 10
2.1073229259
 20
-0.9554537467
 10
2.1100288321
 20
-1.0284601755
 10
2.1129291423
 20
-1.0979866206
 10
2.1160140425
 20
-1.1637978265
 10
2.1192730947
 20
-1.225671109
 10
2.122695271
 20
-1.2833971084
 10
2.126268992
 20
-1.3367804983
 10
2.1299821654
 20
-1.3856406461
 10
2.1338222269
 20
-1.4298122245
 10
2.1377761829
 20
-1.469145771
 10
2.1418306546
 20
-1.5035081933
 10
2.1459719229
 20
-1.5327832197
 10
2.1501859751
 20
-1.5568717929
 10
2.1544585521
 20
-1.5756924048
 10
2.1587751968
 20
-1.5891813724
 10
2.1631213032
 20
-1.5972930532
 10
2.1674821654
 20
-1.6
 10
2.1718430275
 20
-1.5972930532
 10
2.1761891339
 20
-1.5891813724
 10
2.1805057787
 20
-1.5756924048
 10
2.1847783557
 20
-1.5568717929
 10
2.1889924078
 20
-1.5327832197
 10
2.1931336761
 20
-1.5035081933
 10
2.1971881478
 20
-1.469145771
 10
2.2011421039
 20
-1.4298122245
 10
2.2049821654
 20
-1.3856406461
 10
2.2086953387
 20
-1.3367804983
 10
2.2122690598
 20
-1.2833971084
 10
2.2156912361
 20
-1.225671109
 10
2.2189502882
 20
-1.1637978265
 10
2.2220351885
 20
-1.0979866206
 10
2.2249354986
 20
-1.0284601755
 10
2.2276414048
 20
-0.9554537467
 10
2.2301437512
 20
-0.8792143649
 10
2.2324340707
 20
-0.8
 10
2.2345046134
 20
-0.7180786883
 10
2.2363483734
 20
-0.6337276257
 10
2.2379591119
 20
-0.5472322293
 10
2.2393313788
 20
-0.4588851723
 10
2.2404605307
 20
-0.3689853932
 10
2.2413427469
 20
-0.2778370843
 10
2.2419750422
 20
-0.1857486626
 10
2.2423552772
 20
-0.0930317263
 10
2.2424821654
 20
0.0
 10
2.2423552772
 20
0.0930317263
 10
2.2419750422
 20
0.1857486626
 10
2.2413427469
 20
0.2778370843
 10
2.2404605307
 20
0.3689853932
 10
2.2393313788
 20
0.4588851723
 10
2.2379591119
 20
0.5472322293
 10
2.2363483734
 20
0.6337276257
 10
2.2345046134
 20
0.7180786883
 10
2.2324340707
 20
0.8
 10
2.2301437512
 20
0.8792143649
 10
2.2276414048
 20
0.9554537467
 10
2.2249354986
 20
1.0284601755
 10
2.2220351885
 20
1.0979866206
 10
2.2189502882
 20
1.1637978265
 10
2.2156912361
 20
1.225671109
 10
2.2122690598
 20
1.2833971084
 10
2.2086953387
 20
1.3367804983
 10
2.2049821654
 20
1.3856406461
 10
2.2011421039
 20
1.4298122245
 10
2.1971881478
 20
1.469145771
 10
2.1931336761
 20
1.5035081933
 10
2.1889924078
 20
1.5327832197
 10
2.1847783557
 20
1.5568717929
 10
2.1805057787
 20
1.5756924048
 10
2.1761891339
 20
1.5891813724
 10
2.1718430275
 20
1.5972930532
 10
2.1674821654
 20
1.6
  0
LWPOLYLINE
  5
8B
330
1F
100
AcDbEntity
  8
0
  6
Continuous
 62
     7
370
    25
100
AcDbPolyline
 90
       55
 70
   128
 43
0.0
 10
6.87
 20
-1.75
 10
6.8699154079
 20
-1.6569682737
 10
6.8696619179
 20
-1.5642513374
 10
6.8692403877
 20
-1.4721629157
 10
6.8686522435
 20
-1.3810146068
 10
6.8678994756
 20
-1.2911148277
 10
6.866984631
 20
-1.2027677707
 10
6.8659108053
 20
-1.1162723743
 10
6.864681632
 20
-1.0319213117
 10
6.8633012702
 20
-0.95
 10
6.8617743906
 20
-0.8707856351
 10
6.8601061596
 20
-0.7945462533
 10
6.8583022222
 20
-0.7215398245
 10
6.8563686821
 20
-0.6520133794
 10
6.8543120819
 20
-0.5862021735
 10
6.8521393805
 20
-0.524328891
 10
6.8498579296
 20
-0.4666028916
 10
6.8474754489
 20
-0.4132195017
 10
6.845
 20
-0.3643593539
 10
6.842439959
 20
-0.3201877755
 10
6.8398039883
 20
-0.280854229
 10
6.8371010072
 20
-0.2464918067
 10
6.8343401616
 20
-0.2172167803
 10
6.8315307935
 20
-0.1931282071
 10
6.8286824089
 20
-0.1743075952
 10
6.8258046457
 20
-0.1608186276
 10
6.8229072414
 20
-0.1527069468
 10
6.82
 20
-0.15
 10
6.8170927586
 20
-0.1527069468
 10
6.8141953543
 20
-0.1608186276
 10
6.8113175911
 20
-0.1743075952
 10
6.8084692065
 20
-0.1931282071
 10
6.8056598384
 20
-0.2172167803
 10
6.8028989928
 20
-0.2464918067
 10
6.8001960117
 20
-0.280854229
 10
6.797560041
 20
-0.3201877755
 10
6.795
 20
-0.3643593539
 10
6.7925245511
 20
-0.4132195017
 10
6.7901420704
 20
-0.4666028916
 10
6.7878606195
 20
-0.524328891
 10
6.7856879181
 20
-0.5862021735
 10
6.7836313179
 20
-0.6520133794
 10
6.7816977778
 20
-0.7215398245
 10
6.7798938404
 20
-0.7945462533
 10
6.7782256094
 20
-0.8707856351
 10
6.7766987298
 20
-0.95
 10
6.775318368
 20
-1.0319213117
 10
6.7740891947
 20
-1.1162723743
 10
6.773015369
 20
-1.2027677707
 10
6.7721005244
 20
-1.2911148277
 10
6.7713477565
 20
-1.3810146068
 10
6.7707596123
 20
-1.4721629157
 10
6.7703380821
 20
-1.5642513374
 10
6.7700845921
 20
-1.6569682737
 10
6.77
 20
-1.75
  0
LWPOLYLINE
  5
8D
330
1F
100
AcDbEntity
  8
0
  6
Continuous
 62
     7
370
    25
100
AcDbPolyline
 90
       55
 70
   128
 43
0.0
 10
6.57
 20
-1.75
 10
6.5699154079
 20
-1.6569682737
 10
6.5696619179
 20
-1.5642513374
 10
6.5692403877
 20
-1.4721629157
 10
6.5686522435
 20
-1.3810146068
 10
6.5678994756
 20
-1.2911148277
 10
6.566984631
 20
-1.2027677707
 10
6.5659108053
 20
-1.1162723743
 10
6.564681632
 20
-1.0319213117
 10
6.5633012702
 20
-0.95
 10
6.5617743906
 20
-0.8707856351
 10
6.5601061596
 20
-0.7945462533
 10
6.5583022222
 20
-0.7215398245
 10
6.5563686821
 20
-0.6520133794
 10
6.5543120819
 20
-0.5862021735
 10
6.5521393805
 20
-0.524328891
 10
6.5498579296
 20
-0.4666028916
 10
6.5474754489
 20
-0.4132195017
 10
6.545
 20
-0.3643593539
 10
6.542439959
 20
-0.3201877755
 10
6.5398039883
 20
-0.280854229
 10
6.5371010072
 20
-0.2464918067
 10
6.5343401616
 20
-0.2172167803
 10
6.5315307935
 20
-0.1931282071
 10
6.5286824089
 20
-0.1743075952
 10
6.5258046457
 20
-0.1608186276
 10
6.5229072414
 20
-0.1527069468
 10
6.52
 20
-0.15
 10
6.5170927586
 20
-0.1527069468
 10
6.5141953543
 20
-0.1608186276
 10
6.5113175911
 20
-0.1743075952
 10
6.5084692065
 20
-0.1931282071
 10
6.5056598384
 20
-0.2172167803
 10
6.5028989928
 20
-0.2464918067
 10
6.5001960117
 20
-0.280854229
 10
6.497560041
 20
-0.3201877755
 10
6.495
 20
-0.3643593539
 10
6.4925245511
 20
-0.4132195017
 10
6.4901420704
 20
-0.4666028916
 10
6.4878606195
 20
-0.524328891
 10
6.4856879181
 20
-0.5862021735
 10
6.4836313179
 20
-0.6520133794
 10
6.4816977778
 20
-0.7215398245
 10
6.4798938404
 20
-0.7945462533
 10
6.4782256094
 20
-0.8707856351
 10
6.4766987298
 20
-0.95
 10
6.475318368
 20
-1.0319213117
 10
6.4740891947
 20
-1.1162723743
 10
6.473015369
 20
-1.2027677707
 10
6.4721005244
 20
-1.2911148277
 10
6.4713477565
 20
-1.3810146068
 10
6.4707596123
 20
-1.4721629157
 10
6.4703380821
 20
-1.5642513374
 10
6.4700845921
 20
-1.6569682737
 10
6.47
 20
-1.75
  0
LWPOLYLINE
  5
8F
330
1F
100
AcDbEntity
  8
0
  6
Continuous
 62
     7
370
    25
100
AcDbPolyline
 90
       55
 70
   128
 43
0.0
 10
6.27
 20
-1.75
 10
6.2699154079
 20
-1.6569682737
 10
6.2696619179
 20
-1.5642513374
 10
6.2692403877
 20
-1.4721629157
 10
6.2686522435
 20
-1.3810146068
 10
6.2678994756
 20
-1.2911148277
 10
6.266984631
 20
-1.2027677707
 10
6.2659108053
 20
-1.1162723743
 10
6.264681632
 20
-1.0319213117
 10
6.2633012702
 20
-0.95
 10
6.2617743906
 20
-0.8707856351
 10
6.2601061596
 20
-0.7945462533
 10
6.2583022222
 20
-0.7215398245
 10
6.2563686821
 20
-0.6520133794
 10
6.2543120819
 20
-0.5862021735
 10
6.2521393805
 20
-0.524328891
 10
6.2498579296
 20
-0.4666028916
 10
6.2474754489
 20
-0.4132195017
 10
6.245
 20
-0.3643593539
 10
6.242439959
 20
-0.3201877755
 10
6.2398039883
 20
-0.280854229
 10
6.2371010072
 20
-0.2464918067
 10
6.2343401616
 20
-0.2172167803
 10
6.2315307935
 20
-0.1931282071
 10
6.2286824089
 20
-0.1743075952
 10
6.2258046457
 20
-0.1608186276
 10
6.2229072414
 20
-0.1527069468
 10
6.22
 20
-0.15
 10
6.2170927586
 20
-0.1527069468
 10
6.2141953543
 20
-0.1608186276
 10
6.2113175911
 20
-0.1743075952
 10
6.2084692065
 20
-0.1931282071
 10
6.2056598384
 20
-0.2172167803
 10
6.2028989928
 20
-0.2464918067
 10
6.2001960117
 20
-0.280854229
 10
6.197560041
 20
-0.3201877755
 10
6.195
 20
-0.3643593539
 10
6.1925245511
 20
-0.4132195017
 10
6.1901420704
 20
-0.4666028916
 10
6.1878606195
 20
-0.524328891
 10
6.1856879181
 20
-0.5862021735
 10
6.1836313179
 20
-0.6520133794
 10
6.1816977778
 20
-0.7215398245
 10
6.1798938404
 20
-0.7945462533
 10
6.1782256094
 20
-0.8707856351
 10
6.1766987298
 20
-0.95
 10
6.175318368
 20
-1.0319213117
 10
6.1740891947
 20
-1.1162723743
 10
6.173015369
 20
-1.2027677707
 10
6.1721005244
 20
-1.2911148277
 10
6.1713477565
 20
-1.3810146068
 10
6.1707596123
 20
-1.4721629157
 10
6.1703380821
 20
-1.5642513374
 10
6.1700845921
 20
-1.6569682737
 10
6.17
 20
-1.75
  0
LWPOLYLINE
  5
91
330
1F
100
AcDbEntity
  8
0
  6
Continuous
 62
     7
370
    25
100
AcDbPolyline
 90
       55
 70
   128
 43
0.0
 10
5.97
 20
-1.75
 10
5.9699154079
 20
-1.6569682737
 10
5.9696619179
 20
-1.5642513374
 10
5.9692403877
 20
-1.4721629157
 10
5.9686522435
 20
-1.3810146068
 10
5.9678994756
 20
-1.2911148277
 10
5.966984631
 20
-1.2027677707
 10
5.9659108053
 20
-1.1162723743
 10
5.964681632
 20
-1.0319213117
 10
5.9633012702
 20
-0.95
 10
5.9617743906
 20
-0.8707856351
 10
5.9601061596
 20
-0.7945462533
 10
5.9583022222
 20
-0.7215398245
 10
5.9563686821
 20
-0.6520133794
 10
5.9543120819
 20
-0.5862021735
 10
5.9521393805
 20
-0.524328891
 10
5.9498579296
 20
-0.4666028916
 10
5.9474754489
 20
-0.4132195017
 10
5.945
 20
-0.3643593539
 10
5.942439959
 20
-0.3201877755
 10
5.9398039883
 20
-0.280854229
 10
5.9371010072
 20
-0.2464918067
 10
5.9343401616
 20
-0.2172167803
 10
5.9315307935
 20
-0.1931282071
 10
5.9286824089
 20
-0.1743075952
 10
5.9258046457
 20
-0.1608186276
 10
5.9229072414
 20
-0.1527069468
 10
5.92
 20
-0.15
 10
5.9170927586
 20
-0.1527069468
 10
5.9141953543
 20
-0.1608186276
 10
5.9113175911
 20
-0.1743075952
 10
5.9084692065
 20
-0.1931282071
 10
5.9056598384
 20
-0.2172167803
 10
5.9028989928
 20
-0.2464918067
 10
5.9001960117
 20
-0.280854229
 10
5.897560041
 20
-0.3201877755
 10
5.895
 20
-0.3643593539
 10
5.8925245511
 20
-0.4132195017
 10
5.8901420704
 20
-0.4666028916
 10
5.8878606195
 20
-0.524328891
 10
5.8856879181
 20
-0.5862021735
 10
5.8836313179
 20
-0.6520133794
 10
5.8816977778
 20
-0.7215398245
 10
5.8798938404
 20
-0.7945462533
 10
5.8782256094
 20
-0.8707856351
 10
5.8766987298
 20
-0.95
 10
5.875318368
 20
-1.0319213117
 10
5.8740891947
 20
-1.1162723743
 10
5.873015369
 20
-1.2027677707
 10
5.8721005244
 20
-1.2911148277
 10
5.8713477565
 20
-1.3810146068
 10
5.8707596123
 20
-1.4721629157
 10
5.8703380821
 20
-1.5642513374
 10
5.8700845921
 20
-1.6569682737
 10
5.87
 20
-1.75
  0
LWPOLYLINE
  5
93
330
1F
100
AcDbEntity
  8
0
  6
Continuous
 62
     7
370
    25
100
AcDbPolyline
 90
       55
 70
   128
 43
0.0
 10
5.67
 20
-1.75
 10
5.6699154079
 20
-1.6569682737
 10
5.6696619179
 20
-1.5642513374
 10
5.6692403877
 20
-1.4721629157
 10
5.6686522435
 20
-1.3810146068
 10
5.6678994756
 20
-1.2911148277
 10
5.666984631
 20
-1.2027677707
 10
5.6659108053
 20
-1.1162723743
 10
5.664681632
 20
-1.0319213117
 10
5.6633012702
 20
-0.95
 10
5.6617743906
 20
-0.8707856351
 10
5.6601061596
 20
-0.7945462533
 10
5.6583022222
 20
-0.7215398245
 10
5.6563686821
 20
-0.6520133794
 10
5.6543120819
 20
-0.5862021735
 10
5.6521393805
 20
-0.524328891
 10
5.6498579296
 20
-0.4666028916
 10
5.6474754489
 20
-0.4132195017
 10
5.645
 20
-0.3643593539
 10
5.642439959
 20
-0.3201877755
 10
5.6398039883
 20
-0.280854229
 10
5.6371010072
 20
-0.2464918067
 10
5.6343401616
 20
-0.2172167803
 10
5.6315307935
 20
-0.1931282071
 10
5.6286824089
 20
-0.1743075952
 10
5.6258046457
 20
-0.1608186276
 10
5.6229072414
 20
-0.1527069468
 10
5.62
 20
-0.15
 10
5.6170927586
 20
-0.1527069468
 10
5.6141953543
 20
-0.1608186276
 10
5.6113175911
 20
-0.1743075952
 10
5.6084692065
 20
-0.1931282071
 10
5.6056598384
 20
-0.2172167803
 10
5.6028989928
 20
-0.2464918067
 10
5.6001960117
 20
-0.280854229
 10
5.597560041
 20
-0.3201877755
 10
5.595
 20
-0.3643593539
 10
5.5925245511
 20
-0.4132195017
 10
5.5901420704
 20
-0.4666028916
 10
5.5878606195
 20
-0.524328891
 10
5.5856879181
 20
-0.5862021735
 10
5.5836313179
 20
-0.6520133794
 10
5.5816977778
 20
-0.7215398245
 10
5.5798938404
 20
-0.7945462533
 10
5.5782256094
 20
-0.8707856351
 10
5.5766987298
 20
-0.95
 10
5.575318368
 20
-1.0319213117
 10
5.5740891947
 20
-1.1162723743
 10
5.573015369
 20
-1.2027677707
 10
5.5721005244
 20
-1.2911148277
 10
5.5713477565
 20
-1.3810146068
 10
5.5707596123
 20
-1.4721629157
 10
5.5703380821
 20
-1.5642513374
 10
5.5700845921
 20
-1.6569682737
 10
5.57
 20
-1.75
  0
LWPOLYLINE
  5
95
330
1F
100
AcDbEntity
  8
0
  6
Continuous
 62
     7
370
    25
100
AcDbPolyline
 90
       55
 70
   128
 43
0.0
 10
5.37
 20
-1.75
 10
5.3699154079
 20
-1.6569682737
 10
5.3696619179
 20
-1.5642513374
 10
5.3692403877
 20
-1.4721629157
 10
5.3686522435
 20
-1.3810146068
 10
5.3678994756
 20
-1.2911148277
 10
5.366984631
 20
-1.2027677707
 10
5.3659108053
 20
-1.1162723743
 10
5.364681632
 20
-1.0319213117
 10
5.3633012702
 20
-0.95
 10
5.3617743906
 20
-0.8707856351
 10
5.3601061596
 20
-0.7945462533
 10
5.3583022222
 20
-0.7215398245
 10
5.3563686821
 20
-0.6520133794
 10
5.3543120819
 20
-0.5862021735
 10
5.3521393805
 20
-0.524328891
 10
5.3498579296
 20
-0.4666028916
 10
5.3474754489
 20
-0.4132195017
 10
5.345
 20
-0.3643593539
 10
5.342439959
 20
-0.3201877755
 10
5.3398039883
 20
-0.280854229
 10
5.3371010072
 20
-0.2464918067
 10
5.3343401616
 20
-0.2172167803
 10
5.3315307935
 20
-0.1931282071
 10
5.3286824089
 20
-0.1743075952
 10
5.3258046457
 20
-0.1608186276
 10
5.3229072414
 20
-0.1527069468
 10
5.32
 20
-0.15
 10
5.3170927586
 20
-0.1527069468
 10
5.3141953543
 20
-0.1608186276
 10
5.3113175911
 20
-0.1743075952
 10
5.3084692065
 20
-0.1931282071
 10
5.3056598384
 20
-0.2172167803
 10
5.3028989928
 20
-0.2464918067
 10
5.3001960117
 20
-0.280854229
 10
5.297560041
 20
-0.3201877755
 10
5.295
 20
-0.3643593539
 10
5.2925245511
 20
-0.4132195017
 10
5.2901420704
 20
-0.4666028916
 10
5.2878606195
 20
-0.524328891
 10
5.2856879181
 20
-0.5862021735
 10
5.2836313179
 20
-0.6520133794
 10
5.2816977778
 20
-0.7215398245
 10
5.2798938404
 20
-0.7945462533
 10
5.2782256094
 20
-0.8707856351
 10
5.2766987298
 20
-0.95
 10
5.275318368
 20
-1.0319213117
 10
5.2740891947
 20
-1.1162723743
 10
5.273015369
 20
-1.2027677707
 10
5.2721005244
 20
-1.2911148277
 10
5.2713477565
 20
-1.3810146068
 10
5.2707596123
 20
-1.4721629157
 10
5.2703380821
 20
-1.5642513374
 10
5.2700845921
 20
-1.6569682737
 10
5.27
 20
-1.75
  0
LWPOLYLINE
  5
97
330
1F
100
AcDbEntity
  8
0
  6
Continuous
 62
     7
370
    25
100
AcDbPolyline
 90
       55
 70
   128
 43
0.0
 10
5.07
 20
-1.75
 10
5.0699154079
 20
-1.6569682737
 10
5.0696619179
 20
-1.5642513374
 10
5.0692403877
 20
-1.4721629157
 10
5.0686522435
 20
-1.3810146068
 10
5.0678994756
 20
-1.2911148277
 10
5.066984631
 20
-1.2027677707
 10
5.0659108053
 20
-1.1162723743
 10
5.064681632
 20
-1.0319213117
 10
5.0633012702
 20
-0.95
 10
5.0617743906
 20
-0.8707856351
 10
5.0601061596
 20
-0.7945462533
 10
5.0583022222
 20
-0.7215398245
 10
5.0563686821
 20
-0.6520133794
 10
5.0543120819
 20
-0.5862021735
 10
5.0521393805
 20
-0.524328891
 10
5.0498579296
 20
-0.4666028916
 10
5.0474754489
 20
-0.4132195017
 10
5.045
 20
-0.3643593539
 10
5.042439959
 20
-0.3201877755
 10
5.0398039883
 20
-0.280854229
 10
5.0371010072
 20
-0.2464918067
 10
5.0343401616
 20
-0.2172167803
 10
5.0315307935
 20
-0.1931282071
 10
5.0286824089
 20
-0.1743075952
 10
5.0258046457
 20
-0.1608186276
 10
5.0229072414
 20
-0.1527069468
 10
5.02
 20
-0.15
 10
5.0170927586
 20
-0.1527069468
 10
5.0141953543
 20
-0.1608186276
 10
5.0113175911
 20
-0.1743075952
 10
5.0084692065
 20
-0.1931282071
 10
5.0056598384
 20
-0.2172167803
 10
5.0028989928
 20
-0.2464918067
 10
5.0001960117
 20
-0.280854229
 10
4.997560041
 20
-0.3201877755
 10
4.995
 20
-0.3643593539
 10
4.9925245511
 20
-0.4132195017
 10
4.9901420704
 20
-0.4666028916
 10
4.9878606195
 20
-0.524328891
 10
4.9856879181
 20
-0.5862021735
 10
4.9836313179
 20
-0.6520133794
 10
4.9816977778
 20
-0.7215398245
 10
4.9798938404
 20
-0.7945462533
 10
4.9782256094
 20
-0.8707856351
 10
4.9766987298
 20
-0.95
 10
4.975318368
 20
-1.0319213117
 10
4.9740891947
 20
-1.1162723743
 10
4.973015369
 20
-1.2027677707
 10
4.9721005244
 20
-1.2911148277
 10
4.9713477565
 20
-1.3810146068
 10
4.9707596123
 20
-1.4721629157
 10
4.9703380821
 20
-1.5642513374
 10
4.9700845921
 20
-1.6569682737
 10
4.97
 20
-1.75
  0
LWPOLYLINE
  5
99
330
1F
100
AcDbEntity
  8
0
  6
Continuous
 62
     7
370
    25
100
AcDbPolyline
 90
       55
 70
   128
 43
0.0
 10
4.77
 20
-1.75
 10
4.7699154079
 20
-1.6569682737
 10
4.7696619179
 20
-1.5642513374
 10
4.7692403877
 20
-1.4721629157
 10
4.7686522435
 20
-1.3810146068
 10
4.7678994756
 20
-1.2911148277
 10
4.766984631
 20
-1.2027677707
 10
4.7659108053
 20
-1.1162723743
 10
4.764681632
 20
-1.0319213117
 10
4.7633012702
 20
-0.95
 10
4.7617743906
 20
-0.8707856351
 10
4.7601061596
 20
-0.7945462533
 10
4.7583022222
 20
-0.7215398245
 10
4.7563686821
 20
-0.6520133794
 10
4.7543120819
 20
-0.5862021735
 10
4.7521393805
 20
-0.524328891
 10
4.7498579296
 20
-0.4666028916
 10
4.7474754489
 20
-0.4132195017
 10
4.745
 20
-0.3643593539
 10
4.742439959
 20
-0.3201877755
 10
4.7398039883
 20
-0.280854229
 10
4.7371010072
 20
-0.2464918067
 10
4.7343401616
 20
-0.2172167803
 10
4.7315307935
 20
-0.1931282071
 10
4.7286824089
 20
-0.1743075952
 10
4.7258046457
 20
-0.1608186276
 10
4.7229072414
 20
-0.1527069468
 10
4.72
 20
-0.15
 10
4.7170927586
 20
-0.1527069468
 10
4.7141953543
 20
-0.1608186276
 10
4.7113175911
 20
-0.1743075952
 10
4.7084692065
 20
-0.1931282071
 10
4.7056598384
 20
-0.2172167803
 10
4.7028989928
 20
-0.2464918067
 10
4.7001960117
 20
-0.280854229
 10
4.697560041
 20
-0.3201877755
 10
4.695
 20
-0.3643593539
 10
4.6925245511
 20
-0.4132195017
 10
4.6901420704
 20
-0.4666028916
 10
4.6878606195
 20
-0.524328891
 10
4.6856879181
 20
-0.5862021735
 10
4.6836313179
 20
-0.6520133794
 10
4.6816977778
 20
-0.7215398245
 10
4.6798938404
 20
-0.7945462533
 10
4.6782256094
 20
-0.8707856351
 10
4.6766987298
 20
-0.95
 10
4.675318368
 20
-1.0319213117
 10
4.6740891947
 20
-1.1162723743
 10
4.673015369
 20
-1.2027677707
 10
4.6721005244
 20
-1.2911148277
 10
4.6713477565
 20
-1.3810146068
 10
4.6707596123
 20
-1.4721629157
 10
4.6703380821
 20
-1.5642513374
 10
4.6700845921
 20
-1.6569682737
 10
4.67
 20
-1.75
  0
LWPOLYLINE
  5
9B
330
1F
100
AcDbEntity
  8
0
  6
Continuous
 62
     7
370
    25
100
AcDbPolyline
 90
       55
 70
   128
 43
0.0
 10
4.47
 20
-1.75
 10
4.4699154079
 20
-1.6569682737
 10
4.4696619179
 20
-1.5642513374
 10
4.4692403877
 20
-1.4721629157
 10
4.4686522435
 20
-1.3810146068
 10
4.4678994756
 20
-1.2911148277
 10
4.466984631
 20
-1.2027677707
 10
4.4659108053
 20
-1.1162723743
 10
4.464681632
 20
-1.0319213117
 10
4.4633012702
 20
-0.95
 10
4.4617743906
 20
-0.8707856351
 10
4.4601061596
 20
-0.7945462533
 10
4.4583022222
 20
-0.7215398245
 10
4.4563686821
 20
-0.6520133794
 10
4.4543120819
 20
-0.5862021735
 10
4.4521393805
 20
-0.524328891
 10
4.4498579296
 20
-0.4666028916
 10
4.4474754489
 20
-0.4132195017
 10
4.445
 20
-0.3643593539
 10
4.442439959
 20
-0.3201877755
 10
4.4398039883
 20
-0.280854229
 10
4.4371010072
 20
-0.2464918067
 10
4.4343401616
 20
-0.2172167803
 10
4.4315307935
 20
-0.1931282071
 10
4.4286824089
 20
-0.1743075952
 10
4.4258046457
 20
-0.1608186276
 10
4.4229072414
 20
-0.1527069468
 10
4.42
 20
-0.15
 10
4.4170927586
 20
-0.1527069468
 10
4.4141953543
 20
-0.1608186276
 10
4.4113175911
 20
-0.1743075952
 10
4.4084692065
 20
-0.1931282071
 10
4.4056598384
 20
-0.2172167803
 10
4.4028989928
 20
-0.2464918067
 10
4.4001960117
 20
-0.280854229
 10
4.397560041
 20
-0.3201877755
 10
4.395
 20
-0.3643593539
 10
4.3925245511
 20
-0.4132195017
 10
4.3901420704
 20
-0.4666028916
 10
4.3878606195
 20
-0.524328891
 10
4.3856879181
 20
-0.5862021735
 10
4.3836313179
 20
-0.6520133794
 10
4.3816977778
 20
-0.7215398245
 10
4.3798938404
 20
-0.7945462533
 10
4.3782256094
 20
-0.8707856351
 10
4.3766987298
 20
-0.95
 10
4.375318368
 20
-1.0319213117
 10
4.3740891947
 20
-1.1162723743
 10
4.373015369
 20
-1.2027677707
 10
4.3721005244
 20
-1.2911148277
 10
4.3713477565
 20
-1.3810146068
 10
4.3707596123
 20
-1.4721629157
 10
4.3703380821
 20
-1.5642513374
 10
4.3700845921
 20
-1.6569682737
 10
4.37
 20
-1.75
  0
LWPOLYLINE
  5
9D
330
1F
100
AcDbEntity
  8
0
  6
Continuous
 62
     7
370
    25
100
AcDbPolyline
 90
       55
 70
   128
 43
0.0
 10
4.17
 20
-1.75
 10
4.1699154079
 20
-1.6569682737
 10
4.1696619179
 20
-1.5642513374
 10
4.1692403877
 20
-1.4721629157
 10
4.1686522435
 20
-1.3810146068
 10
4.1678994756
 20
-1.2911148277
 10
4.166984631
 20
-1.2027677707
 10
4.1659108053
 20
-1.1162723743
 10
4.164681632
 20
-1.0319213117
 10
4.1633012702
 20
-0.95
 10
4.1617743906
 20
-0.8707856351
 10
4.1601061596
 20
-0.7945462533
 10
4.1583022222
 20
-0.7215398245
 10
4.1563686821
 20
-0.6520133794
 10
4.1543120819
 20
-0.5862021735
 10
4.1521393805
 20
-0.524328891
 10
4.1498579296
 20
-0.4666028916
 10
4.1474754489
 20
-0.4132195017
 10
4.145
 20
-0.3643593539
 10
4.142439959
 20
-0.3201877755
 10
4.1398039883
 20
-0.280854229
 10
4.1371010072
 20
-0.2464918067
 10
4.1343401616
 20
-0.2172167803
 10
4.1315307935
 20
-0.1931282071
 10
4.1286824089
 20
-0.1743075952
 10
4.1258046457
 20
-0.1608186276
 10
4.1229072414
 20
-0.1527069468
 10
4.12
 20
-0.15
 10
4.1170927586
 20
-0.1527069468
 10
4.1141953543
 20
-0.1608186276
 10
4.1113175911
 20
-0.1743075952
 10
4.1084692065
 20
-0.1931282071
 10
4.1056598384
 20
-0.2172167803
 10
4.1028989928
 20
-0.2464918067
 10
4.1001960117
 20
-0.280854229
 10
4.097560041
 20
-0.3201877755
 10
4.095
 20
-0.3643593539
 10
4.0925245511
 20
-0.4132195017
 10
4.0901420704
 20
-0.4666028916
 10
4.0878606195
 20
-0.524328891
 10
4.0856879181
 20
-0.5862021735
 10
4.0836313179
 20
-0.6520133794
 10
4.0816977778
 20
-0.7215398245
 10
4.0798938404
 20
-0.7945462533
 10
4.0782256094
 20
-0.8707856351
 10
4.0766987298
 20
-0.95
 10
4.075318368
 20
-1.0319213117
 10
4.0740891947
 20
-1.1162723743
 10
4.073015369
 20
-1.2027677707
 10
4.0721005244
 20
-1.2911148277
 10
4.0713477565
 20
-1.3810146068
 10
4.0707596123
 20
-1.4721629157
 10
4.0703380821
 20
-1.5642513374
 10
4.0700845921
 20
-1.6569682737
 10
4.07
 20
-1.75
  0
LWPOLYLINE
  5
9F
330
1F
100
AcDbEntity
  8
0
  6
Continuous
 62
     7
370
    25
100
AcDbPolyline
 90
       55
 70
   128
 43
0.0
 10
3.87
 20
-1.75
 10
3.8699154079
 20
-1.6569682737
 10
3.8696619179
 20
-1.5642513374
 10
3.8692403877
 20
-1.4721629157
 10
3.8686522435
 20
-1.3810146068
 10
3.8678994756
 20
-1.2911148277
 10
3.866984631
 20
-1.2027677707
 10
3.8659108053
 20
-1.1162723743
 10
3.864681632
 20
-1.0319213117
 10
3.8633012702
 20
-0.95
 10
3.8617743906
 20
-0.8707856351
 10
3.8601061596
 20
-0.7945462533
 10
3.8583022222
 20
-0.7215398245
 10
3.8563686821
 20
-0.6520133794
 10
3.8543120819
 20
-0.5862021735
 10
3.8521393805
 20
-0.524328891
 10
3.8498579296
 20
-0.4666028916
 10
3.8474754489
 20
-0.4132195017
 10
3.845
 20
-0.3643593539
 10
3.842439959
 20
-0.3201877755
 10
3.8398039883
 20
-0.280854229
 10
3.8371010072
 20
-0.2464918067
 10
3.8343401616
 20
-0.2172167803
 10
3.8315307935
 20
-0.1931282071
 10
3.8286824089
 20
-0.1743075952
 10
3.8258046457
 20
-0.1608186276
 10
3.8229072414
 20
-0.1527069468
 10
3.82
 20
-0.15
 10
3.8170927586
 20
-0.1527069468
 10
3.8141953543
 20
-0.1608186276
 10
3.8113175911
 20
-0.1743075952
 10
3.8084692065
 20
-0.1931282071
 10
3.8056598384
 20
-0.2172167803
 10
3.8028989928
 20
-0.2464918067
 10
3.8001960117
 20
-0.280854229
 10
3.797560041
 20
-0.3201877755
 10
3.795
 20
-0.3643593539
 10
3.7925245511
 20
-0.4132195017
 10
3.7901420704
 20
-0.4666028916
 10
3.7878606195
 20
-0.524328891
 10
3.7856879181
 20
-0.5862021735
 10
3.7836313179
 20
-0.6520133794
 10
3.7816977778
 20
-0.7215398245
 10
3.7798938404
 20
-0.7945462533
 10
3.7782256094
 20
-0.8707856351
 10
3.7766987298
 20
-0.95
 10
3.775318368
 20
-1.0319213117
 10
3.7740891947
 20
-1.1162723743
 10
3.773015369
 20
-1.2027677707
 10
3.7721005244
 20
-1.2911148277
 10
3.7713477565
 20
-1.3810146068
 10
3.7707596123
 20
-1.4721629157
 10
3.7703380821
 20
-1.5642513374
 10
3.7700845921
 20
-1.6569682737
 10
3.77
 20
-1.75
  0
LWPOLYLINE
  5
A1
330
1F
100
AcDbEntity
  8
0
  6
Continuous
 62
     7
370
    25
100
AcDbPolyline
 90
       55
 70
   128
 43
0.0
 10
3.57
 20
-1.75
 10
3.5699154079
 20
-1.6569682737
 10
3.5696619179
 20
-1.5642513374
 10
3.5692403877
 20
-1.4721629157
 10
3.5686522435
 20
-1.3810146068
 10
3.5678994756
 20
-1.2911148277
 10
3.566984631
 20
-1.2027677707
 10
3.5659108053
 20
-1.1162723743
 10
3.564681632
 20
-1.0319213117
 10
3.5633012702
 20
-0.95
 10
3.5617743906
 20
-0.8707856351
 10
3.5601061596
 20
-0.7945462533
 10
3.5583022222
 20
-0.7215398245
 10
3.5563686821
 20
-0.6520133794
 10
3.5543120819
 20
-0.5862021735
 10
3.5521393805
 20
-0.524328891
 10
3.5498579296
 20
-0.4666028916
 10
3.5474754489
 20
-0.4132195017
 10
3.545
 20
-0.3643593539
 10
3.542439959
 20
-0.3201877755
 10
3.5398039883
 20
-0.280854229
 10
3.5371010072
 20
-0.2464918067
 10
3.5343401616
 20
-0.2172167803
 10
3.5315307935
 20
-0.1931282071
 10
3.5286824089
 20
-0.1743075952
 10
3.5258046457
 20
-0.1608186276
 10
3.5229072414
 20
-0.1527069468
 10
3.52
 20
-0.15
 10
3.5170927586
 20
-0.1527069468
 10
3.5141953543
 20
-0.1608186276
 10
3.5113175911
 20
-0.1743075952
 10
3.5084692065
 20
-0.1931282071
 10
3.5056598384
 20
-0.2172167803
 10
3.5028989928
 20
-0.2464918067
 10
3.5001960117
 20
-0.280854229
 10
3.497560041
 20
-0.3201877755
 10
3.495
 20
-0.3643593539
 10
3.4925245511
 20
-0.4132195017
 10
3.4901420704
 20
-0.4666028916
 10
3.4878606195
 20
-0.524328891
 10
3.4856879181
 20
-0.5862021735
 10
3.4836313179
 20
-0.6520133794
 10
3.4816977778
 20
-0.7215398245
 10
3.4798938404
 20
-0.7945462533
 10
3.4782256094
 20
-0.8707856351
 10
3.4766987298
 20
-0.95
 10
3.475318368
 20
-1.0319213117
 10
3.4740891947
 20
-1.1162723743
 10
3.473015369
 20
-1.2027677707
 10
3.4721005244
 20
-1.2911148277
 10
3.4713477565
 20
-1.3810146068
 10
3.4707596123
 20
-1.4721629157
 10
3.4703380821
 20
-1.5642513374
 10
3.4700845921
 20
-1.6569682737
 10
3.47
 20
-1.75
  0
LWPOLYLINE
  5
A3
330
1F
100
AcDbEntity
  8
0
  6
Continuous
 62
     7
370
    25
100
AcDbPolyline
 90
       55
 70
   128
 43
0.0
 10
3.27
 20
-1.75
 10
3.2699154079
 20
-1.6569682737
 10
3.2696619179
 20
-1.5642513374
 10
3.2692403877
 20
-1.4721629157
 10
3.2686522435
 20
-1.3810146068
 10
3.2678994756
 20
-1.2911148277
 10
3.266984631
 20
-1.2027677707
 10
3.2659108053
 20
-1.1162723743
 10
3.264681632
 20
-1.0319213117
 10
3.2633012702
 20
-0.95
 10
3.2617743906
 20
-0.8707856351
 10
3.2601061596
 20
-0.7945462533
 10
3.2583022222
 20
-0.7215398245
 10
3.2563686821
 20
-0.6520133794
 10
3.2543120819
 20
-0.5862021735
 10
3.2521393805
 20
-0.524328891
 10
3.2498579296
 20
-0.4666028916
 10
3.2474754489
 20
-0.4132195017
 10
3.245
 20
-0.3643593539
 10
3.242439959
 20
-0.3201877755
 10
3.2398039883
 20
-0.280854229
 10
3.2371010072
 20
-0.2464918067
 10
3.2343401616
 20
-0.2172167803
 10
3.2315307935
 20
-0.1931282071
 10
3.2286824089
 20
-0.1743075952
 10
3.2258046457
 20
-0.1608186276
 10
3.2229072414
 20
-0.1527069468
 10
3.22
 20
-0.15
 10
3.2170927586
 20
-0.1527069468
 10
3.2141953543
 20
-0.1608186276
 10
3.2113175911
 20
-0.1743075952
 10
3.2084692065
 20
-0.1931282071
 10
3.2056598384
 20
-0.2172167803
 10
3.2028989928
 20
-0.2464918067
 10
3.2001960117
 20
-0.280854229
 10
3.197560041
 20
-0.3201877755
 10
3.195
 20
-0.3643593539
 10
3.1925245511
 20
-0.4132195017
 10
3.1901420704
 20
-0.4666028916
 10
3.1878606195
 20
-0.524328891
 10
3.1856879181
 20
-0.5862021735
 10
3.1836313179
 20
-0.6520133794
 10
3.1816977778
 20
-0.7215398245
 10
3.1798938404
 20
-0.7945462533
 10
3.1782256094
 20
-0.8707856351
 10
3.1766987298
 20
-0.95
 10
3.175318368
 20
-1.0319213117
 10
3.1740891947
 20
-1.1162723743
 10
3.173015369
 20
-1.2027677707
 10
3.1721005244
 20
-1.2911148277
 10
3.1713477565
 20
-1.3810146068
 10
3.1707596123
 20
-1.4721629157
 10
3.1703380821
 20
-1.5642513374
 10
3.1700845921
 20
-1.6569682737
 10
3.17
 20
-1.75
  0
LWPOLYLINE
  5
A5
330
1F
100
AcDbEntity
  8
0
  6
Continuous
 62
     7
370
    25
100
AcDbPolyline
 90
       55
 70
   128
 43
0.0
 10
2.97
 20
-1.75
 10
2.9699154079
 20
-1.6569682737
 10
2.9696619179
 20
-1.5642513374
 10
2.9692403877
 20
-1.4721629157
 10
2.9686522435
 20
-1.3810146068
 10
2.9678994756
 20
-1.2911148277
 10
2.966984631
 20
-1.2027677707
 10
2.9659108053
 20
-1.1162723743
 10
2.964681632
 20
-1.0319213117
 10
2.9633012702
 20
-0.95
 10
2.9617743906
 20
-0.8707856351
 10
2.9601061596
 20
-0.7945462533
 10
2.9583022222
 20
-0.7215398245
 10
2.9563686821
 20
-0.6520133794
 10
2.9543120819
 20
-0.5862021735
 10
2.9521393805
 20
-0.524328891
 10
2.9498579296
 20
-0.4666028916
 10
2.9474754489
 20
-0.4132195017
 10
2.945
 20
-0.3643593539
 10
2.942439959
 20
-0.3201877755
 10
2.9398039883
 20
-0.280854229
 10
2.9371010072
 20
-0.2464918067
 10
2.9343401616
 20
-0.2172167803
 10
2.9315307935
 20
-0.1931282071
 10
2.9286824089
 20
-0.1743075952
 10
2.9258046457
 20
-0.1608186276
 10
2.9229072414
 20
-0.1527069468
 10
2.92
 20
-0.15
 10
2.9170927586
 20
-0.1527069468
 10
2.9141953543
 20
-0.1608186276
 10
2.9113175911
 20
-0.1743075952
 10
2.9084692065
 20
-0.1931282071
 10
2.9056598384
 20
-0.2172167803
 10
2.9028989928
 20
-0.2464918067
 10
2.9001960117
 20
-0.280854229
 10
2.897560041
 20
-0.3201877755
 10
2.895
 20
-0.3643593539
 10
2.8925245511
 20
-0.4132195017
 10
2.8901420704
 20
-0.4666028916
 10
2.8878606195
 20
-0.524328891
 10
2.8856879181
 20
-0.5862021735
 10
2.8836313179
 20
-0.6520133794
 10
2.8816977778
 20
-0.7215398245
 10
2.8798938404
 20
-0.7945462533
 10
2.8782256094
 20
-0.8707856351
 10
2.8766987298
 20
-0.95
 10
2.875318368
 20
-1.0319213117
 10
2.8740891947
 20
-1.1162723743
 10
2.873015369
 20
-1.2027677707
 10
2.8721005244
 20
-1.2911148277
 10
2.8713477565
 20
-1.3810146068
 10
2.8707596123
 20
-1.4721629157
 10
2.8703380821
 20
-1.5642513374
 10
2.8700845921
 20
-1.6569682737
 10
2.87
 20
-1.75
  0
LWPOLYLINE
  5
A7
330
1F
100
AcDbEntity
  8
0
  6
Continuous
 62
     7
370
    25
100
AcDbPolyline
 90
       55
 70
   128
 43
0.0
 10
2.67
 20
-1.75
 10
2.6699154079
 20
-1.6569682737
 10
2.6696619179
 20
-1.5642513374
 10
2.6692403877
 20
-1.4721629157
 10
2.6686522435
 20
-1.3810146068
 10
2.6678994756
 20
-1.2911148277
 10
2.666984631
 20
-1.2027677707
 10
2.6659108053
 20
-1.1162723743
 10
2.664681632
 20
-1.0319213117
 10
2.6633012702
 20
-0.95
 10
2.6617743906
 20
-0.8707856351
 10
2.6601061596
 20
-0.7945462533
 10
2.6583022222
 20
-0.7215398245
 10
2.6563686821
 20
-0.6520133794
 10
2.6543120819
 20
-0.5862021735
 10
2.6521393805
 20
-0.524328891
 10
2.6498579296
 20
-0.4666028916
 10
2.6474754489
 20
-0.4132195017
 10
2.645
 20
-0.3643593539
 10
2.642439959
 20
-0.3201877755
 10
2.6398039883
 20
-0.280854229
 10
2.6371010072
 20
-0.2464918067
 10
2.6343401616
 20
-0.2172167803
 10
2.6315307935
 20
-0.1931282071
 10
2.6286824089
 20
-0.1743075952
 10
2.6258046457
 20
-0.1608186276
 10
2.6229072414
 20
-0.1527069468
 10
2.62
 20
-0.15
 10
2.6170927586
 20
-0.1527069468
 10
2.6141953543
 20
-0.1608186276
 10
2.6113175911
 20
-0.1743075952
 10
2.6084692065
 20
-0.1931282071
 10
2.6056598384
 20
-0.2172167803
 10
2.6028989928
 20
-0.2464918067
 10
2.6001960117
 20
-0.280854229
 10
2.597560041
 20
-0.3201877755
 10
2.595
 20
-0.3643593539
 10
2.5925245511
 20
-0.4132195017
 10
2.5901420704
 20
-0.4666028916
 10
2.5878606195
 20
-0.524328891
 10
2.5856879181
 20
-0.5862021735
 10
2.5836313179
 20
-0.6520133794
 10
2.5816977778
 20
-0.7215398245
 10
2.5798938404
 20
-0.7945462533
 10
2.5782256094
 20
-0.8707856351
 10
2.5766987298
 20
-0.95
 10
2.575318368
 20
-1.0319213117
 10
2.5740891947
 20
-1.1162723743
 10
2.573015369
 20
-1.2027677707
 10
2.5721005244
 20
-1.2911148277
 10
2.5713477565
 20
-1.3810146068
 10
2.5707596123
 20
-1.4721629157
 10
2.5703380821
 20
-1.5642513374
 10
2.5700845921
 20
-1.6569682737
 10
2.57
 20
-1.75
  0
LWPOLYLINE
  5
A9
330
1F
100
AcDbEntity
  8
0
  6
Continuous
 62
     7
370
    25
100
AcDbPolyline
 90
       55
 70
   128
 43
0.0
 10
2.37
 20
-1.75
 10
2.3699154079
 20
-1.6569682737
 10
2.3696619179
 20
-1.5642513374
 10
2.3692403877
 20
-1.4721629157
 10
2.3686522435
 20
-1.3810146068
 10
2.3678994756
 20
-1.2911148277
 10
2.366984631
 20
-1.2027677707
 10
2.3659108053
 20
-1.1162723743
 10
2.364681632
 20
-1.0319213117
 10
2.3633012702
 20
-0.95
 10
2.3617743906
 20
-0.8707856351
 10
2.3601061596
 20
-0.7945462533
 10
2.3583022222
 20
-0.7215398245
 10
2.3563686821
 20
-0.6520133794
 10
2.3543120819
 20
-0.5862021735
 10
2.3521393805
 20
-0.524328891
 10
2.3498579296
 20
-0.4666028916
 10
2.3474754489
 20
-0.4132195017
 10
2.345
 20
-0.3643593539
 10
2.342439959
 20
-0.3201877755
 10
2.3398039883
 20
-0.280854229
 10
2.3371010072
 20
-0.2464918067
 10
2.3343401616
 20
-0.2172167803
 10
2.3315307935
 20
-0.1931282071
 10
2.3286824089
 20
-0.1743075952
 10
2.3258046457
 20
-0.1608186276
 10
2.3229072414
 20
-0.1527069468
 10
2.32
 20
-0.15
 10
2.3170927586
 20
-0.1527069468
 10
2.3141953543
 20
-0.1608186276
 10
2.3113175911
 20
-0.1743075952
 10
2.3084692065
 20
-0.1931282071
 10
2.3056598384
 20
-0.2172167803
 10
2.3028989928
 20
-0.2464918067
 10
2.3001960117
 20
-0.280854229
 10
2.297560041
 20
-0.3201877755
 10
2.295
 20
-0.3643593539
 10
2.2925245511
 20
-0.4132195017
 10
2.2901420704
 20
-0.4666028916
 10
2.2878606195
 20
-0.524328891
 10
2.2856879181
 20
-0.5862021735
 10
2.2836313179
 20
-0.6520133794
 10
2.2816977778
 20
-0.7215398245
 10
2.2798938404
 20
-0.7945462533
 10
2.2782256094
 20
-0.8707856351
 10
2.2766987298
 20
-0.95
 10
2.275318368
 20
-1.0319213117
 10
2.2740891947
 20
-1.1162723743
 10
2.273015369
 20
-1.2027677707
 10
2.2721005244
 20
-1.2911148277
 10
2.2713477565
 20
-1.3810146068
 10
2.2707596123
 20
-1.4721629157
 10
2.2703380821
 20
-1.5642513374
 10
2.2700845921
 20
-1.6569682737
 10
2.27
 20
-1.75
  0
LWPOLYLINE
  5
AB
330
1F
100
AcDbEntity
  8
0
  6
Continuous
 62
     7
370
    25
100
AcDbPolyline
 90
       55
 70
   128
 43
0.0
 10
2.07
 20
-1.75
 10
2.0699154079
 20
-1.6569682737
 10
2.0696619179
 20
-1.5642513374
 10
2.0692403877
 20
-1.4721629157
 10
2.0686522435
 20
-1.3810146068
 10
2.0678994756
 20
-1.2911148277
 10
2.066984631
 20
-1.2027677707
 10
2.0659108053
 20
-1.1162723743
 10
2.064681632
 20
-1.0319213117
 10
2.0633012702
 20
-0.95
 10
2.0617743906
 20
-0.8707856351
 10
2.0601061596
 20
-0.7945462533
 10
2.0583022222
 20
-0.7215398245
 10
2.0563686821
 20
-0.6520133794
 10
2.0543120819
 20
-0.5862021735
 10
2.0521393805
 20
-0.524328891
 10
2.0498579296
 20
-0.4666028916
 10
2.0474754489
 20
-0.4132195017
 10
2.045
 20
-0.3643593539
 10
2.042439959
 20
-0.3201877755
 10
2.0398039883
 20
-0.280854229
 10
2.0371010072
 20
-0.2464918067
 10
2.0343401616
 20
-0.2172167803
 10
2.0315307935
 20
-0.1931282071
 10
2.0286824089
 20
-0.1743075952
 10
2.0258046457
 20
-0.1608186276
 10
2.0229072414
 20
-0.1527069468
 10
2.02
 20
-0.15
 10
2.0170927586
 20
-0.1527069468
 10
2.0141953543
 20
-0.1608186276
 10
2.0113175911
 20
-0.1743075952
 10
2.0084692065
 20
-0.1931282071
 10
2.0056598384
 20
-0.2172167803
 10
2.0028989928
 20
-0.2464918067
 10
2.0001960117
 20
-0.280854229
 10
1.997560041
 20
-0.3201877755
 10
1.995
 20
-0.3643593539
 10
1.9925245511
 20
-0.4132195017
 10
1.9901420704
 20
-0.4666028916
 10
1.9878606195
 20
-0.524328891
 10
1.9856879181
 20
-0.5862021735
 10
1.9836313179
 20
-0.6520133794
 10
1.9816977778
 20
-0.7215398245
 10
1.9798938404
 20
-0.7945462533
 10
1.9782256094
 20
-0.8707856351
 10
1.9766987298
 20
-0.95
 10
1.975318368
 20
-1.0319213117
 10
1.9740891947
 20
-1.1162723743
 10
1.973015369
 20
-1.2027677707
 10
1.9721005244
 20
-1.2911148277
 10
1.9713477565
 20
-1.3810146068
 10
1.9707596123
 20
-1.4721629157
 10
1.9703380821
 20
-1.5642513374
 10
1.9700845921
 20
-1.6569682737
 10
1.97
 20
-1.75
  0
LWPOLYLINE
  5
B6
330
1F
100
AcDbEntity
  8
0
  6
Continuous
 62
     7
370
    25
100
AcDbPolyline
 90
       55
 70
   128
 43
0.0
 10
2.07
 20
1.75
 10
2.0699154079
 20
1.6569682737
 10
2.0696619179
 20
1.5642513374
 10
2.0692403877
 20
1.4721629157
 10
2.0686522435
 20
1.3810146068
 10
2.0678994756
 20
1.2911148277
 10
2.066984631
 20
1.2027677707
 10
2.0659108053
 20
1.1162723743
 10
2.064681632
 20
1.0319213117
 10
2.0633012702
 20
0.95
 10
2.0617743906
 20
0.8707856351
 10
2.0601061596
 20
0.7945462533
 10
2.0583022222
 20
0.7215398245
 10
2.0563686821
 20
0.6520133794
 10
2.0543120819
 20
0.5862021735
 10
2.0521393805
 20
0.524328891
 10
2.0498579296
 20
0.4666028916
 10
2.0474754489
 20
0.4132195017
 10
2.045
 20
0.3643593539
 10
2.042439959
 20
0.3201877755
 10
2.0398039883
 20
0.280854229
 10
2.0371010072
 20
0.2464918067
 10
2.0343401616
 20
0.2172167803
 10
2.0315307935
 20
0.1931282071
 10
2.0286824089
 20
0.1743075952
 10
2.0258046457
 20
0.1608186276
 10
2.0229072414
 20
0.1527069468
 10
2.02
 20
0.15
 10
2.0170927586
 20
0.1527069468
 10
2.0141953543
 20
0.1608186276
 10
2.0113175911
 20
0.1743075952
 10
2.0084692065
 20
0.1931282071
 10
2.0056598384
 20
0.2172167803
 10
2.0028989928
 20
0.2464918067
 10
2.0001960117
 20
0.280854229
 10
1.997560041
 20
0.3201877755
 10
1.995
 20
0.3643593539
 10
1.9925245511
 20
0.4132195017
 10
1.9901420704
 20
0.4666028916
 10
1.9878606195
 20
0.524328891
 10
1.9856879181
 20
0.5862021735
 10
1.9836313179
 20
0.6520133794
 10
1.9816977778
 20
0.7215398245
 10
1.9798938404
 20
0.7945462533
 10
1.9782256094
 20
0.8707856351
 10
1.9766987298
 20
0.95
 10
1.975318368
 20
1.0319213117
 10
1.9740891947
 20
1.1162723743
 10
1.973015369
 20
1.2027677707
 10
1.9721005244
 20
1.2911148277
 10
1.9713477565
 20
1.3810146068
 10
1.9707596123
 20
1.4721629157
 10
1.9703380821
 20
1.5642513374
 10
1.9700845921
 20
1.6569682737
 10
1.97
 20
1.75
  0
LWPOLYLINE
  5
B7
330
1F
100
AcDbEntity
  8
0
  6
Continuous
 62
     7
370
    25
100
AcDbPolyline
 90
       55
 70
   128
 43
0.0
 10
2.37
 20
1.75
 10
2.3699154079
 20
1.6569682737
 10
2.3696619179
 20
1.5642513374
 10
2.3692403877
 20
1.4721629157
 10
2.3686522435
 20
1.3810146068
 10
2.3678994756
 20
1.2911148277
 10
2.366984631
 20
1.2027677707
 10
2.3659108053
 20
1.1162723743
 10
2.364681632
 20
1.0319213117
 10
2.3633012702
 20
0.95
 10
2.3617743906
 20
0.8707856351
 10
2.3601061596
 20
0.7945462533
 10
2.3583022222
 20
0.7215398245
 10
2.3563686821
 20
0.6520133794
 10
2.3543120819
 20
0.5862021735
 10
2.3521393805
 20
0.524328891
 10
2.3498579296
 20
0.4666028916
 10
2.3474754489
 20
0.4132195017
 10
2.345
 20
0.3643593539
 10
2.342439959
 20
0.3201877755
 10
2.3398039883
 20
0.280854229
 10
2.3371010072
 20
0.2464918067
 10
2.3343401616
 20
0.2172167803
 10
2.3315307935
 20
0.1931282071
 10
2.3286824089
 20
0.1743075952
 10
2.3258046457
 20
0.1608186276
 10
2.3229072414
 20
0.1527069468
 10
2.32
 20
0.15
 10
2.3170927586
 20
0.1527069468
 10
2.3141953543
 20
0.1608186276
 10
2.3113175911
 20
0.1743075952
 10
2.3084692065
 20
0.1931282071
 10
2.3056598384
 20
0.2172167803
 10
2.3028989928
 20
0.2464918067
 10
2.3001960117
 20
0.280854229
 10
2.297560041
 20
0.3201877755
 10
2.295
 20
0.3643593539
 10
2.2925245511
 20
0.4132195017
 10
2.2901420704
 20
0.4666028916
 10
2.2878606195
 20
0.524328891
 10
2.2856879181
 20
0.5862021735
 10
2.2836313179
 20
0.6520133794
 10
2.2816977778
 20
0.7215398245
 10
2.2798938404
 20
0.7945462533
 10
2.2782256094
 20
0.8707856351
 10
2.2766987298
 20
0.95
 10
2.275318368
 20
1.0319213117
 10
2.2740891947
 20
1.1162723743
 10
2.273015369
 20
1.2027677707
 10
2.2721005244
 20
1.2911148277
 10
2.2713477565
 20
1.3810146068
 10
2.2707596123
 20
1.4721629157
 10
2.2703380821
 20
1.5642513374
 10
2.2700845921
 20
1.6569682737
 10
2.27
 20
1.75
  0
LWPOLYLINE
  5
B8
330
1F
100
AcDbEntity
  8
0
  6
Continuous
 62
     7
370
    25
100
AcDbPolyline
 90
       55
 70
   128
 43
0.0
 10
2.67
 20
1.75
 10
2.6699154079
 20
1.6569682737
 10
2.6696619179
 20
1.5642513374
 10
2.6692403877
 20
1.4721629157
 10
2.6686522435
 20
1.3810146068
 10
2.6678994756
 20
1.2911148277
 10
2.666984631
 20
1.2027677707
 10
2.6659108053
 20
1.1162723743
 10
2.664681632
 20
1.0319213117
 10
2.6633012702
 20
0.95
 10
2.6617743906
 20
0.8707856351
 10
2.6601061596
 20
0.7945462533
 10
2.6583022222
 20
0.7215398245
 10
2.6563686821
 20
0.6520133794
 10
2.6543120819
 20
0.5862021735
 10
2.6521393805
 20
0.524328891
 10
2.6498579296
 20
0.4666028916
 10
2.6474754489
 20
0.4132195017
 10
2.645
 20
0.3643593539
 10
2.642439959
 20
0.3201877755
 10
2.6398039883
 20
0.280854229
 10
2.6371010072
 20
0.2464918067
 10
2.6343401616
 20
0.2172167803
 10
2.6315307935
 20
0.1931282071
 10
2.6286824089
 20
0.1743075952
 10
2.6258046457
 20
0.1608186276
 10
2.6229072414
 20
0.1527069468
 10
2.62
 20
0.15
 10
2.6170927586
 20
0.1527069468
 10
2.6141953543
 20
0.1608186276
 10
2.6113175911
 20
0.1743075952
 10
2.6084692065
 20
0.1931282071
 10
2.6056598384
 20
0.2172167803
 10
2.6028989928
 20
0.2464918067
 10
2.6001960117
 20
0.280854229
 10
2.597560041
 20
0.3201877755
 10
2.595
 20
0.3643593539
 10
2.5925245511
 20
0.4132195017
 10
2.5901420704
 20
0.4666028916
 10
2.5878606195
 20
0.524328891
 10
2.5856879181
 20
0.5862021735
 10
2.5836313179
 20
0.6520133794
 10
2.5816977778
 20
0.7215398245
 10
2.5798938404
 20
0.7945462533
 10
2.5782256094
 20
0.8707856351
 10
2.5766987298
 20
0.95
 10
2.575318368
 20
1.0319213117
 10
2.5740891947
 20
1.1162723743
 10
2.573015369
 20
1.2027677707
 10
2.5721005244
 20
1.2911148277
 10
2.5713477565
 20
1.3810146068
 10
2.5707596123
 20
1.4721629157
 10
2.5703380821
 20
1.5642513374
 10
2.5700845921
 20
1.6569682737
 10
2.57
 20
1.75
  0
LWPOLYLINE
  5
B9
330
1F
100
AcDbEntity
  8
0
  6
Continuous
 62
     7
370
    25
100
AcDbPolyline
 90
       55
 70
   128
 43
0.0
 10
2.97
 20
1.75
 10
2.9699154079
 20
1.6569682737
 10
2.9696619179
 20
1.5642513374
 10
2.9692403877
 20
1.4721629157
 10
2.9686522435
 20
1.3810146068
 10
2.9678994756
 20
1.2911148277
 10
2.966984631
 20
1.2027677707
 10
2.9659108053
 20
1.1162723743
 10
2.964681632
 20
1.0319213117
 10
2.9633012702
 20
0.95
 10
2.9617743906
 20
0.8707856351
 10
2.9601061596
 20
0.7945462533
 10
2.9583022222
 20
0.7215398245
 10
2.9563686821
 20
0.6520133794
 10
2.9543120819
 20
0.5862021735
 10
2.9521393805
 20
0.524328891
 10
2.9498579296
 20
0.4666028916
 10
2.9474754489
 20
0.4132195017
 10
2.945
 20
0.3643593539
 10
2.942439959
 20
0.3201877755
 10
2.9398039883
 20
0.280854229
 10
2.9371010072
 20
0.2464918067
 10
2.9343401616
 20
0.2172167803
 10
2.9315307935
 20
0.1931282071
 10
2.9286824089
 20
0.1743075952
 10
2.9258046457
 20
0.1608186276
 10
2.9229072414
 20
0.1527069468
 10
2.92
 20
0.15
 10
2.9170927586
 20
0.1527069468
 10
2.9141953543
 20
0.1608186276
 10
2.9113175911
 20
0.1743075952
 10
2.9084692065
 20
0.1931282071
 10
2.9056598384
 20
0.2172167803
 10
2.9028989928
 20
0.2464918067
 10
2.9001960117
 20
0.280854229
 10
2.897560041
 20
0.3201877755
 10
2.895
 20
0.3643593539
 10
2.8925245511
 20
0.4132195017
 10
2.8901420704
 20
0.4666028916
 10
2.8878606195
 20
0.524328891
 10
2.8856879181
 20
0.5862021735
 10
2.8836313179
 20
0.6520133794
 10
2.8816977778
 20
0.7215398245
 10
2.8798938404
 20
0.7945462533
 10
2.8782256094
 20
0.8707856351
 10
2.8766987298
 20
0.95
 10
2.875318368
 20
1.0319213117
 10
2.8740891947
 20
1.1162723743
 10
2.873015369
 20
1.2027677707
 10
2.8721005244
 20
1.2911148277
 10
2.8713477565
 20
1.3810146068
 10
2.8707596123
 20
1.4721629157
 10
2.8703380821
 20
1.5642513374
 10
2.8700845921
 20
1.6569682737
 10
2.87
 20
1.75
  0
LWPOLYLINE
  5
BA
330
1F
100
AcDbEntity
  8
0
  6
Continuous
 62
     7
370
    25
100
AcDbPolyline
 90
       55
 70
   128
 43
0.0
 10
3.27
 20
1.75
 10
3.2699154079
 20
1.6569682737
 10
3.2696619179
 20
1.5642513374
 10
3.2692403877
 20
1.4721629157
 10
3.2686522435
 20
1.3810146068
 10
3.2678994756
 20
1.2911148277
 10
3.266984631
 20
1.2027677707
 10
3.2659108053
 20
1.1162723743
 10
3.264681632
 20
1.0319213117
 10
3.2633012702
 20
0.95
 10
3.2617743906
 20
0.8707856351
 10
3.2601061596
 20
0.7945462533
 10
3.2583022222
 20
0.7215398245
 10
3.2563686821
 20
0.6520133794
 10
3.2543120819
 20
0.5862021735
 10
3.2521393805
 20
0.524328891
 10
3.2498579296
 20
0.4666028916
 10
3.2474754489
 20
0.4132195017
 10
3.245
 20
0.3643593539
 10
3.242439959
 20
0.3201877755
 10
3.2398039883
 20
0.280854229
 10
3.2371010072
 20
0.2464918067
 10
3.2343401616
 20
0.2172167803
 10
3.2315307935
 20
0.1931282071
 10
3.2286824089
 20
0.1743075952
 10
3.2258046457
 20
0.1608186276
 10
3.2229072414
 20
0.1527069468
 10
3.22
 20
0.15
 10
3.2170927586
 20
0.1527069468
 10
3.2141953543
 20
0.1608186276
 10
3.2113175911
 20
0.1743075952
 10
3.2084692065
 20
0.1931282071
 10
3.2056598384
 20
0.2172167803
 10
3.2028989928
 20
0.2464918067
 10
3.2001960117
 20
0.280854229
 10
3.197560041
 20
0.3201877755
 10
3.195
 20
0.3643593539
 10
3.1925245511
 20
0.4132195017
 10
3.1901420704
 20
0.4666028916
 10
3.1878606195
 20
0.524328891
 10
3.1856879181
 20
0.5862021735
 10
3.1836313179
 20
0.6520133794
 10
3.1816977778
 20
0.7215398245
 10
3.1798938404
 20
0.7945462533
 10
3.1782256094
 20
0.8707856351
 10
3.1766987298
 20
0.95
 10
3.175318368
 20
1.0319213117
 10
3.1740891947
 20
1.1162723743
 10
3.173015369
 20
1.2027677707
 10
3.1721005244
 20
1.2911148277
 10
3.1713477565
 20
1.3810146068
 10
3.1707596123
 20
1.4721629157
 10
3.1703380821
 20
1.5642513374
 10
3.1700845921
 20
1.6569682737
 10
3.17
 20
1.75
  0
LWPOLYLINE
  5
BB
330
1F
100
AcDbEntity
  8
0
  6
Continuous
 62
     7
370
    25
100
AcDbPolyline
 90
       55
 70
   128
 43
0.0
 10
3.57
 20
1.75
 10
3.5699154079
 20
1.6569682737
 10
3.5696619179
 20
1.5642513374
 10
3.5692403877
 20
1.4721629157
 10
3.5686522435
 20
1.3810146068
 10
3.5678994756
 20
1.2911148277
 10
3.566984631
 20
1.2027677707
 10
3.5659108053
 20
1.1162723743
 10
3.564681632
 20
1.0319213117
 10
3.5633012702
 20
0.95
 10
3.5617743906
 20
0.8707856351
 10
3.5601061596
 20
0.7945462533
 10
3.5583022222
 20
0.7215398245
 10
3.5563686821
 20
0.6520133794
 10
3.5543120819
 20
0.5862021735
 10
3.5521393805
 20
0.524328891
 10
3.5498579296
 20
0.4666028916
 10
3.5474754489
 20
0.4132195017
 10
3.545
 20
0.3643593539
 10
3.542439959
 20
0.3201877755
 10
3.5398039883
 20
0.280854229
 10
3.5371010072
 20
0.2464918067
 10
3.5343401616
 20
0.2172167803
 10
3.5315307935
 20
0.1931282071
 10
3.5286824089
 20
0.1743075952
 10
3.5258046457
 20
0.1608186276
 10
3.5229072414
 20
0.1527069468
 10
3.52
 20
0.15
 10
3.5170927586
 20
0.1527069468
 10
3.5141953543
 20
0.1608186276
 10
3.5113175911
 20
0.1743075952
 10
3.5084692065
 20
0.1931282071
 10
3.5056598384
 20
0.2172167803
 10
3.5028989928
 20
0.2464918067
 10
3.5001960117
 20
0.280854229
 10
3.497560041
 20
0.3201877755
 10
3.495
 20
0.3643593539
 10
3.4925245511
 20
0.4132195017
 10
3.4901420704
 20
0.4666028916
 10
3.4878606195
 20
0.524328891
 10
3.4856879181
 20
0.5862021735
 10
3.4836313179
 20
0.6520133794
 10
3.4816977778
 20
0.7215398245
 10
3.4798938404
 20
0.7945462533
 10
3.4782256094
 20
0.8707856351
 10
3.4766987298
 20
0.95
 10
3.475318368
 20
1.0319213117
 10
3.4740891947
 20
1.1162723743
 10
3.473015369
 20
1.2027677707
 10
3.4721005244
 20
1.2911148277
 10
3.4713477565
 20
1.3810146068
 10
3.4707596123
 20
1.4721629157
 10
3.4703380821
 20
1.5642513374
 10
3.4700845921
 20
1.6569682737
 10
3.47
 20
1.75
  0
LWPOLYLINE
  5
BC
330
1F
100
AcDbEntity
  8
0
  6
Continuous
 62
     7
370
    25
100
AcDbPolyline
 90
       55
 70
   128
 43
0.0
 10
3.87
 20
1.75
 10
3.8699154079
 20
1.6569682737
 10
3.8696619179
 20
1.5642513374
 10
3.8692403877
 20
1.4721629157
 10
3.8686522435
 20
1.3810146068
 10
3.8678994756
 20
1.2911148277
 10
3.866984631
 20
1.2027677707
 10
3.8659108053
 20
1.1162723743
 10
3.864681632
 20
1.0319213117
 10
3.8633012702
 20
0.95
 10
3.8617743906
 20
0.8707856351
 10
3.8601061596
 20
0.7945462533
 10
3.8583022222
 20
0.7215398245
 10
3.8563686821
 20
0.6520133794
 10
3.8543120819
 20
0.5862021735
 10
3.8521393805
 20
0.524328891
 10
3.8498579296
 20
0.4666028916
 10
3.8474754489
 20
0.4132195017
 10
3.845
 20
0.3643593539
 10
3.842439959
 20
0.3201877755
 10
3.8398039883
 20
0.280854229
 10
3.8371010072
 20
0.2464918067
 10
3.8343401616
 20
0.2172167803
 10
3.8315307935
 20
0.1931282071
 10
3.8286824089
 20
0.1743075952
 10
3.8258046457
 20
0.1608186276
 10
3.8229072414
 20
0.1527069468
 10
3.82
 20
0.15
 10
3.8170927586
 20
0.1527069468
 10
3.8141953543
 20
0.1608186276
 10
3.8113175911
 20
0.1743075952
 10
3.8084692065
 20
0.1931282071
 10
3.8056598384
 20
0.2172167803
 10
3.8028989928
 20
0.2464918067
 10
3.8001960117
 20
0.280854229
 10
3.797560041
 20
0.3201877755
 10
3.795
 20
0.3643593539
 10
3.7925245511
 20
0.4132195017
 10
3.7901420704
 20
0.4666028916
 10
3.7878606195
 20
0.524328891
 10
3.7856879181
 20
0.5862021735
 10
3.7836313179
 20
0.6520133794
 10
3.7816977778
 20
0.7215398245
 10
3.7798938404
 20
0.7945462533
 10
3.7782256094
 20
0.8707856351
 10
3.7766987298
 20
0.95
 10
3.775318368
 20
1.0319213117
 10
3.7740891947
 20
1.1162723743
 10
3.773015369
 20
1.2027677707
 10
3.7721005244
 20
1.2911148277
 10
3.7713477565
 20
1.3810146068
 10
3.7707596123
 20
1.4721629157
 10
3.7703380821
 20
1.5642513374
 10
3.7700845921
 20
1.6569682737
 10
3.77
 20
1.75
  0
LWPOLYLINE
  5
BD
330
1F
100
AcDbEntity
  8
0
  6
Continuous
 62
     7
370
    25
100
AcDbPolyline
 90
       55
 70
   128
 43
0.0
 10
4.17
 20
1.75
 10
4.1699154079
 20
1.6569682737
 10
4.1696619179
 20
1.5642513374
 10
4.1692403877
 20
1.4721629157
 10
4.1686522435
 20
1.3810146068
 10
4.1678994756
 20
1.2911148277
 10
4.166984631
 20
1.2027677707
 10
4.1659108053
 20
1.1162723743
 10
4.164681632
 20
1.0319213117
 10
4.1633012702
 20
0.95
 10
4.1617743906
 20
0.8707856351
 10
4.1601061596
 20
0.7945462533
 10
4.1583022222
 20
0.7215398245
 10
4.1563686821
 20
0.6520133794
 10
4.1543120819
 20
0.5862021735
 10
4.1521393805
 20
0.524328891
 10
4.1498579296
 20
0.4666028916
 10
4.1474754489
 20
0.4132195017
 10
4.145
 20
0.3643593539
 10
4.142439959
 20
0.3201877755
 10
4.1398039883
 20
0.280854229
 10
4.1371010072
 20
0.2464918067
 10
4.1343401616
 20
0.2172167803
 10
4.1315307935
 20
0.1931282071
 10
4.1286824089
 20
0.1743075952
 10
4.1258046457
 20
0.1608186276
 10
4.1229072414
 20
0.1527069468
 10
4.12
 20
0.15
 10
4.1170927586
 20
0.1527069468
 10
4.1141953543
 20
0.1608186276
 10
4.1113175911
 20
0.1743075952
 10
4.1084692065
 20
0.1931282071
 10
4.1056598384
 20
0.2172167803
 10
4.1028989928
 20
0.2464918067
 10
4.1001960117
 20
0.280854229
 10
4.097560041
 20
0.3201877755
 10
4.095
 20
0.3643593539
 10
4.0925245511
 20
0.4132195017
 10
4.0901420704
 20
0.4666028916
 10
4.0878606195
 20
0.524328891
 10
4.0856879181
 20
0.5862021735
 10
4.0836313179
 20
0.6520133794
 10
4.0816977778
 20
0.7215398245
 10
4.0798938404
 20
0.7945462533
 10
4.0782256094
 20
0.8707856351
 10
4.0766987298
 20
0.95
 10
4.075318368
 20
1.0319213117
 10
4.0740891947
 20
1.1162723743
 10
4.073015369
 20
1.2027677707
 10
4.0721005244
 20
1.2911148277
 10
4.0713477565
 20
1.3810146068
 10
4.0707596123
 20
1.4721629157
 10
4.0703380821
 20
1.5642513374
 10
4.0700845921
 20
1.6569682737
 10
4.07
 20
1.75
  0
LWPOLYLINE
  5
BE
330
1F
100
AcDbEntity
  8
0
  6
Continuous
 62
     7
370
    25
100
AcDbPolyline
 90
       55
 70
   128
 43
0.0
 10
4.47
 20
1.75
 10
4.4699154079
 20
1.6569682737
 10
4.4696619179
 20
1.5642513374
 10
4.4692403877
 20
1.4721629157
 10
4.4686522435
 20
1.3810146068
 10
4.4678994756
 20
1.2911148277
 10
4.466984631
 20
1.2027677707
 10
4.4659108053
 20
1.1162723743
 10
4.464681632
 20
1.0319213117
 10
4.4633012702
 20
0.95
 10
4.4617743906
 20
0.8707856351
 10
4.4601061596
 20
0.7945462533
 10
4.4583022222
 20
0.7215398245
 10
4.4563686821
 20
0.6520133794
 10
4.4543120819
 20
0.5862021735
 10
4.4521393805
 20
0.524328891
 10
4.4498579296
 20
0.4666028916
 10
4.4474754489
 20
0.4132195017
 10
4.445
 20
0.3643593539
 10
4.442439959
 20
0.3201877755
 10
4.4398039883
 20
0.280854229
 10
4.4371010072
 20
0.2464918067
 10
4.4343401616
 20
0.2172167803
 10
4.4315307935
 20
0.1931282071
 10
4.4286824089
 20
0.1743075952
 10
4.4258046457
 20
0.1608186276
 10
4.4229072414
 20
0.1527069468
 10
4.42
 20
0.15
 10
4.4170927586
 20
0.1527069468
 10
4.4141953543
 20
0.1608186276
 10
4.4113175911
 20
0.1743075952
 10
4.4084692065
 20
0.1931282071
 10
4.4056598384
 20
0.2172167803
 10
4.4028989928
 20
0.2464918067
 10
4.4001960117
 20
0.280854229
 10
4.397560041
 20
0.3201877755
 10
4.395
 20
0.3643593539
 10
4.3925245511
 20
0.4132195017
 10
4.3901420704
 20
0.4666028916
 10
4.3878606195
 20
0.524328891
 10
4.3856879181
 20
0.5862021735
 10
4.3836313179
 20
0.6520133794
 10
4.3816977778
 20
0.7215398245
 10
4.3798938404
 20
0.7945462533
 10
4.3782256094
 20
0.8707856351
 10
4.3766987298
 20
0.95
 10
4.375318368
 20
1.0319213117
 10
4.3740891947
 20
1.1162723743
 10
4.373015369
 20
1.2027677707
 10
4.3721005244
 20
1.2911148277
 10
4.3713477565
 20
1.3810146068
 10
4.3707596123
 20
1.4721629157
 10
4.3703380821
 20
1.5642513374
 10
4.3700845921
 20
1.6569682737
 10
4.37
 20
1.75
  0
LWPOLYLINE
  5
BF
330
1F
100
AcDbEntity
  8
0
  6
Continuous
 62
     7
370
    25
100
AcDbPolyline
 90
       55
 70
   128
 43
0.0
 10
4.77
 20
1.75
 10
4.7699154079
 20
1.6569682737
 10
4.7696619179
 20
1.5642513374
 10
4.7692403877
 20
1.4721629157
 10
4.7686522435
 20
1.3810146068
 10
4.7678994756
 20
1.2911148277
 10
4.766984631
 20
1.2027677707
 10
4.7659108053
 20
1.1162723743
 10
4.764681632
 20
1.0319213117
 10
4.7633012702
 20
0.95
 10
4.7617743906
 20
0.8707856351
 10
4.7601061596
 20
0.7945462533
 10
4.7583022222
 20
0.7215398245
 10
4.7563686821
 20
0.6520133794
 10
4.7543120819
 20
0.5862021735
 10
4.7521393805
 20
0.524328891
 10
4.7498579296
 20
0.4666028916
 10
4.7474754489
 20
0.4132195017
 10
4.745
 20
0.3643593539
 10
4.742439959
 20
0.3201877755
 10
4.7398039883
 20
0.280854229
 10
4.7371010072
 20
0.2464918067
 10
4.7343401616
 20
0.2172167803
 10
4.7315307935
 20
0.1931282071
 10
4.7286824089
 20
0.1743075952
 10
4.7258046457
 20
0.1608186276
 10
4.7229072414
 20
0.1527069468
 10
4.72
 20
0.15
 10
4.7170927586
 20
0.1527069468
 10
4.7141953543
 20
0.1608186276
 10
4.7113175911
 20
0.1743075952
 10
4.7084692065
 20
0.1931282071
 10
4.7056598384
 20
0.2172167803
 10
4.7028989928
 20
0.2464918067
 10
4.7001960117
 20
0.280854229
 10
4.697560041
 20
0.3201877755
 10
4.695
 20
0.3643593539
 10
4.6925245511
 20
0.4132195017
 10
4.6901420704
 20
0.4666028916
 10
4.6878606195
 20
0.524328891
 10
4.6856879181
 20
0.5862021735
 10
4.6836313179
 20
0.6520133794
 10
4.6816977778
 20
0.7215398245
 10
4.6798938404
 20
0.7945462533
 10
4.6782256094
 20
0.8707856351
 10
4.6766987298
 20
0.95
 10
4.675318368
 20
1.0319213117
 10
4.6740891947
 20
1.1162723743
 10
4.673015369
 20
1.2027677707
 10
4.6721005244
 20
1.2911148277
 10
4.6713477565
 20
1.3810146068
 10
4.6707596123
 20
1.4721629157
 10
4.6703380821
 20
1.5642513374
 10
4.6700845921
 20
1.6569682737
 10
4.67
 20
1.75
  0
LWPOLYLINE
  5
C0
330
1F
100
AcDbEntity
  8
0
  6
Continuous
 62
     7
370
    25
100
AcDbPolyline
 90
       55
 70
   128
 43
0.0
 10
5.07
 20
1.75
 10
5.0699154079
 20
1.6569682737
 10
5.0696619179
 20
1.5642513374
 10
5.0692403877
 20
1.4721629157
 10
5.0686522435
 20
1.3810146068
 10
5.0678994756
 20
1.2911148277
 10
5.066984631
 20
1.2027677707
 10
5.0659108053
 20
1.1162723743
 10
5.064681632
 20
1.0319213117
 10
5.0633012702
 20
0.95
 10
5.0617743906
 20
0.8707856351
 10
5.0601061596
 20
0.7945462533
 10
5.0583022222
 20
0.7215398245
 10
5.0563686821
 20
0.6520133794
 10
5.0543120819
 20
0.5862021735
 10
5.0521393805
 20
0.524328891
 10
5.0498579296
 20
0.4666028916
 10
5.0474754489
 20
0.4132195017
 10
5.045
 20
0.3643593539
 10
5.042439959
 20
0.3201877755
 10
5.0398039883
 20
0.280854229
 10
5.0371010072
 20
0.2464918067
 10
5.0343401616
 20
0.2172167803
 10
5.0315307935
 20
0.1931282071
 10
5.0286824089
 20
0.1743075952
 10
5.0258046457
 20
0.1608186276
 10
5.0229072414
 20
0.1527069468
 10
5.02
 20
0.15
 10
5.0170927586
 20
0.1527069468
 10
5.0141953543
 20
0.1608186276
 10
5.0113175911
 20
0.1743075952
 10
5.0084692065
 20
0.1931282071
 10
5.0056598384
 20
0.2172167803
 10
5.0028989928
 20
0.2464918067
 10
5.0001960117
 20
0.280854229
 10
4.997560041
 20
0.3201877755
 10
4.995
 20
0.3643593539
 10
4.9925245511
 20
0.4132195017
 10
4.9901420704
 20
0.4666028916
 10
4.9878606195
 20
0.524328891
 10
4.9856879181
 20
0.5862021735
 10
4.9836313179
 20
0.6520133794
 10
4.9816977778
 20
0.7215398245
 10
4.9798938404
 20
0.7945462533
 10
4.9782256094
 20
0.8707856351
 10
4.9766987298
 20
0.95
 10
4.975318368
 20
1.0319213117
 10
4.9740891947
 20
1.1162723743
 10
4.973015369
 20
1.2027677707
 10
4.9721005244
 20
1.2911148277
 10
4.9713477565
 20
1.3810146068
 10
4.9707596123
 20
1.4721629157
 10
4.9703380821
 20
1.5642513374
 10
4.9700845921
 20
1.6569682737
 10
4.97
 20
1.75
  0
LWPOLYLINE
  5
C1
330
1F
100
AcDbEntity
  8
0
  6
Continuous
 62
     7
370
    25
100
AcDbPolyline
 90
       55
 70
   128
 43
0.0
 10
5.37
 20
1.75
 10
5.3699154079
 20
1.6569682737
 10
5.3696619179
 20
1.5642513374
 10
5.3692403877
 20
1.4721629157
 10
5.3686522435
 20
1.3810146068
 10
5.3678994756
 20
1.2911148277
 10
5.366984631
 20
1.2027677707
 10
5.3659108053
 20
1.1162723743
 10
5.364681632
 20
1.0319213117
 10
5.3633012702
 20
0.95
 10
5.3617743906
 20
0.8707856351
 10
5.3601061596
 20
0.7945462533
 10
5.3583022222
 20
0.7215398245
 10
5.3563686821
 20
0.6520133794
 10
5.3543120819
 20
0.5862021735
 10
5.3521393805
 20
0.524328891
 10
5.3498579296
 20
0.4666028916
 10
5.3474754489
 20
0.4132195017
 10
5.345
 20
0.3643593539
 10
5.342439959
 20
0.3201877755
 10
5.3398039883
 20
0.280854229
 10
5.3371010072
 20
0.2464918067
 10
5.3343401616
 20
0.2172167803
 10
5.3315307935
 20
0.1931282071
 10
5.3286824089
 20
0.1743075952
 10
5.3258046457
 20
0.1608186276
 10
5.3229072414
 20
0.1527069468
 10
5.32
 20
0.15
 10
5.3170927586
 20
0.1527069468
 10
5.3141953543
 20
0.1608186276
 10
5.3113175911
 20
0.1743075952
 10
5.3084692065
 20
0.1931282071
 10
5.3056598384
 20
0.2172167803
 10
5.3028989928
 20
0.2464918067
 10
5.3001960117
 20
0.280854229
 10
5.297560041
 20
0.3201877755
 10
5.295
 20
0.3643593539
 10
5.2925245511
 20
0.4132195017
 10
5.2901420704
 20
0.4666028916
 10
5.2878606195
 20
0.524328891
 10
5.2856879181
 20
0.5862021735
 10
5.2836313179
 20
0.6520133794
 10
5.2816977778
 20
0.7215398245
 10
5.2798938404
 20
0.7945462533
 10
5.2782256094
 20
0.8707856351
 10
5.2766987298
 20
0.95
 10
5.275318368
 20
1.0319213117
 10
5.2740891947
 20
1.1162723743
 10
5.273015369
 20
1.2027677707
 10
5.2721005244
 20
1.2911148277
 10
5.2713477565
 20
1.3810146068
 10
5.2707596123
 20
1.4721629157
 10
5.2703380821
 20
1.5642513374
 10
5.2700845921
 20
1.6569682737
 10
5.27
 20
1.75
  0
LWPOLYLINE
  5
C2
330
1F
100
AcDbEntity
  8
0
  6
Continuous
 62
     7
370
    25
100
AcDbPolyline
 90
       55
 70
   128
 43
0.0
 10
5.67
 20
1.75
 10
5.6699154079
 20
1.6569682737
 10
5.6696619179
 20
1.5642513374
 10
5.6692403877
 20
1.4721629157
 10
5.6686522435
 20
1.3810146068
 10
5.6678994756
 20
1.2911148277
 10
5.666984631
 20
1.2027677707
 10
5.6659108053
 20
1.1162723743
 10
5.664681632
 20
1.0319213117
 10
5.6633012702
 20
0.95
 10
5.6617743906
 20
0.8707856351
 10
5.6601061596
 20
0.7945462533
 10
5.6583022222
 20
0.7215398245
 10
5.6563686821
 20
0.6520133794
 10
5.6543120819
 20
0.5862021735
 10
5.6521393805
 20
0.524328891
 10
5.6498579296
 20
0.4666028916
 10
5.6474754489
 20
0.4132195017
 10
5.645
 20
0.3643593539
 10
5.642439959
 20
0.3201877755
 10
5.6398039883
 20
0.280854229
 10
5.6371010072
 20
0.2464918067
 10
5.6343401616
 20
0.2172167803
 10
5.6315307935
 20
0.1931282071
 10
5.6286824089
 20
0.1743075952
 10
5.6258046457
 20
0.1608186276
 10
5.6229072414
 20
0.1527069468
 10
5.62
 20
0.15
 10
5.6170927586
 20
0.1527069468
 10
5.6141953543
 20
0.1608186276
 10
5.6113175911
 20
0.1743075952
 10
5.6084692065
 20
0.1931282071
 10
5.6056598384
 20
0.2172167803
 10
5.6028989928
 20
0.2464918067
 10
5.6001960117
 20
0.280854229
 10
5.597560041
 20
0.3201877755
 10
5.595
 20
0.3643593539
 10
5.5925245511
 20
0.4132195017
 10
5.5901420704
 20
0.4666028916
 10
5.5878606195
 20
0.524328891
 10
5.5856879181
 20
0.5862021735
 10
5.5836313179
 20
0.6520133794
 10
5.5816977778
 20
0.7215398245
 10
5.5798938404
 20
0.7945462533
 10
5.5782256094
 20
0.8707856351
 10
5.5766987298
 20
0.95
 10
5.575318368
 20
1.0319213117
 10
5.5740891947
 20
1.1162723743
 10
5.573015369
 20
1.2027677707
 10
5.5721005244
 20
1.2911148277
 10
5.5713477565
 20
1.3810146068
 10
5.5707596123
 20
1.4721629157
 10
5.5703380821
 20
1.5642513374
 10
5.5700845921
 20
1.6569682737
 10
5.57
 20
1.75
  0
LWPOLYLINE
  5
C3
330
1F
100
AcDbEntity
  8
0
  6
Continuous
 62
     7
370
    25
100
AcDbPolyline
 90
       55
 70
   128
 43
0.0
 10
5.97
 20
1.75
 10
5.9699154079
 20
1.6569682737
 10
5.9696619179
 20
1.5642513374
 10
5.9692403877
 20
1.4721629157
 10
5.9686522435
 20
1.3810146068
 10
5.9678994756
 20
1.2911148277
 10
5.966984631
 20
1.2027677707
 10
5.9659108053
 20
1.1162723743
 10
5.964681632
 20
1.0319213117
 10
5.9633012702
 20
0.95
 10
5.9617743906
 20
0.8707856351
 10
5.9601061596
 20
0.7945462533
 10
5.9583022222
 20
0.7215398245
 10
5.9563686821
 20
0.6520133794
 10
5.9543120819
 20
0.5862021735
 10
5.9521393805
 20
0.524328891
 10
5.9498579296
 20
0.4666028916
 10
5.9474754489
 20
0.4132195017
 10
5.945
 20
0.3643593539
 10
5.942439959
 20
0.3201877755
 10
5.9398039883
 20
0.280854229
 10
5.9371010072
 20
0.2464918067
 10
5.9343401616
 20
0.2172167803
 10
5.9315307935
 20
0.1931282071
 10
5.9286824089
 20
0.1743075952
 10
5.9258046457
 20
0.1608186276
 10
5.9229072414
 20
0.1527069468
 10
5.92
 20
0.15
 10
5.9170927586
 20
0.1527069468
 10
5.9141953543
 20
0.1608186276
 10
5.9113175911
 20
0.1743075952
 10
5.9084692065
 20
0.1931282071
 10
5.9056598384
 20
0.2172167803
 10
5.9028989928
 20
0.2464918067
 10
5.9001960117
 20
0.280854229
 10
5.897560041
 20
0.3201877755
 10
5.895
 20
0.3643593539
 10
5.8925245511
 20
0.4132195017
 10
5.8901420704
 20
0.4666028916
 10
5.8878606195
 20
0.524328891
 10
5.8856879181
 20
0.5862021735
 10
5.8836313179
 20
0.6520133794
 10
5.8816977778
 20
0.7215398245
 10
5.8798938404
 20
0.7945462533
 10
5.8782256094
 20
0.8707856351
 10
5.8766987298
 20
0.95
 10
5.875318368
 20
1.0319213117
 10
5.8740891947
 20
1.1162723743
 10
5.873015369
 20
1.2027677707
 10
5.8721005244
 20
1.2911148277
 10
5.8713477565
 20
1.3810146068
 10
5.8707596123
 20
1.4721629157
 10
5.8703380821
 20
1.5642513374
 10
5.8700845921
 20
1.6569682737
 10
5.87
 20
1.75
  0
LWPOLYLINE
  5
C4
330
1F
100
AcDbEntity
  8
0
  6
Continuous
 62
     7
370
    25
100
AcDbPolyline
 90
       55
 70
   128
 43
0.0
 10
6.27
 20
1.75
 10
6.2699154079
 20
1.6569682737
 10
6.2696619179
 20
1.5642513374
 10
6.2692403877
 20
1.4721629157
 10
6.2686522435
 20
1.3810146068
 10
6.2678994756
 20
1.2911148277
 10
6.266984631
 20
1.2027677707
 10
6.2659108053
 20
1.1162723743
 10
6.264681632
 20
1.0319213117
 10
6.2633012702
 20
0.95
 10
6.2617743906
 20
0.8707856351
 10
6.2601061596
 20
0.7945462533
 10
6.2583022222
 20
0.7215398245
 10
6.2563686821
 20
0.6520133794
 10
6.2543120819
 20
0.5862021735
 10
6.2521393805
 20
0.524328891
 10
6.2498579296
 20
0.4666028916
 10
6.2474754489
 20
0.4132195017
 10
6.245
 20
0.3643593539
 10
6.242439959
 20
0.3201877755
 10
6.2398039883
 20
0.280854229
 10
6.2371010072
 20
0.2464918067
 10
6.2343401616
 20
0.2172167803
 10
6.2315307935
 20
0.1931282071
 10
6.2286824089
 20
0.1743075952
 10
6.2258046457
 20
0.1608186276
 10
6.2229072414
 20
0.1527069468
 10
6.22
 20
0.15
 10
6.2170927586
 20
0.1527069468
 10
6.2141953543
 20
0.1608186276
 10
6.2113175911
 20
0.1743075952
 10
6.2084692065
 20
0.1931282071
 10
6.2056598384
 20
0.2172167803
 10
6.2028989928
 20
0.2464918067
 10
6.2001960117
 20
0.280854229
 10
6.197560041
 20
0.3201877755
 10
6.195
 20
0.3643593539
 10
6.1925245511
 20
0.4132195017
 10
6.1901420704
 20
0.4666028916
 10
6.1878606195
 20
0.524328891
 10
6.1856879181
 20
0.5862021735
 10
6.1836313179
 20
0.6520133794
 10
6.1816977778
 20
0.7215398245
 10
6.1798938404
 20
0.7945462533
 10
6.1782256094
 20
0.8707856351
 10
6.1766987298
 20
0.95
 10
6.175318368
 20
1.0319213117
 10
6.1740891947
 20
1.1162723743
 10
6.173015369
 20
1.2027677707
 10
6.1721005244
 20
1.2911148277
 10
6.1713477565
 20
1.3810146068
 10
6.1707596123
 20
1.4721629157
 10
6.1703380821
 20
1.5642513374
 10
6.1700845921
 20
1.6569682737
 10
6.17
 20
1.75
  0
LWPOLYLINE
  5
C5
330
1F
100
AcDbEntity
  8
0
  6
Continuous
 62
     7
370
    25
100
AcDbPolyline
 90
       55
 70
   128
 43
0.0
 10
6.57
 20
1.75
 10
6.5699154079
 20
1.6569682737
 10
6.5696619179
 20
1.5642513374
 10
6.5692403877
 20
1.4721629157
 10
6.5686522435
 20
1.3810146068
 10
6.5678994756
 20
1.2911148277
 10
6.566984631
 20
1.2027677707
 10
6.5659108053
 20
1.1162723743
 10
6.564681632
 20
1.0319213117
 10
6.5633012702
 20
0.95
 10
6.5617743906
 20
0.8707856351
 10
6.5601061596
 20
0.7945462533
 10
6.5583022222
 20
0.7215398245
 10
6.5563686821
 20
0.6520133794
 10
6.5543120819
 20
0.5862021735
 10
6.5521393805
 20
0.524328891
 10
6.5498579296
 20
0.4666028916
 10
6.5474754489
 20
0.4132195017
 10
6.545
 20
0.3643593539
 10
6.542439959
 20
0.3201877755
 10
6.5398039883
 20
0.280854229
 10
6.5371010072
 20
0.2464918067
 10
6.5343401616
 20
0.2172167803
 10
6.5315307935
 20
0.1931282071
 10
6.5286824089
 20
0.1743075952
 10
6.5258046457
 20
0.1608186276
 10
6.5229072414
 20
0.1527069468
 10
6.52
 20
0.15
 10
6.5170927586
 20
0.1527069468
 10
6.5141953543
 20
0.1608186276
 10
6.5113175911
 20
0.1743075952
 10
6.5084692065
 20
0.1931282071
 10
6.5056598384
 20
0.2172167803
 10
6.5028989928
 20
0.2464918067
 10
6.5001960117
 20
0.280854229
 10
6.497560041
 20
0.3201877755
 10
6.495
 20
0.3643593539
 10
6.4925245511
 20
0.4132195017
 10
6.4901420704
 20
0.4666028916
 10
6.4878606195
 20
0.524328891
 10
6.4856879181
 20
0.5862021735
 10
6.4836313179
 20
0.6520133794
 10
6.4816977778
 20
0.7215398245
 10
6.4798938404
 20
0.7945462533
 10
6.4782256094
 20
0.8707856351
 10
6.4766987298
 20
0.95
 10
6.475318368
 20
1.0319213117
 10
6.4740891947
 20
1.1162723743
 10
6.473015369
 20
1.2027677707
 10
6.4721005244
 20
1.2911148277
 10
6.4713477565
 20
1.3810146068
 10
6.4707596123
 20
1.4721629157
 10
6.4703380821
 20
1.5642513374
 10
6.4700845921
 20
1.6569682737
 10
6.47
 20
1.75
  0
LWPOLYLINE
  5
C6
330
1F
100
AcDbEntity
  8
0
  6
Continuous
 62
     7
370
    25
100
AcDbPolyline
 90
       55
 70
   128
 43
0.0
 10
6.87
 20
1.75
 10
6.8699154079
 20
1.6569682737
 10
6.8696619179
 20
1.5642513374
 10
6.8692403877
 20
1.4721629157
 10
6.8686522435
 20
1.3810146068
 10
6.8678994756
 20
1.2911148277
 10
6.866984631
 20
1.2027677707
 10
6.8659108053
 20
1.1162723743
 10
6.864681632
 20
1.0319213117
 10
6.8633012702
 20
0.95
 10
6.8617743906
 20
0.8707856351
 10
6.8601061596
 20
0.7945462533
 10
6.8583022222
 20
0.7215398245
 10
6.8563686821
 20
0.6520133794
 10
6.8543120819
 20
0.5862021735
 10
6.8521393805
 20
0.524328891
 10
6.8498579296
 20
0.4666028916
 10
6.8474754489
 20
0.4132195017
 10
6.845
 20
0.3643593539
 10
6.842439959
 20
0.3201877755
 10
6.8398039883
 20
0.280854229
 10
6.8371010072
 20
0.2464918067
 10
6.8343401616
 20
0.2172167803
 10
6.8315307935
 20
0.1931282071
 10
6.8286824089
 20
0.1743075952
 10
6.8258046457
 20
0.1608186276
 10
6.8229072414
 20
0.1527069468
 10
6.82
 20
0.15
 10
6.8170927586
 20
0.1527069468
 10
6.8141953543
 20
0.1608186276
 10
6.8113175911
 20
0.1743075952
 10
6.8084692065
 20
0.1931282071
 10
6.8056598384
 20
0.2172167803
 10
6.8028989928
 20
0.2464918067
 10
6.8001960117
 20
0.280854229
 10
6.797560041
 20
0.3201877755
 10
6.795
 20
0.3643593539
 10
6.7925245511
 20
0.4132195017
 10
6.7901420704
 20
0.4666028916
 10
6.7878606195
 20
0.524328891
 10
6.7856879181
 20
0.5862021735
 10
6.7836313179
 20
0.6520133794
 10
6.7816977778
 20
0.7215398245
 10
6.7798938404
 20
0.7945462533
 10
6.7782256094
 20
0.8707856351
 10
6.7766987298
 20
0.95
 10
6.775318368
 20
1.0319213117
 10
6.7740891947
 20
1.1162723743
 10
6.773015369
 20
1.2027677707
 10
6.7721005244
 20
1.2911148277
 10
6.7713477565
 20
1.3810146068
 10
6.7707596123
 20
1.4721629157
 10
6.7703380821
 20
1.5642513374
 10
6.7700845921
 20
1.6569682737
 10
6.77
 20
1.75
  0
LINE
  5
E5
330
1F
100
AcDbEntity
  8
0
  6
Continuous
 62
     7
370
    25
100
AcDbLine
 10
7.8
 20
1.27
 30
0.0
 11
7.917
 21
1.27
 31
0.0
  0
LINE
  5
E6
330
1F
100
AcDbEntity
  8
0
  6
Continuous
 62
     7
370
    25
100
AcDbLine
 10
7.917
 20
-1.27
 30
0.0
 11
7.8
 21
-1.27
 31
0.0
  0
LINE
  5
E7
330
1F
100
AcDbEntity
  8
0
  6
Continuous
 62
     7
370
    25
100
AcDbLine
 10
7.917
 20
-1.4066677084
 30
0.0
 11
7.917
 21
-1.27
 31
0.0
  0
LINE
  5
E8
330
1F
100
AcDbEntity
  8
0
  6
Continuous
 62
     7
370
    25
100
AcDbLine
 10
7.8
 20
-1.57
 30
0.0
 11
7.917
 21
-1.57
 31
0.0
  0
LINE
  5
E9
330
1F
100
AcDbEntity
  8
0
  6
Continuous
 62
     7
370
    25
100
AcDbLine
 10
6.87
 20
-1.75
 30
0.0
 11
7.8
 21
-1.75
 31
0.0
  0
LINE
  5
EA
330
1F
100
AcDbEntity
  8
0
  6
Continuous
 62
     7
370
    25
100
AcDbLine
 10
6.57
 20
-1.75
 30
0.0
 11
6.77
 21
-1.75
 31
0.0
  0
LINE
  5
EB
330
1F
100
AcDbEntity
  8
0
  6
Continuous
 62
     7
370
    25
100
AcDbLine
 10
6.27
 20
-1.75
 30
0.0
 11
6.47
 21
-1.75
 31
0.0
  0
LINE
  5
EC
330
1F
100
AcDbEntity
  8
0
  6
Continuous
 62
     7
370
    25
100
AcDbLine
 10
5.97
 20
-1.75
 30
0.0
 11
6.17
 21
-1.75
 31
0.0
  0
LINE
  5
ED
330
1F
100
AcDbEntity
  8
0
  6
Continuous
 62
     7
370
    25
100
AcDbLine
 10
5.67
 20
-1.75
 30
0.0
 11
5.87
 21
-1.75
 31
0.0
  0
LINE
  5
EE
330
1F
100
AcDbEntity
  8
0
  6
Continuous
 62
     7
370
    25
100
AcDbLine
 10
5.37
 20
-1.75
 30
0.0
 11
5.57
 21
-1.75
 31
0.0
  0
LINE
  5
EF
330
1F
100
AcDbEntity
  8
0
  6
Continuous
 62
     7
370
    25
100
AcDbLine
 10
5.07
 20
-1.75
 30
0.0
 11
5.27
 21
-1.75
 31
0.0
  0
LINE
  5
F0
330
1F
100
AcDbEntity
  8
0
  6
Continuous
 62
     7
370
    25
100
AcDbLine
 10
4.77
 20
-1.75
 30
0.0
 11
4.97
 21
-1.75
 31
0.0
  0
LINE
  5
F1
330
1F
100
AcDbEntity
  8
0
  6
Continuous
 62
     7
370
    25
100
AcDbLine
 10
4.47
 20
-1.75
 30
0.0
 11
4.67
 21
-1.75
 31
0.0
  0
LINE
  5
F2
330
1F
100
AcDbEntity
  8
0
  6
Continuous
 62
     7
370
    25
100
AcDbLine
 10
4.17
 20
-1.75
 30
0.0
 11
4.37
 21
-1.75
 31
0.0
  0
LINE
  5
F3
330
1F
100
AcDbEntity
  8
0
  6
Continuous
 62
     7
370
    25
100
AcDbLine
 10
3.87
 20
-1.75
 30
0.0
 11
4.07
 21
-1.75
 31
0.0
  0
LINE
  5
F4
330
1F
100
AcDbEntity
  8
0
  6
Continuous
 62
     7
370
    25
100
AcDbLine
 10
3.57
 20
-1.75
 30
0.0
 11
3.77
 21
-1.75
 31
0.0
  0
LINE
  5
F5
330
1F
100
AcDbEntity
  8
0
  6
Continuous
 62
     7
370
    25
100
AcDbLine
 10
3.27
 20
-1.75
 30
0.0
 11
3.47
 21
-1.75
 31
0.0
  0
LINE
  5
F6
330
1F
100
AcDbEntity
  8
0
  6
Continuous
 62
     7
370
    25
100
AcDbLine
 10
2.97
 20
-1.75
 30
0.0
 11
3.17
 21
-1.75
 31
0.0
  0
LINE
  5
F7
330
1F
100
AcDbEntity
  8
0
  6
Continuous
 62
     7
370
    25
100
AcDbLine
 10
2.67
 20
-1.75
 30
0.0
 11
2.87
 21
-1.75
 31
0.0
  0
LINE
  5
F8
330
1F
100
AcDbEntity
  8
0
  6
Continuous
 62
     7
370
    25
100
AcDbLine
 10
2.37
 20
-1.75
 30
0.0
 11
2.57
 21
-1.75
 31
0.0
  0
LINE
  5
F9
330
1F
100
AcDbEntity
  8
0
  6
Continuous
 62
     7
370
    25
100
AcDbLine
 10
2.07
 20
-1.75
 30
0.0
 11
2.27
 21
-1.75
 31
0.0
  0
LINE
  5
FA
330
1F
100
AcDbEntity
  8
0
  6
Continuous
 62
     7
370
    25
100
AcDbLine
 10
0.9454645053
 20
-1.75
 30
0.0
 11
1.97
 21
-1.75
 31
0.0
  0
LINE
  5
FB
330
1F
100
AcDbEntity
  8
0
  6
Continuous
 62
     7
370
    25
100
AcDbLine
 10
0.8284645053
 20
-1.57
 30
0.0
 11
0.9454645053
 21
-1.57
 31
0.0
  0
LINE
  5
FC
330
1F
100
AcDbEntity
  8
0
  6
Continuous
 62
     7
370
    25
100
AcDbLine
 10
0.8284645053
 20
-1.4333322916
 30
0.0
 11
0.8284645053
 21
-1.57
 31
0.0
  0
LINE
  5
FD
330
1F
100
AcDbEntity
  8
0
  6
Continuous
 62
     7
370
    25
100
AcDbLine
 10
0.9454645053
 20
-1.27
 30
0.0
 11
0.8284645053
 21
-1.27
 31
0.0
  0
LINE
  5
FE
330
1F
100
AcDbEntity
  8
0
  6
Continuous
 62
     7
370
    25
100
AcDbLine
 10
0.8284645053
 20
1.27
 30
0.0
 11
0.9454645053
 21
1.27
 31
0.0
  0
LINE
  5
FF
330
1F
100
AcDbEntity
  8
0
  6
Continuous
 62
     7
370
    25
100
AcDbLine
 10
0.8284645053
 20
1.4066677084
 30
0.0
 11
0.8284645053
 21
1.27
 31
0.0
  0
LINE
  5
100
330
1F
100
AcDbEntity
  8
0
  6
Continuous
 62
     7
370
    25
100
AcDbLine
 10
0.9454645053
 20
1.57
 30
0.0
 11
0.8284645053
 21
1.57
 31
0.0
  0
LINE
  5
101
330
1F
100
AcDbEntity
  8
0
  6
Continuous
 62
     7
370
    25
100
AcDbLine
 10
1.97
 20
1.75
 30
0.0
 11
0.9454645053
 21
1.75
 31
0.0
  0
LINE
  5
102
330
1F
100
AcDbEntity
  8
0
  6
Continuous
 62
     7
370
    25
100
AcDbLine
 10
7.8
 20
1.57
 30
0.0
 11
7.8
 21
1.75
 31
0.0
  0
LINE
  5
103
330
1F
100
AcDbEntity
  8
0
  6
Continuous
 62
     7
370
    25
100
AcDbLine
 10
7.917
 20
1.57
 30
0.0
 11
7.8
 21
1.57
 31
0.0
  0
LINE
  5
104
330
1F
100
AcDbEntity
  8
0
  6
Continuous
 62
     7
370
    25
100
AcDbLine
 10
7.917
 20
1.4333322916
 30
0.0
 11
7.917
 21
1.57
 31
0.0
  0
LINE
  5
105
330
1F
100
AcDbEntity
  8
0
  6
Continuous
 62
     7
370
    25
100
AcDbLine
 10
7.8
 20
1.75
 30
0.0
 11
6.87
 21
1.75
 31
0.0
  0
LINE
  5
106
330
1F
100
AcDbEntity
  8
0
  6
Continuous
 62
     7
370
    25
100
AcDbLine
 10
6.77
 20
1.75
 30
0.0
 11
6.57
 21
1.75
 31
0.0
  0
LINE
  5
107
330
1F
100
AcDbEntity
  8
0
  6
Continuous
 62
     7
370
    25
100
AcDbLine
 10
6.47
 20
1.75
 30
0.0
 11
6.27
 21
1.75
 31
0.0
  0
LINE
  5
108
330
1F
100
AcDbEntity
  8
0
  6
Continuous
 62
     7
370
    25
100
AcDbLine
 10
6.17
 20
1.75
 30
0.0
 11
5.97
 21
1.75
 31
0.0
  0
LINE
  5
109
330
1F
100
AcDbEntity
  8
0
  6
Continuous
 62
     7
370
    25
100
AcDbLine
 10
5.87
 20
1.75
 30
0.0
 11
5.67
 21
1.75
 31
0.0
  0
LINE
  5
10A
330
1F
100
AcDbEntity
  8
0
  6
Continuous
 62
     7
370
    25
100
AcDbLine
 10
5.57
 20
1.75
 30
0.0
 11
5.37
 21
1.75
 31
0.0
  0
LINE
  5
10B
330
1F
100
AcDbEntity
  8
0
  6
Continuous
 62
     7
370
    25
100
AcDbLine
 10
5.27
 20
1.75
 30
0.0
 11
5.07
 21
1.75
 31
0.0
  0
LINE
  5
10C
330
1F
100
AcDbEntity
  8
0
  6
Continuous
 62
     7
370
    25
100
AcDbLine
 10
4.97
 20
1.75
 30
0.0
 11
4.77
 21
1.75
 31
0.0
  0
LINE
  5
10D
330
1F
100
AcDbEntity
  8
0
  6
Continuous
 62
     7
370
    25
100
AcDbLine
 10
4.67
 20
1.75
 30
0.0
 11
4.47
 21
1.75
 31
0.0
  0
LINE
  5
10E
330
1F
100
AcDbEntity
  8
0
  6
Continuous
 62
     7
370
    25
100
AcDbLine
 10
4.37
 20
1.75
 30
0.0
 11
4.17
 21
1.75
 31
0.0
  0
LINE
  5
10F
330
1F
100
AcDbEntity
  8
0
  6
Continuous
 62
     7
370
    25
100
AcDbLine
 10
4.07
 20
1.75
 30
0.0
 11
3.87
 21
1.75
 31
0.0
  0
LINE
  5
110
330
1F
100
AcDbEntity
  8
0
  6
Continuous
 62
     7
370
    25
100
AcDbLine
 10
3.77
 20
1.75
 30
0.0
 11
3.57
 21
1.75
 31
0.0
  0
LINE
  5
111
330
1F
100
AcDbEntity
  8
0
  6
Continuous
 62
     7
370
    25
100
AcDbLine
 10
3.47
 20
1.75
 30
0.0
 11
3.27
 21
1.75
 31
0.0
  0
LINE
  5
112
330
1F
100
AcDbEntity
  8
0
  6
Continuous
 62
     7
370
    25
100
AcDbLine
 10
3.17
 20
1.75
 30
0.0
 11
2.97
 21
1.75
 31
0.0
  0
LINE
  5
113
330
1F
100
AcDbEntity
  8
0
  6
Continuous
 62
     7
370
    25
100
AcDbLine
 10
2.87
 20
1.75
 30
0.0
 11
2.67
 21
1.75
 31
0.0
  0
LINE
  5
114
330
1F
100
AcDbEntity
  8
0
  6
Continuous
 62
     7
370
    25
100
AcDbLine
 10
2.57
 20
1.75
 30
0.0
 11
2.37
 21
1.75
 31
0.0
  0
LINE
  5
115
330
1F
100
AcDbEntity
  8
0
  6
Continuous
 62
     7
370
    25
100
AcDbLine
 10
2.27
 20
1.75
 30
0.0
 11
2.07
 21
1.75
 31
0.0
  0
LINE
  5
116
330
1F
100
AcDbEntity
  8
0
  6
Continuous
 62
     7
370
    25
100
AcDbLine
 10
0.9454645053
 20
1.57
 30
0.0
 11
0.9454645053
 21
1.75
 31
0.0
  0
LINE
  5
117
330
1F
100
AcDbEntity
  8
0
  6
Continuous
 62
     7
370
    25
100
AcDbLine
 10
7.8
 20
-1.75
 30
0.0
 11
7.8
 21
-1.57
 31
0.0
  0
LINE
  5
118
330
1F
100
AcDbEntity
  8
0
  6
Continuous
 62
     7
370
    25
100
AcDbLine
 10
7.8
 20
-1.27
 30
0.0
 11
7.8
 21
1.27
 31
0.0
  0
LINE
  5
119
330
1F
100
AcDbEntity
  8
0
  6
Continuous
 62
     7
370
    25
100
AcDbLine
 10
0.9454645053
 20
-1.27
 30
0.0
 11
0.9454645053
 21
1.27
 31
0.0
  0
LINE
  5
11A
330
1F
100
AcDbEntity
  8
0
  6
Continuous
 62
     7
370
    25
100
AcDbLine
 10
0.9454645053
 20
-1.75
 30
0.0
 11
0.9454645053
 21
-1.57
 31
0.0
  0
LINE
  5
11B
330
1F
100
AcDbEntity
  8
0
  6
Continuous
 62
     7
370
    25
100
AcDbLine
 10
0.8284645053
 20
1.57
 30
0.0
 11
0.8284645053
 21
1.4333322916
 31
0.0
  0
LINE
  5
11C
330
1F
100
AcDbEntity
  8
0
  6
Continuous
 62
     7
370
    25
100
AcDbLine
 10
0.8284645053
 20
-1.27
 30
0.0
 11
0.8284645053
 21
-1.4066677084
 31
0.0
  0
LINE
  5
11D
330
1F
100
AcDbEntity
  8
0
  6
Continuous
 62
     7
370
    25
100
AcDbLine
 10
7.917
 20
-1.57
 30
0.0
 11
7.917
 21
-1.4333322916
 31
0.0
  0
LINE
  5
11E
330
1F
100
AcDbEntity
  8
0
  6
Continuous
 62
     7
370
    25
100
AcDbLine
 10
7.917
 20
1.27
 30
0.0
 11
7.917
 21
1.4066677084
 31
0.0
  0
ARC
  5
11F
330
1F
100
AcDbEntity
  8
0
  6
Continuous
 62
     7
370
    25
100
AcDbCircle
 10
7.8585
 20
-1.42
 30
0.0
 40
0.0599999999999999
100
AcDbArc
 50
12.838568141
 51
347.161431859
  0
ARC
  5
120
330
1F
100
AcDbEntity
  8
0
  6
Continuous
 62
     7
370
    25
100
AcDbCircle
 10
0.8869645053
 20
-1.42
 30
0.0
 40
0.0600000000000002
100
AcDbArc
 50
192.838568141
 51
167.161431859
  0
ARC
  5
121
330
1F
100
AcDbEntity
  8
0
  6
Continuous
 62
     7
370
    25
100
AcDbCircle
 10
0.8869645053
 20
1.42
 30
0.0
 40
0.0599999999999999
100
AcDbArc
 50
192.838568141
 51
167.161431859
  0
ARC
  5
122
330
1F
100
AcDbEntity
  8
0
  6
Continuous
 62
     7
370
    25
100
AcDbCircle
 10
7.8585
 20
1.42
 30
0.0
 40
0.06
100
AcDbArc
 50
12.838568141
 51
347.161431859
  0
MTEXT
  5
124
330
1F
100
AcDbEntity
  8
0
  6
Continuous
 62
     7
100
AcDbMText
 10
0.8284645053
 20
-1.7901404091
 30
0.0
 40
0.1903
 41
0.0
 71
     1
 72
     1
  1
SOLIDWORKS Educational Product.
  7
SLDTEXTSTYLE0
 73
     1
 44
1.0
  0
MTEXT
  5
125
330
1F
100
AcDbEntity
  8
0
  6
Continuous
 62
     7
100
AcDbMText
 10
0.8284645053
 20
-2.0755904091
 30
0.0
 40
0.1903
 41
0.0
 71
     1
 72
     1
  1
For Instructional Use Only.
  7
SLDTEXTSTYLE0
 73
     1
 44
1.0
  0
ENDSEC
  0
SECTION
  2
OBJECTS
  0
DICTIONARY
  5
C
330
0
100
AcDbDictionary
281
     1
  3
ACAD_GROUP
350
D
  3
ACAD_LAYOUT
350
1A
  3
ACAD_MLINESTYLE
350
17
  3
ACAD_PLOTSETTINGS
350
19
  3
ACAD_PLOTSTYLENAME
350
E
  3
ACAD_SCALELIST
350
47
  0
DICTIONARY
  5
D
102
{ACAD_REACTORS
330
C
102
}
330
C
100
AcDbDictionary
281
     1
  0
DICTIONARY
  5
1A
102
{ACAD_REACTORS
330
C
102
}
330
C
100
AcDbDictionary
281
     1
  3
Layout1
350
1E
  3
Layout2
350
26
  3
Model
350
22
  0
DICTIONARY
  5
17
102
{ACAD_REACTORS
330
C
102
}
330
C
100
AcDbDictionary
281
     1
  3
Standard
350
18
  0
DICTIONARY
  5
19
102
{ACAD_REACTORS
330
C
102
}
330
C
100
AcDbDictionary
281
     1
  0
ACDBDICTIONARYWDFLT
  5
E
102
{ACAD_REACTORS
330
C
102
}
330
C
100
AcDbDictionary
281
     1
  3
Normal
350
F
100
AcDbDictionaryWithDefault
340
F
  0
DICTIONARY
  5
47
102
{ACAD_REACTORS
330
C
102
}
330
C
100
AcDbDictionary
281
     1
  3
A0
350
48
  3
A1
350
49
  3
A2
350
4A
  3
A3
350
4B
  3
A4
350
4C
  3
A5
350
4D
  3
A6
350
4E
  3
A7
350
4F
  3
A8
350
50
  3
A9
350
51
  3
B0
350
52
  3
B1
350
53
  3
B2
350
54
  3
B3
350
55
  3
B4
350
56
  3
B5
350
57
  3
B6
350
58
  3
B7
350
59
  3
B8
350
5A
  3
B9
350
5B
  3
C0
350
5C
  3
C1
350
5D
  3
C2
350
5E
  3
C3
350
5F
  3
C4
350
60
  3
C5
350
61
  3
C6
350
62
  3
C7
350
63
  3
C8
350
64
  3
C9
350
65
  3
D0
350
66
  3
D1
350
67
  3
D2
350
68
  0
LAYOUT
  5
1E
102
{ACAD_REACTORS
330
1A
102
}
330
1A
100
AcDbPlotSettings
  1

  2
none_device
  4

  6

 40
0.0
 41
0.0
 42
0.0
 43
0.0
 44
0.0
 45
0.0
 46
0.0
 47
0.0
 48
0.0
 49
0.0
140
0.0
141
0.0
142
1.0
143
1.0
 70
   688
 72
     0
 73
     0
 74
     5
  7

 75
    16
147
1.0
148
0.0
149
0.0
100
AcDbLayout
  1
Layout1
 70
     1
 71
     1
 10
0.0
 20
0.0
 11
12.0
 21
9.0
 12
0.0
 22
0.0
 32
0.0
 14
1.0000000000E+20
 24
1.0000000000E+20
 34
1.0000000000E+20
 15
-1.0000000000E+20
 25
-1.0000000000E+20
 35
-1.0000000000E+20
146
0.0
 13
0.0
 23
0.0
 33
0.0
 16
1.0
 26
0.0
 36
0.0
 17
0.0
 27
1.0
 37
0.0
 76
     0
330
1B
  0
LAYOUT
  5
26
102
{ACAD_REACTORS
330
1A
102
}
330
1A
100
AcDbPlotSettings
  1

  2
none_device
  4

  6

 40
0.0
 41
0.0
 42
0.0
 43
0.0
 44
0.0
 45
0.0
 46
0.0
 47
0.0
 48
0.0
 49
0.0
140
0.0
141
0.0
142
1.0
143
1.0
 70
   688
 72
     0
 73
     0
 74
     5
  7

 75
    16
147
1.0
148
0.0
149
0.0
100
AcDbLayout
  1
Layout2
 70
     1
 71
     2
 10
0.0
 20
0.0
 11
0.0
 21
0.0
 12
0.0
 22
0.0
 32
0.0
 14
0.0
 24
0.0
 34
0.0
 15
0.0
 25
0.0
 35
0.0
146
0.0
 13
0.0
 23
0.0
 33
0.0
 16
1.0
 26
0.0
 36
0.0
 17
0.0
 27
1.0
 37
0.0
 76
     0
330
23
  0
LAYOUT
  5
22
102
{ACAD_REACTORS
330
1A
102
}
330
1A
100
AcDbPlotSettings
  1

  2
none_device
  4
ANSI_A_(11.00_x_8.50_Inches)
  6

 40
6.35
 41
19.05
 42
6.35000508
 43
19.05000254
 44
279.4
 45
215.9
 46
-37.2810134723
 47
88.89999873
 48
0.0
 49
0.0
140
0.0
141
0.0
142
1.5362834831
143
1.0
 70
  1696
 72
     0
 73
     0
 74
     0
  7

 75
     0
147
0.5913241897
148
-39.4088153714
149
0.0
100
AcDbLayout
  1
Model
 70
     1
 71
     0
 10
0.0
 20
0.0
 11
12.0
 21
9.0
 12
0.0
 22
0.0
 32
0.0
 14
0.8284645053
 24
-1.75
 34
0.0
 15
7.917
 25
1.75
 35
0.0
146
0.0
 13
0.0
 23
0.0
 33
0.0
 16
1.0
 26
0.0
 36
0.0
 17
0.0
 27
1.0
 37
0.0
 76
     0
330
1F
331
29
  0
MLINESTYLE
  5
18
102
{ACAD_REACTORS
330
17
102
}
330
17
100
AcDbMlineStyle
  2
Standard
 70
     0
  3

 62
   256
 51
90.0
 52
90.0
 71
     2
 49
0.5
 62
   256
  6
BYLAYER
 49
-0.5
 62
   256
  6
BYLAYER
  0
ACDBPLACEHOLDER
  5
F
102
{ACAD_REACTORS
330
E
102
}
330
E
  0
SCALE
  5
48
102
{ACAD_REACTORS
330
47
102
}
330
47
100
AcDbScale
 70
     0
300
1:1
140
1.0
141
1.0
290
     1
  0
SCALE
  5
49
102
{ACAD_REACTORS
330
47
102
}
330
47
100
AcDbScale
 70
     0
300
1:2
140
1.0
141
2.0
290
     0
  0
SCALE
  5
4A
102
{ACAD_REACTORS
330
47
102
}
330
47
100
AcDbScale
 70
     0
300
1:4
140
1.0
141
4.0
290
     0
  0
SCALE
  5
4B
102
{ACAD_REACTORS
330
47
102
}
330
47
100
AcDbScale
 70
     0
300
1:5
140
1.0
141
5.0
290
     0
  0
SCALE
  5
4C
102
{ACAD_REACTORS
330
47
102
}
330
47
100
AcDbScale
 70
     0
300
1:8
140
1.0
141
8.0
290
     0
  0
SCALE
  5
4D
102
{ACAD_REACTORS
330
47
102
}
330
47
100
AcDbScale
 70
     0
300
1:10
140
1.0
141
10.0
290
     0
  0
SCALE
  5
4E
102
{ACAD_REACTORS
330
47
102
}
330
47
100
AcDbScale
 70
     0
300
1:16
140
1.0
141
16.0
290
     0
  0
SCALE
  5
4F
102
{ACAD_REACTORS
330
47
102
}
330
47
100
AcDbScale
 70
     0
300
1:20
140
1.0
141
20.0
290
     0
  0
SCALE
  5
50
102
{ACAD_REACTORS
330
47
102
}
330
47
100
AcDbScale
 70
     0
300
1:30
140
1.0
141
30.0
290
     0
  0
SCALE
  5
51
102
{ACAD_REACTORS
330
47
102
}
330
47
100
AcDbScale
 70
     0
300
1:40
140
1.0
141
40.0
290
     0
  0
SCALE
  5
52
102
{ACAD_REACTORS
330
47
102
}
330
47
100
AcDbScale
 70
     0
300
1:50
140
1.0
141
50.0
290
     0
  0
SCALE
  5
53
102
{ACAD_REACTORS
330
47
102
}
330
47
100
AcDbScale
 70
     0
300
1:100
140
1.0
141
100.0
290
     0
  0
SCALE
  5
54
102
{ACAD_REACTORS
330
47
102
}
330
47
100
AcDbScale
 70
     0
300
2:1
140
2.0
141
1.0
290
     0
  0
SCALE
  5
55
102
{ACAD_REACTORS
330
47
102
}
330
47
100
AcDbScale
 70
     0
300
4:1
140
4.0
141
1.0
290
     0
  0
SCALE
  5
56
102
{ACAD_REACTORS
330
47
102
}
330
47
100
AcDbScale
 70
     0
300
8:1
140
8.0
141
1.0
290
     0
  0
SCALE
  5
57
102
{ACAD_REACTORS
330
47
102
}
330
47
100
AcDbScale
 70
     0
300
10:1
140
10.0
141
1.0
290
     0
  0
SCALE
  5
58
102
{ACAD_REACTORS
330
47
102
}
330
47
100
AcDbScale
 70
     0
300
100:1
140
100.0
141
1.0
290
     0
  0
SCALE
  5
59
102
{ACAD_REACTORS
330
47
102
}
330
47
100
AcDbScale
 70
     0
300
1/128" = 1'-0"
140
0.0078125
141
12.0
290
     0
  0
SCALE
  5
5A
102
{ACAD_REACTORS
330
47
102
}
330
47
100
AcDbScale
 70
     0
300
1/64" = 1'-0"
140
0.015625
141
12.0
290
     0
  0
SCALE
  5
5B
102
{ACAD_REACTORS
330
47
102
}
330
47
100
AcDbScale
 70
     0
300
1/32" = 1'-0"
140
0.03125
141
12.0
290
     0
  0
SCALE
  5
5C
102
{ACAD_REACTORS
330
47
102
}
330
47
100
AcDbScale
 70
     0
300
1/16" = 1'-0"
140
0.0625
141
12.0
290
     0
  0
SCALE
  5
5D
102
{ACAD_REACTORS
330
47
102
}
330
47
100
AcDbScale
 70
     0
300
3/32" = 1'-0"
140
0.09375
141
12.0
290
     0
  0
SCALE
  5
5E
102
{ACAD_REACTORS
330
47
102
}
330
47
100
AcDbScale
 70
     0
300
1/8" = 1'-0"
140
0.125
141
12.0
290
     0
  0
SCALE
  5
5F
102
{ACAD_REACTORS
330
47
102
}
330
47
100
AcDbScale
 70
     0
300
3/16" = 1'-0"
140
0.1875
141
12.0
290
     0
  0
SCALE
  5
60
102
{ACAD_REACTORS
330
47
102
}
330
47
100
AcDbScale
 70
     0
300
1/4" = 1'-0"
140
0.25
141
12.0
290
     0
  0
SCALE
  5
61
102
{ACAD_REACTORS
330
47
102
}
330
47
100
AcDbScale
 70
     0
300
3/8" = 1'-0"
140
0.375
141
12.0
290
     0
  0
SCALE
  5
62
102
{ACAD_REACTORS
330
47
102
}
330
47
100
AcDbScale
 70
     0
300
1/2" = 1'-0"
140
0.5
141
12.0
290
     0
  0
SCALE
  5
63
102
{ACAD_REACTORS
330
47
102
}
330
47
100
AcDbScale
 70
     0
300
3/4" = 1'-0"
140
0.75
141
12.0
290
     0
  0
SCALE
  5
64
102
{ACAD_REACTORS
330
47
102
}
330
47
100
AcDbScale
 70
     0
300
1" = 1'-0"
140
1.0
141
12.0
290
     0
  0
SCALE
  5
65
102
{ACAD_REACTORS
330
47
102
}
330
47
100
AcDbScale
 70
     0
300
1-1/2" = 1'-0"
140
1.5
141
12.0
290
     0
  0
SCALE
  5
66
102
{ACAD_REACTORS
330
47
102
}
330
47
100
AcDbScale
 70
     0
300
3" = 1'-0"
140
3.0
141
12.0
290
     0
  0
SCALE
  5
67
102
{ACAD_REACTORS
330
47
102
}
330
47
100
AcDbScale
 70
     0
300
6" = 1'-0"
140
6.0
141
12.0
290
     0
  0
SCALE
  5
68
102
{ACAD_REACTORS
330
47
102
}
330
47
100
AcDbScale
 70
     0
300
1'-0" = 1'-0"
140
12.0
141
12.0
290
     0
  0
ENDSEC
  0
EOF
