%
M48
M72
T01C0.01969
T02C0.02362
T03C0.03150
T04C0.03200
T05C0.03937
T06C0.04000
T07C0.07480
%
T01
X22250Y26800
X36000Y31800
X18500Y41800
X13500Y43050
X13500Y50550
X19266Y73050
X36000Y91800
X48500Y90550
X41000Y121800
X41000Y131800
X96000Y105550
X99750Y111800
X98866Y91800
X77250Y55550
X99384Y49300
T02
X126000Y156800
X186000Y76800
T03
X17201Y159221
X20350Y163946
X23500Y159221
X26650Y163946
X29799Y159221
X58126Y186800
X66000Y186800
X73874Y186800
T04
X86000Y161800
X86000Y151800
X86000Y141800
X86000Y131800
X86000Y121800
X86000Y111800
X86000Y101800
X86000Y91800
X86000Y81800
X86000Y71800
X86000Y61800
X86000Y51800
X86000Y41800
X86000Y31800
X103500Y14300
X113500Y14300
X116000Y31800
X116000Y41800
X116000Y51800
X116000Y61800
X116000Y71800
X116000Y81800
X116000Y91800
X116000Y101800
X116000Y111800
X116000Y121800
X116000Y131800
X116000Y141800
X116000Y151800
X116000Y161800
X128500Y173050
X138500Y173050
X134750Y158050
X134750Y148050
X148500Y148050
X156000Y170550
X138500Y189300
X128500Y189300
X112250Y184300
X107250Y191800
X102250Y184300
X156000Y190550
X181000Y191800
X181000Y181800
X188500Y148050
X151000Y81800
X131000Y81800
X141000Y16800
X181000Y16800
X66000Y31800
X66000Y41800
X43500Y33050
X28500Y33050
X28500Y73050
X43500Y73050
T05
X50252Y186800
X81748Y186800
T06
X6000Y136800
X6000Y126800
X6000Y116800
X6000Y106800
X6000Y96800
X6000Y86800
X6000Y76800
X6000Y66800
X6000Y56800
X6000Y46800
X6000Y36800
X6000Y26800
X6000Y16800
X19750Y16800
X39750Y16800
X64750Y15550
X84750Y15550
X71000Y66800
X71000Y76800
X71000Y86800
X193000Y86800
X193000Y76800
X193000Y66800
X193000Y96800
X193000Y106800
X193000Y116800
X193000Y126800
X193000Y136800
T07
X9130Y179300
X37870Y179300
M30
