G75*
%MOIN*%
%OFA0B0*%
%FSLAX25Y25*%
%IPPOS*%
%LPD*%
%AMOC8*
5,1,8,0,0,1.08239X$1,22.5*
%
%ADD10C,0.00000*%
%ADD11OC8,0.05200*%
%ADD12C,0.05200*%
%ADD13C,0.05150*%
%ADD14C,0.11220*%
%ADD15C,0.05200*%
%ADD16C,0.05937*%
%ADD17C,0.07400*%
%ADD18C,0.01600*%
%ADD19C,0.03562*%
%ADD20C,0.03169*%
D10*
X0001000Y0001800D02*
X0001000Y0198650D01*
X0197850Y0198650D01*
X0197850Y0001800D01*
X0001000Y0001800D01*
D11*
X0028500Y0033050D03*
X0043500Y0033050D03*
X0066000Y0031800D03*
X0066000Y0041800D03*
X0043500Y0073050D03*
X0028500Y0073050D03*
X0103500Y0014300D03*
X0113500Y0014300D03*
X0141000Y0016800D03*
X0181000Y0016800D03*
X0151000Y0081800D03*
X0148500Y0148050D03*
X0134750Y0148050D03*
X0134750Y0158050D03*
X0138500Y0173050D03*
X0128500Y0173050D03*
X0128500Y0189300D03*
X0138500Y0189300D03*
X0156000Y0190550D03*
X0181000Y0191800D03*
X0181000Y0181800D03*
X0188500Y0148050D03*
X0112250Y0184300D03*
X0107250Y0191800D03*
X0102250Y0184300D03*
D12*
X0156000Y0170550D03*
X0131000Y0081800D03*
D13*
X0073874Y0186800D03*
X0066000Y0186800D03*
X0058126Y0186800D03*
X0029799Y0159221D03*
X0026650Y0163946D03*
X0023500Y0159221D03*
X0020350Y0163946D03*
X0017201Y0159221D03*
D14*
X0009130Y0179300D03*
X0037870Y0179300D03*
D15*
X0083400Y0161800D02*
X0088600Y0161800D01*
X0088600Y0151800D02*
X0083400Y0151800D01*
X0083400Y0141800D02*
X0088600Y0141800D01*
X0088600Y0131800D02*
X0083400Y0131800D01*
X0083400Y0121800D02*
X0088600Y0121800D01*
X0088600Y0111800D02*
X0083400Y0111800D01*
X0083400Y0101800D02*
X0088600Y0101800D01*
X0088600Y0091800D02*
X0083400Y0091800D01*
X0083400Y0081800D02*
X0088600Y0081800D01*
X0088600Y0071800D02*
X0083400Y0071800D01*
X0083400Y0061800D02*
X0088600Y0061800D01*
X0088600Y0051800D02*
X0083400Y0051800D01*
X0083400Y0041800D02*
X0088600Y0041800D01*
X0088600Y0031800D02*
X0083400Y0031800D01*
X0113400Y0031800D02*
X0118600Y0031800D01*
X0118600Y0041800D02*
X0113400Y0041800D01*
X0113400Y0051800D02*
X0118600Y0051800D01*
X0118600Y0061800D02*
X0113400Y0061800D01*
X0113400Y0071800D02*
X0118600Y0071800D01*
X0118600Y0081800D02*
X0113400Y0081800D01*
X0113400Y0091800D02*
X0118600Y0091800D01*
X0118600Y0101800D02*
X0113400Y0101800D01*
X0113400Y0111800D02*
X0118600Y0111800D01*
X0118600Y0121800D02*
X0113400Y0121800D01*
X0113400Y0131800D02*
X0118600Y0131800D01*
X0118600Y0141800D02*
X0113400Y0141800D01*
X0113400Y0151800D02*
X0118600Y0151800D01*
X0118600Y0161800D02*
X0113400Y0161800D01*
D16*
X0081748Y0186800D03*
X0050252Y0186800D03*
D17*
X0006000Y0136800D03*
X0006000Y0126800D03*
X0006000Y0116800D03*
X0006000Y0106800D03*
X0006000Y0096800D03*
X0006000Y0086800D03*
X0006000Y0076800D03*
X0006000Y0066800D03*
X0006000Y0056800D03*
X0006000Y0046800D03*
X0006000Y0036800D03*
X0006000Y0026800D03*
X0006000Y0016800D03*
X0019750Y0016800D03*
X0039750Y0016800D03*
X0064750Y0015550D03*
X0084750Y0015550D03*
X0071000Y0066800D03*
X0071000Y0076800D03*
X0071000Y0086800D03*
X0193000Y0086800D03*
X0193000Y0076800D03*
X0193000Y0066800D03*
X0193000Y0096800D03*
X0193000Y0106800D03*
X0193000Y0116800D03*
X0193000Y0126800D03*
X0193000Y0136800D03*
D18*
X0146000Y0175550D02*
X0138500Y0173050D01*
X0146000Y0175550D02*
X0156000Y0185550D01*
X0156000Y0190550D01*
X0138500Y0189300D02*
X0134750Y0185550D01*
X0134750Y0158050D01*
X0131000Y0161800D01*
X0116000Y0161800D01*
X0111000Y0161800D01*
X0106000Y0156800D01*
X0106000Y0121800D01*
X0116000Y0111800D01*
X0116000Y0101800D02*
X0099750Y0101800D01*
X0096000Y0105550D01*
X0099750Y0111800D02*
X0099750Y0168050D01*
X0096000Y0171800D01*
X0056000Y0171800D01*
X0036000Y0151800D01*
X0026000Y0151800D01*
X0023500Y0154300D01*
X0023500Y0159221D01*
X0020350Y0163946D02*
X0013146Y0163946D01*
X0011000Y0161800D01*
X0011000Y0151800D01*
X0016000Y0146800D01*
X0036000Y0146800D01*
X0047250Y0135550D01*
X0047250Y0091800D01*
X0048500Y0090550D01*
X0036000Y0091800D02*
X0036000Y0031800D01*
X0043500Y0033050D02*
X0051000Y0033050D01*
X0054750Y0036800D01*
X0054750Y0155550D01*
X0061000Y0161800D01*
X0086000Y0161800D01*
X0066000Y0186800D02*
X0038421Y0159221D01*
X0029799Y0159221D01*
X0041000Y0131800D02*
X0016000Y0106800D01*
X0016000Y0053050D01*
X0013500Y0050550D01*
X0016000Y0046800D02*
X0006000Y0046800D01*
X0013500Y0043050D02*
X0013500Y0034300D01*
X0006000Y0026800D01*
X0018500Y0018050D02*
X0019750Y0016800D01*
X0027250Y0016800D01*
X0043500Y0033050D01*
X0023500Y0028050D02*
X0022250Y0026800D01*
X0023500Y0028050D02*
X0023500Y0104300D01*
X0041000Y0121800D01*
X0071000Y0086800D02*
X0081000Y0086800D01*
X0086000Y0081800D01*
X0086000Y0091800D02*
X0087250Y0091800D01*
X0107250Y0071800D01*
X0116000Y0071800D01*
X0116000Y0081800D02*
X0131000Y0081800D01*
X0116000Y0091800D02*
X0098866Y0091800D01*
X0086000Y0071800D02*
X0081000Y0066800D01*
X0071000Y0066800D01*
X0077250Y0055550D02*
X0077250Y0035550D01*
X0081000Y0031800D01*
X0086000Y0031800D01*
X0092250Y0025550D02*
X0074750Y0025550D01*
X0064750Y0015550D01*
X0092250Y0025550D02*
X0096000Y0029300D01*
X0096000Y0056800D01*
X0091000Y0061800D01*
X0086000Y0061800D01*
X0099384Y0049300D02*
X0099384Y0018416D01*
X0103500Y0014300D01*
X0018500Y0018050D02*
X0018500Y0041800D01*
X0016000Y0046800D02*
X0019266Y0050066D01*
X0019266Y0073050D01*
X0019750Y0073050D01*
X0018500Y0071800D01*
X0116000Y0166800D02*
X0112250Y0170550D01*
X0112250Y0184300D01*
X0107250Y0191800D02*
X0061000Y0191800D01*
X0058126Y0188926D01*
X0058126Y0186800D01*
X0116000Y0166800D02*
X0116000Y0161800D01*
X0126000Y0156800D02*
X0126000Y0136800D01*
X0186000Y0076800D01*
D19*
X0186000Y0076800D03*
X0126000Y0156800D03*
D20*
X0099750Y0111800D03*
X0096000Y0105550D03*
X0098866Y0091800D03*
X0077250Y0055550D03*
X0099384Y0049300D03*
X0048500Y0090550D03*
X0036000Y0091800D03*
X0019266Y0073050D03*
X0013500Y0050550D03*
X0013500Y0043050D03*
X0018500Y0041800D03*
X0022250Y0026800D03*
X0036000Y0031800D03*
X0041000Y0121800D03*
X0041000Y0131800D03*
M02*
