G75*
%MOIN*%
%OFA0B0*%
%FSLAX25Y25*%
%IPPOS*%
%LPD*%
%AMOC8*
5,1,8,0,0,1.08239X$1,22.5*
%
%ADD10C,0.00000*%
%ADD11OC8,0.05200*%
%ADD12C,0.05200*%
%ADD13C,0.05150*%
%ADD14C,0.11220*%
%ADD15C,0.05200*%
%ADD16C,0.05937*%
%ADD17C,0.07400*%
%ADD18C,0.01600*%
%ADD19C,0.03562*%
%ADD20C,0.03169*%
D10*
X0001000Y0001800D02*
X0001000Y0198650D01*
X0197850Y0198650D01*
X0197850Y0001800D01*
X0001000Y0001800D01*
D11*
X0028500Y0033050D03*
X0043500Y0033050D03*
X0066000Y0031800D03*
X0066000Y0041800D03*
X0043500Y0073050D03*
X0028500Y0073050D03*
X0103500Y0014300D03*
X0113500Y0014300D03*
X0141000Y0016800D03*
X0181000Y0016800D03*
X0151000Y0081800D03*
X0148500Y0148050D03*
X0134750Y0148050D03*
X0134750Y0158050D03*
X0138500Y0173050D03*
X0128500Y0173050D03*
X0128500Y0189300D03*
X0138500Y0189300D03*
X0156000Y0190550D03*
X0181000Y0191800D03*
X0181000Y0181800D03*
X0188500Y0148050D03*
X0112250Y0184300D03*
X0107250Y0191800D03*
X0102250Y0184300D03*
D12*
X0156000Y0170550D03*
X0131000Y0081800D03*
D13*
X0073874Y0186800D03*
X0066000Y0186800D03*
X0058126Y0186800D03*
X0029799Y0159221D03*
X0026650Y0163946D03*
X0023500Y0159221D03*
X0020350Y0163946D03*
X0017201Y0159221D03*
D14*
X0009130Y0179300D03*
X0037870Y0179300D03*
D15*
X0083400Y0161800D02*
X0088600Y0161800D01*
X0088600Y0151800D02*
X0083400Y0151800D01*
X0083400Y0141800D02*
X0088600Y0141800D01*
X0088600Y0131800D02*
X0083400Y0131800D01*
X0083400Y0121800D02*
X0088600Y0121800D01*
X0088600Y0111800D02*
X0083400Y0111800D01*
X0083400Y0101800D02*
X0088600Y0101800D01*
X0088600Y0091800D02*
X0083400Y0091800D01*
X0083400Y0081800D02*
X0088600Y0081800D01*
X0088600Y0071800D02*
X0083400Y0071800D01*
X0083400Y0061800D02*
X0088600Y0061800D01*
X0088600Y0051800D02*
X0083400Y0051800D01*
X0083400Y0041800D02*
X0088600Y0041800D01*
X0088600Y0031800D02*
X0083400Y0031800D01*
X0113400Y0031800D02*
X0118600Y0031800D01*
X0118600Y0041800D02*
X0113400Y0041800D01*
X0113400Y0051800D02*
X0118600Y0051800D01*
X0118600Y0061800D02*
X0113400Y0061800D01*
X0113400Y0071800D02*
X0118600Y0071800D01*
X0118600Y0081800D02*
X0113400Y0081800D01*
X0113400Y0091800D02*
X0118600Y0091800D01*
X0118600Y0101800D02*
X0113400Y0101800D01*
X0113400Y0111800D02*
X0118600Y0111800D01*
X0118600Y0121800D02*
X0113400Y0121800D01*
X0113400Y0131800D02*
X0118600Y0131800D01*
X0118600Y0141800D02*
X0113400Y0141800D01*
X0113400Y0151800D02*
X0118600Y0151800D01*
X0118600Y0161800D02*
X0113400Y0161800D01*
D16*
X0081748Y0186800D03*
X0050252Y0186800D03*
D17*
X0006000Y0136800D03*
X0006000Y0126800D03*
X0006000Y0116800D03*
X0006000Y0106800D03*
X0006000Y0096800D03*
X0006000Y0086800D03*
X0006000Y0076800D03*
X0006000Y0066800D03*
X0006000Y0056800D03*
X0006000Y0046800D03*
X0006000Y0036800D03*
X0006000Y0026800D03*
X0006000Y0016800D03*
X0019750Y0016800D03*
X0039750Y0016800D03*
X0064750Y0015550D03*
X0084750Y0015550D03*
X0071000Y0066800D03*
X0071000Y0076800D03*
X0071000Y0086800D03*
X0193000Y0086800D03*
X0193000Y0076800D03*
X0193000Y0066800D03*
X0193000Y0096800D03*
X0193000Y0106800D03*
X0193000Y0116800D03*
X0193000Y0126800D03*
X0193000Y0136800D03*
D18*
X0181000Y0136800D01*
X0176000Y0141800D01*
X0116000Y0141800D01*
X0119515Y0146400D02*
X0112485Y0146400D01*
X0110794Y0145700D01*
X0109500Y0144406D01*
X0108800Y0142715D01*
X0108800Y0140885D01*
X0109500Y0139194D01*
X0110794Y0137900D01*
X0112485Y0137200D01*
X0119515Y0137200D01*
X0121206Y0137900D01*
X0122305Y0139000D01*
X0174840Y0139000D01*
X0178626Y0135214D01*
X0179414Y0134426D01*
X0180443Y0134000D01*
X0187990Y0134000D01*
X0188168Y0133571D01*
X0189771Y0131968D01*
X0190176Y0131800D01*
X0189771Y0131632D01*
X0188168Y0130029D01*
X0187990Y0129600D01*
X0182160Y0129600D01*
X0177586Y0134174D01*
X0176557Y0134600D01*
X0122305Y0134600D01*
X0121206Y0135700D01*
X0119515Y0136400D01*
X0112485Y0136400D01*
X0110794Y0135700D01*
X0109500Y0134406D01*
X0108800Y0132715D01*
X0108800Y0130885D01*
X0109500Y0129194D01*
X0110794Y0127900D01*
X0112485Y0127200D01*
X0119515Y0127200D01*
X0121206Y0127900D01*
X0122305Y0129000D01*
X0174840Y0129000D01*
X0178626Y0125214D01*
X0179414Y0124426D01*
X0180443Y0124000D01*
X0187990Y0124000D01*
X0188168Y0123571D01*
X0189771Y0121968D01*
X0190176Y0121800D01*
X0189771Y0121632D01*
X0188168Y0120029D01*
X0187990Y0119600D01*
X0182160Y0119600D01*
X0177586Y0124174D01*
X0176557Y0124600D01*
X0122305Y0124600D01*
X0121206Y0125700D01*
X0119515Y0126400D01*
X0112485Y0126400D01*
X0110794Y0125700D01*
X0109500Y0124406D01*
X0108800Y0122715D01*
X0108800Y0120885D01*
X0109500Y0119194D01*
X0110794Y0117900D01*
X0112485Y0117200D01*
X0119515Y0117200D01*
X0121206Y0117900D01*
X0122305Y0119000D01*
X0174840Y0119000D01*
X0178626Y0115214D01*
X0179414Y0114426D01*
X0180443Y0114000D01*
X0187990Y0114000D01*
X0188168Y0113571D01*
X0189771Y0111968D01*
X0190176Y0111800D01*
X0189771Y0111632D01*
X0188168Y0110029D01*
X0187990Y0109600D01*
X0185443Y0109600D01*
X0184414Y0109174D01*
X0155400Y0080160D01*
X0155400Y0081800D01*
X0155400Y0083623D01*
X0152823Y0086200D01*
X0151000Y0086200D01*
X0151000Y0081800D01*
X0151000Y0081800D01*
X0155400Y0081800D01*
X0151000Y0081800D01*
X0151000Y0081800D01*
X0151000Y0077400D01*
X0152640Y0077400D01*
X0139840Y0064600D01*
X0122305Y0064600D01*
X0121206Y0065700D01*
X0119515Y0066400D01*
X0112485Y0066400D01*
X0110794Y0065700D01*
X0109500Y0064406D01*
X0108800Y0062715D01*
X0108800Y0060885D01*
X0109500Y0059194D01*
X0110794Y0057900D01*
X0112485Y0057200D01*
X0119515Y0057200D01*
X0121206Y0057900D01*
X0122305Y0059000D01*
X0141557Y0059000D01*
X0142586Y0059426D01*
X0187160Y0104000D01*
X0187990Y0104000D01*
X0188168Y0103571D01*
X0189771Y0101968D01*
X0190176Y0101800D01*
X0189771Y0101632D01*
X0188168Y0100029D01*
X0187990Y0099600D01*
X0185443Y0099600D01*
X0184414Y0099174D01*
X0139840Y0054600D01*
X0122305Y0054600D01*
X0121206Y0055700D01*
X0119515Y0056400D01*
X0112485Y0056400D01*
X0110794Y0055700D01*
X0109500Y0054406D01*
X0108800Y0052715D01*
X0108800Y0050885D01*
X0109500Y0049194D01*
X0110794Y0047900D01*
X0112485Y0047200D01*
X0119515Y0047200D01*
X0121206Y0047900D01*
X0122305Y0049000D01*
X0141557Y0049000D01*
X0142586Y0049426D01*
X0143374Y0050214D01*
X0187160Y0094000D01*
X0187990Y0094000D01*
X0188168Y0093571D01*
X0189771Y0091968D01*
X0190176Y0091800D01*
X0189771Y0091632D01*
X0188168Y0090029D01*
X0187990Y0089600D01*
X0185443Y0089600D01*
X0184414Y0089174D01*
X0139840Y0044600D01*
X0122305Y0044600D01*
X0121206Y0045700D01*
X0119515Y0046400D01*
X0112485Y0046400D01*
X0110794Y0045700D01*
X0109500Y0044406D01*
X0108800Y0042715D01*
X0108800Y0040885D01*
X0109500Y0039194D01*
X0110794Y0037900D01*
X0112485Y0037200D01*
X0119515Y0037200D01*
X0121206Y0037900D01*
X0122305Y0039000D01*
X0141557Y0039000D01*
X0142586Y0039426D01*
X0143374Y0040214D01*
X0187160Y0084000D01*
X0187990Y0084000D01*
X0188168Y0083571D01*
X0189771Y0081968D01*
X0190176Y0081800D01*
X0189771Y0081632D01*
X0188168Y0080029D01*
X0188153Y0079994D01*
X0188142Y0080005D01*
X0186752Y0080581D01*
X0185248Y0080581D01*
X0183858Y0080005D01*
X0182795Y0078942D01*
X0182219Y0077552D01*
X0182219Y0076979D01*
X0139840Y0034600D01*
X0122305Y0034600D01*
X0121206Y0035700D01*
X0119515Y0036400D01*
X0112485Y0036400D01*
X0110794Y0035700D01*
X0109500Y0034406D01*
X0108800Y0032715D01*
X0108800Y0030885D01*
X0109500Y0029194D01*
X0110794Y0027900D01*
X0112485Y0027200D01*
X0119515Y0027200D01*
X0121206Y0027900D01*
X0122305Y0029000D01*
X0141557Y0029000D01*
X0142586Y0029426D01*
X0143374Y0030214D01*
X0186179Y0073019D01*
X0186752Y0073019D01*
X0188142Y0073595D01*
X0188153Y0073606D01*
X0188168Y0073571D01*
X0189771Y0071968D01*
X0190464Y0071681D01*
X0190117Y0071504D01*
X0189417Y0070995D01*
X0188805Y0070383D01*
X0188296Y0069683D01*
X0187903Y0068911D01*
X0187635Y0068088D01*
X0187500Y0067233D01*
X0187500Y0067000D01*
X0192800Y0067000D01*
X0192800Y0066600D01*
X0193200Y0066600D01*
X0193200Y0061300D01*
X0193433Y0061300D01*
X0194288Y0061435D01*
X0195111Y0061703D01*
X0195850Y0062080D01*
X0195850Y0003800D01*
X0003000Y0003800D01*
X0003000Y0011873D01*
X0004866Y0011100D01*
X0007134Y0011100D01*
X0009229Y0011968D01*
X0010832Y0013571D01*
X0011700Y0015666D01*
X0011700Y0017934D01*
X0011522Y0018363D01*
X0017160Y0024000D01*
X0019981Y0024000D01*
X0020220Y0023761D01*
X0021537Y0023216D01*
X0022963Y0023216D01*
X0024280Y0023761D01*
X0025289Y0024770D01*
X0025834Y0026087D01*
X0025834Y0027513D01*
X0025289Y0028830D01*
X0024280Y0029839D01*
X0022963Y0030384D01*
X0021537Y0030384D01*
X0020220Y0029839D01*
X0019981Y0029600D01*
X0015443Y0029600D01*
X0014414Y0029174D01*
X0013626Y0028386D01*
X0011700Y0026460D01*
X0011700Y0027934D01*
X0010832Y0030029D01*
X0009229Y0031632D01*
X0008536Y0031919D01*
X0008883Y0032096D01*
X0009583Y0032605D01*
X0010195Y0033217D01*
X0010704Y0033917D01*
X0011097Y0034689D01*
X0011365Y0035512D01*
X0011500Y0036367D01*
X0011500Y0036600D01*
X0006200Y0036600D01*
X0006200Y0037000D01*
X0011500Y0037000D01*
X0011500Y0037233D01*
X0011365Y0038088D01*
X0011097Y0038911D01*
X0010704Y0039683D01*
X0010195Y0040383D01*
X0009583Y0040995D01*
X0008883Y0041504D01*
X0008536Y0041681D01*
X0009229Y0041968D01*
X0009916Y0042655D01*
X0009916Y0042337D01*
X0010461Y0041020D01*
X0011470Y0040011D01*
X0012787Y0039466D01*
X0014213Y0039466D01*
X0015386Y0039952D01*
X0015461Y0039770D01*
X0016470Y0038761D01*
X0017787Y0038216D01*
X0019213Y0038216D01*
X0020530Y0038761D01*
X0021539Y0039770D01*
X0022084Y0041087D01*
X0022084Y0042513D01*
X0021539Y0043830D01*
X0021300Y0044069D01*
X0021300Y0056107D01*
X0020874Y0057136D01*
X0018836Y0059174D01*
X0017807Y0059600D01*
X0011010Y0059600D01*
X0010832Y0060029D01*
X0009229Y0061632D01*
X0008536Y0061919D01*
X0008883Y0062096D01*
X0009583Y0062605D01*
X0010195Y0063217D01*
X0010704Y0063917D01*
X0011097Y0064689D01*
X0011365Y0065512D01*
X0011500Y0066367D01*
X0011500Y0066600D01*
X0006200Y0066600D01*
X0006200Y0067000D01*
X0011500Y0067000D01*
X0011500Y0067233D01*
X0011365Y0068088D01*
X0011097Y0068911D01*
X0010704Y0069683D01*
X0010195Y0070383D01*
X0009583Y0070995D01*
X0008883Y0071504D01*
X0008536Y0071681D01*
X0009229Y0071968D01*
X0010832Y0073571D01*
X0011010Y0074000D01*
X0014840Y0074000D01*
X0015681Y0073159D01*
X0015681Y0072337D01*
X0016227Y0071020D01*
X0017235Y0070011D01*
X0018553Y0069466D01*
X0019979Y0069466D01*
X0021296Y0070011D01*
X0021535Y0070250D01*
X0024795Y0070250D01*
X0026595Y0068450D01*
X0030405Y0068450D01*
X0032205Y0070250D01*
X0039795Y0070250D01*
X0041595Y0068450D01*
X0045405Y0068450D01*
X0047205Y0070250D01*
X0048200Y0070250D01*
X0048200Y0043743D01*
X0048626Y0042714D01*
X0051126Y0040214D01*
X0051914Y0039426D01*
X0052943Y0039000D01*
X0062295Y0039000D01*
X0064095Y0037200D01*
X0067905Y0037200D01*
X0069705Y0039000D01*
X0079695Y0039000D01*
X0080794Y0037900D01*
X0082485Y0037200D01*
X0089515Y0037200D01*
X0091206Y0037900D01*
X0092305Y0039000D01*
X0102807Y0039000D01*
X0103836Y0039426D01*
X0105086Y0040676D01*
X0105874Y0041464D01*
X0106300Y0042493D01*
X0106300Y0108140D01*
X0107160Y0109000D01*
X0109695Y0109000D01*
X0110794Y0107900D01*
X0112485Y0107200D01*
X0119515Y0107200D01*
X0121206Y0107900D01*
X0122500Y0109194D01*
X0123200Y0110885D01*
X0123200Y0112715D01*
X0122500Y0114406D01*
X0121206Y0115700D01*
X0119515Y0116400D01*
X0112485Y0116400D01*
X0110794Y0115700D01*
X0109695Y0114600D01*
X0105443Y0114600D01*
X0104414Y0114174D01*
X0103626Y0113386D01*
X0103164Y0112924D01*
X0102789Y0113830D01*
X0101780Y0114839D01*
X0100463Y0115384D01*
X0099037Y0115384D01*
X0098800Y0115286D01*
X0098800Y0168607D01*
X0098374Y0169636D01*
X0097586Y0170424D01*
X0095086Y0172924D01*
X0094057Y0173350D01*
X0042683Y0173350D01*
X0044322Y0174989D01*
X0045480Y0177786D01*
X0045480Y0180814D01*
X0044322Y0183611D01*
X0042181Y0185752D01*
X0039384Y0186910D01*
X0036356Y0186910D01*
X0033559Y0185752D01*
X0031418Y0183611D01*
X0030260Y0180814D01*
X0030260Y0177786D01*
X0031418Y0174989D01*
X0033058Y0173350D01*
X0031693Y0173350D01*
X0030664Y0172924D01*
X0029876Y0172136D01*
X0026261Y0168520D01*
X0025740Y0168520D01*
X0024058Y0167824D01*
X0023500Y0167266D01*
X0022942Y0167824D01*
X0021260Y0168520D01*
X0019440Y0168520D01*
X0017759Y0167824D01*
X0016472Y0166537D01*
X0015776Y0164856D01*
X0015776Y0163358D01*
X0015521Y0163276D01*
X0014908Y0162963D01*
X0014351Y0162558D01*
X0013864Y0162071D01*
X0013459Y0161514D01*
X0013146Y0160901D01*
X0012934Y0160246D01*
X0012826Y0159566D01*
X0012826Y0159221D01*
X0012826Y0158877D01*
X0012934Y0158197D01*
X0013146Y0157542D01*
X0013459Y0156928D01*
X0013864Y0156371D01*
X0014351Y0155884D01*
X0014908Y0155480D01*
X0015521Y0155167D01*
X0016176Y0154954D01*
X0016856Y0154846D01*
X0017201Y0154846D01*
X0017545Y0154846D01*
X0018225Y0154954D01*
X0018880Y0155167D01*
X0019494Y0155480D01*
X0020051Y0155884D01*
X0020209Y0156043D01*
X0020909Y0155343D01*
X0022590Y0154646D01*
X0024410Y0154646D01*
X0026091Y0155343D01*
X0026650Y0155901D01*
X0027208Y0155343D01*
X0028889Y0154646D01*
X0030709Y0154646D01*
X0032391Y0155343D01*
X0033678Y0156630D01*
X0034374Y0158311D01*
X0034374Y0160131D01*
X0033678Y0161813D01*
X0032391Y0163100D01*
X0031224Y0163583D01*
X0031224Y0164856D01*
X0031017Y0165357D01*
X0033410Y0167750D01*
X0092340Y0167750D01*
X0093200Y0166890D01*
X0093200Y0107819D01*
X0092961Y0107580D01*
X0092416Y0106263D01*
X0092416Y0104837D01*
X0092961Y0103520D01*
X0093970Y0102511D01*
X0095287Y0101966D01*
X0096713Y0101966D01*
X0096950Y0102064D01*
X0096950Y0094886D01*
X0096835Y0094839D01*
X0095827Y0093830D01*
X0095281Y0092513D01*
X0095281Y0091087D01*
X0095827Y0089770D01*
X0096835Y0088761D01*
X0098153Y0088216D01*
X0099579Y0088216D01*
X0100700Y0088680D01*
X0100700Y0052635D01*
X0100097Y0052884D01*
X0098876Y0052884D01*
X0097586Y0054174D01*
X0096557Y0054600D01*
X0092305Y0054600D01*
X0091206Y0055700D01*
X0089515Y0056400D01*
X0082485Y0056400D01*
X0080834Y0055716D01*
X0080834Y0056263D01*
X0080289Y0057580D01*
X0079280Y0058589D01*
X0077963Y0059134D01*
X0076537Y0059134D01*
X0075220Y0058589D01*
X0074981Y0058350D01*
X0072160Y0058350D01*
X0069087Y0061423D01*
X0069866Y0061100D01*
X0072134Y0061100D01*
X0074229Y0061968D01*
X0075832Y0063571D01*
X0076700Y0065666D01*
X0076700Y0067934D01*
X0075832Y0070029D01*
X0074229Y0071632D01*
X0073536Y0071919D01*
X0073883Y0072096D01*
X0074583Y0072605D01*
X0075195Y0073217D01*
X0075704Y0073917D01*
X0076097Y0074689D01*
X0076365Y0075512D01*
X0076500Y0076367D01*
X0076500Y0076600D01*
X0071200Y0076600D01*
X0071200Y0077000D01*
X0076500Y0077000D01*
X0076500Y0077233D01*
X0076365Y0078088D01*
X0076097Y0078911D01*
X0075704Y0079683D01*
X0075195Y0080383D01*
X0074583Y0080995D01*
X0073883Y0081504D01*
X0073536Y0081681D01*
X0074229Y0081968D01*
X0075832Y0083571D01*
X0076700Y0085666D01*
X0076700Y0087934D01*
X0075832Y0090029D01*
X0074229Y0091632D01*
X0072134Y0092500D01*
X0069866Y0092500D01*
X0067771Y0091632D01*
X0066168Y0090029D01*
X0065300Y0087934D01*
X0065300Y0085666D01*
X0066168Y0083571D01*
X0067771Y0081968D01*
X0068464Y0081681D01*
X0068117Y0081504D01*
X0067417Y0080995D01*
X0066805Y0080383D01*
X0066296Y0079683D01*
X0065903Y0078911D01*
X0065635Y0078088D01*
X0065500Y0077233D01*
X0065500Y0077000D01*
X0070800Y0077000D01*
X0070800Y0076600D01*
X0065500Y0076600D01*
X0065500Y0076367D01*
X0065635Y0075512D01*
X0065903Y0074689D01*
X0066296Y0073917D01*
X0066805Y0073217D01*
X0067417Y0072605D01*
X0068117Y0072096D01*
X0068464Y0071919D01*
X0067771Y0071632D01*
X0066168Y0070029D01*
X0065300Y0067934D01*
X0065300Y0065666D01*
X0065623Y0064887D01*
X0065050Y0065460D01*
X0065050Y0086447D01*
X0065101Y0086645D01*
X0065050Y0086999D01*
X0065050Y0087357D01*
X0064972Y0087545D01*
X0064943Y0087747D01*
X0064761Y0088055D01*
X0064624Y0088386D01*
X0064479Y0088530D01*
X0064376Y0088706D01*
X0064089Y0088921D01*
X0063836Y0089174D01*
X0063648Y0089252D01*
X0059089Y0092671D01*
X0058836Y0092924D01*
X0058648Y0093002D01*
X0058484Y0093124D01*
X0058138Y0093213D01*
X0057807Y0093350D01*
X0057603Y0093350D01*
X0057405Y0093401D01*
X0057051Y0093350D01*
X0050769Y0093350D01*
X0050530Y0093589D01*
X0049213Y0094134D01*
X0047787Y0094134D01*
X0046470Y0093589D01*
X0045461Y0092580D01*
X0044916Y0091263D01*
X0044916Y0089837D01*
X0045461Y0088520D01*
X0046470Y0087511D01*
X0047787Y0086966D01*
X0049213Y0086966D01*
X0050530Y0087511D01*
X0050769Y0087750D01*
X0056317Y0087750D01*
X0059450Y0085400D01*
X0059450Y0063743D01*
X0059876Y0062714D01*
X0067990Y0054600D01*
X0067160Y0054600D01*
X0058800Y0062960D01*
X0058800Y0077357D01*
X0058374Y0078386D01*
X0057586Y0079174D01*
X0053374Y0083386D01*
X0052586Y0084174D01*
X0051557Y0084600D01*
X0027160Y0084600D01*
X0022586Y0089174D01*
X0021557Y0089600D01*
X0011010Y0089600D01*
X0010832Y0090029D01*
X0009229Y0091632D01*
X0008824Y0091800D01*
X0009229Y0091968D01*
X0010832Y0093571D01*
X0011010Y0094000D01*
X0019840Y0094000D01*
X0023626Y0090214D01*
X0024414Y0089426D01*
X0025443Y0089000D01*
X0033731Y0089000D01*
X0033970Y0088761D01*
X0035287Y0088216D01*
X0036713Y0088216D01*
X0038030Y0088761D01*
X0039039Y0089770D01*
X0039584Y0091087D01*
X0039584Y0092513D01*
X0039039Y0093830D01*
X0038030Y0094839D01*
X0036713Y0095384D01*
X0035287Y0095384D01*
X0033970Y0094839D01*
X0033731Y0094600D01*
X0027160Y0094600D01*
X0022586Y0099174D01*
X0021557Y0099600D01*
X0011010Y0099600D01*
X0010832Y0100029D01*
X0009229Y0101632D01*
X0008824Y0101800D01*
X0009229Y0101968D01*
X0010832Y0103571D01*
X0011010Y0104000D01*
X0019840Y0104000D01*
X0023626Y0100214D01*
X0024414Y0099426D01*
X0025443Y0099000D01*
X0079695Y0099000D01*
X0080794Y0097900D01*
X0082485Y0097200D01*
X0089515Y0097200D01*
X0091206Y0097900D01*
X0092500Y0099194D01*
X0093200Y0100885D01*
X0093200Y0102715D01*
X0092500Y0104406D01*
X0091206Y0105700D01*
X0089515Y0106400D01*
X0082485Y0106400D01*
X0080794Y0105700D01*
X0079695Y0104600D01*
X0027160Y0104600D01*
X0022586Y0109174D01*
X0021557Y0109600D01*
X0011010Y0109600D01*
X0010832Y0110029D01*
X0009229Y0111632D01*
X0008824Y0111800D01*
X0009229Y0111968D01*
X0010832Y0113571D01*
X0011010Y0114000D01*
X0022652Y0114000D01*
X0029216Y0109624D01*
X0029414Y0109426D01*
X0029675Y0109318D01*
X0029910Y0109161D01*
X0030185Y0109107D01*
X0030443Y0109000D01*
X0030726Y0109000D01*
X0031003Y0108945D01*
X0031277Y0109000D01*
X0079695Y0109000D01*
X0080794Y0107900D01*
X0082485Y0107200D01*
X0089515Y0107200D01*
X0091206Y0107900D01*
X0092500Y0109194D01*
X0093200Y0110885D01*
X0093200Y0112715D01*
X0092500Y0114406D01*
X0091206Y0115700D01*
X0089515Y0116400D01*
X0082485Y0116400D01*
X0080794Y0115700D01*
X0079695Y0114600D01*
X0031848Y0114600D01*
X0025284Y0118976D01*
X0025086Y0119174D01*
X0024825Y0119282D01*
X0024590Y0119439D01*
X0024315Y0119493D01*
X0024057Y0119600D01*
X0023774Y0119600D01*
X0023497Y0119655D01*
X0023223Y0119600D01*
X0011010Y0119600D01*
X0010832Y0120029D01*
X0009229Y0121632D01*
X0008824Y0121800D01*
X0009229Y0121968D01*
X0010832Y0123571D01*
X0011700Y0125666D01*
X0011700Y0127934D01*
X0011522Y0128363D01*
X0022160Y0139000D01*
X0079695Y0139000D01*
X0080794Y0137900D01*
X0082485Y0137200D01*
X0089515Y0137200D01*
X0091206Y0137900D01*
X0092500Y0139194D01*
X0093200Y0140885D01*
X0093200Y0142715D01*
X0092500Y0144406D01*
X0091206Y0145700D01*
X0089515Y0146400D01*
X0082485Y0146400D01*
X0080794Y0145700D01*
X0079695Y0144600D01*
X0020443Y0144600D01*
X0019414Y0144174D01*
X0018626Y0143386D01*
X0011700Y0136460D01*
X0011700Y0137934D01*
X0011522Y0138363D01*
X0022160Y0149000D01*
X0079695Y0149000D01*
X0080794Y0147900D01*
X0082485Y0147200D01*
X0089515Y0147200D01*
X0091206Y0147900D01*
X0092500Y0149194D01*
X0093200Y0150885D01*
X0093200Y0152715D01*
X0092500Y0154406D01*
X0091206Y0155700D01*
X0089515Y0156400D01*
X0082485Y0156400D01*
X0080794Y0155700D01*
X0079695Y0154600D01*
X0020443Y0154600D01*
X0019414Y0154174D01*
X0018626Y0153386D01*
X0007563Y0142322D01*
X0007134Y0142500D01*
X0004866Y0142500D01*
X0003000Y0141727D01*
X0003000Y0174667D01*
X0004819Y0172848D01*
X0007616Y0171690D01*
X0010644Y0171690D01*
X0013441Y0172848D01*
X0015582Y0174989D01*
X0016740Y0177786D01*
X0016740Y0180814D01*
X0015582Y0183611D01*
X0013441Y0185752D01*
X0010644Y0186910D01*
X0007616Y0186910D01*
X0004819Y0185752D01*
X0003000Y0183933D01*
X0003000Y0196650D01*
X0195850Y0196650D01*
X0195850Y0141789D01*
X0194134Y0142500D01*
X0191866Y0142500D01*
X0189771Y0141632D01*
X0188168Y0140029D01*
X0187990Y0139600D01*
X0182160Y0139600D01*
X0177586Y0144174D01*
X0176557Y0144600D01*
X0151273Y0144600D01*
X0152900Y0146227D01*
X0152900Y0148050D01*
X0152900Y0149873D01*
X0150323Y0152450D01*
X0148500Y0152450D01*
X0148500Y0148050D01*
X0148500Y0148050D01*
X0152900Y0148050D01*
X0148500Y0148050D01*
X0148500Y0148050D01*
X0148500Y0148050D01*
X0144100Y0148050D01*
X0144100Y0149873D01*
X0146677Y0152450D01*
X0148500Y0152450D01*
X0148500Y0148050D01*
X0144100Y0148050D01*
X0144100Y0146227D01*
X0145727Y0144600D01*
X0137523Y0144600D01*
X0139150Y0146227D01*
X0139150Y0148050D01*
X0139150Y0149873D01*
X0136573Y0152450D01*
X0134750Y0152450D01*
X0134750Y0148050D01*
X0134750Y0148050D01*
X0139150Y0148050D01*
X0134750Y0148050D01*
X0134750Y0148050D01*
X0134750Y0148050D01*
X0130350Y0148050D01*
X0130350Y0149873D01*
X0132927Y0152450D01*
X0134750Y0152450D01*
X0134750Y0148050D01*
X0130350Y0148050D01*
X0130350Y0146227D01*
X0131977Y0144600D01*
X0122305Y0144600D01*
X0121206Y0145700D01*
X0119515Y0146400D01*
X0119630Y0147508D02*
X0118946Y0147400D01*
X0116000Y0147400D01*
X0116000Y0151800D01*
X0116000Y0151800D01*
X0116000Y0156200D01*
X0118946Y0156200D01*
X0119630Y0156092D01*
X0120289Y0155878D01*
X0120906Y0155563D01*
X0121466Y0155156D01*
X0121956Y0154666D01*
X0122363Y0154106D01*
X0122678Y0153489D01*
X0122892Y0152830D01*
X0123000Y0152146D01*
X0123000Y0151800D01*
X0116000Y0151800D01*
X0116000Y0151800D01*
X0116000Y0151800D01*
X0116000Y0151800D01*
X0109000Y0151800D01*
X0109000Y0152146D01*
X0109108Y0152830D01*
X0109322Y0153489D01*
X0109637Y0154106D01*
X0110044Y0154666D01*
X0110534Y0155156D01*
X0111094Y0155563D01*
X0111711Y0155878D01*
X0112370Y0156092D01*
X0113054Y0156200D01*
X0116000Y0156200D01*
X0116000Y0151800D01*
X0123000Y0151800D01*
X0123000Y0151454D01*
X0122892Y0150770D01*
X0122678Y0150111D01*
X0122363Y0149494D01*
X0121956Y0148934D01*
X0121466Y0148444D01*
X0120906Y0148037D01*
X0120289Y0147722D01*
X0119630Y0147508D01*
X0121239Y0145666D02*
X0130911Y0145666D01*
X0130350Y0147265D02*
X0098800Y0147265D01*
X0098800Y0148863D02*
X0110114Y0148863D01*
X0110044Y0148934D02*
X0110534Y0148444D01*
X0111094Y0148037D01*
X0111711Y0147722D01*
X0112370Y0147508D01*
X0113054Y0147400D01*
X0116000Y0147400D01*
X0116000Y0151800D01*
X0109000Y0151800D01*
X0109000Y0151454D01*
X0109108Y0150770D01*
X0109322Y0150111D01*
X0109637Y0149494D01*
X0110044Y0148934D01*
X0109208Y0150462D02*
X0098800Y0150462D01*
X0098800Y0152060D02*
X0109000Y0152060D01*
X0109409Y0153659D02*
X0098800Y0153659D01*
X0098800Y0155257D02*
X0110673Y0155257D01*
X0110794Y0157900D02*
X0112485Y0157200D01*
X0119515Y0157200D01*
X0121206Y0157900D01*
X0122500Y0159194D01*
X0123200Y0160885D01*
X0123200Y0162715D01*
X0122500Y0164406D01*
X0121206Y0165700D01*
X0119515Y0166400D01*
X0112485Y0166400D01*
X0110794Y0165700D01*
X0109500Y0164406D01*
X0108800Y0162715D01*
X0108800Y0160885D01*
X0109500Y0159194D01*
X0110794Y0157900D01*
X0110241Y0158454D02*
X0098800Y0158454D01*
X0098800Y0156856D02*
X0122219Y0156856D01*
X0122219Y0157552D02*
X0122219Y0156048D01*
X0122795Y0154658D01*
X0123858Y0153595D01*
X0125248Y0153019D01*
X0126752Y0153019D01*
X0128142Y0153595D01*
X0129205Y0154658D01*
X0129781Y0156048D01*
X0129781Y0157552D01*
X0129205Y0158942D01*
X0128800Y0159347D01*
X0128800Y0168450D01*
X0130405Y0168450D01*
X0133100Y0171145D01*
X0133100Y0174955D01*
X0130405Y0177650D01*
X0128406Y0177650D01*
X0115935Y0193239D01*
X0115874Y0193386D01*
X0115590Y0193670D01*
X0115338Y0193984D01*
X0115199Y0194061D01*
X0115086Y0194174D01*
X0114715Y0194327D01*
X0114363Y0194521D01*
X0114204Y0194539D01*
X0114057Y0194600D01*
X0113655Y0194600D01*
X0113256Y0194644D01*
X0113102Y0194600D01*
X0110955Y0194600D01*
X0109155Y0196400D01*
X0105345Y0196400D01*
X0102650Y0193705D01*
X0102650Y0189895D01*
X0103845Y0188700D01*
X0102250Y0188700D01*
X0102250Y0184300D01*
X0106650Y0184300D01*
X0106650Y0186123D01*
X0105573Y0187200D01*
X0108645Y0187200D01*
X0107650Y0186205D01*
X0107650Y0182395D01*
X0110345Y0179700D01*
X0114155Y0179700D01*
X0116850Y0182395D01*
X0116850Y0183130D01*
X0123900Y0174318D01*
X0123900Y0173660D01*
X0123626Y0173386D01*
X0123587Y0173291D01*
X0123520Y0173214D01*
X0123375Y0172780D01*
X0123200Y0172357D01*
X0123200Y0172254D01*
X0123168Y0172157D01*
X0123200Y0171701D01*
X0123200Y0159347D01*
X0122795Y0158942D01*
X0122219Y0157552D01*
X0122593Y0158454D02*
X0121759Y0158454D01*
X0122855Y0160053D02*
X0123200Y0160053D01*
X0123200Y0161651D02*
X0123200Y0161651D01*
X0123200Y0163250D02*
X0122979Y0163250D01*
X0123200Y0164848D02*
X0122057Y0164848D01*
X0123200Y0166447D02*
X0098800Y0166447D01*
X0098800Y0168045D02*
X0123200Y0168045D01*
X0123200Y0169644D02*
X0098366Y0169644D01*
X0096768Y0171242D02*
X0123200Y0171242D01*
X0123395Y0172841D02*
X0095169Y0172841D01*
X0093500Y0170550D02*
X0096000Y0168050D01*
X0096000Y0105550D01*
X0093982Y0102506D02*
X0093200Y0102506D01*
X0093200Y0100908D02*
X0096950Y0100908D01*
X0096950Y0099309D02*
X0092547Y0099309D01*
X0090748Y0097711D02*
X0096950Y0097711D01*
X0096950Y0096112D02*
X0089501Y0096112D01*
X0089630Y0096092D02*
X0088946Y0096200D01*
X0086000Y0096200D01*
X0086000Y0091800D01*
X0086000Y0091800D01*
X0093000Y0091800D01*
X0093000Y0092146D01*
X0092892Y0092830D01*
X0092678Y0093489D01*
X0092363Y0094106D01*
X0091956Y0094666D01*
X0091466Y0095156D01*
X0090906Y0095563D01*
X0090289Y0095878D01*
X0089630Y0096092D01*
X0092067Y0094514D02*
X0096511Y0094514D01*
X0095448Y0092915D02*
X0092864Y0092915D01*
X0093000Y0091800D02*
X0086000Y0091800D01*
X0086000Y0091800D01*
X0086000Y0087400D01*
X0088946Y0087400D01*
X0089630Y0087508D01*
X0090289Y0087722D01*
X0090906Y0088037D01*
X0091466Y0088444D01*
X0091956Y0088934D01*
X0092363Y0089494D01*
X0092678Y0090111D01*
X0092892Y0090770D01*
X0093000Y0091454D01*
X0093000Y0091800D01*
X0092978Y0091317D02*
X0095281Y0091317D01*
X0095879Y0089718D02*
X0092477Y0089718D01*
X0091020Y0088120D02*
X0100700Y0088120D01*
X0100700Y0086521D02*
X0076700Y0086521D01*
X0076623Y0088120D02*
X0080980Y0088120D01*
X0081094Y0088037D02*
X0081711Y0087722D01*
X0082370Y0087508D01*
X0083054Y0087400D01*
X0086000Y0087400D01*
X0086000Y0091800D01*
X0086000Y0091800D01*
X0086000Y0091800D01*
X0079000Y0091800D01*
X0079000Y0092146D01*
X0079108Y0092830D01*
X0079322Y0093489D01*
X0079637Y0094106D01*
X0080044Y0094666D01*
X0080534Y0095156D01*
X0081094Y0095563D01*
X0081711Y0095878D01*
X0082370Y0096092D01*
X0083054Y0096200D01*
X0086000Y0096200D01*
X0086000Y0091800D01*
X0079000Y0091800D01*
X0079000Y0091454D01*
X0079108Y0090770D01*
X0079322Y0090111D01*
X0079637Y0089494D01*
X0080044Y0088934D01*
X0080534Y0088444D01*
X0081094Y0088037D01*
X0082485Y0086400D02*
X0080794Y0085700D01*
X0079500Y0084406D01*
X0078800Y0082715D01*
X0078800Y0080885D01*
X0079500Y0079194D01*
X0080794Y0077900D01*
X0082485Y0077200D01*
X0089515Y0077200D01*
X0091206Y0077900D01*
X0092500Y0079194D01*
X0093200Y0080885D01*
X0093200Y0082715D01*
X0092500Y0084406D01*
X0091206Y0085700D01*
X0089515Y0086400D01*
X0082485Y0086400D01*
X0080017Y0084923D02*
X0076392Y0084923D01*
X0075585Y0083324D02*
X0079052Y0083324D01*
X0078800Y0081726D02*
X0073644Y0081726D01*
X0075381Y0080127D02*
X0079114Y0080127D01*
X0080166Y0078529D02*
X0076221Y0078529D01*
X0076306Y0075332D02*
X0080426Y0075332D01*
X0080794Y0075700D02*
X0079500Y0074406D01*
X0078800Y0072715D01*
X0078800Y0070885D01*
X0079500Y0069194D01*
X0080794Y0067900D01*
X0082485Y0067200D01*
X0089515Y0067200D01*
X0091206Y0067900D01*
X0092500Y0069194D01*
X0093200Y0070885D01*
X0093200Y0072715D01*
X0092500Y0074406D01*
X0091206Y0075700D01*
X0089515Y0076400D01*
X0082485Y0076400D01*
X0080794Y0075700D01*
X0079222Y0073733D02*
X0075570Y0073733D01*
X0073936Y0072134D02*
X0078800Y0072134D01*
X0078945Y0070536D02*
X0075325Y0070536D01*
X0076284Y0068937D02*
X0079757Y0068937D01*
X0082149Y0067339D02*
X0076700Y0067339D01*
X0076700Y0065740D02*
X0080893Y0065740D01*
X0080794Y0065700D02*
X0079500Y0064406D01*
X0078800Y0062715D01*
X0078800Y0060885D01*
X0079500Y0059194D01*
X0080794Y0057900D01*
X0082485Y0057200D01*
X0089515Y0057200D01*
X0091206Y0057900D01*
X0092500Y0059194D01*
X0093200Y0060885D01*
X0093200Y0062715D01*
X0092500Y0064406D01*
X0091206Y0065700D01*
X0089515Y0066400D01*
X0082485Y0066400D01*
X0080794Y0065700D01*
X0079391Y0064142D02*
X0076069Y0064142D01*
X0074804Y0062543D02*
X0078800Y0062543D01*
X0078800Y0060945D02*
X0069565Y0060945D01*
X0071163Y0059346D02*
X0079437Y0059346D01*
X0080121Y0057748D02*
X0081162Y0057748D01*
X0080834Y0056149D02*
X0081880Y0056149D01*
X0086000Y0051800D02*
X0096000Y0051800D01*
X0098500Y0049300D01*
X0099384Y0049300D01*
X0098807Y0052952D02*
X0100700Y0052952D01*
X0100700Y0054551D02*
X0096676Y0054551D01*
X0100700Y0056149D02*
X0090120Y0056149D01*
X0090838Y0057748D02*
X0100700Y0057748D01*
X0100700Y0059346D02*
X0092563Y0059346D01*
X0093200Y0060945D02*
X0100700Y0060945D01*
X0100700Y0062543D02*
X0093200Y0062543D01*
X0092609Y0064142D02*
X0100700Y0064142D01*
X0100700Y0065740D02*
X0091107Y0065740D01*
X0089850Y0067339D02*
X0100700Y0067339D01*
X0100700Y0068937D02*
X0092243Y0068937D01*
X0093055Y0070536D02*
X0100700Y0070536D01*
X0100700Y0072134D02*
X0093200Y0072134D01*
X0092778Y0073733D02*
X0100700Y0073733D01*
X0100700Y0075332D02*
X0091574Y0075332D01*
X0091834Y0078529D02*
X0100700Y0078529D01*
X0100700Y0080127D02*
X0092886Y0080127D01*
X0093200Y0081726D02*
X0100700Y0081726D01*
X0100700Y0083324D02*
X0092948Y0083324D01*
X0091983Y0084923D02*
X0100700Y0084923D01*
X0106300Y0084923D02*
X0110017Y0084923D01*
X0109500Y0084406D02*
X0108800Y0082715D01*
X0108800Y0080885D01*
X0109500Y0079194D01*
X0110794Y0077900D01*
X0112485Y0077200D01*
X0119515Y0077200D01*
X0121206Y0077900D01*
X0122500Y0079194D01*
X0123200Y0080885D01*
X0123200Y0082715D01*
X0122500Y0084406D01*
X0121206Y0085700D01*
X0119515Y0086400D01*
X0112485Y0086400D01*
X0110794Y0085700D01*
X0109500Y0084406D01*
X0109052Y0083324D02*
X0106300Y0083324D01*
X0106300Y0081726D02*
X0108800Y0081726D01*
X0109114Y0080127D02*
X0106300Y0080127D01*
X0106300Y0078529D02*
X0110166Y0078529D01*
X0111711Y0075878D02*
X0111094Y0075563D01*
X0110534Y0075156D01*
X0110044Y0074666D01*
X0109637Y0074106D01*
X0109322Y0073489D01*
X0109108Y0072830D01*
X0109000Y0072146D01*
X0109000Y0071800D01*
X0116000Y0071800D01*
X0116000Y0071800D01*
X0116000Y0076200D01*
X0118946Y0076200D01*
X0119630Y0076092D01*
X0120289Y0075878D01*
X0120906Y0075563D01*
X0121466Y0075156D01*
X0121956Y0074666D01*
X0122363Y0074106D01*
X0122678Y0073489D01*
X0122892Y0072830D01*
X0123000Y0072146D01*
X0123000Y0071800D01*
X0116000Y0071800D01*
X0116000Y0071800D01*
X0116000Y0067400D01*
X0118946Y0067400D01*
X0119630Y0067508D01*
X0120289Y0067722D01*
X0120906Y0068037D01*
X0121466Y0068444D01*
X0121956Y0068934D01*
X0122363Y0069494D01*
X0122678Y0070111D01*
X0122892Y0070770D01*
X0123000Y0071454D01*
X0123000Y0071800D01*
X0116000Y0071800D01*
X0116000Y0071800D01*
X0116000Y0071800D01*
X0116000Y0076200D01*
X0113054Y0076200D01*
X0112370Y0076092D01*
X0111711Y0075878D01*
X0110775Y0075332D02*
X0106300Y0075332D01*
X0106300Y0076930D02*
X0152170Y0076930D01*
X0151000Y0077400D02*
X0151000Y0081800D01*
X0151000Y0081800D01*
X0151000Y0081800D01*
X0146600Y0081800D01*
X0146600Y0083623D01*
X0149177Y0086200D01*
X0151000Y0086200D01*
X0151000Y0081800D01*
X0146600Y0081800D01*
X0146600Y0079977D01*
X0149177Y0077400D01*
X0151000Y0077400D01*
X0151000Y0078529D02*
X0151000Y0078529D01*
X0151000Y0080127D02*
X0151000Y0080127D01*
X0151000Y0081726D02*
X0151000Y0081726D01*
X0151000Y0083324D02*
X0151000Y0083324D01*
X0151000Y0084923D02*
X0151000Y0084923D01*
X0147900Y0084923D02*
X0134383Y0084923D01*
X0134900Y0084406D02*
X0133606Y0085700D01*
X0131915Y0086400D01*
X0130085Y0086400D01*
X0128394Y0085700D01*
X0127100Y0084406D01*
X0126400Y0082715D01*
X0126400Y0080885D01*
X0127100Y0079194D01*
X0128394Y0077900D01*
X0130085Y0077200D01*
X0131915Y0077200D01*
X0133606Y0077900D01*
X0134900Y0079194D01*
X0135600Y0080885D01*
X0135600Y0082715D01*
X0134900Y0084406D01*
X0135348Y0083324D02*
X0146600Y0083324D01*
X0146600Y0081726D02*
X0135600Y0081726D01*
X0135286Y0080127D02*
X0146600Y0080127D01*
X0148049Y0078529D02*
X0134234Y0078529D01*
X0127766Y0078529D02*
X0121834Y0078529D01*
X0122886Y0080127D02*
X0126714Y0080127D01*
X0126400Y0081726D02*
X0123200Y0081726D01*
X0122948Y0083324D02*
X0126652Y0083324D01*
X0127617Y0084923D02*
X0121983Y0084923D01*
X0121206Y0087900D02*
X0119515Y0087200D01*
X0112485Y0087200D01*
X0110794Y0087900D01*
X0109500Y0089194D01*
X0108800Y0090885D01*
X0108800Y0092715D01*
X0109500Y0094406D01*
X0110794Y0095700D01*
X0112485Y0096400D01*
X0119515Y0096400D01*
X0121206Y0095700D01*
X0122500Y0094406D01*
X0123200Y0092715D01*
X0123200Y0090885D01*
X0122500Y0089194D01*
X0121206Y0087900D01*
X0121425Y0088120D02*
X0163360Y0088120D01*
X0164958Y0089718D02*
X0122717Y0089718D01*
X0123200Y0091317D02*
X0166557Y0091317D01*
X0168155Y0092915D02*
X0123117Y0092915D01*
X0122392Y0094514D02*
X0169754Y0094514D01*
X0171352Y0096112D02*
X0120210Y0096112D01*
X0119515Y0097200D02*
X0121206Y0097900D01*
X0122500Y0099194D01*
X0123200Y0100885D01*
X0123200Y0102715D01*
X0122500Y0104406D01*
X0121206Y0105700D01*
X0119515Y0106400D01*
X0112485Y0106400D01*
X0110794Y0105700D01*
X0109500Y0104406D01*
X0108800Y0102715D01*
X0108800Y0100885D01*
X0109500Y0099194D01*
X0110794Y0097900D01*
X0112485Y0097200D01*
X0119515Y0097200D01*
X0120748Y0097711D02*
X0172951Y0097711D01*
X0174549Y0099309D02*
X0122547Y0099309D01*
X0123200Y0100908D02*
X0176148Y0100908D01*
X0177746Y0102506D02*
X0123200Y0102506D01*
X0122624Y0104105D02*
X0179345Y0104105D01*
X0180943Y0105703D02*
X0121197Y0105703D01*
X0119761Y0107302D02*
X0182542Y0107302D01*
X0184140Y0108900D02*
X0122206Y0108900D01*
X0123040Y0110499D02*
X0188638Y0110499D01*
X0189642Y0112097D02*
X0123200Y0112097D01*
X0122794Y0113696D02*
X0188116Y0113696D01*
X0193000Y0116800D02*
X0181000Y0116800D01*
X0176000Y0121800D01*
X0116000Y0121800D01*
X0121797Y0118491D02*
X0175349Y0118491D01*
X0176947Y0116893D02*
X0098800Y0116893D01*
X0098800Y0118491D02*
X0110203Y0118491D01*
X0109129Y0120090D02*
X0098800Y0120090D01*
X0098800Y0121688D02*
X0108800Y0121688D01*
X0109037Y0123287D02*
X0098800Y0123287D01*
X0098800Y0124885D02*
X0109980Y0124885D01*
X0110612Y0128082D02*
X0098800Y0128082D01*
X0098800Y0126484D02*
X0177356Y0126484D01*
X0175758Y0128082D02*
X0121388Y0128082D01*
X0122020Y0124885D02*
X0178955Y0124885D01*
X0178473Y0123287D02*
X0188452Y0123287D01*
X0189907Y0121688D02*
X0180071Y0121688D01*
X0181670Y0120090D02*
X0188229Y0120090D01*
X0193000Y0126800D02*
X0181000Y0126800D01*
X0176000Y0131800D01*
X0116000Y0131800D01*
X0111700Y0136075D02*
X0098800Y0136075D01*
X0098800Y0137673D02*
X0111342Y0137673D01*
X0109468Y0139272D02*
X0098800Y0139272D01*
X0098800Y0140870D02*
X0108806Y0140870D01*
X0108800Y0142469D02*
X0098800Y0142469D01*
X0098800Y0144068D02*
X0109360Y0144068D01*
X0110761Y0145666D02*
X0098800Y0145666D01*
X0093200Y0145666D02*
X0091239Y0145666D01*
X0092640Y0144068D02*
X0093200Y0144068D01*
X0093200Y0142469D02*
X0093200Y0142469D01*
X0093194Y0140870D02*
X0093200Y0140870D01*
X0093200Y0139272D02*
X0092532Y0139272D01*
X0093200Y0137673D02*
X0090658Y0137673D01*
X0090300Y0136075D02*
X0093200Y0136075D01*
X0093200Y0134476D02*
X0092429Y0134476D01*
X0092500Y0134406D02*
X0091206Y0135700D01*
X0089515Y0136400D01*
X0082485Y0136400D01*
X0080794Y0135700D01*
X0079695Y0134600D01*
X0043269Y0134600D01*
X0043030Y0134839D01*
X0041713Y0135384D01*
X0040287Y0135384D01*
X0038970Y0134839D01*
X0037961Y0133830D01*
X0037416Y0132513D01*
X0037416Y0131087D01*
X0037961Y0129770D01*
X0038970Y0128761D01*
X0040287Y0128216D01*
X0041713Y0128216D01*
X0043030Y0128761D01*
X0043269Y0129000D01*
X0079695Y0129000D01*
X0080794Y0127900D01*
X0082485Y0127200D01*
X0089515Y0127200D01*
X0091206Y0127900D01*
X0092500Y0129194D01*
X0093200Y0130885D01*
X0093200Y0132715D01*
X0092500Y0134406D01*
X0093133Y0132878D02*
X0093200Y0132878D01*
X0093200Y0131279D02*
X0093200Y0131279D01*
X0093200Y0129681D02*
X0092701Y0129681D01*
X0093200Y0128082D02*
X0091388Y0128082D01*
X0091206Y0125700D02*
X0089515Y0126400D01*
X0082485Y0126400D01*
X0080794Y0125700D01*
X0079695Y0124600D01*
X0043269Y0124600D01*
X0043030Y0124839D01*
X0041713Y0125384D01*
X0040287Y0125384D01*
X0038970Y0124839D01*
X0037961Y0123830D01*
X0037416Y0122513D01*
X0037416Y0121087D01*
X0037961Y0119770D01*
X0038970Y0118761D01*
X0040287Y0118216D01*
X0041713Y0118216D01*
X0043030Y0118761D01*
X0043269Y0119000D01*
X0079695Y0119000D01*
X0080794Y0117900D01*
X0082485Y0117200D01*
X0089515Y0117200D01*
X0091206Y0117900D01*
X0092500Y0119194D01*
X0093200Y0120885D01*
X0093200Y0122715D01*
X0092500Y0124406D01*
X0091206Y0125700D01*
X0092020Y0124885D02*
X0093200Y0124885D01*
X0093200Y0123287D02*
X0092963Y0123287D01*
X0093200Y0121688D02*
X0093200Y0121688D01*
X0093200Y0120090D02*
X0092871Y0120090D01*
X0093200Y0118491D02*
X0091797Y0118491D01*
X0093200Y0116893D02*
X0028409Y0116893D01*
X0030806Y0115294D02*
X0080389Y0115294D01*
X0080203Y0118491D02*
X0042378Y0118491D01*
X0039622Y0118491D02*
X0026011Y0118491D01*
X0023500Y0116800D02*
X0031000Y0111800D01*
X0086000Y0111800D01*
X0089761Y0107302D02*
X0092846Y0107302D01*
X0093200Y0108900D02*
X0092206Y0108900D01*
X0093040Y0110499D02*
X0093200Y0110499D01*
X0093200Y0112097D02*
X0093200Y0112097D01*
X0093200Y0113696D02*
X0092794Y0113696D01*
X0093200Y0115294D02*
X0091611Y0115294D01*
X0098800Y0115294D02*
X0098820Y0115294D01*
X0100680Y0115294D02*
X0110389Y0115294D01*
X0106000Y0111800D02*
X0116000Y0111800D01*
X0112239Y0107302D02*
X0106300Y0107302D01*
X0106300Y0105703D02*
X0110803Y0105703D01*
X0109376Y0104105D02*
X0106300Y0104105D01*
X0106300Y0102506D02*
X0108800Y0102506D01*
X0108800Y0100908D02*
X0106300Y0100908D01*
X0106300Y0099309D02*
X0109453Y0099309D01*
X0111252Y0097711D02*
X0106300Y0097711D01*
X0106300Y0096112D02*
X0111790Y0096112D01*
X0109608Y0094514D02*
X0106300Y0094514D01*
X0106300Y0092915D02*
X0108883Y0092915D01*
X0108800Y0091317D02*
X0106300Y0091317D01*
X0106300Y0089718D02*
X0109283Y0089718D01*
X0110575Y0088120D02*
X0106300Y0088120D01*
X0106300Y0086521D02*
X0161761Y0086521D01*
X0160163Y0084923D02*
X0154100Y0084923D01*
X0155400Y0083324D02*
X0158564Y0083324D01*
X0156966Y0081726D02*
X0155400Y0081726D01*
X0160090Y0076930D02*
X0162170Y0076930D01*
X0161688Y0078529D02*
X0163769Y0078529D01*
X0163287Y0080127D02*
X0165367Y0080127D01*
X0164885Y0081726D02*
X0166966Y0081726D01*
X0166484Y0083324D02*
X0168564Y0083324D01*
X0168082Y0084923D02*
X0170163Y0084923D01*
X0169681Y0086521D02*
X0171761Y0086521D01*
X0171279Y0088120D02*
X0173360Y0088120D01*
X0172878Y0089718D02*
X0174958Y0089718D01*
X0174476Y0091317D02*
X0176557Y0091317D01*
X0176075Y0092915D02*
X0178155Y0092915D01*
X0177673Y0094514D02*
X0179754Y0094514D01*
X0179272Y0096112D02*
X0181352Y0096112D01*
X0180870Y0097711D02*
X0182951Y0097711D01*
X0182469Y0099309D02*
X0184741Y0099309D01*
X0184067Y0100908D02*
X0189047Y0100908D01*
X0189233Y0102506D02*
X0185666Y0102506D01*
X0186000Y0106800D02*
X0141000Y0061800D01*
X0116000Y0061800D01*
X0116000Y0067400D02*
X0113054Y0067400D01*
X0112370Y0067508D01*
X0111711Y0067722D01*
X0111094Y0068037D01*
X0110534Y0068444D01*
X0110044Y0068934D01*
X0109637Y0069494D01*
X0109322Y0070111D01*
X0109108Y0070770D01*
X0109000Y0071454D01*
X0109000Y0071800D01*
X0116000Y0071800D01*
X0116000Y0067400D01*
X0116000Y0068937D02*
X0116000Y0068937D01*
X0116000Y0070536D02*
X0116000Y0070536D01*
X0116000Y0072134D02*
X0116000Y0072134D01*
X0116000Y0073733D02*
X0116000Y0073733D01*
X0116000Y0075332D02*
X0116000Y0075332D01*
X0121225Y0075332D02*
X0150572Y0075332D01*
X0148973Y0073733D02*
X0122553Y0073733D01*
X0123000Y0072134D02*
X0147375Y0072134D01*
X0145776Y0070536D02*
X0122816Y0070536D01*
X0121959Y0068937D02*
X0144178Y0068937D01*
X0142579Y0067339D02*
X0106300Y0067339D01*
X0106300Y0068937D02*
X0110041Y0068937D01*
X0109184Y0070536D02*
X0106300Y0070536D01*
X0106300Y0072134D02*
X0109000Y0072134D01*
X0109447Y0073733D02*
X0106300Y0073733D01*
X0100700Y0076930D02*
X0071200Y0076930D01*
X0070800Y0076930D02*
X0065050Y0076930D01*
X0065050Y0075332D02*
X0065694Y0075332D01*
X0065050Y0073733D02*
X0066430Y0073733D01*
X0065050Y0072134D02*
X0068064Y0072134D01*
X0066675Y0070536D02*
X0065050Y0070536D01*
X0065050Y0068937D02*
X0065716Y0068937D01*
X0065300Y0067339D02*
X0065050Y0067339D01*
X0065050Y0065740D02*
X0065300Y0065740D01*
X0062250Y0064300D02*
X0071000Y0055550D01*
X0077250Y0055550D01*
X0086000Y0051800D02*
X0066000Y0051800D01*
X0056000Y0061800D01*
X0056000Y0076800D01*
X0051000Y0081800D01*
X0026000Y0081800D01*
X0021000Y0086800D01*
X0006000Y0086800D01*
X0009544Y0091317D02*
X0022524Y0091317D01*
X0024122Y0089718D02*
X0010961Y0089718D01*
X0010176Y0092915D02*
X0020925Y0092915D01*
X0021000Y0096800D02*
X0026000Y0091800D01*
X0036000Y0091800D01*
X0039418Y0092915D02*
X0045796Y0092915D01*
X0044938Y0091317D02*
X0039584Y0091317D01*
X0038987Y0089718D02*
X0044965Y0089718D01*
X0045861Y0088120D02*
X0023640Y0088120D01*
X0025239Y0086521D02*
X0057955Y0086521D01*
X0059450Y0084923D02*
X0026837Y0084923D01*
X0016000Y0076800D02*
X0019750Y0073050D01*
X0019266Y0073050D01*
X0019750Y0073050D02*
X0028500Y0073050D01*
X0043500Y0073050D01*
X0049750Y0073050D01*
X0051000Y0071800D01*
X0051000Y0044300D01*
X0053500Y0041800D01*
X0066000Y0041800D01*
X0086000Y0041800D01*
X0102250Y0041800D01*
X0103500Y0043050D01*
X0103500Y0109300D01*
X0106000Y0111800D01*
X0103936Y0113696D02*
X0102844Y0113696D01*
X0099750Y0111800D02*
X0099750Y0091800D01*
X0098866Y0091800D01*
X0086000Y0091317D02*
X0086000Y0091317D01*
X0086000Y0092915D02*
X0086000Y0092915D01*
X0086000Y0094514D02*
X0086000Y0094514D01*
X0086000Y0096112D02*
X0086000Y0096112D01*
X0082499Y0096112D02*
X0025648Y0096112D01*
X0024049Y0097711D02*
X0081252Y0097711D01*
X0079933Y0094514D02*
X0038355Y0094514D01*
X0048500Y0090550D02*
X0057250Y0090550D01*
X0062250Y0086800D01*
X0062250Y0064300D01*
X0060047Y0062543D02*
X0059216Y0062543D01*
X0059450Y0064142D02*
X0058800Y0064142D01*
X0058800Y0065740D02*
X0059450Y0065740D01*
X0059450Y0067339D02*
X0058800Y0067339D01*
X0058800Y0068937D02*
X0059450Y0068937D01*
X0059450Y0070536D02*
X0058800Y0070536D01*
X0058800Y0072134D02*
X0059450Y0072134D01*
X0059450Y0073733D02*
X0058800Y0073733D01*
X0058800Y0075332D02*
X0059450Y0075332D01*
X0059450Y0076930D02*
X0058800Y0076930D01*
X0058231Y0078529D02*
X0059450Y0078529D01*
X0059450Y0080127D02*
X0056633Y0080127D01*
X0057586Y0079174D02*
X0057586Y0079174D01*
X0059450Y0081726D02*
X0055034Y0081726D01*
X0053436Y0083324D02*
X0059450Y0083324D01*
X0065050Y0083324D02*
X0066415Y0083324D01*
X0065608Y0084923D02*
X0065050Y0084923D01*
X0065069Y0086521D02*
X0065300Y0086521D01*
X0065377Y0088120D02*
X0064734Y0088120D01*
X0066039Y0089718D02*
X0063026Y0089718D01*
X0060894Y0091317D02*
X0067456Y0091317D01*
X0074544Y0091317D02*
X0079022Y0091317D01*
X0079136Y0092915D02*
X0058845Y0092915D01*
X0053374Y0083386D02*
X0053374Y0083386D01*
X0065050Y0081726D02*
X0068356Y0081726D01*
X0066619Y0080127D02*
X0065050Y0080127D01*
X0065050Y0078529D02*
X0065779Y0078529D01*
X0075961Y0089718D02*
X0079523Y0089718D01*
X0086000Y0089718D02*
X0086000Y0089718D01*
X0086000Y0088120D02*
X0086000Y0088120D01*
X0086000Y0101800D02*
X0026000Y0101800D01*
X0021000Y0106800D01*
X0006000Y0106800D01*
X0009767Y0102506D02*
X0021334Y0102506D01*
X0022932Y0100908D02*
X0009953Y0100908D01*
X0006000Y0096800D02*
X0021000Y0096800D01*
X0022259Y0099309D02*
X0024697Y0099309D01*
X0026057Y0105703D02*
X0080803Y0105703D01*
X0082239Y0107302D02*
X0024458Y0107302D01*
X0022860Y0108900D02*
X0079794Y0108900D01*
X0091197Y0105703D02*
X0092416Y0105703D01*
X0092624Y0104105D02*
X0092719Y0104105D01*
X0107060Y0108900D02*
X0109794Y0108900D01*
X0121611Y0115294D02*
X0178546Y0115294D01*
X0186000Y0106800D02*
X0193000Y0106800D01*
X0193000Y0096800D02*
X0186000Y0096800D01*
X0141000Y0051800D01*
X0116000Y0051800D01*
X0111880Y0056149D02*
X0106300Y0056149D01*
X0106300Y0054551D02*
X0109645Y0054551D01*
X0108898Y0052952D02*
X0106300Y0052952D01*
X0106300Y0051354D02*
X0108800Y0051354D01*
X0109268Y0049755D02*
X0106300Y0049755D01*
X0106300Y0048157D02*
X0110538Y0048157D01*
X0110054Y0044960D02*
X0106300Y0044960D01*
X0106300Y0046558D02*
X0141799Y0046558D01*
X0143397Y0048157D02*
X0121462Y0048157D01*
X0121946Y0044960D02*
X0140200Y0044960D01*
X0141000Y0041800D02*
X0116000Y0041800D01*
X0121871Y0038566D02*
X0143806Y0038566D01*
X0143324Y0040164D02*
X0145404Y0040164D01*
X0144923Y0041763D02*
X0147003Y0041763D01*
X0146521Y0043361D02*
X0148602Y0043361D01*
X0148120Y0044960D02*
X0150200Y0044960D01*
X0149718Y0046558D02*
X0151799Y0046558D01*
X0151317Y0048157D02*
X0153397Y0048157D01*
X0152915Y0049755D02*
X0154996Y0049755D01*
X0154514Y0051354D02*
X0156594Y0051354D01*
X0156112Y0052952D02*
X0158193Y0052952D01*
X0157711Y0054551D02*
X0159791Y0054551D01*
X0159309Y0056149D02*
X0161390Y0056149D01*
X0160908Y0057748D02*
X0162988Y0057748D01*
X0162506Y0059346D02*
X0164587Y0059346D01*
X0164105Y0060945D02*
X0166185Y0060945D01*
X0165703Y0062543D02*
X0167784Y0062543D01*
X0167302Y0064142D02*
X0169382Y0064142D01*
X0168900Y0065740D02*
X0170981Y0065740D01*
X0170499Y0067339D02*
X0172579Y0067339D01*
X0172097Y0068937D02*
X0174178Y0068937D01*
X0173696Y0070536D02*
X0175776Y0070536D01*
X0175294Y0072134D02*
X0177375Y0072134D01*
X0176893Y0073733D02*
X0178973Y0073733D01*
X0178491Y0075332D02*
X0180572Y0075332D01*
X0180090Y0076930D02*
X0182170Y0076930D01*
X0182623Y0078529D02*
X0181688Y0078529D01*
X0183287Y0080127D02*
X0184152Y0080127D01*
X0184885Y0081726D02*
X0189997Y0081726D01*
X0188415Y0083324D02*
X0186484Y0083324D01*
X0187848Y0080127D02*
X0188266Y0080127D01*
X0186000Y0076800D02*
X0193000Y0076800D01*
X0189604Y0072134D02*
X0185294Y0072134D01*
X0183696Y0070536D02*
X0188958Y0070536D01*
X0187916Y0068937D02*
X0182097Y0068937D01*
X0180499Y0067339D02*
X0187517Y0067339D01*
X0187500Y0066600D02*
X0187500Y0066367D01*
X0187635Y0065512D01*
X0187903Y0064689D01*
X0188296Y0063917D01*
X0188805Y0063217D01*
X0189417Y0062605D01*
X0190117Y0062096D01*
X0190889Y0061703D01*
X0191712Y0061435D01*
X0192567Y0061300D01*
X0192800Y0061300D01*
X0192800Y0066600D01*
X0187500Y0066600D01*
X0187599Y0065740D02*
X0178900Y0065740D01*
X0177302Y0064142D02*
X0188182Y0064142D01*
X0189502Y0062543D02*
X0175703Y0062543D01*
X0174105Y0060945D02*
X0195850Y0060945D01*
X0195850Y0059346D02*
X0172506Y0059346D01*
X0170908Y0057748D02*
X0195850Y0057748D01*
X0195850Y0056149D02*
X0169309Y0056149D01*
X0167711Y0054551D02*
X0195850Y0054551D01*
X0195850Y0052952D02*
X0166112Y0052952D01*
X0164514Y0051354D02*
X0195850Y0051354D01*
X0195850Y0049755D02*
X0162915Y0049755D01*
X0161317Y0048157D02*
X0195850Y0048157D01*
X0195850Y0046558D02*
X0159718Y0046558D01*
X0158120Y0044960D02*
X0195850Y0044960D01*
X0195850Y0043361D02*
X0156521Y0043361D01*
X0154923Y0041763D02*
X0195850Y0041763D01*
X0195850Y0040164D02*
X0153324Y0040164D01*
X0151726Y0038566D02*
X0195850Y0038566D01*
X0195850Y0036967D02*
X0150127Y0036967D01*
X0148529Y0035369D02*
X0195850Y0035369D01*
X0195850Y0033770D02*
X0146930Y0033770D01*
X0145332Y0032172D02*
X0195850Y0032172D01*
X0195850Y0030573D02*
X0143733Y0030573D01*
X0141000Y0031800D02*
X0116000Y0031800D01*
X0119940Y0027376D02*
X0195850Y0027376D01*
X0195850Y0025778D02*
X0058482Y0025778D01*
X0056884Y0027376D02*
X0082060Y0027376D01*
X0082485Y0027200D02*
X0089515Y0027200D01*
X0091206Y0027900D01*
X0092500Y0029194D01*
X0093200Y0030885D01*
X0093200Y0032715D01*
X0092500Y0034406D01*
X0091206Y0035700D01*
X0089515Y0036400D01*
X0082485Y0036400D01*
X0080794Y0035700D01*
X0079500Y0034406D01*
X0078800Y0032715D01*
X0078800Y0030885D01*
X0079500Y0029194D01*
X0080794Y0027900D01*
X0082485Y0027200D01*
X0079720Y0028975D02*
X0069397Y0028975D01*
X0070400Y0029977D02*
X0067823Y0027400D01*
X0066000Y0027400D01*
X0066000Y0031800D01*
X0066000Y0031800D01*
X0066000Y0036200D01*
X0067823Y0036200D01*
X0070400Y0033623D01*
X0070400Y0031800D01*
X0066000Y0031800D01*
X0066000Y0031800D01*
X0066000Y0031800D01*
X0061600Y0031800D01*
X0061600Y0033623D01*
X0064177Y0036200D01*
X0066000Y0036200D01*
X0066000Y0031800D01*
X0070400Y0031800D01*
X0070400Y0029977D01*
X0070400Y0030573D02*
X0078929Y0030573D01*
X0078800Y0032172D02*
X0070400Y0032172D01*
X0070252Y0033770D02*
X0079237Y0033770D01*
X0080463Y0035369D02*
X0068654Y0035369D01*
X0066000Y0035369D02*
X0066000Y0035369D01*
X0066000Y0033770D02*
X0066000Y0033770D01*
X0066000Y0032172D02*
X0066000Y0032172D01*
X0066000Y0031800D02*
X0061600Y0031800D01*
X0061600Y0029977D01*
X0064177Y0027400D01*
X0066000Y0027400D01*
X0066000Y0031800D01*
X0066000Y0031800D01*
X0066000Y0030573D02*
X0066000Y0030573D01*
X0066000Y0028975D02*
X0066000Y0028975D01*
X0062603Y0028975D02*
X0045930Y0028975D01*
X0045405Y0028450D02*
X0048100Y0031145D01*
X0048100Y0034955D01*
X0045405Y0037650D01*
X0041595Y0037650D01*
X0038900Y0034955D01*
X0038900Y0033969D01*
X0038030Y0034839D01*
X0036713Y0035384D01*
X0036376Y0035384D01*
X0036336Y0035424D01*
X0035307Y0035850D01*
X0032205Y0035850D01*
X0030405Y0037650D01*
X0026595Y0037650D01*
X0023900Y0034955D01*
X0023900Y0031145D01*
X0026595Y0028450D01*
X0030405Y0028450D01*
X0032205Y0030250D01*
X0032762Y0030250D01*
X0032961Y0029770D01*
X0033200Y0029531D01*
X0033200Y0026243D01*
X0033626Y0025214D01*
X0034876Y0023964D01*
X0035664Y0023176D01*
X0036693Y0022750D01*
X0053590Y0022750D01*
X0059228Y0017113D01*
X0059050Y0016684D01*
X0059050Y0014416D01*
X0059918Y0012321D01*
X0061521Y0010718D01*
X0063616Y0009850D01*
X0065884Y0009850D01*
X0067979Y0010718D01*
X0069582Y0012321D01*
X0070450Y0014416D01*
X0070450Y0016684D01*
X0069582Y0018779D01*
X0067979Y0020382D01*
X0065884Y0021250D01*
X0063616Y0021250D01*
X0063187Y0021072D01*
X0056336Y0027924D01*
X0055307Y0028350D01*
X0038800Y0028350D01*
X0038800Y0029531D01*
X0039039Y0029770D01*
X0039401Y0030644D01*
X0041595Y0028450D01*
X0045405Y0028450D01*
X0047529Y0030573D02*
X0061600Y0030573D01*
X0061600Y0032172D02*
X0048100Y0032172D01*
X0048100Y0033770D02*
X0061748Y0033770D01*
X0063346Y0035369D02*
X0047687Y0035369D01*
X0046088Y0036967D02*
X0142207Y0036967D01*
X0140609Y0035369D02*
X0121537Y0035369D01*
X0122280Y0028975D02*
X0195850Y0028975D01*
X0195850Y0024179D02*
X0060081Y0024179D01*
X0061679Y0022581D02*
X0195850Y0022581D01*
X0195850Y0020982D02*
X0183323Y0020982D01*
X0182905Y0021400D02*
X0185600Y0018705D01*
X0185600Y0014895D01*
X0183800Y0013095D01*
X0183800Y0011243D01*
X0183374Y0010214D01*
X0182586Y0009426D01*
X0177586Y0004426D01*
X0176557Y0004000D01*
X0135443Y0004000D01*
X0134414Y0004426D01*
X0133626Y0005214D01*
X0127340Y0011500D01*
X0117205Y0011500D01*
X0115405Y0009700D01*
X0111595Y0009700D01*
X0108900Y0012395D01*
X0108900Y0016205D01*
X0111595Y0018900D01*
X0115405Y0018900D01*
X0117205Y0017100D01*
X0129057Y0017100D01*
X0130086Y0016674D01*
X0137160Y0009600D01*
X0174840Y0009600D01*
X0178200Y0012960D01*
X0178200Y0013095D01*
X0176400Y0014895D01*
X0176400Y0018705D01*
X0179095Y0021400D01*
X0182905Y0021400D01*
X0184922Y0019384D02*
X0195850Y0019384D01*
X0195850Y0017785D02*
X0185600Y0017785D01*
X0185600Y0016187D02*
X0195850Y0016187D01*
X0195850Y0014588D02*
X0185293Y0014588D01*
X0183800Y0012990D02*
X0195850Y0012990D01*
X0195850Y0011391D02*
X0183800Y0011391D01*
X0182952Y0009793D02*
X0195850Y0009793D01*
X0195850Y0008194D02*
X0181354Y0008194D01*
X0179755Y0006596D02*
X0195850Y0006596D01*
X0195850Y0004997D02*
X0178157Y0004997D01*
X0176000Y0006800D02*
X0181000Y0011800D01*
X0181000Y0016800D01*
X0176400Y0016187D02*
X0145400Y0016187D01*
X0145400Y0016800D02*
X0145400Y0014977D01*
X0142823Y0012400D01*
X0141000Y0012400D01*
X0141000Y0016800D01*
X0145400Y0016800D01*
X0145400Y0018623D01*
X0142823Y0021200D01*
X0141000Y0021200D01*
X0141000Y0016800D01*
X0141000Y0016800D01*
X0141000Y0016800D01*
X0145400Y0016800D01*
X0145400Y0017785D02*
X0176400Y0017785D01*
X0177078Y0019384D02*
X0144639Y0019384D01*
X0143040Y0020982D02*
X0178677Y0020982D01*
X0176707Y0014588D02*
X0145011Y0014588D01*
X0143412Y0012990D02*
X0178200Y0012990D01*
X0176631Y0011391D02*
X0135369Y0011391D01*
X0136967Y0009793D02*
X0175033Y0009793D01*
X0176000Y0006800D02*
X0136000Y0006800D01*
X0128500Y0014300D01*
X0113500Y0014300D01*
X0117096Y0011391D02*
X0127449Y0011391D01*
X0129048Y0009793D02*
X0115498Y0009793D01*
X0111502Y0009793D02*
X0105498Y0009793D01*
X0105405Y0009700D02*
X0108100Y0012395D01*
X0108100Y0016205D01*
X0105405Y0018900D01*
X0101595Y0018900D01*
X0098900Y0016205D01*
X0098900Y0012395D01*
X0101595Y0009700D01*
X0105405Y0009700D01*
X0107096Y0011391D02*
X0109904Y0011391D01*
X0108900Y0012990D02*
X0108100Y0012990D01*
X0108100Y0014588D02*
X0108900Y0014588D01*
X0108900Y0016187D02*
X0108100Y0016187D01*
X0106520Y0017785D02*
X0110480Y0017785D01*
X0116520Y0017785D02*
X0136600Y0017785D01*
X0136600Y0018623D02*
X0136600Y0016800D01*
X0141000Y0016800D01*
X0141000Y0016800D01*
X0141000Y0016800D01*
X0141000Y0021200D01*
X0139177Y0021200D01*
X0136600Y0018623D01*
X0137361Y0019384D02*
X0088695Y0019384D01*
X0088945Y0019133D02*
X0088333Y0019745D01*
X0087633Y0020254D01*
X0086861Y0020647D01*
X0086038Y0020915D01*
X0085183Y0021050D01*
X0084950Y0021050D01*
X0084950Y0015750D01*
X0084550Y0015750D01*
X0084550Y0021050D01*
X0084317Y0021050D01*
X0083462Y0020915D01*
X0082639Y0020647D01*
X0081867Y0020254D01*
X0081167Y0019745D01*
X0080555Y0019133D01*
X0080046Y0018433D01*
X0079653Y0017661D01*
X0079385Y0016838D01*
X0079250Y0015983D01*
X0079250Y0015750D01*
X0084550Y0015750D01*
X0084550Y0015350D01*
X0079250Y0015350D01*
X0079250Y0015117D01*
X0079385Y0014262D01*
X0079653Y0013439D01*
X0080046Y0012667D01*
X0080555Y0011967D01*
X0081167Y0011355D01*
X0081867Y0010846D01*
X0082639Y0010453D01*
X0083462Y0010185D01*
X0084317Y0010050D01*
X0084550Y0010050D01*
X0084550Y0015350D01*
X0084950Y0015350D01*
X0084950Y0015750D01*
X0090250Y0015750D01*
X0090250Y0015983D01*
X0090115Y0016838D01*
X0089847Y0017661D01*
X0089454Y0018433D01*
X0088945Y0019133D01*
X0089784Y0017785D02*
X0100480Y0017785D01*
X0098900Y0016187D02*
X0090218Y0016187D01*
X0090250Y0015350D02*
X0084950Y0015350D01*
X0084950Y0010050D01*
X0085183Y0010050D01*
X0086038Y0010185D01*
X0086861Y0010453D01*
X0087633Y0010846D01*
X0088333Y0011355D01*
X0088945Y0011967D01*
X0089454Y0012667D01*
X0089847Y0013439D01*
X0090115Y0014262D01*
X0090250Y0015117D01*
X0090250Y0015350D01*
X0090166Y0014588D02*
X0098900Y0014588D01*
X0098900Y0012990D02*
X0089618Y0012990D01*
X0088369Y0011391D02*
X0099904Y0011391D01*
X0101502Y0009793D02*
X0003000Y0009793D01*
X0003000Y0011391D02*
X0004163Y0011391D01*
X0003000Y0008194D02*
X0130646Y0008194D01*
X0132245Y0006596D02*
X0003000Y0006596D01*
X0003000Y0004997D02*
X0133843Y0004997D01*
X0133770Y0012990D02*
X0138588Y0012990D01*
X0139177Y0012400D02*
X0141000Y0012400D01*
X0141000Y0016800D01*
X0136600Y0016800D01*
X0136600Y0014977D01*
X0139177Y0012400D01*
X0141000Y0012990D02*
X0141000Y0012990D01*
X0141000Y0014588D02*
X0141000Y0014588D01*
X0141000Y0016187D02*
X0141000Y0016187D01*
X0141000Y0017785D02*
X0141000Y0017785D01*
X0141000Y0019384D02*
X0141000Y0019384D01*
X0141000Y0020982D02*
X0141000Y0020982D01*
X0138960Y0020982D02*
X0085611Y0020982D01*
X0084950Y0020982D02*
X0084550Y0020982D01*
X0083889Y0020982D02*
X0066530Y0020982D01*
X0068977Y0019384D02*
X0080805Y0019384D01*
X0079716Y0017785D02*
X0069994Y0017785D01*
X0070450Y0016187D02*
X0079282Y0016187D01*
X0079334Y0014588D02*
X0070450Y0014588D01*
X0069859Y0012990D02*
X0079882Y0012990D01*
X0081131Y0011391D02*
X0068652Y0011391D01*
X0064750Y0015550D02*
X0054750Y0025550D01*
X0037250Y0025550D01*
X0036000Y0026800D01*
X0036000Y0031800D01*
X0034750Y0033050D01*
X0028500Y0033050D01*
X0023900Y0033770D02*
X0010597Y0033770D01*
X0011318Y0035369D02*
X0024313Y0035369D01*
X0025912Y0036967D02*
X0006200Y0036967D01*
X0010354Y0040164D02*
X0011317Y0040164D01*
X0011209Y0038566D02*
X0016942Y0038566D01*
X0020058Y0038566D02*
X0062729Y0038566D01*
X0069271Y0038566D02*
X0080129Y0038566D01*
X0091537Y0035369D02*
X0110463Y0035369D01*
X0109237Y0033770D02*
X0092763Y0033770D01*
X0093200Y0032172D02*
X0108800Y0032172D01*
X0108929Y0030573D02*
X0093071Y0030573D01*
X0092280Y0028975D02*
X0109720Y0028975D01*
X0112060Y0027376D02*
X0089940Y0027376D01*
X0084950Y0019384D02*
X0084550Y0019384D01*
X0084550Y0017785D02*
X0084950Y0017785D01*
X0084950Y0016187D02*
X0084550Y0016187D01*
X0084550Y0014588D02*
X0084950Y0014588D01*
X0084950Y0012990D02*
X0084550Y0012990D01*
X0084550Y0011391D02*
X0084950Y0011391D01*
X0060848Y0011391D02*
X0040758Y0011391D01*
X0041038Y0011435D02*
X0041861Y0011703D01*
X0042633Y0012096D01*
X0043333Y0012605D01*
X0043945Y0013217D01*
X0044454Y0013917D01*
X0044847Y0014689D01*
X0045115Y0015512D01*
X0045250Y0016367D01*
X0045250Y0016600D01*
X0039950Y0016600D01*
X0039950Y0017000D01*
X0039550Y0017000D01*
X0039550Y0022300D01*
X0039317Y0022300D01*
X0038462Y0022165D01*
X0037639Y0021897D01*
X0036867Y0021504D01*
X0036167Y0020995D01*
X0035555Y0020383D01*
X0035046Y0019683D01*
X0034653Y0018911D01*
X0034385Y0018088D01*
X0034250Y0017233D01*
X0034250Y0017000D01*
X0039550Y0017000D01*
X0039550Y0016600D01*
X0034250Y0016600D01*
X0034250Y0016367D01*
X0034385Y0015512D01*
X0034653Y0014689D01*
X0035046Y0013917D01*
X0035555Y0013217D01*
X0036167Y0012605D01*
X0036867Y0012096D01*
X0037639Y0011703D01*
X0038462Y0011435D01*
X0039317Y0011300D01*
X0039550Y0011300D01*
X0039550Y0016600D01*
X0039950Y0016600D01*
X0039950Y0011300D01*
X0040183Y0011300D01*
X0041038Y0011435D01*
X0039950Y0011391D02*
X0039550Y0011391D01*
X0038742Y0011391D02*
X0021587Y0011391D01*
X0020884Y0011100D02*
X0022979Y0011968D01*
X0024582Y0013571D01*
X0025450Y0015666D01*
X0025450Y0017934D01*
X0024582Y0020029D01*
X0022979Y0021632D01*
X0020884Y0022500D01*
X0018616Y0022500D01*
X0016521Y0021632D01*
X0014918Y0020029D01*
X0014050Y0017934D01*
X0014050Y0015666D01*
X0014918Y0013571D01*
X0016521Y0011968D01*
X0018616Y0011100D01*
X0020884Y0011100D01*
X0017913Y0011391D02*
X0007837Y0011391D01*
X0010251Y0012990D02*
X0015499Y0012990D01*
X0014497Y0014588D02*
X0011253Y0014588D01*
X0011700Y0016187D02*
X0014050Y0016187D01*
X0014050Y0017785D02*
X0011700Y0017785D01*
X0012543Y0019384D02*
X0014651Y0019384D01*
X0014142Y0020982D02*
X0015871Y0020982D01*
X0015740Y0022581D02*
X0053760Y0022581D01*
X0055358Y0020982D02*
X0043346Y0020982D01*
X0043333Y0020995D02*
X0042633Y0021504D01*
X0041861Y0021897D01*
X0041038Y0022165D01*
X0040183Y0022300D01*
X0039950Y0022300D01*
X0039950Y0017000D01*
X0045250Y0017000D01*
X0045250Y0017233D01*
X0045115Y0018088D01*
X0044847Y0018911D01*
X0044454Y0019683D01*
X0043945Y0020383D01*
X0043333Y0020995D01*
X0044606Y0019384D02*
X0056957Y0019384D01*
X0058555Y0017785D02*
X0045163Y0017785D01*
X0045221Y0016187D02*
X0059050Y0016187D01*
X0059050Y0014588D02*
X0044796Y0014588D01*
X0043718Y0012990D02*
X0059641Y0012990D01*
X0039950Y0012990D02*
X0039550Y0012990D01*
X0039550Y0014588D02*
X0039950Y0014588D01*
X0039950Y0016187D02*
X0039550Y0016187D01*
X0039550Y0017785D02*
X0039950Y0017785D01*
X0039950Y0019384D02*
X0039550Y0019384D01*
X0039550Y0020982D02*
X0039950Y0020982D01*
X0036154Y0020982D02*
X0023629Y0020982D01*
X0024849Y0019384D02*
X0034894Y0019384D01*
X0034337Y0017785D02*
X0025450Y0017785D01*
X0025450Y0016187D02*
X0034279Y0016187D01*
X0034704Y0014588D02*
X0025003Y0014588D01*
X0024001Y0012990D02*
X0035782Y0012990D01*
X0034661Y0024179D02*
X0024698Y0024179D01*
X0025706Y0025778D02*
X0033393Y0025778D01*
X0033200Y0027376D02*
X0025834Y0027376D01*
X0026070Y0028975D02*
X0025144Y0028975D01*
X0024471Y0030573D02*
X0010288Y0030573D01*
X0011269Y0028975D02*
X0014215Y0028975D01*
X0012616Y0027376D02*
X0011700Y0027376D01*
X0008987Y0032172D02*
X0023900Y0032172D01*
X0022250Y0026800D02*
X0016000Y0026800D01*
X0006000Y0016800D01*
X0021702Y0040164D02*
X0051176Y0040164D01*
X0049577Y0041763D02*
X0022084Y0041763D01*
X0021733Y0043361D02*
X0048358Y0043361D01*
X0048200Y0044960D02*
X0021300Y0044960D01*
X0021300Y0046558D02*
X0048200Y0046558D01*
X0048200Y0048157D02*
X0021300Y0048157D01*
X0021300Y0049755D02*
X0048200Y0049755D01*
X0048200Y0051354D02*
X0021300Y0051354D01*
X0021300Y0052952D02*
X0048200Y0052952D01*
X0048200Y0054551D02*
X0021300Y0054551D01*
X0021282Y0056149D02*
X0048200Y0056149D01*
X0048200Y0057748D02*
X0020262Y0057748D01*
X0018419Y0059346D02*
X0048200Y0059346D01*
X0048200Y0060945D02*
X0009916Y0060945D01*
X0009498Y0062543D02*
X0048200Y0062543D01*
X0048200Y0064142D02*
X0010818Y0064142D01*
X0011401Y0065740D02*
X0048200Y0065740D01*
X0048200Y0067339D02*
X0011483Y0067339D01*
X0011084Y0068937D02*
X0026107Y0068937D01*
X0030893Y0068937D02*
X0041107Y0068937D01*
X0045893Y0068937D02*
X0048200Y0068937D01*
X0060815Y0060945D02*
X0061645Y0060945D01*
X0062413Y0059346D02*
X0063244Y0059346D01*
X0064012Y0057748D02*
X0064842Y0057748D01*
X0065610Y0056149D02*
X0066441Y0056149D01*
X0091871Y0038566D02*
X0110129Y0038566D01*
X0109099Y0040164D02*
X0104574Y0040164D01*
X0105998Y0041763D02*
X0108800Y0041763D01*
X0109068Y0043361D02*
X0106300Y0043361D01*
X0106300Y0057748D02*
X0111162Y0057748D01*
X0109437Y0059346D02*
X0106300Y0059346D01*
X0106300Y0060945D02*
X0108800Y0060945D01*
X0108800Y0062543D02*
X0106300Y0062543D01*
X0106300Y0064142D02*
X0109391Y0064142D01*
X0110893Y0065740D02*
X0106300Y0065740D01*
X0121107Y0065740D02*
X0140981Y0065740D01*
X0145703Y0062543D02*
X0147784Y0062543D01*
X0147302Y0064142D02*
X0149382Y0064142D01*
X0148900Y0065740D02*
X0150981Y0065740D01*
X0150499Y0067339D02*
X0152579Y0067339D01*
X0152097Y0068937D02*
X0154178Y0068937D01*
X0153696Y0070536D02*
X0155776Y0070536D01*
X0155294Y0072134D02*
X0157375Y0072134D01*
X0156893Y0073733D02*
X0158973Y0073733D01*
X0158491Y0075332D02*
X0160572Y0075332D01*
X0163696Y0070536D02*
X0165776Y0070536D01*
X0165294Y0072134D02*
X0167375Y0072134D01*
X0166893Y0073733D02*
X0168973Y0073733D01*
X0168491Y0075332D02*
X0170572Y0075332D01*
X0170090Y0076930D02*
X0172170Y0076930D01*
X0171688Y0078529D02*
X0173769Y0078529D01*
X0173287Y0080127D02*
X0175367Y0080127D01*
X0174885Y0081726D02*
X0176966Y0081726D01*
X0176484Y0083324D02*
X0178564Y0083324D01*
X0178082Y0084923D02*
X0180163Y0084923D01*
X0179681Y0086521D02*
X0181761Y0086521D01*
X0181279Y0088120D02*
X0183360Y0088120D01*
X0182878Y0089718D02*
X0188039Y0089718D01*
X0189456Y0091317D02*
X0184476Y0091317D01*
X0186075Y0092915D02*
X0188824Y0092915D01*
X0186000Y0086800D02*
X0141000Y0041800D01*
X0142915Y0049755D02*
X0144996Y0049755D01*
X0144514Y0051354D02*
X0146594Y0051354D01*
X0146112Y0052952D02*
X0148193Y0052952D01*
X0147711Y0054551D02*
X0149791Y0054551D01*
X0149309Y0056149D02*
X0151390Y0056149D01*
X0150908Y0057748D02*
X0152988Y0057748D01*
X0152506Y0059346D02*
X0154587Y0059346D01*
X0154105Y0060945D02*
X0156185Y0060945D01*
X0155703Y0062543D02*
X0157784Y0062543D01*
X0157302Y0064142D02*
X0159382Y0064142D01*
X0158900Y0065740D02*
X0160981Y0065740D01*
X0160499Y0067339D02*
X0162579Y0067339D01*
X0162097Y0068937D02*
X0164178Y0068937D01*
X0146185Y0060945D02*
X0144105Y0060945D01*
X0144587Y0059346D02*
X0142393Y0059346D01*
X0142988Y0057748D02*
X0120838Y0057748D01*
X0120120Y0056149D02*
X0141390Y0056149D01*
X0143374Y0050214D02*
X0143374Y0050214D01*
X0141000Y0031800D02*
X0186000Y0076800D01*
X0186000Y0086800D02*
X0193000Y0086800D01*
X0192800Y0065740D02*
X0193200Y0065740D01*
X0193200Y0064142D02*
X0192800Y0064142D01*
X0192800Y0062543D02*
X0193200Y0062543D01*
X0136600Y0016187D02*
X0130573Y0016187D01*
X0132172Y0014588D02*
X0136989Y0014588D01*
X0041070Y0028975D02*
X0038800Y0028975D01*
X0039371Y0030573D02*
X0039471Y0030573D01*
X0039313Y0035369D02*
X0036750Y0035369D01*
X0040912Y0036967D02*
X0031088Y0036967D01*
X0030930Y0028975D02*
X0033200Y0028975D01*
X0018500Y0041800D02*
X0018500Y0055550D01*
X0017250Y0056800D01*
X0006000Y0056800D01*
X0013500Y0050550D02*
X0013500Y0043050D01*
X0010154Y0041763D02*
X0008734Y0041763D01*
X0010042Y0070536D02*
X0016711Y0070536D01*
X0015765Y0072134D02*
X0009396Y0072134D01*
X0010899Y0073733D02*
X0015107Y0073733D01*
X0016000Y0076800D02*
X0006000Y0076800D01*
X0010362Y0110499D02*
X0027904Y0110499D01*
X0025506Y0112097D02*
X0009358Y0112097D01*
X0010884Y0113696D02*
X0023109Y0113696D01*
X0023500Y0116800D02*
X0006000Y0116800D01*
X0009093Y0121688D02*
X0037416Y0121688D01*
X0037736Y0123287D02*
X0010548Y0123287D01*
X0011377Y0124885D02*
X0039083Y0124885D01*
X0041000Y0121800D02*
X0086000Y0121800D01*
X0079980Y0124885D02*
X0042917Y0124885D01*
X0038050Y0129681D02*
X0012841Y0129681D01*
X0011638Y0128082D02*
X0080612Y0128082D01*
X0086000Y0131800D02*
X0041000Y0131800D01*
X0038608Y0134476D02*
X0017636Y0134476D01*
X0016038Y0132878D02*
X0037567Y0132878D01*
X0037416Y0131279D02*
X0014439Y0131279D01*
X0019235Y0136075D02*
X0081700Y0136075D01*
X0081342Y0137673D02*
X0020833Y0137673D01*
X0021000Y0141800D02*
X0086000Y0141800D01*
X0080761Y0145666D02*
X0018826Y0145666D01*
X0019308Y0144068D02*
X0017227Y0144068D01*
X0017709Y0142469D02*
X0015629Y0142469D01*
X0016111Y0140870D02*
X0014030Y0140870D01*
X0014512Y0139272D02*
X0012432Y0139272D01*
X0012914Y0137673D02*
X0011700Y0137673D01*
X0006000Y0136800D02*
X0021000Y0151800D01*
X0086000Y0151800D01*
X0089671Y0147265D02*
X0093200Y0147265D01*
X0093200Y0148863D02*
X0092168Y0148863D01*
X0093025Y0150462D02*
X0093200Y0150462D01*
X0093200Y0152060D02*
X0093200Y0152060D01*
X0093200Y0153659D02*
X0092809Y0153659D01*
X0093200Y0155257D02*
X0091648Y0155257D01*
X0093200Y0156856D02*
X0033771Y0156856D01*
X0034374Y0158454D02*
X0080241Y0158454D01*
X0080794Y0157900D02*
X0082485Y0157200D01*
X0089515Y0157200D01*
X0091206Y0157900D01*
X0092500Y0159194D01*
X0093200Y0160885D01*
X0093200Y0162715D01*
X0092500Y0164406D01*
X0091206Y0165700D01*
X0089515Y0166400D01*
X0082485Y0166400D01*
X0080794Y0165700D01*
X0079500Y0164406D01*
X0078800Y0162715D01*
X0078800Y0160885D01*
X0079500Y0159194D01*
X0080794Y0157900D01*
X0079145Y0160053D02*
X0034374Y0160053D01*
X0033744Y0161651D02*
X0078800Y0161651D01*
X0079021Y0163250D02*
X0032028Y0163250D01*
X0031224Y0164848D02*
X0079943Y0164848D01*
X0080352Y0155257D02*
X0032183Y0155257D01*
X0027415Y0155257D02*
X0025884Y0155257D01*
X0021116Y0155257D02*
X0019057Y0155257D01*
X0018899Y0153659D02*
X0003000Y0153659D01*
X0003000Y0155257D02*
X0015345Y0155257D01*
X0017201Y0155257D02*
X0017201Y0155257D01*
X0017201Y0154846D02*
X0017201Y0159221D01*
X0017201Y0159221D01*
X0017201Y0154846D01*
X0017201Y0156856D02*
X0017201Y0156856D01*
X0017201Y0158454D02*
X0017201Y0158454D01*
X0017201Y0159221D02*
X0012826Y0159221D01*
X0017201Y0159221D01*
X0017201Y0159221D01*
X0012893Y0158454D02*
X0003000Y0158454D01*
X0003000Y0156856D02*
X0013512Y0156856D01*
X0012903Y0160053D02*
X0003000Y0160053D01*
X0003000Y0161651D02*
X0013559Y0161651D01*
X0015471Y0163250D02*
X0003000Y0163250D01*
X0003000Y0164848D02*
X0015776Y0164848D01*
X0016435Y0166447D02*
X0003000Y0166447D01*
X0003000Y0168045D02*
X0018293Y0168045D01*
X0022408Y0168045D02*
X0024592Y0168045D01*
X0027384Y0169644D02*
X0003000Y0169644D01*
X0003000Y0171242D02*
X0028982Y0171242D01*
X0030581Y0172841D02*
X0013422Y0172841D01*
X0015032Y0174439D02*
X0031968Y0174439D01*
X0030984Y0176038D02*
X0016016Y0176038D01*
X0016678Y0177636D02*
X0030322Y0177636D01*
X0030260Y0179235D02*
X0016740Y0179235D01*
X0016732Y0180833D02*
X0030268Y0180833D01*
X0030930Y0182432D02*
X0016070Y0182432D01*
X0015162Y0184030D02*
X0031838Y0184030D01*
X0033436Y0185629D02*
X0013564Y0185629D01*
X0004696Y0185629D02*
X0003000Y0185629D01*
X0003000Y0187227D02*
X0045283Y0187227D01*
X0045283Y0187788D02*
X0045283Y0185812D01*
X0046040Y0183986D01*
X0047438Y0182588D01*
X0049264Y0181831D01*
X0051240Y0181831D01*
X0053066Y0182588D01*
X0054464Y0183986D01*
X0054466Y0183990D01*
X0055535Y0182922D01*
X0057216Y0182225D01*
X0059036Y0182225D01*
X0060717Y0182922D01*
X0062004Y0184209D01*
X0062063Y0184350D01*
X0062122Y0184209D01*
X0063409Y0182922D01*
X0065090Y0182225D01*
X0066910Y0182225D01*
X0068591Y0182922D01*
X0069878Y0184209D01*
X0069937Y0184350D01*
X0069996Y0184209D01*
X0071283Y0182922D01*
X0072964Y0182225D01*
X0074784Y0182225D01*
X0076465Y0182922D01*
X0077534Y0183990D01*
X0077536Y0183986D01*
X0078934Y0182588D01*
X0080760Y0181831D01*
X0082736Y0181831D01*
X0084562Y0182588D01*
X0085960Y0183986D01*
X0086717Y0185812D01*
X0086717Y0187788D01*
X0085960Y0189614D01*
X0084562Y0191012D01*
X0082736Y0191768D01*
X0080760Y0191768D01*
X0078934Y0191012D01*
X0077536Y0189614D01*
X0077534Y0189610D01*
X0076465Y0190678D01*
X0074784Y0191375D01*
X0072964Y0191375D01*
X0071283Y0190678D01*
X0069996Y0189391D01*
X0069937Y0189250D01*
X0069878Y0189391D01*
X0068591Y0190678D01*
X0066910Y0191375D01*
X0065090Y0191375D01*
X0063409Y0190678D01*
X0062122Y0189391D01*
X0062063Y0189250D01*
X0062004Y0189391D01*
X0060717Y0190678D01*
X0059036Y0191375D01*
X0057216Y0191375D01*
X0055535Y0190678D01*
X0054466Y0189610D01*
X0054464Y0189614D01*
X0053066Y0191012D01*
X0051240Y0191768D01*
X0049264Y0191768D01*
X0047438Y0191012D01*
X0046040Y0189614D01*
X0045283Y0187788D01*
X0045713Y0188826D02*
X0003000Y0188826D01*
X0003000Y0190424D02*
X0046850Y0190424D01*
X0045359Y0185629D02*
X0042304Y0185629D01*
X0043902Y0184030D02*
X0046021Y0184030D01*
X0044810Y0182432D02*
X0047814Y0182432D01*
X0045472Y0180833D02*
X0099494Y0180833D01*
X0100427Y0179900D02*
X0097850Y0182477D01*
X0097850Y0184300D01*
X0102250Y0184300D01*
X0102250Y0184300D01*
X0102250Y0184300D01*
X0106650Y0184300D01*
X0106650Y0182477D01*
X0104073Y0179900D01*
X0102250Y0179900D01*
X0102250Y0184300D01*
X0102250Y0184300D01*
X0102250Y0184300D01*
X0102250Y0188700D01*
X0100427Y0188700D01*
X0097850Y0186123D01*
X0097850Y0184300D01*
X0102250Y0184300D01*
X0102250Y0179900D01*
X0100427Y0179900D01*
X0102250Y0180833D02*
X0102250Y0180833D01*
X0102250Y0182432D02*
X0102250Y0182432D01*
X0102250Y0184030D02*
X0102250Y0184030D01*
X0102250Y0185629D02*
X0102250Y0185629D01*
X0102250Y0187227D02*
X0102250Y0187227D01*
X0103719Y0188826D02*
X0086287Y0188826D01*
X0086717Y0187227D02*
X0098955Y0187227D01*
X0097850Y0185629D02*
X0086641Y0185629D01*
X0085979Y0184030D02*
X0097850Y0184030D01*
X0097896Y0182432D02*
X0084186Y0182432D01*
X0079311Y0182432D02*
X0075283Y0182432D01*
X0072465Y0182432D02*
X0067409Y0182432D01*
X0064591Y0182432D02*
X0059535Y0182432D01*
X0056717Y0182432D02*
X0052689Y0182432D01*
X0045480Y0179235D02*
X0119966Y0179235D01*
X0118688Y0180833D02*
X0115289Y0180833D01*
X0116850Y0182432D02*
X0117409Y0182432D01*
X0120744Y0187227D02*
X0124350Y0187227D01*
X0124100Y0187477D02*
X0126677Y0184900D01*
X0128500Y0184900D01*
X0130323Y0184900D01*
X0132900Y0187477D01*
X0132900Y0189300D01*
X0132900Y0191123D01*
X0130323Y0193700D01*
X0128500Y0193700D01*
X0128500Y0189300D01*
X0132900Y0189300D01*
X0128500Y0189300D01*
X0128500Y0189300D01*
X0128500Y0189300D01*
X0128500Y0184900D01*
X0128500Y0189300D01*
X0128500Y0189300D01*
X0128500Y0189300D01*
X0124100Y0189300D01*
X0124100Y0191123D01*
X0126677Y0193700D01*
X0128500Y0193700D01*
X0128500Y0189300D01*
X0124100Y0189300D01*
X0124100Y0187477D01*
X0124100Y0188826D02*
X0119465Y0188826D01*
X0118186Y0190424D02*
X0124100Y0190424D01*
X0125000Y0192023D02*
X0116907Y0192023D01*
X0115638Y0193621D02*
X0126599Y0193621D01*
X0128500Y0193621D02*
X0128500Y0193621D01*
X0128500Y0192023D02*
X0128500Y0192023D01*
X0128500Y0190424D02*
X0128500Y0190424D01*
X0128500Y0188826D02*
X0128500Y0188826D01*
X0128500Y0187227D02*
X0128500Y0187227D01*
X0128500Y0185629D02*
X0128500Y0185629D01*
X0131051Y0185629D02*
X0135666Y0185629D01*
X0136595Y0184700D02*
X0140405Y0184700D01*
X0141950Y0186245D01*
X0141950Y0181243D01*
X0142376Y0180214D01*
X0151400Y0171190D01*
X0151400Y0169635D01*
X0152100Y0167944D01*
X0153394Y0166650D01*
X0155085Y0165950D01*
X0156915Y0165950D01*
X0158606Y0166650D01*
X0159705Y0167750D01*
X0167807Y0167750D01*
X0168836Y0168176D01*
X0169624Y0168964D01*
X0170050Y0169993D01*
X0170050Y0181890D01*
X0177160Y0189000D01*
X0177295Y0189000D01*
X0179095Y0187200D01*
X0182905Y0187200D01*
X0185600Y0189895D01*
X0185600Y0193705D01*
X0182905Y0196400D01*
X0179095Y0196400D01*
X0177295Y0194600D01*
X0175443Y0194600D01*
X0174414Y0194174D01*
X0173626Y0193386D01*
X0164876Y0184636D01*
X0164450Y0183607D01*
X0164450Y0173350D01*
X0159705Y0173350D01*
X0158606Y0174450D01*
X0156915Y0175150D01*
X0155360Y0175150D01*
X0147550Y0182960D01*
X0147550Y0189857D01*
X0147124Y0190886D01*
X0146336Y0191674D01*
X0145307Y0192100D01*
X0142205Y0192100D01*
X0140405Y0193900D01*
X0136595Y0193900D01*
X0133900Y0191205D01*
X0133900Y0187395D01*
X0136595Y0184700D01*
X0134067Y0187227D02*
X0132650Y0187227D01*
X0132900Y0188826D02*
X0133900Y0188826D01*
X0133900Y0190424D02*
X0132900Y0190424D01*
X0132000Y0192023D02*
X0134717Y0192023D01*
X0136316Y0193621D02*
X0130401Y0193621D01*
X0125949Y0185629D02*
X0122023Y0185629D01*
X0123302Y0184030D02*
X0141950Y0184030D01*
X0141950Y0182432D02*
X0124580Y0182432D01*
X0125859Y0180833D02*
X0142120Y0180833D01*
X0143355Y0179235D02*
X0127138Y0179235D01*
X0130419Y0177636D02*
X0144954Y0177636D01*
X0146552Y0176038D02*
X0141735Y0176038D01*
X0142900Y0174873D02*
X0140323Y0177450D01*
X0138500Y0177450D01*
X0138500Y0173050D01*
X0142900Y0173050D01*
X0142900Y0174873D01*
X0142900Y0174439D02*
X0148151Y0174439D01*
X0149749Y0172841D02*
X0142900Y0172841D01*
X0142900Y0173050D02*
X0138500Y0173050D01*
X0138500Y0173050D01*
X0138500Y0173050D01*
X0138500Y0168650D01*
X0140323Y0168650D01*
X0142900Y0171227D01*
X0142900Y0173050D01*
X0142900Y0171242D02*
X0151348Y0171242D01*
X0151400Y0169644D02*
X0141316Y0169644D01*
X0138500Y0169644D02*
X0138500Y0169644D01*
X0138500Y0168650D02*
X0136677Y0168650D01*
X0134100Y0171227D01*
X0134100Y0173050D01*
X0138500Y0173050D01*
X0138500Y0173050D01*
X0138500Y0173050D01*
X0138500Y0177450D01*
X0136677Y0177450D01*
X0134100Y0174873D01*
X0134100Y0173050D01*
X0138500Y0173050D01*
X0138500Y0168650D01*
X0138500Y0171242D02*
X0138500Y0171242D01*
X0138500Y0172841D02*
X0138500Y0172841D01*
X0138500Y0174439D02*
X0138500Y0174439D01*
X0138500Y0176038D02*
X0138500Y0176038D01*
X0135265Y0176038D02*
X0132018Y0176038D01*
X0133100Y0174439D02*
X0134100Y0174439D01*
X0134100Y0172841D02*
X0133100Y0172841D01*
X0133100Y0171242D02*
X0134100Y0171242D01*
X0135684Y0169644D02*
X0131599Y0169644D01*
X0128800Y0168045D02*
X0152059Y0168045D01*
X0153886Y0166447D02*
X0128800Y0166447D01*
X0128800Y0164848D02*
X0178200Y0164848D01*
X0178200Y0163250D02*
X0128800Y0163250D01*
X0128800Y0161651D02*
X0131846Y0161651D01*
X0132845Y0162650D02*
X0130150Y0159955D01*
X0130150Y0156145D01*
X0132845Y0153450D01*
X0136655Y0153450D01*
X0139350Y0156145D01*
X0139350Y0159955D01*
X0136655Y0162650D01*
X0132845Y0162650D01*
X0130247Y0160053D02*
X0128800Y0160053D01*
X0129407Y0158454D02*
X0130150Y0158454D01*
X0130150Y0156856D02*
X0129781Y0156856D01*
X0129454Y0155257D02*
X0131038Y0155257D01*
X0132636Y0153659D02*
X0128206Y0153659D01*
X0126000Y0156800D02*
X0126000Y0171800D01*
X0128500Y0173050D01*
X0113500Y0191800D01*
X0107250Y0191800D01*
X0102650Y0192023D02*
X0003000Y0192023D01*
X0003000Y0193621D02*
X0102650Y0193621D01*
X0104164Y0195220D02*
X0003000Y0195220D01*
X0003000Y0184030D02*
X0003098Y0184030D01*
X0003000Y0174439D02*
X0003228Y0174439D01*
X0003000Y0172841D02*
X0004838Y0172841D01*
X0018626Y0153386D02*
X0018626Y0153386D01*
X0017300Y0152060D02*
X0003000Y0152060D01*
X0003000Y0150462D02*
X0015702Y0150462D01*
X0014103Y0148863D02*
X0003000Y0148863D01*
X0003000Y0147265D02*
X0012505Y0147265D01*
X0010906Y0145666D02*
X0003000Y0145666D01*
X0003000Y0144068D02*
X0009308Y0144068D01*
X0007709Y0142469D02*
X0007209Y0142469D01*
X0004791Y0142469D02*
X0003000Y0142469D01*
X0006000Y0126800D02*
X0021000Y0141800D01*
X0020424Y0147265D02*
X0082329Y0147265D01*
X0079832Y0148863D02*
X0022023Y0148863D01*
X0026650Y0163946D02*
X0026650Y0164950D01*
X0032250Y0170550D01*
X0093500Y0170550D01*
X0093200Y0166447D02*
X0032106Y0166447D01*
X0043772Y0174439D02*
X0123803Y0174439D01*
X0122524Y0176038D02*
X0044756Y0176038D01*
X0045418Y0177636D02*
X0121245Y0177636D01*
X0109211Y0180833D02*
X0105006Y0180833D01*
X0106604Y0182432D02*
X0107650Y0182432D01*
X0107650Y0184030D02*
X0106650Y0184030D01*
X0106650Y0185629D02*
X0107650Y0185629D01*
X0102650Y0190424D02*
X0085150Y0190424D01*
X0078346Y0190424D02*
X0076719Y0190424D01*
X0071029Y0190424D02*
X0068845Y0190424D01*
X0063155Y0190424D02*
X0060971Y0190424D01*
X0055281Y0190424D02*
X0053654Y0190424D01*
X0061826Y0184030D02*
X0062300Y0184030D01*
X0069700Y0184030D02*
X0070174Y0184030D01*
X0092057Y0164848D02*
X0093200Y0164848D01*
X0093200Y0163250D02*
X0092979Y0163250D01*
X0093200Y0161651D02*
X0093200Y0161651D01*
X0093200Y0160053D02*
X0092855Y0160053D01*
X0093200Y0158454D02*
X0091759Y0158454D01*
X0098800Y0160053D02*
X0109145Y0160053D01*
X0108800Y0161651D02*
X0098800Y0161651D01*
X0098800Y0163250D02*
X0109021Y0163250D01*
X0109943Y0164848D02*
X0098800Y0164848D01*
X0116000Y0155257D02*
X0116000Y0155257D01*
X0116000Y0153659D02*
X0116000Y0153659D01*
X0116000Y0152060D02*
X0116000Y0152060D01*
X0116000Y0150462D02*
X0116000Y0150462D01*
X0116000Y0148863D02*
X0116000Y0148863D01*
X0121886Y0148863D02*
X0130350Y0148863D01*
X0130939Y0150462D02*
X0122792Y0150462D01*
X0123000Y0152060D02*
X0132538Y0152060D01*
X0134750Y0152060D02*
X0134750Y0152060D01*
X0134750Y0150462D02*
X0134750Y0150462D01*
X0134750Y0148863D02*
X0134750Y0148863D01*
X0136962Y0152060D02*
X0146288Y0152060D01*
X0148500Y0152060D02*
X0148500Y0152060D01*
X0148500Y0150462D02*
X0148500Y0150462D01*
X0148500Y0148863D02*
X0148500Y0148863D01*
X0150712Y0152060D02*
X0180530Y0152060D01*
X0178932Y0153659D02*
X0136864Y0153659D01*
X0138462Y0155257D02*
X0178200Y0155257D01*
X0178200Y0154993D02*
X0178626Y0153964D01*
X0183900Y0148690D01*
X0183900Y0146145D01*
X0186595Y0143450D01*
X0190405Y0143450D01*
X0193100Y0146145D01*
X0193100Y0149955D01*
X0190405Y0152650D01*
X0187860Y0152650D01*
X0183800Y0156710D01*
X0183800Y0178095D01*
X0185600Y0179895D01*
X0185600Y0183705D01*
X0182905Y0186400D01*
X0179095Y0186400D01*
X0176400Y0183705D01*
X0176400Y0179895D01*
X0178200Y0178095D01*
X0178200Y0154993D01*
X0178200Y0156856D02*
X0139350Y0156856D01*
X0139350Y0158454D02*
X0178200Y0158454D01*
X0178200Y0160053D02*
X0139253Y0160053D01*
X0137654Y0161651D02*
X0178200Y0161651D01*
X0178200Y0166447D02*
X0158114Y0166447D01*
X0156000Y0170550D02*
X0167250Y0170550D01*
X0167250Y0183050D01*
X0176000Y0191800D01*
X0181000Y0191800D01*
X0177469Y0188826D02*
X0176986Y0188826D01*
X0175387Y0187227D02*
X0179067Y0187227D01*
X0178323Y0185629D02*
X0173789Y0185629D01*
X0172190Y0184030D02*
X0176725Y0184030D01*
X0176400Y0182432D02*
X0170592Y0182432D01*
X0170050Y0180833D02*
X0176400Y0180833D01*
X0177060Y0179235D02*
X0170050Y0179235D01*
X0170050Y0177636D02*
X0178200Y0177636D01*
X0178200Y0176038D02*
X0170050Y0176038D01*
X0170050Y0174439D02*
X0178200Y0174439D01*
X0178200Y0172841D02*
X0170050Y0172841D01*
X0170050Y0171242D02*
X0178200Y0171242D01*
X0178200Y0169644D02*
X0169905Y0169644D01*
X0168520Y0168045D02*
X0178200Y0168045D01*
X0183800Y0168045D02*
X0195850Y0168045D01*
X0195850Y0166447D02*
X0183800Y0166447D01*
X0183800Y0164848D02*
X0195850Y0164848D01*
X0195850Y0163250D02*
X0183800Y0163250D01*
X0183800Y0161651D02*
X0195850Y0161651D01*
X0195850Y0160053D02*
X0183800Y0160053D01*
X0183800Y0158454D02*
X0195850Y0158454D01*
X0195850Y0156856D02*
X0183800Y0156856D01*
X0185253Y0155257D02*
X0195850Y0155257D01*
X0195850Y0153659D02*
X0186851Y0153659D01*
X0190995Y0152060D02*
X0195850Y0152060D01*
X0195850Y0150462D02*
X0192594Y0150462D01*
X0193100Y0148863D02*
X0195850Y0148863D01*
X0195850Y0147265D02*
X0193100Y0147265D01*
X0192621Y0145666D02*
X0195850Y0145666D01*
X0195850Y0144068D02*
X0191023Y0144068D01*
X0191791Y0142469D02*
X0179291Y0142469D01*
X0180889Y0140870D02*
X0189009Y0140870D01*
X0185977Y0144068D02*
X0177692Y0144068D01*
X0176167Y0137673D02*
X0120658Y0137673D01*
X0120300Y0136075D02*
X0177765Y0136075D01*
X0176855Y0134476D02*
X0179364Y0134476D01*
X0178882Y0132878D02*
X0188861Y0132878D01*
X0189418Y0131279D02*
X0180480Y0131279D01*
X0182079Y0129681D02*
X0188024Y0129681D01*
X0194209Y0142469D02*
X0195850Y0142469D01*
X0188500Y0148050D02*
X0181000Y0155550D01*
X0181000Y0181800D01*
X0183677Y0185629D02*
X0195850Y0185629D01*
X0195850Y0187227D02*
X0182933Y0187227D01*
X0184531Y0188826D02*
X0195850Y0188826D01*
X0195850Y0190424D02*
X0185600Y0190424D01*
X0185600Y0192023D02*
X0195850Y0192023D01*
X0195850Y0193621D02*
X0185600Y0193621D01*
X0184085Y0195220D02*
X0195850Y0195220D01*
X0195850Y0184030D02*
X0185275Y0184030D01*
X0185600Y0182432D02*
X0195850Y0182432D01*
X0195850Y0180833D02*
X0185600Y0180833D01*
X0184940Y0179235D02*
X0195850Y0179235D01*
X0195850Y0177636D02*
X0183800Y0177636D01*
X0183800Y0176038D02*
X0195850Y0176038D01*
X0195850Y0174439D02*
X0183800Y0174439D01*
X0183800Y0172841D02*
X0195850Y0172841D01*
X0195850Y0171242D02*
X0183800Y0171242D01*
X0183800Y0169644D02*
X0195850Y0169644D01*
X0182129Y0150462D02*
X0152311Y0150462D01*
X0152900Y0148863D02*
X0183727Y0148863D01*
X0183900Y0147265D02*
X0152900Y0147265D01*
X0152339Y0145666D02*
X0184379Y0145666D01*
X0164450Y0174439D02*
X0158616Y0174439D01*
X0154472Y0176038D02*
X0164450Y0176038D01*
X0164450Y0177636D02*
X0152874Y0177636D01*
X0151275Y0179235D02*
X0164450Y0179235D01*
X0164450Y0180833D02*
X0149677Y0180833D01*
X0148078Y0182432D02*
X0164450Y0182432D01*
X0164625Y0184030D02*
X0147550Y0184030D01*
X0147550Y0185629D02*
X0165869Y0185629D01*
X0167468Y0187227D02*
X0158900Y0187227D01*
X0157823Y0186150D02*
X0160400Y0188727D01*
X0160400Y0190550D01*
X0160400Y0192373D01*
X0157823Y0194950D01*
X0156000Y0194950D01*
X0156000Y0190550D01*
X0156000Y0190550D01*
X0160400Y0190550D01*
X0156000Y0190550D01*
X0156000Y0190550D01*
X0156000Y0190550D01*
X0151600Y0190550D01*
X0151600Y0192373D01*
X0154177Y0194950D01*
X0156000Y0194950D01*
X0156000Y0190550D01*
X0156000Y0186150D01*
X0157823Y0186150D01*
X0156000Y0186150D02*
X0156000Y0190550D01*
X0156000Y0190550D01*
X0151600Y0190550D01*
X0151600Y0188727D01*
X0154177Y0186150D01*
X0156000Y0186150D01*
X0156000Y0187227D02*
X0156000Y0187227D01*
X0156000Y0188826D02*
X0156000Y0188826D01*
X0156000Y0190424D02*
X0156000Y0190424D01*
X0156000Y0192023D02*
X0156000Y0192023D01*
X0156000Y0193621D02*
X0156000Y0193621D01*
X0159151Y0193621D02*
X0173862Y0193621D01*
X0172263Y0192023D02*
X0160400Y0192023D01*
X0160400Y0190424D02*
X0170665Y0190424D01*
X0169066Y0188826D02*
X0160400Y0188826D01*
X0153100Y0187227D02*
X0147550Y0187227D01*
X0147550Y0188826D02*
X0151600Y0188826D01*
X0151600Y0190424D02*
X0147315Y0190424D01*
X0145493Y0192023D02*
X0151600Y0192023D01*
X0152849Y0193621D02*
X0140684Y0193621D01*
X0138500Y0189300D02*
X0144750Y0189300D01*
X0144750Y0181800D01*
X0156000Y0170550D01*
X0141950Y0185629D02*
X0141334Y0185629D01*
X0122546Y0155257D02*
X0121327Y0155257D01*
X0122591Y0153659D02*
X0123794Y0153659D01*
X0138561Y0150462D02*
X0144689Y0150462D01*
X0144100Y0148863D02*
X0139150Y0148863D01*
X0139150Y0147265D02*
X0144100Y0147265D01*
X0144661Y0145666D02*
X0138589Y0145666D01*
X0109571Y0134476D02*
X0098800Y0134476D01*
X0098800Y0132878D02*
X0108867Y0132878D01*
X0108800Y0131279D02*
X0098800Y0131279D01*
X0098800Y0129681D02*
X0109299Y0129681D01*
X0093200Y0126484D02*
X0011700Y0126484D01*
X0010771Y0120090D02*
X0037829Y0120090D01*
X0110335Y0195220D02*
X0177915Y0195220D01*
D19*
X0126000Y0156800D03*
X0186000Y0076800D03*
D20*
X0099750Y0111800D03*
X0096000Y0105550D03*
X0098866Y0091800D03*
X0077250Y0055550D03*
X0099384Y0049300D03*
X0048500Y0090550D03*
X0036000Y0091800D03*
X0019266Y0073050D03*
X0013500Y0050550D03*
X0013500Y0043050D03*
X0018500Y0041800D03*
X0022250Y0026800D03*
X0036000Y0031800D03*
X0041000Y0121800D03*
X0041000Y0131800D03*
M02*
