G75*
%MOIN*%
%OFA0B0*%
%FSLAX25Y25*%
%IPPOS*%
%LPD*%
%AMOC8*
5,1,8,0,0,1.08239X$1,22.5*
%
%ADD10C,0.00000*%
%ADD11C,0.00300*%
%ADD12C,0.00500*%
%ADD13C,0.01000*%
%ADD14C,0.00600*%
%ADD15C,0.00400*%
%ADD16R,0.02000X0.10000*%
%ADD17R,0.10000X0.02000*%
%ADD18R,0.03400X0.02400*%
%ADD19R,0.02400X0.03400*%
%ADD20C,0.00700*%
%ADD21C,0.01600*%
%ADD22C,0.00800*%
D10*
X0001000Y0001800D02*
X0001000Y0198650D01*
X0197850Y0198650D01*
X0197850Y0001800D01*
X0001000Y0001800D01*
D11*
X0010648Y0009871D02*
X0010648Y0010972D01*
X0011015Y0011339D01*
X0011749Y0011339D01*
X0012116Y0010972D01*
X0012116Y0009871D01*
X0012850Y0009871D02*
X0010648Y0009871D01*
X0010648Y0012173D02*
X0010648Y0012907D01*
X0010648Y0012540D02*
X0012850Y0012540D01*
X0012850Y0012173D02*
X0012850Y0012907D01*
X0012483Y0013707D02*
X0012850Y0014074D01*
X0012850Y0014808D01*
X0012483Y0015175D01*
X0012116Y0016009D02*
X0010648Y0017477D01*
X0010648Y0018311D02*
X0010648Y0019045D01*
X0010648Y0018678D02*
X0012850Y0018678D01*
X0012850Y0018311D02*
X0012850Y0019045D01*
X0012850Y0020580D02*
X0010648Y0020580D01*
X0010648Y0019846D02*
X0010648Y0021314D01*
X0011015Y0022148D02*
X0010648Y0022515D01*
X0010648Y0023249D01*
X0011015Y0023616D01*
X0011382Y0023616D01*
X0011749Y0023249D01*
X0012116Y0023616D01*
X0012483Y0023616D01*
X0012850Y0023249D01*
X0012850Y0022515D01*
X0012483Y0022148D01*
X0011749Y0022882D02*
X0011749Y0023249D01*
X0012850Y0017477D02*
X0011749Y0016376D01*
X0010648Y0016009D02*
X0012850Y0016009D01*
X0011015Y0015175D02*
X0010648Y0014808D01*
X0010648Y0014074D01*
X0011015Y0013707D01*
X0012483Y0013707D01*
X0020632Y0050550D02*
X0019898Y0051284D01*
X0022100Y0051284D01*
X0022100Y0050550D02*
X0022100Y0052018D01*
X0021733Y0052852D02*
X0020265Y0054320D01*
X0021733Y0054320D01*
X0022100Y0053953D01*
X0022100Y0053219D01*
X0021733Y0052852D01*
X0020265Y0052852D01*
X0019898Y0053219D01*
X0019898Y0053953D01*
X0020265Y0054320D01*
X0019898Y0055154D02*
X0022100Y0055154D01*
X0021366Y0055154D02*
X0020632Y0056255D01*
X0021366Y0055154D02*
X0022100Y0056255D01*
X0018026Y0066950D02*
X0016675Y0066950D01*
X0016675Y0069652D01*
X0018026Y0069652D01*
X0018476Y0069202D01*
X0018476Y0067400D01*
X0018026Y0066950D01*
X0015714Y0066950D02*
X0015714Y0069652D01*
X0013912Y0069652D02*
X0015714Y0066950D01*
X0013912Y0066950D02*
X0013912Y0069652D01*
X0012952Y0069202D02*
X0012501Y0069652D01*
X0011600Y0069652D01*
X0011150Y0069202D01*
X0011150Y0067400D01*
X0011600Y0066950D01*
X0012501Y0066950D01*
X0012952Y0067400D01*
X0012952Y0068301D01*
X0012051Y0068301D01*
X0012501Y0076950D02*
X0011600Y0076950D01*
X0011150Y0077400D01*
X0012051Y0078301D02*
X0012501Y0078301D01*
X0012952Y0077851D01*
X0012952Y0077400D01*
X0012501Y0076950D01*
X0012501Y0078301D02*
X0012952Y0078752D01*
X0012952Y0079202D01*
X0012501Y0079652D01*
X0011600Y0079652D01*
X0011150Y0079202D01*
X0013912Y0079652D02*
X0013912Y0077851D01*
X0014813Y0076950D01*
X0015714Y0077851D01*
X0015714Y0079652D01*
X0016675Y0079202D02*
X0017125Y0079652D01*
X0018026Y0079652D01*
X0018476Y0079202D01*
X0018476Y0078752D01*
X0018026Y0078301D01*
X0018476Y0077851D01*
X0018476Y0077400D01*
X0018026Y0076950D01*
X0017125Y0076950D01*
X0016675Y0077400D01*
X0017575Y0078301D02*
X0018026Y0078301D01*
X0016675Y0086950D02*
X0018476Y0089652D01*
X0019437Y0089652D02*
X0019437Y0086950D01*
X0021239Y0086950D01*
X0022199Y0086950D02*
X0022199Y0089652D01*
X0024001Y0089652D01*
X0024962Y0089652D02*
X0026313Y0089652D01*
X0026763Y0089202D01*
X0026763Y0087400D01*
X0026313Y0086950D01*
X0024962Y0086950D01*
X0024962Y0089652D01*
X0023100Y0088301D02*
X0022199Y0088301D01*
X0022199Y0086950D02*
X0024001Y0086950D01*
X0015714Y0088301D02*
X0013912Y0088301D01*
X0015263Y0089652D01*
X0015263Y0086950D01*
X0012952Y0086950D02*
X0012952Y0088752D01*
X0012051Y0089652D01*
X0011150Y0088752D01*
X0011150Y0086950D01*
X0011150Y0088301D02*
X0012952Y0088301D01*
X0012501Y0096950D02*
X0011150Y0096950D01*
X0011150Y0099652D01*
X0012501Y0099652D01*
X0012952Y0099202D01*
X0012952Y0098752D01*
X0012501Y0098301D01*
X0011150Y0098301D01*
X0012501Y0098301D02*
X0012952Y0097851D01*
X0012952Y0097400D01*
X0012501Y0096950D01*
X0013912Y0098301D02*
X0015714Y0098301D01*
X0015263Y0096950D02*
X0015263Y0099652D01*
X0013912Y0098301D01*
X0016675Y0096950D02*
X0018476Y0099652D01*
X0019437Y0099652D02*
X0019437Y0097400D01*
X0019887Y0096950D01*
X0020788Y0096950D01*
X0021239Y0097400D01*
X0021239Y0099652D01*
X0022199Y0099202D02*
X0022199Y0098752D01*
X0022650Y0098301D01*
X0023551Y0098301D01*
X0024001Y0097851D01*
X0024001Y0097400D01*
X0023551Y0096950D01*
X0022650Y0096950D01*
X0022199Y0097400D01*
X0022199Y0099202D02*
X0022650Y0099652D01*
X0023551Y0099652D01*
X0024001Y0099202D01*
X0024962Y0099652D02*
X0024962Y0096950D01*
X0026763Y0096950D01*
X0027724Y0096950D02*
X0027724Y0099652D01*
X0029075Y0099652D01*
X0029526Y0099202D01*
X0029526Y0098301D01*
X0029075Y0097851D01*
X0027724Y0097851D01*
X0028625Y0097851D02*
X0029526Y0096950D01*
X0026763Y0099652D02*
X0024962Y0099652D01*
X0024962Y0098301D02*
X0025863Y0098301D01*
X0015714Y0107400D02*
X0015263Y0106950D01*
X0014363Y0106950D01*
X0013912Y0107400D01*
X0012952Y0107400D02*
X0012501Y0106950D01*
X0011150Y0106950D01*
X0011150Y0109652D01*
X0012501Y0109652D01*
X0012952Y0109202D01*
X0012952Y0108752D01*
X0012501Y0108301D01*
X0011150Y0108301D01*
X0012501Y0108301D02*
X0012952Y0107851D01*
X0012952Y0107400D01*
X0013912Y0109202D02*
X0014363Y0109652D01*
X0015263Y0109652D01*
X0015714Y0109202D01*
X0015714Y0108752D01*
X0015263Y0108301D01*
X0015714Y0107851D01*
X0015714Y0107400D01*
X0015263Y0108301D02*
X0014813Y0108301D01*
X0013912Y0116950D02*
X0015714Y0118752D01*
X0015714Y0119202D01*
X0015263Y0119652D01*
X0014363Y0119652D01*
X0013912Y0119202D01*
X0012952Y0119202D02*
X0012952Y0118752D01*
X0012501Y0118301D01*
X0011150Y0118301D01*
X0011150Y0116950D02*
X0012501Y0116950D01*
X0012952Y0117400D01*
X0012952Y0117851D01*
X0012501Y0118301D01*
X0012952Y0119202D02*
X0012501Y0119652D01*
X0011150Y0119652D01*
X0011150Y0116950D01*
X0013912Y0116950D02*
X0015714Y0116950D01*
X0015714Y0126950D02*
X0013912Y0126950D01*
X0014813Y0126950D02*
X0014813Y0129652D01*
X0013912Y0128752D01*
X0012952Y0128752D02*
X0012952Y0126950D01*
X0012952Y0128301D02*
X0011150Y0128301D01*
X0011150Y0128752D02*
X0011150Y0126950D01*
X0011150Y0128752D02*
X0012051Y0129652D01*
X0012952Y0128752D01*
X0012952Y0135700D02*
X0012952Y0137502D01*
X0012051Y0138402D01*
X0011150Y0137502D01*
X0011150Y0135700D01*
X0011150Y0137051D02*
X0012952Y0137051D01*
X0013912Y0136150D02*
X0013912Y0137952D01*
X0014363Y0138402D01*
X0015263Y0138402D01*
X0015714Y0137952D01*
X0013912Y0136150D01*
X0014363Y0135700D01*
X0015263Y0135700D01*
X0015714Y0136150D01*
X0015714Y0137952D01*
X0015001Y0153200D02*
X0015452Y0153650D01*
X0015452Y0155902D01*
X0016412Y0155452D02*
X0016412Y0155002D01*
X0016863Y0154551D01*
X0017763Y0154551D01*
X0018214Y0154101D01*
X0018214Y0153650D01*
X0017763Y0153200D01*
X0016863Y0153200D01*
X0016412Y0153650D01*
X0015001Y0153200D02*
X0014100Y0153200D01*
X0013650Y0153650D01*
X0013650Y0155902D01*
X0016412Y0155452D02*
X0016863Y0155902D01*
X0017763Y0155902D01*
X0018214Y0155452D01*
X0019175Y0155902D02*
X0020526Y0155902D01*
X0020976Y0155452D01*
X0020976Y0155002D01*
X0020526Y0154551D01*
X0019175Y0154551D01*
X0020526Y0154551D02*
X0020976Y0154101D01*
X0020976Y0153650D01*
X0020526Y0153200D01*
X0019175Y0153200D01*
X0019175Y0155902D01*
X0024699Y0155902D02*
X0024699Y0153200D01*
X0024699Y0154101D02*
X0026051Y0154101D01*
X0026501Y0154551D01*
X0026501Y0155452D01*
X0026051Y0155902D01*
X0024699Y0155902D01*
X0027462Y0155452D02*
X0027462Y0153650D01*
X0027912Y0153200D01*
X0028813Y0153200D01*
X0029263Y0153650D01*
X0029263Y0155452D01*
X0028813Y0155902D01*
X0027912Y0155902D01*
X0027462Y0155452D01*
X0030224Y0155902D02*
X0030224Y0153200D01*
X0030224Y0154101D02*
X0031575Y0154101D01*
X0032026Y0154551D01*
X0032026Y0155452D01*
X0031575Y0155902D01*
X0030224Y0155902D01*
X0031125Y0154101D02*
X0032026Y0153200D01*
X0033887Y0153200D02*
X0033887Y0155902D01*
X0032986Y0155902D02*
X0034788Y0155902D01*
X0062632Y0081116D02*
X0064100Y0079648D01*
X0064100Y0081116D01*
X0062632Y0081116D02*
X0062632Y0079648D01*
X0062999Y0078814D02*
X0062999Y0077346D01*
X0064100Y0077346D02*
X0061898Y0077346D01*
X0061898Y0076512D02*
X0064100Y0076512D01*
X0064100Y0075044D02*
X0061898Y0075044D01*
X0062632Y0075778D01*
X0061898Y0076512D01*
X0061898Y0078814D02*
X0064100Y0078814D01*
X0063733Y0074210D02*
X0063366Y0074210D01*
X0062999Y0073843D01*
X0062999Y0073109D01*
X0062632Y0072742D01*
X0062265Y0072742D01*
X0061898Y0073109D01*
X0061898Y0073843D01*
X0062265Y0074210D01*
X0062632Y0074210D01*
X0062999Y0073843D01*
X0062999Y0073109D02*
X0063366Y0072742D01*
X0063733Y0072742D01*
X0064100Y0073109D01*
X0064100Y0073843D01*
X0063733Y0074210D01*
X0037100Y0055005D02*
X0036366Y0053904D01*
X0035632Y0055005D01*
X0034898Y0053904D02*
X0037100Y0053904D01*
X0036733Y0053070D02*
X0035265Y0053070D01*
X0036733Y0051602D01*
X0037100Y0051969D01*
X0037100Y0052703D01*
X0036733Y0053070D01*
X0035265Y0053070D02*
X0034898Y0052703D01*
X0034898Y0051969D01*
X0035265Y0051602D01*
X0036733Y0051602D01*
X0037100Y0050768D02*
X0037100Y0049300D01*
X0037100Y0050034D02*
X0034898Y0050034D01*
X0035632Y0049300D01*
X0132634Y0163450D02*
X0132150Y0163934D01*
X0134085Y0165869D01*
X0134085Y0163934D01*
X0133601Y0163450D01*
X0132634Y0163450D01*
X0132150Y0163934D02*
X0132150Y0165869D01*
X0132634Y0166352D01*
X0133601Y0166352D01*
X0134085Y0165869D01*
X0135097Y0163934D02*
X0135580Y0163934D01*
X0135580Y0163450D01*
X0135097Y0163450D01*
X0135097Y0163934D01*
X0136570Y0163450D02*
X0138505Y0163450D01*
X0137537Y0163450D02*
X0137537Y0166352D01*
X0136570Y0165385D01*
X0139516Y0165385D02*
X0139516Y0163934D01*
X0140000Y0163450D01*
X0141451Y0163450D01*
X0141451Y0165385D01*
X0142463Y0164901D02*
X0143430Y0164901D01*
X0142463Y0163450D02*
X0142463Y0166352D01*
X0144398Y0166352D01*
X0139703Y0179750D02*
X0139703Y0182652D01*
X0141638Y0182652D01*
X0140671Y0181201D02*
X0139703Y0181201D01*
X0138692Y0181685D02*
X0138692Y0179750D01*
X0137241Y0179750D01*
X0136757Y0180234D01*
X0136757Y0181685D01*
X0135745Y0179750D02*
X0133810Y0179750D01*
X0134778Y0179750D02*
X0134778Y0182652D01*
X0133810Y0181685D01*
X0132821Y0180234D02*
X0132821Y0179750D01*
X0132337Y0179750D01*
X0132337Y0180234D01*
X0132821Y0180234D01*
X0131326Y0180234D02*
X0130842Y0179750D01*
X0129874Y0179750D01*
X0129391Y0180234D01*
X0131326Y0182169D01*
X0131326Y0180234D01*
X0131326Y0182169D02*
X0130842Y0182652D01*
X0129874Y0182652D01*
X0129391Y0182169D01*
X0129391Y0180234D01*
X0181150Y0138402D02*
X0181150Y0135700D01*
X0182501Y0135700D01*
X0182952Y0136150D01*
X0182952Y0136601D01*
X0182501Y0137051D01*
X0181150Y0137051D01*
X0182501Y0137051D02*
X0182952Y0137502D01*
X0182952Y0137952D01*
X0182501Y0138402D01*
X0181150Y0138402D01*
X0183912Y0137502D02*
X0184813Y0138402D01*
X0184813Y0135700D01*
X0183912Y0135700D02*
X0185714Y0135700D01*
X0186675Y0136150D02*
X0187125Y0135700D01*
X0188026Y0135700D01*
X0188476Y0136150D01*
X0188476Y0137051D01*
X0188026Y0137502D01*
X0187575Y0137502D01*
X0186675Y0137051D01*
X0186675Y0138402D01*
X0188476Y0138402D01*
X0188026Y0128402D02*
X0186675Y0127051D01*
X0188476Y0127051D01*
X0188026Y0125700D02*
X0188026Y0128402D01*
X0185714Y0125700D02*
X0183912Y0125700D01*
X0184813Y0125700D02*
X0184813Y0128402D01*
X0183912Y0127502D01*
X0182952Y0127502D02*
X0182501Y0127051D01*
X0181150Y0127051D01*
X0181150Y0125700D02*
X0181150Y0128402D01*
X0182501Y0128402D01*
X0182952Y0127952D01*
X0182952Y0127502D01*
X0182501Y0127051D02*
X0182952Y0126601D01*
X0182952Y0126150D01*
X0182501Y0125700D01*
X0181150Y0125700D01*
X0181150Y0118402D02*
X0182501Y0118402D01*
X0182952Y0117952D01*
X0182952Y0117502D01*
X0182501Y0117051D01*
X0181150Y0117051D01*
X0181150Y0115700D02*
X0181150Y0118402D01*
X0182501Y0117051D02*
X0182952Y0116601D01*
X0182952Y0116150D01*
X0182501Y0115700D01*
X0181150Y0115700D01*
X0183912Y0115700D02*
X0185714Y0115700D01*
X0184813Y0115700D02*
X0184813Y0118402D01*
X0183912Y0117502D01*
X0186675Y0117952D02*
X0187125Y0118402D01*
X0188026Y0118402D01*
X0188476Y0117952D01*
X0188476Y0117502D01*
X0188026Y0117051D01*
X0188476Y0116601D01*
X0188476Y0116150D01*
X0188026Y0115700D01*
X0187125Y0115700D01*
X0186675Y0116150D01*
X0187575Y0117051D02*
X0188026Y0117051D01*
X0185263Y0108402D02*
X0184363Y0108402D01*
X0183912Y0107952D01*
X0183912Y0107502D01*
X0184363Y0107051D01*
X0185714Y0107051D01*
X0185714Y0106150D02*
X0185714Y0107952D01*
X0185263Y0108402D01*
X0185714Y0106150D02*
X0185263Y0105700D01*
X0184363Y0105700D01*
X0183912Y0106150D01*
X0182952Y0106150D02*
X0182952Y0106601D01*
X0182501Y0107051D01*
X0181150Y0107051D01*
X0181150Y0105700D02*
X0182501Y0105700D01*
X0182952Y0106150D01*
X0182501Y0107051D02*
X0182952Y0107502D01*
X0182952Y0107952D01*
X0182501Y0108402D01*
X0181150Y0108402D01*
X0181150Y0105700D01*
X0181150Y0098402D02*
X0182501Y0098402D01*
X0182952Y0097952D01*
X0182952Y0097502D01*
X0182501Y0097051D01*
X0181150Y0097051D01*
X0181150Y0095700D02*
X0182501Y0095700D01*
X0182952Y0096150D01*
X0182952Y0096601D01*
X0182501Y0097051D01*
X0183912Y0096601D02*
X0184363Y0097051D01*
X0185263Y0097051D01*
X0185714Y0096601D01*
X0185714Y0096150D01*
X0185263Y0095700D01*
X0184363Y0095700D01*
X0183912Y0096150D01*
X0183912Y0096601D01*
X0184363Y0097051D02*
X0183912Y0097502D01*
X0183912Y0097952D01*
X0184363Y0098402D01*
X0185263Y0098402D01*
X0185714Y0097952D01*
X0185714Y0097502D01*
X0185263Y0097051D01*
X0181150Y0095700D02*
X0181150Y0098402D01*
X0181150Y0088402D02*
X0182501Y0088402D01*
X0182952Y0087952D01*
X0182952Y0087502D01*
X0182501Y0087051D01*
X0181150Y0087051D01*
X0181150Y0085700D02*
X0182501Y0085700D01*
X0182952Y0086150D01*
X0182952Y0086601D01*
X0182501Y0087051D01*
X0183912Y0086150D02*
X0183912Y0085700D01*
X0183912Y0086150D02*
X0185714Y0087952D01*
X0185714Y0088402D01*
X0183912Y0088402D01*
X0181150Y0088402D02*
X0181150Y0085700D01*
X0181412Y0078402D02*
X0181412Y0076601D01*
X0182313Y0075700D01*
X0183214Y0076601D01*
X0183214Y0078402D01*
X0180452Y0078402D02*
X0178650Y0078402D01*
X0178650Y0077051D01*
X0179551Y0077502D01*
X0180001Y0077502D01*
X0180452Y0077051D01*
X0180452Y0076150D01*
X0180001Y0075700D01*
X0179100Y0075700D01*
X0178650Y0076150D01*
X0180350Y0068402D02*
X0179900Y0067952D01*
X0179900Y0066150D01*
X0180350Y0065700D01*
X0181251Y0065700D01*
X0181702Y0066150D01*
X0181702Y0067051D01*
X0180801Y0067051D01*
X0181702Y0067952D02*
X0181251Y0068402D01*
X0180350Y0068402D01*
X0182662Y0068402D02*
X0182662Y0065700D01*
X0184464Y0065700D02*
X0182662Y0068402D01*
X0184464Y0068402D02*
X0184464Y0065700D01*
X0185425Y0065700D02*
X0185425Y0068402D01*
X0186776Y0068402D01*
X0187226Y0067952D01*
X0187226Y0066150D01*
X0186776Y0065700D01*
X0185425Y0065700D01*
D12*
X0171562Y0075550D02*
X0171562Y0080054D01*
X0174564Y0080054D01*
X0173063Y0077802D02*
X0171562Y0077802D01*
X0169960Y0078553D02*
X0169960Y0075550D01*
X0167708Y0075550D01*
X0166958Y0076301D01*
X0166958Y0078553D01*
X0165356Y0079303D02*
X0162354Y0076301D01*
X0163105Y0075550D01*
X0164606Y0075550D01*
X0165356Y0076301D01*
X0165356Y0079303D01*
X0164606Y0080054D01*
X0163105Y0080054D01*
X0162354Y0079303D01*
X0162354Y0076301D01*
X0160753Y0075550D02*
X0157750Y0075550D01*
X0159251Y0075550D02*
X0159251Y0080054D01*
X0157750Y0078553D01*
X0158341Y0061554D02*
X0156840Y0061554D01*
X0156089Y0060803D01*
X0156089Y0057801D01*
X0156840Y0057050D01*
X0158341Y0057050D01*
X0159091Y0057801D01*
X0159091Y0059302D01*
X0157590Y0059302D01*
X0159091Y0060803D02*
X0158341Y0061554D01*
X0160693Y0061554D02*
X0160693Y0060803D01*
X0162194Y0059302D01*
X0162194Y0057050D01*
X0162194Y0059302D02*
X0163695Y0060803D01*
X0163695Y0061554D01*
X0154488Y0060803D02*
X0153737Y0061554D01*
X0152236Y0061554D01*
X0151485Y0060803D01*
X0151485Y0057801D01*
X0152236Y0057050D01*
X0153737Y0057050D01*
X0154488Y0057801D01*
X0154488Y0059302D01*
X0152986Y0059302D01*
X0149884Y0059302D02*
X0149884Y0057801D01*
X0149133Y0057050D01*
X0147632Y0057050D01*
X0146881Y0057801D01*
X0146881Y0060803D01*
X0147632Y0061554D01*
X0149133Y0061554D01*
X0149884Y0060803D01*
X0149884Y0059302D02*
X0148382Y0059302D01*
X0145280Y0059302D02*
X0145280Y0057801D01*
X0144529Y0057050D01*
X0143028Y0057050D01*
X0142277Y0057801D01*
X0142277Y0060803D01*
X0143028Y0061554D01*
X0144529Y0061554D01*
X0145280Y0060803D01*
X0145280Y0059302D02*
X0143778Y0059302D01*
X0140676Y0059302D02*
X0140676Y0057801D01*
X0139925Y0057050D01*
X0138424Y0057050D01*
X0137673Y0057801D01*
X0137673Y0060803D01*
X0138424Y0061554D01*
X0139925Y0061554D01*
X0140676Y0060803D01*
X0140676Y0059302D02*
X0139174Y0059302D01*
X0136105Y0061554D02*
X0134604Y0061554D01*
X0135355Y0061554D02*
X0135355Y0057050D01*
X0136105Y0057050D02*
X0134604Y0057050D01*
X0133003Y0059302D02*
X0132252Y0058551D01*
X0130000Y0058551D01*
X0130000Y0057050D02*
X0130000Y0061554D01*
X0132252Y0061554D01*
X0133003Y0060803D01*
X0133003Y0059302D01*
X0132252Y0052804D02*
X0130751Y0052804D01*
X0130000Y0052053D01*
X0132252Y0052804D02*
X0133003Y0052053D01*
X0133003Y0051303D01*
X0130000Y0048300D01*
X0133003Y0048300D01*
X0134604Y0049051D02*
X0137606Y0052053D01*
X0137606Y0049051D01*
X0136856Y0048300D01*
X0135355Y0048300D01*
X0134604Y0049051D01*
X0134604Y0052053D01*
X0135355Y0052804D01*
X0136856Y0052804D01*
X0137606Y0052053D01*
X0139208Y0051303D02*
X0140709Y0052804D01*
X0140709Y0048300D01*
X0139208Y0048300D02*
X0142210Y0048300D01*
X0143812Y0048300D02*
X0143812Y0049051D01*
X0146814Y0052053D01*
X0146814Y0052804D01*
X0143812Y0052804D01*
X0153020Y0052804D02*
X0153020Y0048300D01*
X0156022Y0048300D02*
X0153020Y0052804D01*
X0156022Y0052804D02*
X0156022Y0048300D01*
X0157624Y0049051D02*
X0158374Y0048300D01*
X0159875Y0048300D01*
X0160626Y0049051D01*
X0160626Y0052804D01*
X0157624Y0052804D02*
X0157624Y0049051D01*
X0164351Y0027804D02*
X0165852Y0027804D01*
X0166603Y0027053D01*
X0166603Y0026303D01*
X0165852Y0025552D01*
X0166603Y0024801D01*
X0166603Y0024051D01*
X0165852Y0023300D01*
X0164351Y0023300D01*
X0163600Y0024051D01*
X0165101Y0025552D02*
X0165852Y0025552D01*
X0163600Y0027053D02*
X0164351Y0027804D01*
X0168204Y0027053D02*
X0168955Y0027804D01*
X0170456Y0027804D01*
X0171206Y0027053D01*
X0171206Y0026303D01*
X0170456Y0025552D01*
X0171206Y0024801D01*
X0171206Y0024051D01*
X0170456Y0023300D01*
X0168955Y0023300D01*
X0168204Y0024051D01*
X0169705Y0025552D02*
X0170456Y0025552D01*
X0172808Y0024051D02*
X0172808Y0027053D01*
X0173558Y0027804D01*
X0175060Y0027804D01*
X0175810Y0027053D01*
X0172808Y0024051D01*
X0173558Y0023300D01*
X0175060Y0023300D01*
X0175810Y0024051D01*
X0175810Y0027053D01*
X0137668Y0010054D02*
X0137668Y0005550D01*
X0134666Y0010054D01*
X0134666Y0005550D01*
X0133064Y0005550D02*
X0130062Y0005550D01*
X0130062Y0010054D01*
X0133064Y0010054D01*
X0131563Y0007802D02*
X0130062Y0007802D01*
X0128460Y0010054D02*
X0125458Y0010054D01*
X0125458Y0005550D01*
X0128460Y0005550D01*
X0126959Y0007802D02*
X0125458Y0007802D01*
X0123856Y0007802D02*
X0123856Y0009303D01*
X0123106Y0010054D01*
X0120854Y0010054D01*
X0120854Y0005550D01*
X0120854Y0007051D02*
X0123106Y0007051D01*
X0123856Y0007802D01*
X0122355Y0007051D02*
X0123856Y0005550D01*
X0119253Y0006301D02*
X0118502Y0005550D01*
X0117001Y0005550D01*
X0116250Y0006301D01*
X0116250Y0009303D01*
X0117001Y0010054D01*
X0118502Y0010054D01*
X0119253Y0009303D01*
X0119253Y0007802D02*
X0117751Y0007802D01*
X0119253Y0007802D02*
X0119253Y0006301D01*
X0079750Y0015550D02*
X0077250Y0015550D01*
X0072250Y0018050D01*
X0072250Y0015550D02*
X0069750Y0015550D01*
X0059750Y0026083D02*
X0058999Y0025332D01*
X0055997Y0028335D01*
X0058999Y0028335D01*
X0059750Y0027584D01*
X0059750Y0026083D01*
X0058999Y0025332D02*
X0055997Y0025332D01*
X0055246Y0026083D01*
X0055246Y0027584D01*
X0055997Y0028335D01*
X0058999Y0029936D02*
X0058999Y0030687D01*
X0059750Y0030687D01*
X0059750Y0029936D01*
X0058999Y0029936D01*
X0059750Y0032238D02*
X0059750Y0035241D01*
X0059750Y0033739D02*
X0055246Y0033739D01*
X0056747Y0032238D01*
X0056747Y0036842D02*
X0058999Y0036842D01*
X0059750Y0037593D01*
X0059750Y0039845D01*
X0056747Y0039845D01*
X0057498Y0041446D02*
X0057498Y0042947D01*
X0055246Y0041446D02*
X0055246Y0044449D01*
X0055246Y0041446D02*
X0059750Y0041446D01*
X0034750Y0016800D02*
X0032250Y0016800D01*
X0027250Y0019300D01*
X0027250Y0016800D02*
X0024750Y0016800D01*
X0016000Y0051800D02*
X0016000Y0061800D01*
X0011000Y0056800D01*
X0016000Y0051800D01*
X0016000Y0052150D02*
X0015650Y0052150D01*
X0016000Y0052648D02*
X0015152Y0052648D01*
X0014653Y0053147D02*
X0016000Y0053147D01*
X0016000Y0053645D02*
X0014155Y0053645D01*
X0013656Y0054144D02*
X0016000Y0054144D01*
X0016000Y0054642D02*
X0013158Y0054642D01*
X0012659Y0055141D02*
X0016000Y0055141D01*
X0016000Y0055639D02*
X0012161Y0055639D01*
X0011662Y0056138D02*
X0016000Y0056138D01*
X0016000Y0056636D02*
X0011164Y0056636D01*
X0011335Y0057135D02*
X0016000Y0057135D01*
X0016000Y0057633D02*
X0011833Y0057633D01*
X0012332Y0058132D02*
X0016000Y0058132D01*
X0016000Y0058630D02*
X0012830Y0058630D01*
X0013329Y0059129D02*
X0016000Y0059129D01*
X0016000Y0059627D02*
X0013827Y0059627D01*
X0014326Y0060126D02*
X0016000Y0060126D01*
X0016000Y0060624D02*
X0014824Y0060624D01*
X0015323Y0061123D02*
X0016000Y0061123D01*
X0016000Y0061621D02*
X0015821Y0061621D01*
X0087500Y0172050D02*
X0087500Y0176554D01*
X0089001Y0175053D01*
X0090503Y0176554D01*
X0090503Y0172050D01*
X0092104Y0172801D02*
X0092855Y0172050D01*
X0094356Y0172050D01*
X0095106Y0172801D01*
X0096708Y0173551D02*
X0098960Y0173551D01*
X0099710Y0174302D01*
X0099710Y0175803D01*
X0098960Y0176554D01*
X0096708Y0176554D01*
X0096708Y0172050D01*
X0095106Y0175803D02*
X0094356Y0176554D01*
X0092855Y0176554D01*
X0092104Y0175803D01*
X0092104Y0172801D01*
X0099004Y0177800D02*
X0115496Y0177800D01*
X0115874Y0176554D02*
X0115124Y0175803D01*
X0115874Y0176554D02*
X0117375Y0176554D01*
X0118126Y0175803D01*
X0118126Y0175053D01*
X0115124Y0172050D01*
X0118126Y0172050D01*
X0113522Y0172801D02*
X0113522Y0175803D01*
X0110520Y0172801D01*
X0111270Y0172050D01*
X0112772Y0172050D01*
X0113522Y0172801D01*
X0113522Y0175803D02*
X0112772Y0176554D01*
X0111270Y0176554D01*
X0110520Y0175803D01*
X0110520Y0172801D01*
X0108918Y0175803D02*
X0105916Y0172801D01*
X0105916Y0172050D01*
X0104314Y0172050D02*
X0101312Y0172050D01*
X0102813Y0172050D02*
X0102813Y0176554D01*
X0101312Y0175053D01*
X0105916Y0176554D02*
X0108918Y0176554D01*
X0108918Y0175803D01*
X0108377Y0183300D02*
X0106123Y0183300D01*
X0099004Y0177800D02*
X0098851Y0177999D01*
X0098703Y0178201D01*
X0098560Y0178406D01*
X0098422Y0178615D01*
X0098289Y0178827D01*
X0098161Y0179042D01*
X0098039Y0179260D01*
X0097921Y0179481D01*
X0097809Y0179705D01*
X0097702Y0179931D01*
X0097601Y0180160D01*
X0097505Y0180391D01*
X0097414Y0180625D01*
X0097329Y0180860D01*
X0097250Y0181098D01*
X0097177Y0181337D01*
X0097109Y0181578D01*
X0097047Y0181820D01*
X0096991Y0182064D01*
X0096940Y0182310D01*
X0096896Y0182556D01*
X0096857Y0182803D01*
X0096825Y0183051D01*
X0096798Y0183300D01*
X0098377Y0183300D01*
X0110346Y0194333D02*
X0110588Y0194255D01*
X0110828Y0194171D01*
X0111066Y0194082D01*
X0111302Y0193986D01*
X0111536Y0193885D01*
X0111767Y0193779D01*
X0111995Y0193666D01*
X0112221Y0193549D01*
X0112444Y0193426D01*
X0112663Y0193297D01*
X0112880Y0193163D01*
X0113093Y0193024D01*
X0113303Y0192880D01*
X0113509Y0192731D01*
X0113711Y0192577D01*
X0113910Y0192418D01*
X0114105Y0192254D01*
X0114296Y0192085D01*
X0114482Y0191912D01*
X0114665Y0191735D01*
X0114843Y0191553D01*
X0115016Y0191367D01*
X0115185Y0191176D01*
X0115349Y0190982D01*
X0115509Y0190784D01*
X0115664Y0190582D01*
X0115813Y0190376D01*
X0115958Y0190167D01*
X0116098Y0189954D01*
X0116232Y0189738D01*
X0116361Y0189518D01*
X0116485Y0189296D01*
X0116604Y0189071D01*
X0116716Y0188843D01*
X0116824Y0188612D01*
X0116925Y0188379D01*
X0117021Y0188143D01*
X0117112Y0187905D01*
X0117196Y0187665D01*
X0117275Y0187423D01*
X0117348Y0187179D01*
X0117414Y0186933D01*
X0117475Y0186686D01*
X0117530Y0186438D01*
X0117579Y0186188D01*
X0117622Y0185937D01*
X0117658Y0185685D01*
X0117689Y0185433D01*
X0117713Y0185179D01*
X0117731Y0184926D01*
X0117743Y0184671D01*
X0117749Y0184417D01*
X0117749Y0184162D01*
X0117743Y0183908D01*
X0117730Y0183654D01*
X0117711Y0183400D01*
X0117686Y0183147D01*
X0117655Y0182894D01*
X0117618Y0182642D01*
X0117575Y0182392D01*
X0117526Y0182142D01*
X0117471Y0181893D01*
X0117409Y0181646D01*
X0117342Y0181401D01*
X0117269Y0181157D01*
X0117190Y0180915D01*
X0117105Y0180676D01*
X0117014Y0180438D01*
X0116917Y0180202D01*
X0116815Y0179969D01*
X0116707Y0179739D01*
X0116594Y0179511D01*
X0116475Y0179286D01*
X0116351Y0179064D01*
X0116222Y0178845D01*
X0116087Y0178629D01*
X0115947Y0178416D01*
X0115801Y0178207D01*
X0115651Y0178002D01*
X0115496Y0177800D01*
X0116123Y0183300D02*
X0117702Y0183300D01*
X0104154Y0194333D02*
X0103910Y0194255D01*
X0103668Y0194170D01*
X0103429Y0194080D01*
X0103191Y0193984D01*
X0102956Y0193882D01*
X0102723Y0193774D01*
X0102493Y0193661D01*
X0102266Y0193542D01*
X0102042Y0193418D01*
X0101821Y0193288D01*
X0101604Y0193153D01*
X0101389Y0193012D01*
X0101178Y0192866D01*
X0100971Y0192716D01*
X0100768Y0192560D01*
X0100568Y0192399D01*
X0100372Y0192234D01*
X0100181Y0192064D01*
X0099993Y0191889D01*
X0099810Y0191709D01*
X0099632Y0191526D01*
X0099457Y0191337D01*
X0099288Y0191145D01*
X0099123Y0190949D01*
X0098963Y0190748D01*
X0098809Y0190544D01*
X0098659Y0190336D01*
X0098514Y0190125D01*
X0098374Y0189910D01*
X0098240Y0189692D01*
X0098111Y0189470D01*
X0097988Y0189246D01*
X0097870Y0189018D01*
X0097757Y0188788D01*
X0097651Y0188555D01*
X0097550Y0188319D01*
X0097454Y0188081D01*
X0097365Y0187841D01*
X0097282Y0187599D01*
X0097204Y0187354D01*
X0097133Y0187108D01*
X0097067Y0186860D01*
X0097008Y0186611D01*
X0096954Y0186361D01*
X0096907Y0186109D01*
X0096866Y0185856D01*
X0096831Y0185602D01*
X0096802Y0185347D01*
X0096780Y0185092D01*
X0096764Y0184836D01*
X0096754Y0184580D01*
X0096750Y0184324D01*
X0096753Y0184067D01*
X0096761Y0183811D01*
X0096776Y0183555D01*
X0096798Y0183300D01*
X0164850Y0140803D02*
X0165601Y0141554D01*
X0167102Y0141554D01*
X0167853Y0140803D01*
X0167853Y0140053D01*
X0167102Y0139302D01*
X0167853Y0138551D01*
X0167853Y0137801D01*
X0167102Y0137050D01*
X0165601Y0137050D01*
X0164850Y0137801D01*
X0166351Y0139302D02*
X0167102Y0139302D01*
X0169454Y0140803D02*
X0170205Y0141554D01*
X0171706Y0141554D01*
X0172456Y0140803D01*
X0172456Y0140053D01*
X0171706Y0139302D01*
X0172456Y0138551D01*
X0172456Y0137801D01*
X0171706Y0137050D01*
X0170205Y0137050D01*
X0169454Y0137801D01*
X0170955Y0139302D02*
X0171706Y0139302D01*
X0174058Y0137801D02*
X0174058Y0140803D01*
X0174808Y0141554D01*
X0176310Y0141554D01*
X0177060Y0140803D01*
X0174058Y0137801D01*
X0174808Y0137050D01*
X0176310Y0137050D01*
X0177060Y0137801D01*
X0177060Y0140803D01*
X0176753Y0174300D02*
X0175251Y0175801D01*
X0176002Y0175801D02*
X0173750Y0175801D01*
X0173750Y0174300D02*
X0173750Y0178804D01*
X0176002Y0178804D01*
X0176753Y0178053D01*
X0176753Y0176552D01*
X0176002Y0175801D01*
X0178354Y0176552D02*
X0179855Y0176552D01*
X0178354Y0178804D02*
X0178354Y0174300D01*
X0181356Y0174300D01*
X0182958Y0174300D02*
X0185210Y0174300D01*
X0185960Y0175051D01*
X0185960Y0178053D01*
X0185210Y0178804D01*
X0182958Y0178804D01*
X0182958Y0174300D01*
X0181356Y0178804D02*
X0178354Y0178804D01*
D13*
X0189000Y0186800D02*
X0188998Y0186992D01*
X0188991Y0187184D01*
X0188979Y0187376D01*
X0188963Y0187568D01*
X0188942Y0187759D01*
X0188917Y0187949D01*
X0188887Y0188139D01*
X0188853Y0188328D01*
X0188814Y0188516D01*
X0188770Y0188703D01*
X0188722Y0188889D01*
X0188670Y0189074D01*
X0188613Y0189258D01*
X0188552Y0189440D01*
X0188486Y0189620D01*
X0188416Y0189799D01*
X0188342Y0189977D01*
X0188264Y0190152D01*
X0188181Y0190326D01*
X0188094Y0190497D01*
X0188004Y0190666D01*
X0187909Y0190833D01*
X0187810Y0190998D01*
X0187707Y0191161D01*
X0187600Y0191320D01*
X0187490Y0191478D01*
X0187376Y0191632D01*
X0187258Y0191784D01*
X0187136Y0191933D01*
X0187011Y0192079D01*
X0186883Y0192221D01*
X0186751Y0192361D01*
X0186616Y0192498D01*
X0186477Y0192631D01*
X0186336Y0192761D01*
X0186191Y0192887D01*
X0186043Y0193010D01*
X0185893Y0193129D01*
X0185739Y0193245D01*
X0185583Y0193357D01*
X0185424Y0193465D01*
X0185263Y0193570D01*
X0185099Y0193670D01*
X0184933Y0193766D01*
X0184765Y0193859D01*
X0177031Y0193746D02*
X0176862Y0193647D01*
X0176696Y0193543D01*
X0176532Y0193436D01*
X0176371Y0193325D01*
X0176213Y0193210D01*
X0176058Y0193091D01*
X0175905Y0192968D01*
X0175756Y0192842D01*
X0175610Y0192712D01*
X0175467Y0192578D01*
X0175327Y0192441D01*
X0175191Y0192301D01*
X0175058Y0192157D01*
X0174929Y0192010D01*
X0174803Y0191860D01*
X0174682Y0191707D01*
X0174563Y0191551D01*
X0174449Y0191392D01*
X0174339Y0191231D01*
X0174233Y0191066D01*
X0174130Y0190900D01*
X0174032Y0190730D01*
X0173938Y0190559D01*
X0173848Y0190385D01*
X0173763Y0190209D01*
X0173681Y0190031D01*
X0173605Y0189851D01*
X0173532Y0189669D01*
X0173464Y0189486D01*
X0173401Y0189301D01*
X0173342Y0189114D01*
X0173288Y0188926D01*
X0173238Y0188737D01*
X0173193Y0188547D01*
X0173153Y0188355D01*
X0173117Y0188163D01*
X0173086Y0187970D01*
X0173060Y0187776D01*
X0173038Y0187581D01*
X0173022Y0187386D01*
X0173010Y0187191D01*
X0173002Y0186995D01*
X0173000Y0186800D01*
X0173002Y0186607D01*
X0173009Y0186414D01*
X0173021Y0186222D01*
X0173037Y0186029D01*
X0173058Y0185837D01*
X0173084Y0185646D01*
X0173114Y0185456D01*
X0173149Y0185266D01*
X0173188Y0185077D01*
X0173232Y0184889D01*
X0173280Y0184702D01*
X0173333Y0184516D01*
X0173390Y0184332D01*
X0173452Y0184149D01*
X0173518Y0183968D01*
X0173589Y0183788D01*
X0173663Y0183610D01*
X0173742Y0183434D01*
X0173826Y0183260D01*
X0173913Y0183088D01*
X0174005Y0182918D01*
X0174101Y0182751D01*
X0174200Y0182585D01*
X0174304Y0182422D01*
X0174411Y0182262D01*
X0174523Y0182105D01*
X0174638Y0181950D01*
X0174757Y0181798D01*
X0174879Y0181649D01*
X0175005Y0181502D01*
X0175135Y0181359D01*
X0175268Y0181219D01*
X0175404Y0181083D01*
X0175544Y0180949D01*
X0175686Y0180820D01*
X0175832Y0180693D01*
X0186122Y0180654D02*
X0186270Y0180781D01*
X0186415Y0180911D01*
X0186556Y0181044D01*
X0186695Y0181181D01*
X0186830Y0181321D01*
X0186961Y0181465D01*
X0187089Y0181612D01*
X0187214Y0181761D01*
X0187335Y0181914D01*
X0187452Y0182069D01*
X0187565Y0182228D01*
X0187674Y0182389D01*
X0187779Y0182553D01*
X0187881Y0182719D01*
X0187978Y0182888D01*
X0188071Y0183058D01*
X0188160Y0183232D01*
X0188245Y0183407D01*
X0188325Y0183584D01*
X0188401Y0183763D01*
X0188473Y0183944D01*
X0188540Y0184127D01*
X0188603Y0184311D01*
X0188661Y0184497D01*
X0188715Y0184684D01*
X0188764Y0184872D01*
X0188809Y0185062D01*
X0188849Y0185252D01*
X0188884Y0185444D01*
X0188915Y0185636D01*
X0188941Y0185829D01*
X0188962Y0186023D01*
X0188979Y0186217D01*
X0188991Y0186411D01*
X0188998Y0186605D01*
X0189000Y0186800D01*
X0137750Y0154050D02*
X0134750Y0154050D01*
X0131750Y0154050D01*
X0131750Y0152050D02*
X0134750Y0152050D01*
X0137750Y0152050D01*
X0134500Y0170050D02*
X0134500Y0173050D01*
X0134500Y0176050D01*
X0132500Y0176050D02*
X0132500Y0173050D01*
X0132500Y0170050D01*
X0132500Y0186300D02*
X0132500Y0189300D01*
X0132500Y0192300D01*
X0134500Y0192300D02*
X0134500Y0189300D01*
X0134500Y0186300D01*
X0188500Y0051800D02*
X0188580Y0051850D01*
X0188662Y0051898D01*
X0188745Y0051941D01*
X0188830Y0051982D01*
X0188917Y0052018D01*
X0189006Y0052052D01*
X0189095Y0052081D01*
X0189186Y0052106D01*
X0189278Y0052128D01*
X0189371Y0052146D01*
X0189464Y0052160D01*
X0189558Y0052170D01*
X0189652Y0052176D01*
X0189746Y0052178D01*
X0189841Y0052176D01*
X0189935Y0052170D01*
X0190029Y0052161D01*
X0190122Y0052147D01*
X0190215Y0052130D01*
X0190307Y0052108D01*
X0190398Y0052083D01*
X0190488Y0052054D01*
X0190576Y0052021D01*
X0190663Y0051985D01*
X0190749Y0051945D01*
X0190832Y0051901D01*
X0190914Y0051854D01*
X0190994Y0051804D01*
X0191071Y0051750D01*
X0191147Y0051693D01*
X0191219Y0051633D01*
X0191290Y0051570D01*
X0191357Y0051504D01*
X0191422Y0051435D01*
X0191484Y0051364D01*
X0191542Y0051290D01*
X0191598Y0051214D01*
X0191650Y0051135D01*
X0191699Y0051055D01*
X0191745Y0050972D01*
X0191787Y0050887D01*
X0191826Y0050801D01*
X0191860Y0050714D01*
X0191892Y0050625D01*
X0191919Y0050534D01*
X0191943Y0050443D01*
X0191962Y0050351D01*
X0191978Y0050258D01*
X0191990Y0050164D01*
X0191998Y0050070D01*
X0192002Y0049976D01*
X0192003Y0049881D01*
X0191999Y0049787D01*
X0191991Y0049693D01*
X0191979Y0049599D01*
X0191964Y0049506D01*
X0191944Y0049414D01*
X0191921Y0049323D01*
X0191894Y0049232D01*
X0191863Y0049143D01*
X0191828Y0049055D01*
X0191790Y0048969D01*
X0191748Y0048884D01*
X0191703Y0048802D01*
X0191654Y0048721D01*
X0191602Y0048642D01*
X0191547Y0048566D01*
X0191488Y0048492D01*
X0191427Y0048420D01*
X0191362Y0048351D01*
X0191295Y0048285D01*
X0191225Y0048222D01*
X0191152Y0048162D01*
X0191077Y0048104D01*
X0191000Y0048050D01*
X0184750Y0045550D02*
X0183500Y0045550D01*
X0182250Y0041800D02*
X0179750Y0041800D01*
X0169476Y0041800D02*
X0169479Y0042083D01*
X0169490Y0042365D01*
X0169507Y0042648D01*
X0169531Y0042930D01*
X0169563Y0043211D01*
X0169601Y0043491D01*
X0169646Y0043770D01*
X0169697Y0044048D01*
X0169756Y0044325D01*
X0169821Y0044600D01*
X0169893Y0044874D01*
X0169972Y0045145D01*
X0170058Y0045415D01*
X0170150Y0045682D01*
X0170248Y0045947D01*
X0170353Y0046210D01*
X0170465Y0046470D01*
X0170582Y0046727D01*
X0170706Y0046981D01*
X0170837Y0047232D01*
X0170973Y0047480D01*
X0171116Y0047725D01*
X0171264Y0047965D01*
X0171418Y0048202D01*
X0171578Y0048436D01*
X0171744Y0048665D01*
X0171915Y0048890D01*
X0172092Y0049111D01*
X0172274Y0049327D01*
X0172461Y0049539D01*
X0172654Y0049746D01*
X0172851Y0049949D01*
X0173054Y0050146D01*
X0173261Y0050339D01*
X0173473Y0050526D01*
X0173689Y0050708D01*
X0173910Y0050885D01*
X0174135Y0051056D01*
X0174364Y0051222D01*
X0174598Y0051382D01*
X0174835Y0051536D01*
X0175075Y0051684D01*
X0175320Y0051827D01*
X0175568Y0051963D01*
X0175819Y0052094D01*
X0176073Y0052218D01*
X0176330Y0052335D01*
X0176590Y0052447D01*
X0176853Y0052552D01*
X0177118Y0052650D01*
X0177385Y0052742D01*
X0177655Y0052828D01*
X0177926Y0052907D01*
X0178200Y0052979D01*
X0178475Y0053044D01*
X0178752Y0053103D01*
X0179030Y0053154D01*
X0179309Y0053199D01*
X0179589Y0053237D01*
X0179870Y0053269D01*
X0180152Y0053293D01*
X0180435Y0053310D01*
X0180717Y0053321D01*
X0181000Y0053324D01*
X0181283Y0053321D01*
X0181565Y0053310D01*
X0181848Y0053293D01*
X0182130Y0053269D01*
X0182411Y0053237D01*
X0182691Y0053199D01*
X0182970Y0053154D01*
X0183248Y0053103D01*
X0183525Y0053044D01*
X0183800Y0052979D01*
X0184074Y0052907D01*
X0184345Y0052828D01*
X0184615Y0052742D01*
X0184882Y0052650D01*
X0185147Y0052552D01*
X0185410Y0052447D01*
X0185670Y0052335D01*
X0185927Y0052218D01*
X0186181Y0052094D01*
X0186432Y0051963D01*
X0186680Y0051827D01*
X0186925Y0051684D01*
X0187165Y0051536D01*
X0187402Y0051382D01*
X0187636Y0051222D01*
X0187865Y0051056D01*
X0188090Y0050885D01*
X0188311Y0050708D01*
X0188527Y0050526D01*
X0188739Y0050339D01*
X0188946Y0050146D01*
X0189149Y0049949D01*
X0189346Y0049746D01*
X0189539Y0049539D01*
X0189726Y0049327D01*
X0189908Y0049111D01*
X0190085Y0048890D01*
X0190256Y0048665D01*
X0190422Y0048436D01*
X0190582Y0048202D01*
X0190736Y0047965D01*
X0190884Y0047725D01*
X0191027Y0047480D01*
X0191163Y0047232D01*
X0191294Y0046981D01*
X0191418Y0046727D01*
X0191535Y0046470D01*
X0191647Y0046210D01*
X0191752Y0045947D01*
X0191850Y0045682D01*
X0191942Y0045415D01*
X0192028Y0045145D01*
X0192107Y0044874D01*
X0192179Y0044600D01*
X0192244Y0044325D01*
X0192303Y0044048D01*
X0192354Y0043770D01*
X0192399Y0043491D01*
X0192437Y0043211D01*
X0192469Y0042930D01*
X0192493Y0042648D01*
X0192510Y0042365D01*
X0192521Y0042083D01*
X0192524Y0041800D01*
X0192521Y0041517D01*
X0192510Y0041235D01*
X0192493Y0040952D01*
X0192469Y0040670D01*
X0192437Y0040389D01*
X0192399Y0040109D01*
X0192354Y0039830D01*
X0192303Y0039552D01*
X0192244Y0039275D01*
X0192179Y0039000D01*
X0192107Y0038726D01*
X0192028Y0038455D01*
X0191942Y0038185D01*
X0191850Y0037918D01*
X0191752Y0037653D01*
X0191647Y0037390D01*
X0191535Y0037130D01*
X0191418Y0036873D01*
X0191294Y0036619D01*
X0191163Y0036368D01*
X0191027Y0036120D01*
X0190884Y0035875D01*
X0190736Y0035635D01*
X0190582Y0035398D01*
X0190422Y0035164D01*
X0190256Y0034935D01*
X0190085Y0034710D01*
X0189908Y0034489D01*
X0189726Y0034273D01*
X0189539Y0034061D01*
X0189346Y0033854D01*
X0189149Y0033651D01*
X0188946Y0033454D01*
X0188739Y0033261D01*
X0188527Y0033074D01*
X0188311Y0032892D01*
X0188090Y0032715D01*
X0187865Y0032544D01*
X0187636Y0032378D01*
X0187402Y0032218D01*
X0187165Y0032064D01*
X0186925Y0031916D01*
X0186680Y0031773D01*
X0186432Y0031637D01*
X0186181Y0031506D01*
X0185927Y0031382D01*
X0185670Y0031265D01*
X0185410Y0031153D01*
X0185147Y0031048D01*
X0184882Y0030950D01*
X0184615Y0030858D01*
X0184345Y0030772D01*
X0184074Y0030693D01*
X0183800Y0030621D01*
X0183525Y0030556D01*
X0183248Y0030497D01*
X0182970Y0030446D01*
X0182691Y0030401D01*
X0182411Y0030363D01*
X0182130Y0030331D01*
X0181848Y0030307D01*
X0181565Y0030290D01*
X0181283Y0030279D01*
X0181000Y0030276D01*
X0180717Y0030279D01*
X0180435Y0030290D01*
X0180152Y0030307D01*
X0179870Y0030331D01*
X0179589Y0030363D01*
X0179309Y0030401D01*
X0179030Y0030446D01*
X0178752Y0030497D01*
X0178475Y0030556D01*
X0178200Y0030621D01*
X0177926Y0030693D01*
X0177655Y0030772D01*
X0177385Y0030858D01*
X0177118Y0030950D01*
X0176853Y0031048D01*
X0176590Y0031153D01*
X0176330Y0031265D01*
X0176073Y0031382D01*
X0175819Y0031506D01*
X0175568Y0031637D01*
X0175320Y0031773D01*
X0175075Y0031916D01*
X0174835Y0032064D01*
X0174598Y0032218D01*
X0174364Y0032378D01*
X0174135Y0032544D01*
X0173910Y0032715D01*
X0173689Y0032892D01*
X0173473Y0033074D01*
X0173261Y0033261D01*
X0173054Y0033454D01*
X0172851Y0033651D01*
X0172654Y0033854D01*
X0172461Y0034061D01*
X0172274Y0034273D01*
X0172092Y0034489D01*
X0171915Y0034710D01*
X0171744Y0034935D01*
X0171578Y0035164D01*
X0171418Y0035398D01*
X0171264Y0035635D01*
X0171116Y0035875D01*
X0170973Y0036120D01*
X0170837Y0036368D01*
X0170706Y0036619D01*
X0170582Y0036873D01*
X0170465Y0037130D01*
X0170353Y0037390D01*
X0170248Y0037653D01*
X0170150Y0037918D01*
X0170058Y0038185D01*
X0169972Y0038455D01*
X0169893Y0038726D01*
X0169821Y0039000D01*
X0169756Y0039275D01*
X0169697Y0039552D01*
X0169646Y0039830D01*
X0169601Y0040109D01*
X0169563Y0040389D01*
X0169531Y0040670D01*
X0169507Y0040952D01*
X0169490Y0041235D01*
X0169479Y0041517D01*
X0169476Y0041800D01*
X0169750Y0046800D02*
X0169673Y0046854D01*
X0169598Y0046912D01*
X0169525Y0046972D01*
X0169455Y0047035D01*
X0169388Y0047101D01*
X0169323Y0047170D01*
X0169262Y0047242D01*
X0169203Y0047316D01*
X0169148Y0047392D01*
X0169096Y0047471D01*
X0169047Y0047552D01*
X0169002Y0047634D01*
X0168960Y0047719D01*
X0168922Y0047805D01*
X0168887Y0047893D01*
X0168856Y0047982D01*
X0168829Y0048073D01*
X0168806Y0048164D01*
X0168786Y0048256D01*
X0168771Y0048349D01*
X0168759Y0048443D01*
X0168751Y0048537D01*
X0168747Y0048631D01*
X0168748Y0048726D01*
X0168752Y0048820D01*
X0168760Y0048914D01*
X0168772Y0049008D01*
X0168788Y0049101D01*
X0168807Y0049193D01*
X0168831Y0049284D01*
X0168858Y0049375D01*
X0168890Y0049464D01*
X0168924Y0049551D01*
X0168963Y0049637D01*
X0169005Y0049722D01*
X0169051Y0049805D01*
X0169100Y0049885D01*
X0169152Y0049964D01*
X0169208Y0050040D01*
X0169266Y0050114D01*
X0169328Y0050185D01*
X0169393Y0050254D01*
X0169460Y0050320D01*
X0169531Y0050383D01*
X0169603Y0050443D01*
X0169679Y0050500D01*
X0169756Y0050554D01*
X0169836Y0050604D01*
X0169918Y0050651D01*
X0170001Y0050695D01*
X0170087Y0050735D01*
X0170174Y0050771D01*
X0170262Y0050804D01*
X0170352Y0050833D01*
X0170443Y0050858D01*
X0170535Y0050880D01*
X0170628Y0050897D01*
X0170721Y0050911D01*
X0170815Y0050920D01*
X0170909Y0050926D01*
X0171004Y0050928D01*
X0171098Y0050926D01*
X0171192Y0050920D01*
X0171286Y0050910D01*
X0171379Y0050896D01*
X0171472Y0050878D01*
X0171564Y0050856D01*
X0171655Y0050831D01*
X0171744Y0050802D01*
X0171833Y0050768D01*
X0171920Y0050732D01*
X0172005Y0050691D01*
X0172088Y0050648D01*
X0172170Y0050600D01*
X0172250Y0050550D01*
X0177250Y0045550D02*
X0178500Y0045550D01*
X0179750Y0041800D02*
X0179684Y0041831D01*
X0179616Y0041859D01*
X0179547Y0041883D01*
X0179477Y0041903D01*
X0179405Y0041920D01*
X0179333Y0041932D01*
X0179261Y0041941D01*
X0179188Y0041947D01*
X0179114Y0041948D01*
X0179041Y0041945D01*
X0178968Y0041939D01*
X0178896Y0041929D01*
X0178824Y0041915D01*
X0178753Y0041898D01*
X0178683Y0041876D01*
X0178614Y0041851D01*
X0178547Y0041823D01*
X0178481Y0041791D01*
X0178417Y0041755D01*
X0178355Y0041717D01*
X0178295Y0041675D01*
X0178237Y0041630D01*
X0178182Y0041582D01*
X0178129Y0041531D01*
X0178079Y0041478D01*
X0178032Y0041422D01*
X0177988Y0041363D01*
X0177947Y0041302D01*
X0177909Y0041240D01*
X0177875Y0041175D01*
X0177844Y0041109D01*
X0177816Y0041041D01*
X0177792Y0040972D01*
X0177772Y0040902D01*
X0177755Y0040830D01*
X0177743Y0040758D01*
X0177734Y0040686D01*
X0177728Y0040613D01*
X0177727Y0040539D01*
X0177730Y0040466D01*
X0177736Y0040393D01*
X0177746Y0040321D01*
X0177760Y0040249D01*
X0177777Y0040178D01*
X0177799Y0040108D01*
X0177824Y0040039D01*
X0177852Y0039972D01*
X0177884Y0039906D01*
X0177920Y0039842D01*
X0177958Y0039780D01*
X0178000Y0039720D01*
X0178045Y0039662D01*
X0178093Y0039607D01*
X0178144Y0039554D01*
X0178197Y0039504D01*
X0178253Y0039457D01*
X0178312Y0039413D01*
X0178373Y0039372D01*
X0178435Y0039334D01*
X0178500Y0039300D01*
X0181000Y0039300D01*
X0181000Y0040550D02*
X0179750Y0040550D01*
X0181000Y0039300D02*
X0181066Y0039269D01*
X0181134Y0039241D01*
X0181203Y0039217D01*
X0181273Y0039197D01*
X0181345Y0039180D01*
X0181417Y0039168D01*
X0181489Y0039159D01*
X0181562Y0039153D01*
X0181636Y0039152D01*
X0181709Y0039155D01*
X0181782Y0039161D01*
X0181854Y0039171D01*
X0181926Y0039185D01*
X0181997Y0039202D01*
X0182067Y0039224D01*
X0182136Y0039249D01*
X0182203Y0039277D01*
X0182269Y0039309D01*
X0182333Y0039345D01*
X0182395Y0039383D01*
X0182455Y0039425D01*
X0182513Y0039470D01*
X0182568Y0039518D01*
X0182621Y0039569D01*
X0182671Y0039622D01*
X0182718Y0039678D01*
X0182762Y0039737D01*
X0182803Y0039798D01*
X0182841Y0039860D01*
X0182875Y0039925D01*
X0182906Y0039991D01*
X0182934Y0040059D01*
X0182958Y0040128D01*
X0182978Y0040198D01*
X0182995Y0040270D01*
X0183007Y0040342D01*
X0183016Y0040414D01*
X0183022Y0040487D01*
X0183023Y0040561D01*
X0183020Y0040634D01*
X0183014Y0040707D01*
X0183004Y0040779D01*
X0182990Y0040851D01*
X0182973Y0040922D01*
X0182951Y0040992D01*
X0182926Y0041061D01*
X0182898Y0041128D01*
X0182866Y0041194D01*
X0182830Y0041258D01*
X0182792Y0041320D01*
X0182750Y0041380D01*
X0182705Y0041438D01*
X0182657Y0041493D01*
X0182606Y0041546D01*
X0182553Y0041596D01*
X0182497Y0041643D01*
X0182438Y0041687D01*
X0182377Y0041728D01*
X0182315Y0041766D01*
X0182250Y0041800D01*
X0186000Y0035550D02*
X0176000Y0035550D01*
X0108500Y0022300D02*
X0108308Y0022298D01*
X0108116Y0022291D01*
X0107924Y0022279D01*
X0107732Y0022263D01*
X0107541Y0022242D01*
X0107351Y0022217D01*
X0107161Y0022187D01*
X0106972Y0022153D01*
X0106784Y0022114D01*
X0106597Y0022070D01*
X0106411Y0022022D01*
X0106226Y0021970D01*
X0106042Y0021913D01*
X0105860Y0021852D01*
X0105680Y0021786D01*
X0105501Y0021716D01*
X0105323Y0021642D01*
X0105148Y0021564D01*
X0104974Y0021481D01*
X0104803Y0021394D01*
X0104634Y0021304D01*
X0104467Y0021209D01*
X0104302Y0021110D01*
X0104139Y0021007D01*
X0103980Y0020900D01*
X0103822Y0020790D01*
X0103668Y0020676D01*
X0103516Y0020558D01*
X0103367Y0020436D01*
X0103221Y0020311D01*
X0103079Y0020183D01*
X0102939Y0020051D01*
X0102802Y0019916D01*
X0102669Y0019777D01*
X0102539Y0019636D01*
X0102413Y0019491D01*
X0102290Y0019343D01*
X0102171Y0019193D01*
X0102055Y0019039D01*
X0101943Y0018883D01*
X0101835Y0018724D01*
X0101730Y0018563D01*
X0101630Y0018399D01*
X0101534Y0018233D01*
X0101441Y0018065D01*
X0101554Y0010331D02*
X0101653Y0010162D01*
X0101757Y0009996D01*
X0101864Y0009832D01*
X0101975Y0009671D01*
X0102090Y0009513D01*
X0102209Y0009358D01*
X0102332Y0009205D01*
X0102458Y0009056D01*
X0102588Y0008910D01*
X0102722Y0008767D01*
X0102859Y0008627D01*
X0102999Y0008491D01*
X0103143Y0008358D01*
X0103290Y0008229D01*
X0103440Y0008103D01*
X0103593Y0007982D01*
X0103749Y0007863D01*
X0103908Y0007749D01*
X0104069Y0007639D01*
X0104234Y0007533D01*
X0104400Y0007430D01*
X0104570Y0007332D01*
X0104741Y0007238D01*
X0104915Y0007148D01*
X0105091Y0007063D01*
X0105269Y0006981D01*
X0105449Y0006905D01*
X0105631Y0006832D01*
X0105814Y0006764D01*
X0105999Y0006701D01*
X0106186Y0006642D01*
X0106374Y0006588D01*
X0106563Y0006538D01*
X0106753Y0006493D01*
X0106945Y0006453D01*
X0107137Y0006417D01*
X0107330Y0006386D01*
X0107524Y0006360D01*
X0107719Y0006338D01*
X0107914Y0006322D01*
X0108109Y0006310D01*
X0108305Y0006302D01*
X0108500Y0006300D01*
X0108693Y0006302D01*
X0108886Y0006309D01*
X0109078Y0006321D01*
X0109271Y0006337D01*
X0109463Y0006358D01*
X0109654Y0006384D01*
X0109844Y0006414D01*
X0110034Y0006449D01*
X0110223Y0006488D01*
X0110411Y0006532D01*
X0110598Y0006580D01*
X0110784Y0006633D01*
X0110968Y0006690D01*
X0111151Y0006752D01*
X0111332Y0006818D01*
X0111512Y0006889D01*
X0111690Y0006963D01*
X0111866Y0007042D01*
X0112040Y0007126D01*
X0112212Y0007213D01*
X0112382Y0007305D01*
X0112549Y0007401D01*
X0112715Y0007500D01*
X0112878Y0007604D01*
X0113038Y0007711D01*
X0113195Y0007823D01*
X0113350Y0007938D01*
X0113502Y0008057D01*
X0113651Y0008179D01*
X0113798Y0008305D01*
X0113941Y0008435D01*
X0114081Y0008568D01*
X0114217Y0008704D01*
X0114351Y0008844D01*
X0114480Y0008986D01*
X0114607Y0009132D01*
X0114646Y0019422D02*
X0114519Y0019570D01*
X0114389Y0019715D01*
X0114256Y0019856D01*
X0114119Y0019995D01*
X0113979Y0020130D01*
X0113835Y0020261D01*
X0113688Y0020389D01*
X0113539Y0020514D01*
X0113386Y0020635D01*
X0113231Y0020752D01*
X0113072Y0020865D01*
X0112911Y0020974D01*
X0112747Y0021079D01*
X0112581Y0021181D01*
X0112412Y0021278D01*
X0112242Y0021371D01*
X0112068Y0021460D01*
X0111893Y0021545D01*
X0111716Y0021625D01*
X0111537Y0021701D01*
X0111356Y0021773D01*
X0111173Y0021840D01*
X0110989Y0021903D01*
X0110803Y0021961D01*
X0110616Y0022015D01*
X0110428Y0022064D01*
X0110238Y0022109D01*
X0110048Y0022149D01*
X0109856Y0022184D01*
X0109664Y0022215D01*
X0109471Y0022241D01*
X0109277Y0022262D01*
X0109083Y0022279D01*
X0108889Y0022291D01*
X0108695Y0022298D01*
X0108500Y0022300D01*
X0069000Y0035800D02*
X0066000Y0035800D01*
X0063000Y0035800D01*
X0063000Y0037800D02*
X0066000Y0037800D01*
X0069000Y0037800D01*
D14*
X0066000Y0037800D02*
X0066000Y0038300D01*
X0066000Y0035800D02*
X0066000Y0035300D01*
X0061000Y0028300D02*
X0061002Y0028240D01*
X0061007Y0028179D01*
X0061016Y0028120D01*
X0061029Y0028061D01*
X0061045Y0028002D01*
X0061065Y0027945D01*
X0061088Y0027890D01*
X0061115Y0027835D01*
X0061144Y0027783D01*
X0061177Y0027732D01*
X0061213Y0027683D01*
X0061251Y0027637D01*
X0061293Y0027593D01*
X0061337Y0027551D01*
X0061383Y0027513D01*
X0061432Y0027477D01*
X0061483Y0027444D01*
X0061535Y0027415D01*
X0061590Y0027388D01*
X0061645Y0027365D01*
X0061702Y0027345D01*
X0061761Y0027329D01*
X0061820Y0027316D01*
X0061879Y0027307D01*
X0061940Y0027302D01*
X0062000Y0027300D01*
X0070000Y0027300D01*
X0070060Y0027302D01*
X0070121Y0027307D01*
X0070180Y0027316D01*
X0070239Y0027329D01*
X0070298Y0027345D01*
X0070355Y0027365D01*
X0070410Y0027388D01*
X0070465Y0027415D01*
X0070517Y0027444D01*
X0070568Y0027477D01*
X0070617Y0027513D01*
X0070663Y0027551D01*
X0070707Y0027593D01*
X0070749Y0027637D01*
X0070787Y0027683D01*
X0070823Y0027732D01*
X0070856Y0027783D01*
X0070885Y0027835D01*
X0070912Y0027890D01*
X0070935Y0027945D01*
X0070955Y0028002D01*
X0070971Y0028061D01*
X0070984Y0028120D01*
X0070993Y0028179D01*
X0070998Y0028240D01*
X0071000Y0028300D01*
X0071000Y0045300D01*
X0070998Y0045360D01*
X0070993Y0045421D01*
X0070984Y0045480D01*
X0070971Y0045539D01*
X0070955Y0045598D01*
X0070935Y0045655D01*
X0070912Y0045710D01*
X0070885Y0045765D01*
X0070856Y0045817D01*
X0070823Y0045868D01*
X0070787Y0045917D01*
X0070749Y0045963D01*
X0070707Y0046007D01*
X0070663Y0046049D01*
X0070617Y0046087D01*
X0070568Y0046123D01*
X0070517Y0046156D01*
X0070465Y0046185D01*
X0070410Y0046212D01*
X0070355Y0046235D01*
X0070298Y0046255D01*
X0070239Y0046271D01*
X0070180Y0046284D01*
X0070121Y0046293D01*
X0070060Y0046298D01*
X0070000Y0046300D01*
X0062000Y0046300D01*
X0061940Y0046298D01*
X0061879Y0046293D01*
X0061820Y0046284D01*
X0061761Y0046271D01*
X0061702Y0046255D01*
X0061645Y0046235D01*
X0061590Y0046212D01*
X0061535Y0046185D01*
X0061483Y0046156D01*
X0061432Y0046123D01*
X0061383Y0046087D01*
X0061337Y0046049D01*
X0061293Y0046007D01*
X0061251Y0045963D01*
X0061213Y0045917D01*
X0061177Y0045868D01*
X0061144Y0045817D01*
X0061115Y0045765D01*
X0061088Y0045710D01*
X0061065Y0045655D01*
X0061045Y0045598D01*
X0061029Y0045539D01*
X0061016Y0045480D01*
X0061007Y0045421D01*
X0061002Y0045360D01*
X0061000Y0045300D01*
X0061000Y0028300D01*
X0048000Y0041550D02*
X0048000Y0043050D01*
X0047500Y0043550D01*
X0047500Y0062550D01*
X0048000Y0063050D01*
X0048000Y0064550D01*
X0047998Y0064610D01*
X0047993Y0064671D01*
X0047984Y0064730D01*
X0047971Y0064789D01*
X0047955Y0064848D01*
X0047935Y0064905D01*
X0047912Y0064960D01*
X0047885Y0065015D01*
X0047856Y0065067D01*
X0047823Y0065118D01*
X0047787Y0065167D01*
X0047749Y0065213D01*
X0047707Y0065257D01*
X0047663Y0065299D01*
X0047617Y0065337D01*
X0047568Y0065373D01*
X0047517Y0065406D01*
X0047465Y0065435D01*
X0047410Y0065462D01*
X0047355Y0065485D01*
X0047298Y0065505D01*
X0047239Y0065521D01*
X0047180Y0065534D01*
X0047121Y0065543D01*
X0047060Y0065548D01*
X0047000Y0065550D01*
X0040000Y0065550D01*
X0039940Y0065548D01*
X0039879Y0065543D01*
X0039820Y0065534D01*
X0039761Y0065521D01*
X0039702Y0065505D01*
X0039645Y0065485D01*
X0039590Y0065462D01*
X0039535Y0065435D01*
X0039483Y0065406D01*
X0039432Y0065373D01*
X0039383Y0065337D01*
X0039337Y0065299D01*
X0039293Y0065257D01*
X0039251Y0065213D01*
X0039213Y0065167D01*
X0039177Y0065118D01*
X0039144Y0065067D01*
X0039115Y0065015D01*
X0039088Y0064960D01*
X0039065Y0064905D01*
X0039045Y0064848D01*
X0039029Y0064789D01*
X0039016Y0064730D01*
X0039007Y0064671D01*
X0039002Y0064610D01*
X0039000Y0064550D01*
X0039000Y0063050D01*
X0039500Y0062550D01*
X0039500Y0043550D01*
X0039000Y0043050D01*
X0039000Y0041550D01*
X0039002Y0041490D01*
X0039007Y0041429D01*
X0039016Y0041370D01*
X0039029Y0041311D01*
X0039045Y0041252D01*
X0039065Y0041195D01*
X0039088Y0041140D01*
X0039115Y0041085D01*
X0039144Y0041033D01*
X0039177Y0040982D01*
X0039213Y0040933D01*
X0039251Y0040887D01*
X0039293Y0040843D01*
X0039337Y0040801D01*
X0039383Y0040763D01*
X0039432Y0040727D01*
X0039483Y0040694D01*
X0039535Y0040665D01*
X0039590Y0040638D01*
X0039645Y0040615D01*
X0039702Y0040595D01*
X0039761Y0040579D01*
X0039820Y0040566D01*
X0039879Y0040557D01*
X0039940Y0040552D01*
X0040000Y0040550D01*
X0047000Y0040550D01*
X0047060Y0040552D01*
X0047121Y0040557D01*
X0047180Y0040566D01*
X0047239Y0040579D01*
X0047298Y0040595D01*
X0047355Y0040615D01*
X0047410Y0040638D01*
X0047465Y0040665D01*
X0047517Y0040694D01*
X0047568Y0040727D01*
X0047617Y0040763D01*
X0047663Y0040801D01*
X0047707Y0040843D01*
X0047749Y0040887D01*
X0047787Y0040933D01*
X0047823Y0040982D01*
X0047856Y0041033D01*
X0047885Y0041085D01*
X0047912Y0041140D01*
X0047935Y0041195D01*
X0047955Y0041252D01*
X0047971Y0041311D01*
X0047984Y0041370D01*
X0047993Y0041429D01*
X0047998Y0041490D01*
X0048000Y0041550D01*
X0033000Y0041550D02*
X0033000Y0043050D01*
X0032500Y0043550D01*
X0032500Y0062550D01*
X0033000Y0063050D01*
X0033000Y0064550D01*
X0032998Y0064610D01*
X0032993Y0064671D01*
X0032984Y0064730D01*
X0032971Y0064789D01*
X0032955Y0064848D01*
X0032935Y0064905D01*
X0032912Y0064960D01*
X0032885Y0065015D01*
X0032856Y0065067D01*
X0032823Y0065118D01*
X0032787Y0065167D01*
X0032749Y0065213D01*
X0032707Y0065257D01*
X0032663Y0065299D01*
X0032617Y0065337D01*
X0032568Y0065373D01*
X0032517Y0065406D01*
X0032465Y0065435D01*
X0032410Y0065462D01*
X0032355Y0065485D01*
X0032298Y0065505D01*
X0032239Y0065521D01*
X0032180Y0065534D01*
X0032121Y0065543D01*
X0032060Y0065548D01*
X0032000Y0065550D01*
X0025000Y0065550D01*
X0024940Y0065548D01*
X0024879Y0065543D01*
X0024820Y0065534D01*
X0024761Y0065521D01*
X0024702Y0065505D01*
X0024645Y0065485D01*
X0024590Y0065462D01*
X0024535Y0065435D01*
X0024483Y0065406D01*
X0024432Y0065373D01*
X0024383Y0065337D01*
X0024337Y0065299D01*
X0024293Y0065257D01*
X0024251Y0065213D01*
X0024213Y0065167D01*
X0024177Y0065118D01*
X0024144Y0065067D01*
X0024115Y0065015D01*
X0024088Y0064960D01*
X0024065Y0064905D01*
X0024045Y0064848D01*
X0024029Y0064789D01*
X0024016Y0064730D01*
X0024007Y0064671D01*
X0024002Y0064610D01*
X0024000Y0064550D01*
X0024000Y0063050D01*
X0024500Y0062550D01*
X0024500Y0043550D01*
X0024000Y0043050D01*
X0024000Y0041550D01*
X0024002Y0041490D01*
X0024007Y0041429D01*
X0024016Y0041370D01*
X0024029Y0041311D01*
X0024045Y0041252D01*
X0024065Y0041195D01*
X0024088Y0041140D01*
X0024115Y0041085D01*
X0024144Y0041033D01*
X0024177Y0040982D01*
X0024213Y0040933D01*
X0024251Y0040887D01*
X0024293Y0040843D01*
X0024337Y0040801D01*
X0024383Y0040763D01*
X0024432Y0040727D01*
X0024483Y0040694D01*
X0024535Y0040665D01*
X0024590Y0040638D01*
X0024645Y0040615D01*
X0024702Y0040595D01*
X0024761Y0040579D01*
X0024820Y0040566D01*
X0024879Y0040557D01*
X0024940Y0040552D01*
X0025000Y0040550D01*
X0032000Y0040550D01*
X0032060Y0040552D01*
X0032121Y0040557D01*
X0032180Y0040566D01*
X0032239Y0040579D01*
X0032298Y0040595D01*
X0032355Y0040615D01*
X0032410Y0040638D01*
X0032465Y0040665D01*
X0032517Y0040694D01*
X0032568Y0040727D01*
X0032617Y0040763D01*
X0032663Y0040801D01*
X0032707Y0040843D01*
X0032749Y0040887D01*
X0032787Y0040933D01*
X0032823Y0040982D01*
X0032856Y0041033D01*
X0032885Y0041085D01*
X0032912Y0041140D01*
X0032935Y0041195D01*
X0032955Y0041252D01*
X0032971Y0041311D01*
X0032984Y0041370D01*
X0032993Y0041429D01*
X0032998Y0041490D01*
X0033000Y0041550D01*
X0091000Y0026800D02*
X0091000Y0166300D01*
X0091000Y0166800D02*
X0096000Y0166800D01*
X0096002Y0166660D01*
X0096008Y0166520D01*
X0096018Y0166380D01*
X0096031Y0166240D01*
X0096049Y0166101D01*
X0096071Y0165962D01*
X0096096Y0165825D01*
X0096125Y0165687D01*
X0096158Y0165551D01*
X0096195Y0165416D01*
X0096236Y0165282D01*
X0096281Y0165149D01*
X0096329Y0165017D01*
X0096381Y0164887D01*
X0096436Y0164758D01*
X0096495Y0164631D01*
X0096558Y0164505D01*
X0096624Y0164381D01*
X0096693Y0164260D01*
X0096766Y0164140D01*
X0096843Y0164022D01*
X0096922Y0163907D01*
X0097005Y0163793D01*
X0097091Y0163683D01*
X0097180Y0163574D01*
X0097272Y0163468D01*
X0097367Y0163365D01*
X0097464Y0163264D01*
X0097565Y0163167D01*
X0097668Y0163072D01*
X0097774Y0162980D01*
X0097883Y0162891D01*
X0097993Y0162805D01*
X0098107Y0162722D01*
X0098222Y0162643D01*
X0098340Y0162566D01*
X0098460Y0162493D01*
X0098581Y0162424D01*
X0098705Y0162358D01*
X0098831Y0162295D01*
X0098958Y0162236D01*
X0099087Y0162181D01*
X0099217Y0162129D01*
X0099349Y0162081D01*
X0099482Y0162036D01*
X0099616Y0161995D01*
X0099751Y0161958D01*
X0099887Y0161925D01*
X0100025Y0161896D01*
X0100162Y0161871D01*
X0100301Y0161849D01*
X0100440Y0161831D01*
X0100580Y0161818D01*
X0100720Y0161808D01*
X0100860Y0161802D01*
X0101000Y0161800D01*
X0101140Y0161802D01*
X0101280Y0161808D01*
X0101420Y0161818D01*
X0101560Y0161831D01*
X0101699Y0161849D01*
X0101838Y0161871D01*
X0101975Y0161896D01*
X0102113Y0161925D01*
X0102249Y0161958D01*
X0102384Y0161995D01*
X0102518Y0162036D01*
X0102651Y0162081D01*
X0102783Y0162129D01*
X0102913Y0162181D01*
X0103042Y0162236D01*
X0103169Y0162295D01*
X0103295Y0162358D01*
X0103419Y0162424D01*
X0103540Y0162493D01*
X0103660Y0162566D01*
X0103778Y0162643D01*
X0103893Y0162722D01*
X0104007Y0162805D01*
X0104117Y0162891D01*
X0104226Y0162980D01*
X0104332Y0163072D01*
X0104435Y0163167D01*
X0104536Y0163264D01*
X0104633Y0163365D01*
X0104728Y0163468D01*
X0104820Y0163574D01*
X0104909Y0163683D01*
X0104995Y0163793D01*
X0105078Y0163907D01*
X0105157Y0164022D01*
X0105234Y0164140D01*
X0105307Y0164260D01*
X0105376Y0164381D01*
X0105442Y0164505D01*
X0105505Y0164631D01*
X0105564Y0164758D01*
X0105619Y0164887D01*
X0105671Y0165017D01*
X0105719Y0165149D01*
X0105764Y0165282D01*
X0105805Y0165416D01*
X0105842Y0165551D01*
X0105875Y0165687D01*
X0105904Y0165825D01*
X0105929Y0165962D01*
X0105951Y0166101D01*
X0105969Y0166240D01*
X0105982Y0166380D01*
X0105992Y0166520D01*
X0105998Y0166660D01*
X0106000Y0166800D01*
X0111000Y0166800D01*
X0111000Y0026800D01*
X0091000Y0026800D01*
X0108500Y0020300D02*
X0108654Y0020298D01*
X0108808Y0020292D01*
X0108962Y0020282D01*
X0109116Y0020268D01*
X0109269Y0020251D01*
X0109421Y0020229D01*
X0109573Y0020203D01*
X0109725Y0020174D01*
X0109875Y0020140D01*
X0110025Y0020103D01*
X0110173Y0020062D01*
X0110321Y0020017D01*
X0110467Y0019968D01*
X0110612Y0019916D01*
X0110755Y0019860D01*
X0110898Y0019800D01*
X0111038Y0019737D01*
X0111177Y0019670D01*
X0111314Y0019599D01*
X0111449Y0019525D01*
X0111582Y0019448D01*
X0111714Y0019367D01*
X0111843Y0019283D01*
X0111970Y0019195D01*
X0112094Y0019104D01*
X0112216Y0019011D01*
X0112336Y0018913D01*
X0112453Y0018813D01*
X0112568Y0018710D01*
X0112680Y0018604D01*
X0112789Y0018496D01*
X0112895Y0018384D01*
X0112999Y0018270D01*
X0113099Y0018153D01*
X0113197Y0018034D01*
X0113291Y0017912D01*
X0113382Y0017787D01*
X0108500Y0008300D02*
X0108348Y0008302D01*
X0108197Y0008308D01*
X0108046Y0008317D01*
X0107894Y0008331D01*
X0107744Y0008348D01*
X0107594Y0008369D01*
X0107444Y0008394D01*
X0107295Y0008422D01*
X0107147Y0008455D01*
X0107000Y0008491D01*
X0106853Y0008530D01*
X0106708Y0008574D01*
X0106564Y0008621D01*
X0106421Y0008672D01*
X0106280Y0008726D01*
X0106139Y0008784D01*
X0106001Y0008845D01*
X0105864Y0008910D01*
X0105728Y0008979D01*
X0105595Y0009050D01*
X0105463Y0009125D01*
X0105333Y0009204D01*
X0105206Y0009285D01*
X0105080Y0009370D01*
X0104956Y0009458D01*
X0104835Y0009549D01*
X0104716Y0009643D01*
X0104600Y0009741D01*
X0104486Y0009841D01*
X0104374Y0009943D01*
X0104266Y0010049D01*
X0104160Y0010157D01*
X0104056Y0010268D01*
X0103956Y0010382D01*
X0103858Y0010498D01*
X0103764Y0010617D01*
X0108500Y0008300D02*
X0108652Y0008302D01*
X0108803Y0008308D01*
X0108954Y0008317D01*
X0109106Y0008331D01*
X0109256Y0008348D01*
X0109406Y0008369D01*
X0109556Y0008394D01*
X0109705Y0008422D01*
X0109853Y0008455D01*
X0110000Y0008491D01*
X0110147Y0008530D01*
X0110292Y0008574D01*
X0110436Y0008621D01*
X0110579Y0008672D01*
X0110720Y0008726D01*
X0110861Y0008784D01*
X0110999Y0008845D01*
X0111136Y0008910D01*
X0111272Y0008979D01*
X0111405Y0009050D01*
X0111537Y0009125D01*
X0111667Y0009204D01*
X0111794Y0009285D01*
X0111920Y0009370D01*
X0112044Y0009458D01*
X0112165Y0009549D01*
X0112284Y0009643D01*
X0112400Y0009741D01*
X0112514Y0009841D01*
X0112626Y0009943D01*
X0112734Y0010049D01*
X0112840Y0010157D01*
X0112944Y0010268D01*
X0113044Y0010382D01*
X0113142Y0010498D01*
X0113236Y0010617D01*
X0108500Y0020300D02*
X0108350Y0020298D01*
X0108199Y0020292D01*
X0108049Y0020283D01*
X0107900Y0020270D01*
X0107750Y0020253D01*
X0107601Y0020232D01*
X0107453Y0020208D01*
X0107305Y0020180D01*
X0107158Y0020148D01*
X0107012Y0020113D01*
X0106867Y0020073D01*
X0106723Y0020031D01*
X0106580Y0019984D01*
X0106438Y0019934D01*
X0106297Y0019881D01*
X0106158Y0019824D01*
X0106020Y0019764D01*
X0105884Y0019700D01*
X0105750Y0019633D01*
X0105617Y0019562D01*
X0105486Y0019488D01*
X0105357Y0019411D01*
X0105230Y0019330D01*
X0105105Y0019247D01*
X0104982Y0019160D01*
X0104861Y0019071D01*
X0104743Y0018978D01*
X0104627Y0018882D01*
X0104513Y0018784D01*
X0104402Y0018683D01*
X0104293Y0018578D01*
X0104188Y0018472D01*
X0104084Y0018362D01*
X0103984Y0018250D01*
X0103886Y0018136D01*
X0103792Y0018019D01*
X0103700Y0017900D01*
X0148500Y0020300D02*
X0148500Y0013300D01*
X0148502Y0013240D01*
X0148507Y0013179D01*
X0148516Y0013120D01*
X0148529Y0013061D01*
X0148545Y0013002D01*
X0148565Y0012945D01*
X0148588Y0012890D01*
X0148615Y0012835D01*
X0148644Y0012783D01*
X0148677Y0012732D01*
X0148713Y0012683D01*
X0148751Y0012637D01*
X0148793Y0012593D01*
X0148837Y0012551D01*
X0148883Y0012513D01*
X0148932Y0012477D01*
X0148983Y0012444D01*
X0149035Y0012415D01*
X0149090Y0012388D01*
X0149145Y0012365D01*
X0149202Y0012345D01*
X0149261Y0012329D01*
X0149320Y0012316D01*
X0149379Y0012307D01*
X0149440Y0012302D01*
X0149500Y0012300D01*
X0151000Y0012300D01*
X0151500Y0012800D01*
X0170500Y0012800D01*
X0171000Y0012300D01*
X0172500Y0012300D01*
X0172560Y0012302D01*
X0172621Y0012307D01*
X0172680Y0012316D01*
X0172739Y0012329D01*
X0172798Y0012345D01*
X0172855Y0012365D01*
X0172910Y0012388D01*
X0172965Y0012415D01*
X0173017Y0012444D01*
X0173068Y0012477D01*
X0173117Y0012513D01*
X0173163Y0012551D01*
X0173207Y0012593D01*
X0173249Y0012637D01*
X0173287Y0012683D01*
X0173323Y0012732D01*
X0173356Y0012783D01*
X0173385Y0012835D01*
X0173412Y0012890D01*
X0173435Y0012945D01*
X0173455Y0013002D01*
X0173471Y0013061D01*
X0173484Y0013120D01*
X0173493Y0013179D01*
X0173498Y0013240D01*
X0173500Y0013300D01*
X0173500Y0020300D01*
X0173498Y0020360D01*
X0173493Y0020421D01*
X0173484Y0020480D01*
X0173471Y0020539D01*
X0173455Y0020598D01*
X0173435Y0020655D01*
X0173412Y0020710D01*
X0173385Y0020765D01*
X0173356Y0020817D01*
X0173323Y0020868D01*
X0173287Y0020917D01*
X0173249Y0020963D01*
X0173207Y0021007D01*
X0173163Y0021049D01*
X0173117Y0021087D01*
X0173068Y0021123D01*
X0173017Y0021156D01*
X0172965Y0021185D01*
X0172910Y0021212D01*
X0172855Y0021235D01*
X0172798Y0021255D01*
X0172739Y0021271D01*
X0172680Y0021284D01*
X0172621Y0021293D01*
X0172560Y0021298D01*
X0172500Y0021300D01*
X0171000Y0021300D01*
X0170500Y0020800D01*
X0151500Y0020800D01*
X0151000Y0021300D01*
X0149500Y0021300D01*
X0149440Y0021298D01*
X0149379Y0021293D01*
X0149320Y0021284D01*
X0149261Y0021271D01*
X0149202Y0021255D01*
X0149145Y0021235D01*
X0149090Y0021212D01*
X0149035Y0021185D01*
X0148983Y0021156D01*
X0148932Y0021123D01*
X0148883Y0021087D01*
X0148837Y0021049D01*
X0148793Y0021007D01*
X0148751Y0020963D01*
X0148713Y0020917D01*
X0148677Y0020868D01*
X0148644Y0020817D01*
X0148615Y0020765D01*
X0148588Y0020710D01*
X0148565Y0020655D01*
X0148545Y0020598D01*
X0148529Y0020539D01*
X0148516Y0020480D01*
X0148507Y0020421D01*
X0148502Y0020360D01*
X0148500Y0020300D01*
X0154000Y0072300D02*
X0129500Y0072300D01*
X0126500Y0075300D01*
X0126500Y0088300D01*
X0129500Y0091300D01*
X0154000Y0091300D01*
X0154076Y0091298D01*
X0154152Y0091292D01*
X0154227Y0091283D01*
X0154302Y0091269D01*
X0154376Y0091252D01*
X0154449Y0091231D01*
X0154521Y0091207D01*
X0154592Y0091178D01*
X0154661Y0091147D01*
X0154728Y0091112D01*
X0154793Y0091073D01*
X0154857Y0091031D01*
X0154918Y0090986D01*
X0154977Y0090938D01*
X0155033Y0090887D01*
X0155087Y0090833D01*
X0155138Y0090777D01*
X0155186Y0090718D01*
X0155231Y0090657D01*
X0155273Y0090593D01*
X0155312Y0090528D01*
X0155347Y0090461D01*
X0155378Y0090392D01*
X0155407Y0090321D01*
X0155431Y0090249D01*
X0155452Y0090176D01*
X0155469Y0090102D01*
X0155483Y0090027D01*
X0155492Y0089952D01*
X0155498Y0089876D01*
X0155500Y0089800D01*
X0155500Y0073800D01*
X0155498Y0073724D01*
X0155492Y0073648D01*
X0155483Y0073573D01*
X0155469Y0073498D01*
X0155452Y0073424D01*
X0155431Y0073351D01*
X0155407Y0073279D01*
X0155378Y0073208D01*
X0155347Y0073139D01*
X0155312Y0073072D01*
X0155273Y0073007D01*
X0155231Y0072943D01*
X0155186Y0072882D01*
X0155138Y0072823D01*
X0155087Y0072767D01*
X0155033Y0072713D01*
X0154977Y0072662D01*
X0154918Y0072614D01*
X0154857Y0072569D01*
X0154793Y0072527D01*
X0154728Y0072488D01*
X0154661Y0072453D01*
X0154592Y0072422D01*
X0154521Y0072393D01*
X0154449Y0072369D01*
X0154376Y0072348D01*
X0154302Y0072331D01*
X0154227Y0072317D01*
X0154152Y0072308D01*
X0154076Y0072302D01*
X0154000Y0072300D01*
X0147000Y0081800D02*
X0143500Y0081800D01*
X0140500Y0086600D02*
X0138500Y0086600D01*
X0138500Y0081800D01*
X0138500Y0077000D01*
X0140500Y0077000D01*
X0140500Y0086600D01*
X0138500Y0081800D02*
X0135000Y0081800D01*
X0134000Y0085900D02*
X0134000Y0088400D01*
X0135300Y0087200D02*
X0132700Y0087200D01*
X0130750Y0143550D02*
X0138750Y0143550D01*
X0138810Y0143552D01*
X0138871Y0143557D01*
X0138930Y0143566D01*
X0138989Y0143579D01*
X0139048Y0143595D01*
X0139105Y0143615D01*
X0139160Y0143638D01*
X0139215Y0143665D01*
X0139267Y0143694D01*
X0139318Y0143727D01*
X0139367Y0143763D01*
X0139413Y0143801D01*
X0139457Y0143843D01*
X0139499Y0143887D01*
X0139537Y0143933D01*
X0139573Y0143982D01*
X0139606Y0144033D01*
X0139635Y0144085D01*
X0139662Y0144140D01*
X0139685Y0144195D01*
X0139705Y0144252D01*
X0139721Y0144311D01*
X0139734Y0144370D01*
X0139743Y0144429D01*
X0139748Y0144490D01*
X0139750Y0144550D01*
X0139750Y0161550D01*
X0139748Y0161610D01*
X0139743Y0161671D01*
X0139734Y0161730D01*
X0139721Y0161789D01*
X0139705Y0161848D01*
X0139685Y0161905D01*
X0139662Y0161960D01*
X0139635Y0162015D01*
X0139606Y0162067D01*
X0139573Y0162118D01*
X0139537Y0162167D01*
X0139499Y0162213D01*
X0139457Y0162257D01*
X0139413Y0162299D01*
X0139367Y0162337D01*
X0139318Y0162373D01*
X0139267Y0162406D01*
X0139215Y0162435D01*
X0139160Y0162462D01*
X0139105Y0162485D01*
X0139048Y0162505D01*
X0138989Y0162521D01*
X0138930Y0162534D01*
X0138871Y0162543D01*
X0138810Y0162548D01*
X0138750Y0162550D01*
X0130750Y0162550D01*
X0130690Y0162548D01*
X0130629Y0162543D01*
X0130570Y0162534D01*
X0130511Y0162521D01*
X0130452Y0162505D01*
X0130395Y0162485D01*
X0130340Y0162462D01*
X0130285Y0162435D01*
X0130233Y0162406D01*
X0130182Y0162373D01*
X0130133Y0162337D01*
X0130087Y0162299D01*
X0130043Y0162257D01*
X0130001Y0162213D01*
X0129963Y0162167D01*
X0129927Y0162118D01*
X0129894Y0162067D01*
X0129865Y0162015D01*
X0129838Y0161960D01*
X0129815Y0161905D01*
X0129795Y0161848D01*
X0129779Y0161789D01*
X0129766Y0161730D01*
X0129757Y0161671D01*
X0129752Y0161610D01*
X0129750Y0161550D01*
X0129750Y0144550D01*
X0129752Y0144490D01*
X0129757Y0144429D01*
X0129766Y0144370D01*
X0129779Y0144311D01*
X0129795Y0144252D01*
X0129815Y0144195D01*
X0129838Y0144140D01*
X0129865Y0144085D01*
X0129894Y0144033D01*
X0129927Y0143982D01*
X0129963Y0143933D01*
X0130001Y0143887D01*
X0130043Y0143843D01*
X0130087Y0143801D01*
X0130133Y0143763D01*
X0130182Y0143727D01*
X0130233Y0143694D01*
X0130285Y0143665D01*
X0130340Y0143638D01*
X0130395Y0143615D01*
X0130452Y0143595D01*
X0130511Y0143579D01*
X0130570Y0143566D01*
X0130629Y0143557D01*
X0130690Y0143552D01*
X0130750Y0143550D01*
X0134750Y0151550D02*
X0134750Y0152050D01*
X0134750Y0154050D02*
X0134750Y0154550D01*
X0142000Y0168050D02*
X0125000Y0168050D01*
X0124940Y0168052D01*
X0124879Y0168057D01*
X0124820Y0168066D01*
X0124761Y0168079D01*
X0124702Y0168095D01*
X0124645Y0168115D01*
X0124590Y0168138D01*
X0124535Y0168165D01*
X0124483Y0168194D01*
X0124432Y0168227D01*
X0124383Y0168263D01*
X0124337Y0168301D01*
X0124293Y0168343D01*
X0124251Y0168387D01*
X0124213Y0168433D01*
X0124177Y0168482D01*
X0124144Y0168533D01*
X0124115Y0168585D01*
X0124088Y0168640D01*
X0124065Y0168695D01*
X0124045Y0168752D01*
X0124029Y0168811D01*
X0124016Y0168870D01*
X0124007Y0168929D01*
X0124002Y0168990D01*
X0124000Y0169050D01*
X0124000Y0177050D01*
X0124002Y0177110D01*
X0124007Y0177171D01*
X0124016Y0177230D01*
X0124029Y0177289D01*
X0124045Y0177348D01*
X0124065Y0177405D01*
X0124088Y0177460D01*
X0124115Y0177515D01*
X0124144Y0177567D01*
X0124177Y0177618D01*
X0124213Y0177667D01*
X0124251Y0177713D01*
X0124293Y0177757D01*
X0124337Y0177799D01*
X0124383Y0177837D01*
X0124432Y0177873D01*
X0124483Y0177906D01*
X0124535Y0177935D01*
X0124590Y0177962D01*
X0124645Y0177985D01*
X0124702Y0178005D01*
X0124761Y0178021D01*
X0124820Y0178034D01*
X0124879Y0178043D01*
X0124940Y0178048D01*
X0125000Y0178050D01*
X0142000Y0178050D01*
X0142060Y0178048D01*
X0142121Y0178043D01*
X0142180Y0178034D01*
X0142239Y0178021D01*
X0142298Y0178005D01*
X0142355Y0177985D01*
X0142410Y0177962D01*
X0142465Y0177935D01*
X0142517Y0177906D01*
X0142568Y0177873D01*
X0142617Y0177837D01*
X0142663Y0177799D01*
X0142707Y0177757D01*
X0142749Y0177713D01*
X0142787Y0177667D01*
X0142823Y0177618D01*
X0142856Y0177567D01*
X0142885Y0177515D01*
X0142912Y0177460D01*
X0142935Y0177405D01*
X0142955Y0177348D01*
X0142971Y0177289D01*
X0142984Y0177230D01*
X0142993Y0177171D01*
X0142998Y0177110D01*
X0143000Y0177050D01*
X0143000Y0169050D01*
X0142998Y0168990D01*
X0142993Y0168929D01*
X0142984Y0168870D01*
X0142971Y0168811D01*
X0142955Y0168752D01*
X0142935Y0168695D01*
X0142912Y0168640D01*
X0142885Y0168585D01*
X0142856Y0168533D01*
X0142823Y0168482D01*
X0142787Y0168433D01*
X0142749Y0168387D01*
X0142707Y0168343D01*
X0142663Y0168301D01*
X0142617Y0168263D01*
X0142568Y0168227D01*
X0142517Y0168194D01*
X0142465Y0168165D01*
X0142410Y0168138D01*
X0142355Y0168115D01*
X0142298Y0168095D01*
X0142239Y0168079D01*
X0142180Y0168066D01*
X0142121Y0168057D01*
X0142060Y0168052D01*
X0142000Y0168050D01*
X0146500Y0169050D02*
X0149500Y0166050D01*
X0162500Y0166050D01*
X0165500Y0169050D01*
X0165500Y0193550D01*
X0165498Y0193626D01*
X0165492Y0193702D01*
X0165483Y0193777D01*
X0165469Y0193852D01*
X0165452Y0193926D01*
X0165431Y0193999D01*
X0165407Y0194071D01*
X0165378Y0194142D01*
X0165347Y0194211D01*
X0165312Y0194278D01*
X0165273Y0194343D01*
X0165231Y0194407D01*
X0165186Y0194468D01*
X0165138Y0194527D01*
X0165087Y0194583D01*
X0165033Y0194637D01*
X0164977Y0194688D01*
X0164918Y0194736D01*
X0164857Y0194781D01*
X0164793Y0194823D01*
X0164728Y0194862D01*
X0164661Y0194897D01*
X0164592Y0194928D01*
X0164521Y0194957D01*
X0164449Y0194981D01*
X0164376Y0195002D01*
X0164302Y0195019D01*
X0164227Y0195033D01*
X0164152Y0195042D01*
X0164076Y0195048D01*
X0164000Y0195050D01*
X0148000Y0195050D01*
X0147924Y0195048D01*
X0147848Y0195042D01*
X0147773Y0195033D01*
X0147698Y0195019D01*
X0147624Y0195002D01*
X0147551Y0194981D01*
X0147479Y0194957D01*
X0147408Y0194928D01*
X0147339Y0194897D01*
X0147272Y0194862D01*
X0147207Y0194823D01*
X0147143Y0194781D01*
X0147082Y0194736D01*
X0147023Y0194688D01*
X0146967Y0194637D01*
X0146913Y0194583D01*
X0146862Y0194527D01*
X0146814Y0194468D01*
X0146769Y0194407D01*
X0146727Y0194343D01*
X0146688Y0194278D01*
X0146653Y0194211D01*
X0146622Y0194142D01*
X0146593Y0194071D01*
X0146569Y0193999D01*
X0146548Y0193926D01*
X0146531Y0193852D01*
X0146517Y0193777D01*
X0146508Y0193702D01*
X0146502Y0193626D01*
X0146500Y0193550D01*
X0146500Y0169050D01*
X0150600Y0172250D02*
X0150600Y0174850D01*
X0149400Y0173550D02*
X0151900Y0173550D01*
X0156000Y0174550D02*
X0156000Y0178050D01*
X0151200Y0178050D01*
X0151200Y0180050D01*
X0160800Y0180050D01*
X0160800Y0178050D01*
X0156000Y0178050D01*
X0156000Y0183050D02*
X0156000Y0186550D01*
X0143000Y0185300D02*
X0143000Y0193300D01*
X0142998Y0193360D01*
X0142993Y0193421D01*
X0142984Y0193480D01*
X0142971Y0193539D01*
X0142955Y0193598D01*
X0142935Y0193655D01*
X0142912Y0193710D01*
X0142885Y0193765D01*
X0142856Y0193817D01*
X0142823Y0193868D01*
X0142787Y0193917D01*
X0142749Y0193963D01*
X0142707Y0194007D01*
X0142663Y0194049D01*
X0142617Y0194087D01*
X0142568Y0194123D01*
X0142517Y0194156D01*
X0142465Y0194185D01*
X0142410Y0194212D01*
X0142355Y0194235D01*
X0142298Y0194255D01*
X0142239Y0194271D01*
X0142180Y0194284D01*
X0142121Y0194293D01*
X0142060Y0194298D01*
X0142000Y0194300D01*
X0125000Y0194300D01*
X0124940Y0194298D01*
X0124879Y0194293D01*
X0124820Y0194284D01*
X0124761Y0194271D01*
X0124702Y0194255D01*
X0124645Y0194235D01*
X0124590Y0194212D01*
X0124535Y0194185D01*
X0124483Y0194156D01*
X0124432Y0194123D01*
X0124383Y0194087D01*
X0124337Y0194049D01*
X0124293Y0194007D01*
X0124251Y0193963D01*
X0124213Y0193917D01*
X0124177Y0193868D01*
X0124144Y0193817D01*
X0124115Y0193765D01*
X0124088Y0193710D01*
X0124065Y0193655D01*
X0124045Y0193598D01*
X0124029Y0193539D01*
X0124016Y0193480D01*
X0124007Y0193421D01*
X0124002Y0193360D01*
X0124000Y0193300D01*
X0124000Y0185300D01*
X0124002Y0185240D01*
X0124007Y0185179D01*
X0124016Y0185120D01*
X0124029Y0185061D01*
X0124045Y0185002D01*
X0124065Y0184945D01*
X0124088Y0184890D01*
X0124115Y0184835D01*
X0124144Y0184783D01*
X0124177Y0184732D01*
X0124213Y0184683D01*
X0124251Y0184637D01*
X0124293Y0184593D01*
X0124337Y0184551D01*
X0124383Y0184513D01*
X0124432Y0184477D01*
X0124483Y0184444D01*
X0124535Y0184415D01*
X0124590Y0184388D01*
X0124645Y0184365D01*
X0124702Y0184345D01*
X0124761Y0184329D01*
X0124820Y0184316D01*
X0124879Y0184307D01*
X0124940Y0184302D01*
X0125000Y0184300D01*
X0142000Y0184300D01*
X0142060Y0184302D01*
X0142121Y0184307D01*
X0142180Y0184316D01*
X0142239Y0184329D01*
X0142298Y0184345D01*
X0142355Y0184365D01*
X0142410Y0184388D01*
X0142465Y0184415D01*
X0142517Y0184444D01*
X0142568Y0184477D01*
X0142617Y0184513D01*
X0142663Y0184551D01*
X0142707Y0184593D01*
X0142749Y0184637D01*
X0142787Y0184683D01*
X0142823Y0184732D01*
X0142856Y0184783D01*
X0142885Y0184835D01*
X0142912Y0184890D01*
X0142935Y0184945D01*
X0142955Y0185002D01*
X0142971Y0185061D01*
X0142984Y0185120D01*
X0142993Y0185179D01*
X0142998Y0185240D01*
X0143000Y0185300D01*
X0135000Y0189300D02*
X0134500Y0189300D01*
X0132500Y0189300D02*
X0132000Y0189300D01*
X0132000Y0173050D02*
X0132500Y0173050D01*
X0134500Y0173050D02*
X0135000Y0173050D01*
X0156000Y0151550D02*
X0156000Y0144550D01*
X0156002Y0144490D01*
X0156007Y0144429D01*
X0156016Y0144370D01*
X0156029Y0144311D01*
X0156045Y0144252D01*
X0156065Y0144195D01*
X0156088Y0144140D01*
X0156115Y0144085D01*
X0156144Y0144033D01*
X0156177Y0143982D01*
X0156213Y0143933D01*
X0156251Y0143887D01*
X0156293Y0143843D01*
X0156337Y0143801D01*
X0156383Y0143763D01*
X0156432Y0143727D01*
X0156483Y0143694D01*
X0156535Y0143665D01*
X0156590Y0143638D01*
X0156645Y0143615D01*
X0156702Y0143595D01*
X0156761Y0143579D01*
X0156820Y0143566D01*
X0156879Y0143557D01*
X0156940Y0143552D01*
X0157000Y0143550D01*
X0158500Y0143550D01*
X0159000Y0144050D01*
X0178000Y0144050D01*
X0178500Y0143550D01*
X0180000Y0143550D01*
X0180060Y0143552D01*
X0180121Y0143557D01*
X0180180Y0143566D01*
X0180239Y0143579D01*
X0180298Y0143595D01*
X0180355Y0143615D01*
X0180410Y0143638D01*
X0180465Y0143665D01*
X0180517Y0143694D01*
X0180568Y0143727D01*
X0180617Y0143763D01*
X0180663Y0143801D01*
X0180707Y0143843D01*
X0180749Y0143887D01*
X0180787Y0143933D01*
X0180823Y0143982D01*
X0180856Y0144033D01*
X0180885Y0144085D01*
X0180912Y0144140D01*
X0180935Y0144195D01*
X0180955Y0144252D01*
X0180971Y0144311D01*
X0180984Y0144370D01*
X0180993Y0144429D01*
X0180998Y0144490D01*
X0181000Y0144550D01*
X0181000Y0151550D01*
X0180998Y0151610D01*
X0180993Y0151671D01*
X0180984Y0151730D01*
X0180971Y0151789D01*
X0180955Y0151848D01*
X0180935Y0151905D01*
X0180912Y0151960D01*
X0180885Y0152015D01*
X0180856Y0152067D01*
X0180823Y0152118D01*
X0180787Y0152167D01*
X0180749Y0152213D01*
X0180707Y0152257D01*
X0180663Y0152299D01*
X0180617Y0152337D01*
X0180568Y0152373D01*
X0180517Y0152406D01*
X0180465Y0152435D01*
X0180410Y0152462D01*
X0180355Y0152485D01*
X0180298Y0152505D01*
X0180239Y0152521D01*
X0180180Y0152534D01*
X0180121Y0152543D01*
X0180060Y0152548D01*
X0180000Y0152550D01*
X0178500Y0152550D01*
X0178000Y0152050D01*
X0159000Y0152050D01*
X0158500Y0152550D01*
X0157000Y0152550D01*
X0156940Y0152548D01*
X0156879Y0152543D01*
X0156820Y0152534D01*
X0156761Y0152521D01*
X0156702Y0152505D01*
X0156645Y0152485D01*
X0156590Y0152462D01*
X0156535Y0152435D01*
X0156483Y0152406D01*
X0156432Y0152373D01*
X0156383Y0152337D01*
X0156337Y0152299D01*
X0156293Y0152257D01*
X0156251Y0152213D01*
X0156213Y0152167D01*
X0156177Y0152118D01*
X0156144Y0152067D01*
X0156115Y0152015D01*
X0156088Y0151960D01*
X0156065Y0151905D01*
X0156045Y0151848D01*
X0156029Y0151789D01*
X0156016Y0151730D01*
X0156007Y0151671D01*
X0156002Y0151610D01*
X0156000Y0151550D01*
X0175000Y0186800D02*
X0175002Y0186952D01*
X0175008Y0187103D01*
X0175017Y0187254D01*
X0175031Y0187406D01*
X0175048Y0187556D01*
X0175069Y0187706D01*
X0175094Y0187856D01*
X0175122Y0188005D01*
X0175155Y0188153D01*
X0175191Y0188300D01*
X0175230Y0188447D01*
X0175274Y0188592D01*
X0175321Y0188736D01*
X0175372Y0188879D01*
X0175426Y0189020D01*
X0175484Y0189161D01*
X0175545Y0189299D01*
X0175610Y0189436D01*
X0175679Y0189572D01*
X0175750Y0189705D01*
X0175825Y0189837D01*
X0175904Y0189967D01*
X0175985Y0190094D01*
X0176070Y0190220D01*
X0176158Y0190344D01*
X0176249Y0190465D01*
X0176343Y0190584D01*
X0176441Y0190700D01*
X0176541Y0190814D01*
X0176643Y0190926D01*
X0176749Y0191034D01*
X0176857Y0191140D01*
X0176968Y0191244D01*
X0177082Y0191344D01*
X0177198Y0191442D01*
X0177317Y0191536D01*
X0187000Y0186800D02*
X0186998Y0186646D01*
X0186992Y0186492D01*
X0186982Y0186338D01*
X0186968Y0186184D01*
X0186951Y0186031D01*
X0186929Y0185879D01*
X0186903Y0185727D01*
X0186874Y0185575D01*
X0186840Y0185425D01*
X0186803Y0185275D01*
X0186762Y0185127D01*
X0186717Y0184979D01*
X0186668Y0184833D01*
X0186616Y0184688D01*
X0186560Y0184545D01*
X0186500Y0184402D01*
X0186437Y0184262D01*
X0186370Y0184123D01*
X0186299Y0183986D01*
X0186225Y0183851D01*
X0186148Y0183718D01*
X0186067Y0183586D01*
X0185983Y0183457D01*
X0185895Y0183330D01*
X0185804Y0183206D01*
X0185711Y0183084D01*
X0185613Y0182964D01*
X0185513Y0182847D01*
X0185410Y0182732D01*
X0185304Y0182620D01*
X0185196Y0182511D01*
X0185084Y0182405D01*
X0184970Y0182301D01*
X0184853Y0182201D01*
X0184734Y0182103D01*
X0184612Y0182009D01*
X0184487Y0181918D01*
X0187000Y0186800D02*
X0186998Y0186950D01*
X0186992Y0187101D01*
X0186983Y0187251D01*
X0186970Y0187400D01*
X0186953Y0187550D01*
X0186932Y0187699D01*
X0186908Y0187847D01*
X0186880Y0187995D01*
X0186848Y0188142D01*
X0186813Y0188288D01*
X0186773Y0188433D01*
X0186731Y0188577D01*
X0186684Y0188720D01*
X0186634Y0188862D01*
X0186581Y0189003D01*
X0186524Y0189142D01*
X0186464Y0189280D01*
X0186400Y0189416D01*
X0186333Y0189550D01*
X0186262Y0189683D01*
X0186188Y0189814D01*
X0186111Y0189943D01*
X0186030Y0190070D01*
X0185947Y0190195D01*
X0185860Y0190318D01*
X0185771Y0190439D01*
X0185678Y0190557D01*
X0185582Y0190673D01*
X0185484Y0190787D01*
X0185383Y0190898D01*
X0185278Y0191007D01*
X0185172Y0191112D01*
X0185062Y0191216D01*
X0184950Y0191316D01*
X0184836Y0191414D01*
X0184719Y0191508D01*
X0184600Y0191600D01*
X0175000Y0186800D02*
X0175002Y0186648D01*
X0175008Y0186497D01*
X0175017Y0186346D01*
X0175031Y0186194D01*
X0175048Y0186044D01*
X0175069Y0185894D01*
X0175094Y0185744D01*
X0175122Y0185595D01*
X0175155Y0185447D01*
X0175191Y0185300D01*
X0175230Y0185153D01*
X0175274Y0185008D01*
X0175321Y0184864D01*
X0175372Y0184721D01*
X0175426Y0184580D01*
X0175484Y0184439D01*
X0175545Y0184301D01*
X0175610Y0184164D01*
X0175679Y0184028D01*
X0175750Y0183895D01*
X0175825Y0183763D01*
X0175904Y0183633D01*
X0175985Y0183506D01*
X0176070Y0183380D01*
X0176158Y0183256D01*
X0176249Y0183135D01*
X0176343Y0183016D01*
X0176441Y0182900D01*
X0176541Y0182786D01*
X0176643Y0182674D01*
X0176749Y0182566D01*
X0176857Y0182460D01*
X0176968Y0182356D01*
X0177082Y0182256D01*
X0177198Y0182158D01*
X0177317Y0182064D01*
D15*
X0165919Y0164353D02*
X0163517Y0164353D01*
X0163517Y0160750D01*
X0162236Y0160750D02*
X0162236Y0163152D01*
X0163517Y0162552D02*
X0164718Y0162552D01*
X0162236Y0160750D02*
X0160434Y0160750D01*
X0159834Y0161351D01*
X0159834Y0163152D01*
X0158553Y0163753D02*
X0158553Y0161351D01*
X0157952Y0160750D01*
X0156751Y0160750D01*
X0156151Y0161351D01*
X0158553Y0163753D01*
X0157952Y0164353D01*
X0156751Y0164353D01*
X0156151Y0163753D01*
X0156151Y0161351D01*
X0154869Y0160750D02*
X0152467Y0160750D01*
X0153668Y0160750D02*
X0153668Y0164353D01*
X0152467Y0163152D01*
X0144993Y0142103D02*
X0142591Y0142103D01*
X0142591Y0138500D01*
X0141310Y0138500D02*
X0141310Y0140902D01*
X0142591Y0140302D02*
X0143792Y0140302D01*
X0141310Y0138500D02*
X0139508Y0138500D01*
X0138908Y0139101D01*
X0138908Y0140902D01*
X0137627Y0138500D02*
X0135225Y0138500D01*
X0136426Y0138500D02*
X0136426Y0142103D01*
X0135225Y0140902D01*
X0133984Y0139101D02*
X0133984Y0138500D01*
X0133383Y0138500D01*
X0133383Y0139101D01*
X0133984Y0139101D01*
X0132102Y0139101D02*
X0131502Y0138500D01*
X0130301Y0138500D01*
X0129700Y0139101D01*
X0132102Y0141503D01*
X0132102Y0139101D01*
X0132102Y0141503D02*
X0131502Y0142103D01*
X0130301Y0142103D01*
X0129700Y0141503D01*
X0129700Y0139101D01*
X0082400Y0172000D02*
X0079331Y0172000D01*
X0079331Y0176604D01*
X0082400Y0176604D01*
X0080866Y0174302D02*
X0079331Y0174302D01*
X0077796Y0175837D02*
X0077029Y0176604D01*
X0074727Y0176604D01*
X0074727Y0172000D01*
X0077029Y0172000D01*
X0077796Y0172767D01*
X0077796Y0175837D01*
X0073192Y0176604D02*
X0071658Y0176604D01*
X0072425Y0176604D02*
X0072425Y0172000D01*
X0071658Y0172000D02*
X0073192Y0172000D01*
X0070123Y0172000D02*
X0067054Y0172000D01*
X0067054Y0176604D01*
X0065519Y0175837D02*
X0064752Y0176604D01*
X0063217Y0176604D01*
X0062450Y0175837D01*
X0062450Y0175069D01*
X0063217Y0174302D01*
X0064752Y0174302D01*
X0065519Y0173535D01*
X0065519Y0172767D01*
X0064752Y0172000D01*
X0063217Y0172000D01*
X0062450Y0172767D01*
X0059585Y0010103D02*
X0057183Y0010103D01*
X0058384Y0010103D02*
X0058384Y0006500D01*
X0055901Y0006500D02*
X0053499Y0006500D01*
X0053499Y0010103D01*
X0055901Y0010103D01*
X0054700Y0008302D02*
X0053499Y0008302D01*
X0052218Y0007701D02*
X0052218Y0007101D01*
X0051618Y0006500D01*
X0050417Y0006500D01*
X0049816Y0007101D01*
X0050417Y0008302D02*
X0051618Y0008302D01*
X0052218Y0007701D01*
X0052218Y0009503D02*
X0051618Y0010103D01*
X0050417Y0010103D01*
X0049816Y0009503D01*
X0049816Y0008902D01*
X0050417Y0008302D01*
X0048535Y0010103D02*
X0046133Y0010103D01*
X0046133Y0006500D01*
X0048535Y0006500D01*
X0047334Y0008302D02*
X0046133Y0008302D01*
X0044852Y0008302D02*
X0044252Y0007701D01*
X0042450Y0007701D01*
X0042450Y0006500D02*
X0042450Y0010103D01*
X0044252Y0010103D01*
X0044852Y0009503D01*
X0044852Y0008302D01*
X0043651Y0007701D02*
X0044852Y0006500D01*
X0087450Y0005851D02*
X0088051Y0005250D01*
X0089252Y0005250D01*
X0089852Y0005851D01*
X0089852Y0008853D01*
X0091133Y0008253D02*
X0091133Y0007652D01*
X0091734Y0007052D01*
X0092935Y0007052D01*
X0093535Y0006451D01*
X0093535Y0005851D01*
X0092935Y0005250D01*
X0091734Y0005250D01*
X0091133Y0005851D01*
X0091133Y0008253D02*
X0091734Y0008853D01*
X0092935Y0008853D01*
X0093535Y0008253D01*
X0094816Y0008853D02*
X0094816Y0005250D01*
X0097218Y0005250D01*
X0098499Y0005250D02*
X0098499Y0008853D01*
X0100301Y0008853D01*
X0100901Y0008253D01*
X0100901Y0007052D01*
X0100301Y0006451D01*
X0098499Y0006451D01*
X0099700Y0006451D02*
X0100901Y0005250D01*
X0097218Y0008853D02*
X0094816Y0008853D01*
X0094816Y0007052D02*
X0096017Y0007052D01*
X0087450Y0005851D02*
X0087450Y0008853D01*
D16*
X0143000Y0081800D03*
D17*
X0156000Y0182550D03*
D18*
X0154300Y0148050D03*
X0182700Y0148050D03*
X0175200Y0016800D03*
X0146800Y0016800D03*
D19*
X0043500Y0038850D03*
X0028500Y0038850D03*
X0028500Y0067250D03*
X0043500Y0067250D03*
D20*
X0097645Y0069300D02*
X0098696Y0068249D01*
X0097645Y0069300D02*
X0097645Y0071402D01*
X0098696Y0072453D01*
X0099746Y0072453D01*
X0103950Y0068249D01*
X0103950Y0072453D01*
X0103950Y0074695D02*
X0097645Y0074695D01*
X0099746Y0076797D01*
X0097645Y0078898D01*
X0103950Y0078898D01*
X0103950Y0081140D02*
X0097645Y0085344D01*
X0098696Y0087586D02*
X0097645Y0088637D01*
X0097645Y0090739D01*
X0098696Y0091789D01*
X0099746Y0091789D01*
X0103950Y0087586D01*
X0103950Y0091789D01*
X0102899Y0094031D02*
X0103950Y0095082D01*
X0103950Y0097184D01*
X0102899Y0098235D01*
X0100797Y0098235D01*
X0099746Y0097184D01*
X0099746Y0096133D01*
X0100797Y0094031D01*
X0097645Y0094031D01*
X0097645Y0098235D01*
X0098696Y0100477D02*
X0097645Y0101528D01*
X0097645Y0103630D01*
X0098696Y0104680D01*
X0102899Y0100477D01*
X0103950Y0101528D01*
X0103950Y0103630D01*
X0102899Y0104680D01*
X0098696Y0104680D01*
X0097645Y0106922D02*
X0097645Y0111126D01*
X0099746Y0113368D02*
X0097645Y0115470D01*
X0103950Y0115470D01*
X0103950Y0117571D02*
X0103950Y0113368D01*
X0100797Y0109024D02*
X0100797Y0106922D01*
X0097645Y0106922D02*
X0103950Y0106922D01*
X0102899Y0100477D02*
X0098696Y0100477D01*
X0103950Y0085344D02*
X0097645Y0081140D01*
X0098696Y0066007D02*
X0099746Y0066007D01*
X0100797Y0064957D01*
X0101848Y0066007D01*
X0102899Y0066007D01*
X0103950Y0064957D01*
X0103950Y0062855D01*
X0102899Y0061804D01*
X0102899Y0059562D02*
X0103950Y0058511D01*
X0103950Y0056409D01*
X0102899Y0055358D01*
X0098696Y0055358D01*
X0097645Y0056409D01*
X0097645Y0058511D01*
X0098696Y0059562D01*
X0098696Y0061804D02*
X0097645Y0062855D01*
X0097645Y0064957D01*
X0098696Y0066007D01*
X0100797Y0064957D02*
X0100797Y0063906D01*
X0097645Y0053163D02*
X0097645Y0051061D01*
X0097645Y0052112D02*
X0103950Y0052112D01*
X0103950Y0051061D02*
X0103950Y0053163D01*
X0100797Y0048819D02*
X0098696Y0048819D01*
X0097645Y0047769D01*
X0097645Y0044616D01*
X0103950Y0044616D01*
X0101848Y0044616D02*
X0101848Y0047769D01*
X0100797Y0048819D01*
X0098696Y0119813D02*
X0097645Y0120864D01*
X0097645Y0122966D01*
X0098696Y0124017D01*
X0099746Y0124017D01*
X0103950Y0119813D01*
X0103950Y0124017D01*
X0102899Y0126259D02*
X0101848Y0126259D01*
X0100797Y0127310D01*
X0100797Y0129412D01*
X0101848Y0130462D01*
X0102899Y0130462D01*
X0103950Y0129412D01*
X0103950Y0127310D01*
X0102899Y0126259D01*
X0100797Y0127310D02*
X0099746Y0126259D01*
X0098696Y0126259D01*
X0097645Y0127310D01*
X0097645Y0129412D01*
X0098696Y0130462D01*
X0099746Y0130462D01*
X0100797Y0129412D01*
X0100797Y0132704D02*
X0100797Y0135857D01*
X0101848Y0136908D01*
X0102899Y0136908D01*
X0103950Y0135857D01*
X0103950Y0132704D01*
X0097645Y0132704D01*
X0097645Y0135857D01*
X0098696Y0136908D01*
X0099746Y0136908D01*
X0100797Y0135857D01*
D21*
X0082929Y0178335D02*
X0082929Y0195265D01*
X0049071Y0195265D01*
X0049071Y0178335D01*
X0082929Y0178335D01*
X0073874Y0196643D02*
X0073874Y0202548D01*
X0071906Y0202548D01*
X0069937Y0200580D01*
X0067969Y0202548D01*
X0066000Y0202548D01*
X0066000Y0196643D01*
D22*
X0068500Y0091800D02*
X0066000Y0089300D01*
X0066000Y0064300D01*
X0068500Y0061800D01*
X0073500Y0061800D01*
X0076000Y0064300D01*
X0076000Y0089300D01*
X0073500Y0091800D01*
X0068500Y0091800D01*
X0039750Y0026800D02*
X0019750Y0026800D01*
X0017250Y0021800D01*
X0014750Y0019300D01*
X0014750Y0014300D01*
X0017250Y0011800D01*
X0019750Y0006800D01*
X0039750Y0006800D01*
X0042250Y0011800D01*
X0044750Y0014300D01*
X0044750Y0019300D01*
X0042250Y0021800D01*
X0039750Y0026800D01*
X0059750Y0018050D02*
X0059750Y0013050D01*
X0062250Y0010550D01*
X0064750Y0005550D01*
X0084750Y0005550D01*
X0087250Y0010550D01*
X0089750Y0013050D01*
X0089750Y0018050D01*
X0087250Y0020550D01*
X0084750Y0025550D01*
X0064750Y0025550D01*
X0062250Y0020550D01*
X0059750Y0018050D01*
M02*
