G75*
%MOIN*%
%OFA0B0*%
%FSLAX25Y25*%
%IPPOS*%
%LPD*%
%AMOC8*
5,1,8,0,0,1.08239X$1,22.5*
%
%ADD10C,0.00000*%
%ADD11C,0.00300*%
%ADD12C,0.00500*%
D10*
X0001000Y0001800D02*
X0001000Y0198650D01*
X0197850Y0198650D01*
X0197850Y0001800D01*
X0001000Y0001800D01*
D11*
X0011474Y0066950D02*
X0011024Y0067400D01*
X0011024Y0069202D01*
X0011474Y0069652D01*
X0012825Y0069652D01*
X0012825Y0066950D01*
X0011474Y0066950D01*
X0013786Y0066950D02*
X0013786Y0069652D01*
X0015588Y0069652D02*
X0013786Y0066950D01*
X0015588Y0066950D02*
X0015588Y0069652D01*
X0016548Y0069202D02*
X0016999Y0069652D01*
X0017900Y0069652D01*
X0018350Y0069202D01*
X0018350Y0067400D01*
X0017900Y0066950D01*
X0016999Y0066950D01*
X0016548Y0067400D01*
X0016548Y0068301D01*
X0017449Y0068301D01*
X0016999Y0076950D02*
X0017900Y0076950D01*
X0018350Y0077400D01*
X0017449Y0078301D02*
X0016999Y0078301D01*
X0016548Y0077851D01*
X0016548Y0077400D01*
X0016999Y0076950D01*
X0016999Y0078301D02*
X0016548Y0078752D01*
X0016548Y0079202D01*
X0016999Y0079652D01*
X0017900Y0079652D01*
X0018350Y0079202D01*
X0015588Y0079652D02*
X0015588Y0077851D01*
X0014687Y0076950D01*
X0013786Y0077851D01*
X0013786Y0079652D01*
X0012825Y0079202D02*
X0012375Y0079652D01*
X0011474Y0079652D01*
X0011024Y0079202D01*
X0011024Y0078752D01*
X0011474Y0078301D01*
X0011024Y0077851D01*
X0011024Y0077400D01*
X0011474Y0076950D01*
X0012375Y0076950D01*
X0012825Y0077400D01*
X0011925Y0078301D02*
X0011474Y0078301D01*
X0011937Y0086950D02*
X0011487Y0087400D01*
X0011487Y0089202D01*
X0011937Y0089652D01*
X0013288Y0089652D01*
X0013288Y0086950D01*
X0011937Y0086950D01*
X0014249Y0086950D02*
X0016051Y0086950D01*
X0016051Y0089652D01*
X0014249Y0089652D01*
X0015150Y0088301D02*
X0016051Y0088301D01*
X0017011Y0086950D02*
X0018813Y0086950D01*
X0018813Y0089652D01*
X0019774Y0089652D02*
X0021575Y0086950D01*
X0022987Y0086950D02*
X0022987Y0089652D01*
X0024338Y0088301D01*
X0022536Y0088301D01*
X0025298Y0088301D02*
X0027100Y0088301D01*
X0027100Y0088752D02*
X0026199Y0089652D01*
X0025298Y0088752D01*
X0025298Y0086950D01*
X0027100Y0086950D02*
X0027100Y0088752D01*
X0028249Y0096950D02*
X0027798Y0097400D01*
X0027798Y0097851D01*
X0028249Y0098301D01*
X0029600Y0098301D01*
X0029600Y0096950D02*
X0029600Y0099652D01*
X0028249Y0099652D01*
X0027798Y0099202D01*
X0027798Y0098752D01*
X0028249Y0098301D01*
X0028249Y0096950D02*
X0029600Y0096950D01*
X0026838Y0098301D02*
X0025036Y0098301D01*
X0025487Y0096950D02*
X0025487Y0099652D01*
X0026838Y0098301D01*
X0024075Y0096950D02*
X0022274Y0099652D01*
X0021313Y0099652D02*
X0021313Y0097400D01*
X0020863Y0096950D01*
X0019962Y0096950D01*
X0019511Y0097400D01*
X0019511Y0099652D01*
X0018551Y0099202D02*
X0018551Y0098752D01*
X0018100Y0098301D01*
X0017199Y0098301D01*
X0016749Y0097851D01*
X0016749Y0097400D01*
X0017199Y0096950D01*
X0018100Y0096950D01*
X0018551Y0097400D01*
X0018551Y0099202D02*
X0018100Y0099652D01*
X0017199Y0099652D01*
X0016749Y0099202D01*
X0015788Y0099652D02*
X0015788Y0096950D01*
X0013987Y0096950D01*
X0013026Y0096950D02*
X0013026Y0099652D01*
X0011675Y0099652D01*
X0011224Y0099202D01*
X0011224Y0098301D01*
X0011675Y0097851D01*
X0013026Y0097851D01*
X0012125Y0097851D02*
X0011224Y0096950D01*
X0013987Y0099652D02*
X0015788Y0099652D01*
X0015788Y0098301D02*
X0014887Y0098301D01*
X0014499Y0106950D02*
X0015850Y0106950D01*
X0015850Y0109652D01*
X0014499Y0109652D01*
X0014048Y0109202D01*
X0014048Y0108752D01*
X0014499Y0108301D01*
X0015850Y0108301D01*
X0014499Y0108301D02*
X0014048Y0107851D01*
X0014048Y0107400D01*
X0014499Y0106950D01*
X0013088Y0107400D02*
X0012637Y0106950D01*
X0011737Y0106950D01*
X0011286Y0107400D01*
X0011286Y0107851D01*
X0011737Y0108301D01*
X0012187Y0108301D01*
X0011737Y0108301D02*
X0011286Y0108752D01*
X0011286Y0109202D01*
X0011737Y0109652D01*
X0012637Y0109652D01*
X0013088Y0109202D01*
X0013088Y0115700D02*
X0011286Y0115700D01*
X0011286Y0117502D02*
X0011286Y0117952D01*
X0011737Y0118402D01*
X0012637Y0118402D01*
X0013088Y0117952D01*
X0014048Y0117952D02*
X0014048Y0117502D01*
X0014499Y0117051D01*
X0015850Y0117051D01*
X0015850Y0115700D02*
X0015850Y0118402D01*
X0014499Y0118402D01*
X0014048Y0117952D01*
X0014499Y0117051D02*
X0014048Y0116601D01*
X0014048Y0116150D01*
X0014499Y0115700D01*
X0015850Y0115700D01*
X0013088Y0115700D02*
X0011286Y0117502D01*
X0011286Y0126950D02*
X0013088Y0126950D01*
X0012187Y0126950D02*
X0012187Y0129652D01*
X0013088Y0128752D01*
X0014048Y0128752D02*
X0014048Y0126950D01*
X0014048Y0128301D02*
X0015850Y0128301D01*
X0015850Y0128752D02*
X0015850Y0126950D01*
X0015850Y0128752D02*
X0014949Y0129652D01*
X0014048Y0128752D01*
X0014048Y0135700D02*
X0014048Y0137502D01*
X0014949Y0138402D01*
X0015850Y0137502D01*
X0015850Y0135700D01*
X0015850Y0137051D02*
X0014048Y0137051D01*
X0013088Y0136150D02*
X0011286Y0137952D01*
X0011286Y0136150D01*
X0011737Y0135700D01*
X0012637Y0135700D01*
X0013088Y0136150D01*
X0013088Y0137952D01*
X0012637Y0138402D01*
X0011737Y0138402D01*
X0011286Y0137952D01*
X0178786Y0078402D02*
X0178786Y0076601D01*
X0179687Y0075700D01*
X0180588Y0076601D01*
X0180588Y0078402D01*
X0181548Y0078402D02*
X0183350Y0078402D01*
X0183350Y0077051D01*
X0182449Y0077502D01*
X0181999Y0077502D01*
X0181548Y0077051D01*
X0181548Y0076150D01*
X0181999Y0075700D01*
X0182900Y0075700D01*
X0183350Y0076150D01*
X0182536Y0068402D02*
X0182536Y0065700D01*
X0184338Y0068402D01*
X0184338Y0065700D01*
X0185298Y0066150D02*
X0185298Y0067051D01*
X0186199Y0067051D01*
X0185298Y0066150D02*
X0185749Y0065700D01*
X0186650Y0065700D01*
X0187100Y0066150D01*
X0187100Y0067952D01*
X0186650Y0068402D01*
X0185749Y0068402D01*
X0185298Y0067952D01*
X0181575Y0068402D02*
X0181575Y0065700D01*
X0180224Y0065700D01*
X0179774Y0066150D01*
X0179774Y0067952D01*
X0180224Y0068402D01*
X0181575Y0068402D01*
X0183088Y0085700D02*
X0183088Y0086150D01*
X0181286Y0087952D01*
X0181286Y0088402D01*
X0183088Y0088402D01*
X0184048Y0087952D02*
X0184048Y0087502D01*
X0184499Y0087051D01*
X0185850Y0087051D01*
X0185850Y0085700D02*
X0184499Y0085700D01*
X0184048Y0086150D01*
X0184048Y0086601D01*
X0184499Y0087051D01*
X0184048Y0087952D02*
X0184499Y0088402D01*
X0185850Y0088402D01*
X0185850Y0085700D01*
X0185850Y0095700D02*
X0184499Y0095700D01*
X0184048Y0096150D01*
X0184048Y0096601D01*
X0184499Y0097051D01*
X0185850Y0097051D01*
X0185850Y0095700D02*
X0185850Y0098402D01*
X0184499Y0098402D01*
X0184048Y0097952D01*
X0184048Y0097502D01*
X0184499Y0097051D01*
X0183088Y0096601D02*
X0182637Y0097051D01*
X0181737Y0097051D01*
X0181286Y0096601D01*
X0181286Y0096150D01*
X0181737Y0095700D01*
X0182637Y0095700D01*
X0183088Y0096150D01*
X0183088Y0096601D01*
X0182637Y0097051D02*
X0183088Y0097502D01*
X0183088Y0097952D01*
X0182637Y0098402D01*
X0181737Y0098402D01*
X0181286Y0097952D01*
X0181286Y0097502D01*
X0181737Y0097051D01*
X0181737Y0105700D02*
X0181286Y0106150D01*
X0181286Y0107952D01*
X0181737Y0108402D01*
X0182637Y0108402D01*
X0183088Y0107952D01*
X0183088Y0107502D01*
X0182637Y0107051D01*
X0181286Y0107051D01*
X0181737Y0105700D02*
X0182637Y0105700D01*
X0183088Y0106150D01*
X0184048Y0106150D02*
X0184048Y0106601D01*
X0184499Y0107051D01*
X0185850Y0107051D01*
X0185850Y0105700D02*
X0184499Y0105700D01*
X0184048Y0106150D01*
X0184499Y0107051D02*
X0184048Y0107502D01*
X0184048Y0107952D01*
X0184499Y0108402D01*
X0185850Y0108402D01*
X0185850Y0105700D01*
X0185588Y0115700D02*
X0183786Y0115700D01*
X0184687Y0115700D02*
X0184687Y0118402D01*
X0185588Y0117502D01*
X0186548Y0117502D02*
X0186999Y0117051D01*
X0188350Y0117051D01*
X0188350Y0115700D02*
X0188350Y0118402D01*
X0186999Y0118402D01*
X0186548Y0117952D01*
X0186548Y0117502D01*
X0186999Y0117051D02*
X0186548Y0116601D01*
X0186548Y0116150D01*
X0186999Y0115700D01*
X0188350Y0115700D01*
X0182825Y0116150D02*
X0182375Y0115700D01*
X0181474Y0115700D01*
X0181024Y0116150D01*
X0181024Y0116601D01*
X0181474Y0117051D01*
X0181925Y0117051D01*
X0181474Y0117051D02*
X0181024Y0117502D01*
X0181024Y0117952D01*
X0181474Y0118402D01*
X0182375Y0118402D01*
X0182825Y0117952D01*
X0183786Y0125700D02*
X0185588Y0125700D01*
X0184687Y0125700D02*
X0184687Y0128402D01*
X0185588Y0127502D01*
X0186548Y0127502D02*
X0186999Y0127051D01*
X0188350Y0127051D01*
X0188350Y0125700D02*
X0188350Y0128402D01*
X0186999Y0128402D01*
X0186548Y0127952D01*
X0186548Y0127502D01*
X0186999Y0127051D02*
X0186548Y0126601D01*
X0186548Y0126150D01*
X0186999Y0125700D01*
X0188350Y0125700D01*
X0182825Y0127051D02*
X0181024Y0127051D01*
X0181474Y0125700D02*
X0181474Y0128402D01*
X0182825Y0127051D01*
X0182375Y0135700D02*
X0182825Y0136150D01*
X0182375Y0135700D02*
X0181474Y0135700D01*
X0181024Y0136150D01*
X0181024Y0137051D01*
X0181474Y0137502D01*
X0181925Y0137502D01*
X0182825Y0137051D01*
X0182825Y0138402D01*
X0181024Y0138402D01*
X0184687Y0138402D02*
X0184687Y0135700D01*
X0185588Y0135700D02*
X0183786Y0135700D01*
X0185588Y0137502D02*
X0184687Y0138402D01*
X0186548Y0137952D02*
X0186548Y0137502D01*
X0186999Y0137051D01*
X0188350Y0137051D01*
X0188350Y0135700D02*
X0188350Y0138402D01*
X0186999Y0138402D01*
X0186548Y0137952D01*
X0186999Y0137051D02*
X0186548Y0136601D01*
X0186548Y0136150D01*
X0186999Y0135700D01*
X0188350Y0135700D01*
D12*
X0038854Y0158631D02*
X0038854Y0194064D01*
X0008146Y0194064D01*
X0008146Y0158631D01*
X0038854Y0158631D01*
X0026453Y0172410D02*
X0020547Y0172410D01*
X0018579Y0192095D01*
X0015626Y0192095D02*
X0017594Y0174379D01*
X0009720Y0174379D02*
X0011689Y0192095D01*
X0015626Y0192095D01*
X0028421Y0192095D02*
X0026453Y0172410D01*
X0029406Y0176347D02*
X0031374Y0192095D01*
X0035311Y0192095D01*
X0037280Y0176347D01*
M02*
